<svg width="12" height="12" viewBox="0 0 12 12" xmlns="http://www.w3.org/2000/svg">
<path d="M8.7 0.364258C10.5228 0.364258 12 1.85074 12 3.93183C12 8.09399 7.5 10.4724 6 11.3643C4.5 10.4724 0 8.09399 0 3.93183C0 1.85074 1.5 0.364258 3.3 0.364258C4.416 0.364258 5.4 0.958852 6 1.55345C6.6 0.958852 7.584 0.364258 8.7 0.364258ZM6.5604 9.64231C7.089 9.31172 7.566 8.98291 8.0124 8.63091C9.801 7.22172 10.8 5.68172 10.8 3.93183C10.8 2.52858 9.8778 1.55345 8.7 1.55345C8.0544 1.55345 7.356 1.89237 6.8484 2.3942L6 3.23496L5.1516 2.3942C4.644 1.89237 3.9456 1.55345 3.3 1.55345C2.136 1.55345 1.2 2.5381 1.2 3.93183C1.2 5.68231 2.1996 7.22172 3.987 8.63091C4.434 8.98291 4.911 9.31172 5.4396 9.64172C5.619 9.7541 5.7966 9.86172 6 9.98182C6.2034 9.86172 6.381 9.7541 6.5604 9.64231Z" fill="currentColor"/>
</svg>
