<svg width="31" height="26" viewBox="0 0 31 26" xmlns="http://www.w3.org/2000/svg">
<path d="M1.90056 11.3231C1.90056 11.3231 15.6111 5.61558 20.3662 3.60583C22.189 2.802 28.3706 0.229512 28.3706 0.229512C28.3706 0.229512 31.2237 -0.895852 30.9859 1.83729C30.9066 2.96276 30.2726 6.90171 29.6387 11.1623C28.6876 17.1914 27.6573 23.7832 27.6573 23.7832C27.6573 23.7832 27.4988 25.6322 26.1516 25.9537C24.8043 26.2752 22.5852 24.8283 22.189 24.5067C21.8719 24.2656 16.2451 20.6481 14.1846 18.8795C13.6298 18.3972 12.9958 17.4326 14.2638 16.3072C17.1169 13.6543 20.5247 10.3585 22.5852 8.26839C23.5363 7.30368 24.4872 5.05284 20.5247 7.78598C14.8978 11.725 9.35022 15.4229 9.35022 15.4229C9.35022 15.4229 8.08216 16.2267 5.70464 15.5032C3.327 14.7798 0.553193 13.8151 0.553193 13.8151C0.553193 13.8151 -1.34874 12.6093 1.90056 11.3231Z" fill="currentColor"/>
</svg>
