<svg width="865" height="865" viewBox="0 0 865 865" fill="none" xmlns="http://www.w3.org/2000/svg">
<mask id="mask0_1_8111" style="mask-type:alpha" maskUnits="userSpaceOnUse" x="347" y="133" width="313" height="310">
<rect x="432.326" y="133.161" width="242.925" height="239.117" transform="rotate(20.6609 432.326 133.161)" fill="#D9D9D9"/>
</mask>
<g mask="url(#mask0_1_8111)">
<path d="M455.802 294.518L421.27 336.616L466.655 346.771L455.802 294.518Z" fill="#FF4B39"/>
<path d="M421.192 336.965L466.575 347.127C466.634 347.138 466.695 347.137 466.751 347.12C466.81 347.102 466.861 347.071 466.903 347.03C466.945 346.987 466.977 346.935 466.994 346.878C467.011 346.821 467.012 346.76 466.999 346.702L456.154 294.451C456.138 294.384 456.107 294.324 456.059 294.276C456.011 294.228 455.952 294.194 455.886 294.179C455.821 294.162 455.753 294.165 455.69 294.186C455.628 294.207 455.571 294.245 455.529 294.296L420.99 336.401C420.953 336.447 420.926 336.504 420.917 336.563C420.907 336.624 420.912 336.685 420.931 336.743C420.951 336.8 420.986 336.85 421.032 336.891C421.078 336.932 421.132 336.958 421.19 336.971L421.192 336.965ZM466.189 346.308L421.912 336.394L455.608 295.323L466.189 346.308Z" fill="#045C80"/>
<path d="M455.802 294.518L443.255 290.649L408.583 332.73L421.27 336.616L455.802 294.518Z" fill="#FF4B39"/>
<path d="M421.192 336.965C421.258 336.98 421.325 336.977 421.387 336.956C421.45 336.936 421.505 336.898 421.549 336.847L456.081 294.742C456.119 294.698 456.147 294.645 456.16 294.588C456.173 294.53 456.17 294.471 456.154 294.414C456.136 294.358 456.107 294.308 456.063 294.266C456.022 294.225 455.972 294.195 455.915 294.178L443.365 290.293C443.297 290.272 443.224 290.272 443.157 290.292C443.09 290.312 443.028 290.351 442.981 290.405L408.309 332.487C408.271 332.531 408.245 332.584 408.232 332.64C408.219 332.698 408.22 332.757 408.236 332.813C408.252 332.869 408.282 332.923 408.324 332.965C408.365 333.006 408.417 333.038 408.473 333.057L421.16 336.944L421.192 336.965ZM455.191 294.703L421.15 336.21L409.202 332.547L443.356 291.052L455.191 294.703Z" fill="#045C80"/>
<g opacity="0.5">
<path d="M455.802 294.519L443.256 290.649L408.583 332.731L421.27 336.616L455.802 294.519Z" fill="#045C80"/>
<path d="M421.192 336.965C421.258 336.98 421.325 336.977 421.387 336.956C421.45 336.936 421.505 336.898 421.549 336.847L456.081 294.742C456.119 294.698 456.147 294.645 456.16 294.588C456.173 294.53 456.17 294.471 456.154 294.414C456.136 294.358 456.107 294.308 456.063 294.266C456.022 294.225 455.972 294.195 455.915 294.178L443.365 290.293C443.297 290.272 443.224 290.272 443.157 290.292C443.09 290.312 443.028 290.351 442.981 290.405L408.309 332.487C408.271 332.531 408.245 332.584 408.232 332.64C408.219 332.698 408.22 332.757 408.236 332.813C408.252 332.869 408.282 332.923 408.324 332.965C408.365 333.006 408.417 333.038 408.473 333.057L421.16 336.944L421.192 336.965ZM455.191 294.703L421.15 336.21L409.202 332.547L443.356 291.052L455.191 294.703Z" fill="#045C80"/>
</g>
<path d="M488.498 184.057L445.609 173.606L435.426 219.087L478.569 229.778L488.498 184.057Z" fill="#007EA4"/>
<path d="M478.486 230.147C478.577 230.168 478.671 230.152 478.751 230.104C478.791 230.079 478.827 230.046 478.856 230.007C478.883 229.968 478.901 229.923 478.912 229.877L488.841 184.127C488.861 184.037 488.844 183.942 488.794 183.863C488.745 183.785 488.666 183.73 488.575 183.71L445.685 173.258C445.593 173.239 445.498 173.258 445.418 173.308C445.378 173.331 445.343 173.363 445.316 173.401C445.289 173.439 445.269 173.483 445.259 173.528L435.076 219.009C435.066 219.054 435.063 219.101 435.071 219.147C435.077 219.193 435.094 219.237 435.119 219.276C435.143 219.316 435.176 219.35 435.212 219.377C435.251 219.404 435.293 219.423 435.34 219.433L478.478 230.145L478.486 230.147ZM488.066 184.319L478.292 229.372L435.84 218.865L445.877 174.039L488.066 184.319Z" fill="#045C80"/>
<path d="M445.607 173.606L433.94 174.08L424.119 219.32L435.424 219.086L445.607 173.606Z" fill="#045C80"/>
<path d="M424.039 219.674L424.122 219.693L435.429 219.46C435.509 219.458 435.586 219.43 435.648 219.379C435.71 219.328 435.753 219.257 435.77 219.178L445.957 173.684C445.966 173.631 445.965 173.576 445.95 173.523C445.937 173.471 445.912 173.423 445.876 173.381C445.843 173.34 445.798 173.306 445.75 173.284C445.7 173.262 445.646 173.25 445.593 173.252L433.925 173.718C433.847 173.722 433.772 173.751 433.71 173.802C433.649 173.854 433.607 173.924 433.592 174.002L423.767 219.248C423.756 219.3 423.756 219.355 423.768 219.407C423.781 219.459 423.807 219.508 423.84 219.549C423.891 219.612 423.96 219.656 424.039 219.674ZM435.137 218.737L424.565 218.958L434.236 174.424L445.156 173.988L435.137 218.737Z" fill="#045C80"/>
<g opacity="0.5">
<path d="M445.607 173.606L433.94 174.079L424.119 219.319L435.424 219.086L445.607 173.606Z" fill="#007EA4"/>
<path d="M424.039 219.674L424.122 219.693L435.429 219.46C435.509 219.458 435.586 219.43 435.648 219.379C435.71 219.328 435.753 219.257 435.77 219.178L445.957 173.684C445.966 173.631 445.965 173.576 445.95 173.523C445.937 173.471 445.912 173.423 445.876 173.381C445.843 173.34 445.798 173.306 445.75 173.284C445.7 173.262 445.646 173.25 445.593 173.252L433.925 173.718C433.847 173.722 433.772 173.751 433.71 173.802C433.649 173.854 433.607 173.924 433.592 174.002L423.767 219.248C423.756 219.3 423.756 219.355 423.768 219.407C423.781 219.459 423.807 219.508 423.84 219.549C423.891 219.612 423.96 219.656 424.039 219.674ZM435.137 218.737L424.565 218.958L434.236 174.424L445.156 173.988L435.137 218.737Z" fill="#045C80"/>
</g>
<path d="M478.569 229.778L435.425 219.087L424.118 219.319L466.81 229.807L478.569 229.778Z" fill="#045C80"/>
<path d="M482.247 213.577C482.247 213.577 486.792 215.326 490.595 222.313C492.938 226.623 495.032 231.064 496.867 235.615C496.867 235.615 494.93 241.946 486.079 244.41C477.227 246.875 475.23 245.733 475.23 245.733C475.23 245.733 463.075 221.994 468.943 219.33C474.813 216.666 479.74 224.775 479.74 224.775L482.247 213.577Z" fill="url(#paint0_linear_1_8111)"/>
<path d="M475.567 246.218C476.612 246.452 479.441 246.617 486.136 244.745C495.072 242.256 497.092 235.98 497.174 235.713C497.2 235.635 497.196 235.551 497.162 235.477C495.322 230.911 493.223 226.456 490.868 222.133C487.046 215.134 482.526 213.31 482.337 213.239C482.291 213.22 482.24 213.211 482.189 213.213C482.137 213.216 482.088 213.229 482.042 213.253C481.996 213.278 481.958 213.312 481.926 213.353C481.897 213.394 481.874 213.441 481.865 213.491L479.537 223.888C478.13 221.935 473.779 216.749 468.762 218.997C468.406 219.169 468.087 219.413 467.831 219.714C467.573 220.015 467.381 220.367 467.267 220.746C465.181 226.795 474.477 245.111 474.881 245.852C474.916 245.912 474.965 245.963 475.024 246.001C475.195 246.099 475.377 246.171 475.567 246.218ZM496.475 235.637C496.162 236.481 493.871 241.877 485.971 244.079C478.439 246.166 475.942 245.622 475.48 245.467C474.677 243.825 466.037 226.533 467.962 221.004C468.045 220.716 468.186 220.447 468.38 220.217C468.571 219.987 468.81 219.799 469.081 219.668C474.607 217.161 479.376 224.898 479.418 224.973C479.455 225.033 479.511 225.081 479.576 225.11C479.64 225.139 479.713 225.149 479.783 225.137C479.854 225.126 479.92 225.094 479.971 225.045C480.023 224.997 480.061 224.934 480.079 224.865L482.491 214.092C483.644 214.687 487.218 216.884 490.271 222.482C492.586 226.747 494.657 231.139 496.475 235.637Z" fill="#045C80"/>
<path d="M481.397 229.746C481.465 229.763 481.535 229.758 481.599 229.732C481.643 229.716 481.683 229.691 481.717 229.659C481.752 229.628 481.779 229.589 481.799 229.546C481.817 229.503 481.827 229.457 481.829 229.411C481.83 229.364 481.822 229.317 481.803 229.273L480.06 224.649C480.044 224.605 480.02 224.565 479.987 224.53C479.956 224.496 479.918 224.469 479.874 224.449C479.831 224.43 479.785 224.42 479.738 224.419C479.692 224.418 479.645 224.426 479.601 224.444C479.514 224.478 479.442 224.545 479.405 224.631C479.365 224.717 479.364 224.815 479.397 224.903L481.14 229.527C481.16 229.583 481.193 229.633 481.24 229.671C481.286 229.71 481.339 229.735 481.397 229.746Z" fill="#045C80"/>
<path opacity="0.45" d="M496.678 235.873C496.678 235.873 495.813 233.983 495.62 234.064C495.163 234.276 495.5 236.033 495.11 236.341C494.9 236.491 493.652 236.322 493.481 236.496C493.21 236.756 493.161 238.215 492.892 238.477C492.52 238.832 491.588 237.768 491.144 238.086C490.7 238.403 490.899 240.649 490.312 240.824C489.723 241 489.059 239.886 488.472 240.054C487.887 240.223 486.979 241.431 486.402 241.528C486 241.592 485.079 240.903 484.663 240.869C483.909 240.802 483.309 242.993 482.574 242.814C482.101 242.708 481.193 241.276 480.728 241.26C480.265 241.244 479.553 242.357 479.108 242.36C478.662 242.362 478.198 240.635 477.128 240.812C476.308 240.951 476.179 241.331 475.866 241.261C475.551 241.19 474.763 239.654 473.98 239.881C473.783 239.902 473.6 239.994 473.467 240.141C473.333 240.287 473.256 240.478 473.254 240.676L475.385 245.365C475.385 245.365 483.873 246.352 488.643 243.566C493.415 240.78 496.678 235.873 496.678 235.873Z" fill="#FE0065"/>
<path d="M434.659 340.997C432.93 341.539 427.681 345.284 435.291 349.183C442.902 353.081 474.447 358.938 474.447 358.938L487.485 361.192L490.543 333.033L482.305 331.189C482.305 331.189 460.481 329.959 453.969 333.24C447.966 336.247 450.029 339.67 450.029 339.67C450.029 339.67 438.454 339.792 434.659 340.997Z" fill="url(#paint1_linear_1_8111)"/>
<path d="M456.459 355.567C465.421 357.574 473.726 359.127 474.391 359.254L487.437 361.509C487.535 361.525 487.633 361.503 487.715 361.446C487.753 361.418 487.784 361.38 487.808 361.337C487.832 361.295 487.846 361.248 487.849 361.198L490.901 333.04C490.91 332.954 490.889 332.867 490.838 332.796C490.789 332.725 490.712 332.676 490.627 332.657L482.39 330.813C481.438 330.753 460.329 329.632 453.813 332.897C451.408 334.099 449.946 335.528 449.488 337.121C449.284 337.824 449.29 338.569 449.504 339.268C447.168 339.321 437.933 339.602 434.569 340.648C433.389 341.019 431.123 342.552 430.951 344.562C430.806 346.321 432.221 347.976 435.149 349.465C438.824 351.341 447.957 353.663 456.459 355.567ZM487.185 360.743L474.512 358.549C474.205 358.48 442.928 352.633 435.459 348.825C432.829 347.506 431.535 346.037 431.649 344.615C431.791 342.965 433.777 341.641 434.768 341.328C438.473 340.161 449.932 339.977 450.048 339.974C450.111 339.974 450.174 339.956 450.228 339.923C450.28 339.89 450.325 339.843 450.354 339.787C450.382 339.733 450.398 339.671 450.395 339.61C450.395 339.547 450.376 339.486 450.345 339.434C450.017 338.773 449.957 338.009 450.179 337.306C450.588 335.933 451.923 334.646 454.131 333.532C460.482 330.354 482.075 331.503 482.291 331.515L490.16 333.277L487.185 360.743Z" fill="#045C80"/>
<path d="M466.423 347.517C467.885 347.844 468.718 347.972 468.74 347.977C468.787 347.983 468.834 347.981 468.879 347.969C468.925 347.957 468.968 347.936 469.006 347.908C469.043 347.88 469.075 347.845 469.099 347.803C469.122 347.764 469.138 347.719 469.145 347.672C469.153 347.627 469.151 347.58 469.139 347.534C469.129 347.488 469.108 347.446 469.08 347.408C469.054 347.371 469.018 347.339 468.977 347.316C468.938 347.291 468.893 347.275 468.847 347.268C465.033 346.568 461.284 345.547 457.638 344.219C451.221 341.955 450.387 339.539 450.386 339.516C450.357 339.427 450.295 339.352 450.211 339.307C450.128 339.262 450.031 339.252 449.94 339.277C449.851 339.303 449.777 339.364 449.73 339.445C449.686 339.526 449.672 339.622 449.696 339.713C449.729 339.83 450.542 342.468 457.401 344.89C460.354 345.941 463.367 346.816 466.423 347.517Z" fill="#045C80"/>
<path opacity="0.45" d="M482.696 331.474L480.745 331.461C481.332 331.865 481.867 332.341 482.337 332.878C482.467 333.338 481.436 334.219 481.568 334.68C481.877 335.744 483.5 335.844 483.547 336.286C483.754 337.619 482.93 337.61 482.888 338.64C482.848 339.669 484.461 340.929 484.342 341.422C484.294 341.638 483.127 342.612 482.865 343.219C482.605 343.826 483.685 345.246 483.617 345.45C483.454 346.014 481.838 346.865 481.696 347.133C481.436 347.544 482.468 349.464 482.165 349.843C481.861 350.219 479.907 349.972 479.568 350.569C479.229 351.167 479.873 352.832 479.627 353.207C479.382 353.584 477.699 352.776 477.287 353.276C476.534 354.219 477.331 355.034 476.971 355.436C476.61 355.838 473.81 356.132 473.355 356.821C472.901 357.508 473.656 358.351 473.656 358.351L477.105 359.014C477.105 359.014 481.02 359.304 483.412 354.692C485.805 350.08 487.772 339.791 487.281 337.736C486.792 335.681 482.696 331.474 482.696 331.474Z" fill="#FE0065"/>
<path d="M552.876 388.045C552.876 388.045 543.727 459.607 550.924 483.838C558.121 508.067 580.339 547.515 580.339 547.515C580.339 547.515 565.636 565.006 547.65 565.448C529.664 565.889 530.39 564.999 530.39 564.999L514.733 533.872L490.486 601.045C490.486 601.045 470.417 613.137 444.964 602.181C419.513 591.223 417.122 582.008 417.122 582.008L486.305 372.831L554.476 379.854L552.876 388.045Z" fill="#FE0065"/>
<path d="M454.92 605.791C475.338 610.363 490.494 601.463 490.662 601.363C490.734 601.322 490.79 601.255 490.813 601.177L514.786 534.776L530.051 565.105C530.057 565.135 530.068 565.166 530.082 565.193C530.216 565.479 530.581 566.234 547.671 565.811C565.614 565.366 580.482 547.92 580.623 547.747C580.671 547.692 580.701 547.622 580.707 547.55C580.715 547.477 580.7 547.403 580.663 547.34C580.444 546.946 558.387 507.66 551.286 483.721C544.185 459.783 553.098 389.338 553.262 388.087L554.845 379.906C554.855 379.858 554.855 379.807 554.844 379.758C554.834 379.709 554.813 379.664 554.784 379.623C554.754 379.584 554.717 379.553 554.674 379.529C554.632 379.506 554.585 379.491 554.536 379.486L486.366 372.458C486.285 372.45 486.203 372.47 486.135 372.513C486.066 372.559 486.017 372.625 485.991 372.702L416.823 581.875C416.802 581.941 416.799 582.011 416.814 582.077C416.911 582.458 419.554 591.591 444.86 602.486C448.103 603.898 451.472 605.005 454.92 605.791ZM490.194 600.811C488.571 601.728 469.139 612.186 445.125 601.852C421.575 591.707 417.866 582.995 417.519 582.002L486.556 373.216L554.056 380.162L552.542 387.97C552.449 388.68 543.455 459.875 550.593 483.91C557.444 506.972 578.129 544.19 579.918 547.436C578.271 549.305 564.276 564.643 547.646 565.073C533.565 565.417 531.119 564.943 530.692 564.788L515.058 533.695C515.026 533.633 514.977 533.579 514.916 533.544C514.855 533.51 514.785 533.492 514.715 533.494C514.645 533.501 514.579 533.525 514.523 533.567C514.467 533.609 514.424 533.667 514.398 533.732L490.194 600.811Z" fill="#045C80"/>
<path d="M514.731 533.879L546.848 437.636L519.983 544.327L514.731 533.879Z" fill="#045C80"/>
<path d="M451.165 595.949C451.251 595.97 451.343 595.959 451.42 595.915C451.499 595.87 451.555 595.799 451.583 595.714L519.785 378.281C519.813 378.19 519.803 378.091 519.759 378.008C519.715 377.923 519.64 377.861 519.549 377.833C519.458 377.804 519.36 377.813 519.275 377.859C519.192 377.903 519.129 377.978 519.1 378.069L450.906 595.467C450.892 595.511 450.887 595.558 450.891 595.606C450.896 595.654 450.908 595.699 450.932 595.741C450.953 595.782 450.983 595.819 451.019 595.847C451.055 595.878 451.098 595.902 451.142 595.914L451.165 595.949Z" fill="#045C80"/>
<path d="M506.718 417.828L507.038 417.899C507.131 417.92 507.228 417.903 507.308 417.852C507.387 417.801 507.443 417.722 507.464 417.63C507.484 417.537 507.468 417.44 507.419 417.36C507.367 417.281 507.287 417.225 507.194 417.204C507.124 417.189 499.939 415.937 493.678 407.318C485.756 396.417 491.285 374.533 491.341 374.318C491.354 374.272 491.356 374.226 491.35 374.178C491.344 374.132 491.328 374.088 491.305 374.046C491.281 374.006 491.251 373.971 491.212 373.942C491.174 373.914 491.132 373.892 491.088 373.88C491.043 373.866 490.995 373.861 490.947 373.867C490.899 373.872 490.854 373.886 490.814 373.912C490.772 373.935 490.736 373.968 490.707 374.006C490.68 374.044 490.661 374.087 490.65 374.133C490.445 375.052 484.984 396.567 493.102 407.737C498.83 415.624 505.207 417.489 506.718 417.828Z" fill="#045C80"/>
<path d="M470.006 243.064C469.78 251.047 471.306 258.981 474.476 266.311C476.486 270.85 479.32 274.976 482.838 278.48C496.425 291.906 514.208 300.7 514.208 300.7C514.208 300.7 513.513 301.773 512.399 303.549C510.188 307.091 506.313 313.419 502.951 319.621L502.592 320.272C498.723 327.625 497.49 331.664 497.49 331.664L482.241 331.175C482.241 331.175 489.286 336.036 485.39 349.35C481.665 362.103 474.199 359.196 474.199 359.196C474.199 359.196 472.813 360.846 475.185 362.137C477.559 363.429 486.641 364.702 486.641 364.702L484.071 372.23C484.071 372.23 502.821 377.817 512.438 377.849C515.661 377.891 518.882 378.111 522.082 378.501C524.977 378.835 527.932 379.264 530.705 379.702C535.805 380.544 540.292 381.475 542.612 382.054C545.66 382.809 548.974 383.36 551.177 383.679C552.699 383.902 553.689 384.021 553.689 384.021L552.784 388.061C552.784 388.061 557.542 389.447 558.298 386.071C558.652 384.489 558.547 381.103 558.428 377.324C558.276 373.071 558.107 368.337 558.537 365.209C558.993 361.867 559.504 356.386 560.074 351.161C560.517 347.158 560.981 343.32 561.492 340.678C561.658 339.939 561.832 339.159 561.982 338.33C563.522 331.45 566.07 322.06 566.698 312.921C567.047 308.824 566.819 304.699 566.02 300.666C565.9 300.12 565.773 299.579 565.651 299.048C563.391 290.622 559.365 282.773 553.841 276.022L547.06 276.647L540.413 277.264L536.389 277.636C536.389 277.636 525.625 280.345 516.218 273.719C513.676 271.913 511.486 269.652 509.762 267.052C508.472 265.14 507.298 263.202 506.232 261.267C501.849 253.222 498.667 244.579 496.787 235.612C496.787 235.612 493.22 242.953 486.071 244.409C478.922 245.865 475.222 245.731 475.222 245.731L472.788 240.601C472.788 240.601 470.064 240.547 470.006 243.064Z" fill="#007EA4"/>
<path d="M553.131 388.473C553.918 388.65 555.943 388.979 557.347 388.131C557.71 387.916 558.022 387.629 558.265 387.284C558.507 386.941 558.673 386.548 558.752 386.136C559.123 384.479 559.002 380.999 558.884 377.316C558.736 373.107 558.564 368.358 558.987 365.259C559.29 363.059 559.616 359.901 559.962 356.562C560.142 354.811 560.33 352.988 560.525 351.203C560.929 347.572 561.41 343.496 561.945 340.749C562.11 340.011 562.283 339.238 562.432 338.409C562.744 337.016 563.079 335.519 563.432 333.945C564.855 327.85 566.627 320.261 567.132 312.944C567.488 308.813 567.258 304.652 566.447 300.586C566.328 300.04 566.195 299.491 566.081 298.954C563.785 290.491 559.733 282.607 554.187 275.815C554.148 275.773 554.103 275.741 554.048 275.72C553.996 275.699 553.941 275.691 553.884 275.695L540.459 276.931L536.433 277.302C536.273 277.339 525.658 279.899 516.507 273.447C513.999 271.674 511.839 269.455 510.133 266.901C508.891 265.065 507.709 263.126 506.618 261.141C502.264 253.138 499.094 244.546 497.206 235.633C497.194 235.558 497.159 235.49 497.104 235.438C497.05 235.387 496.98 235.354 496.905 235.346C496.831 235.334 496.753 235.346 496.686 235.381C496.62 235.416 496.565 235.472 496.533 235.541C496.517 235.61 492.872 242.714 485.991 244.149C482.533 244.931 479.005 245.366 475.462 245.448L473.118 240.536C473.088 240.476 473.045 240.425 472.99 240.39C472.935 240.354 472.871 240.335 472.804 240.334C472.409 240.294 472.01 240.336 471.634 240.458C471.258 240.581 470.909 240.78 470.614 241.044C470.318 241.308 470.08 241.631 469.916 241.992C469.752 242.353 469.664 242.744 469.66 243.14L470.014 243.154L469.656 243.161C469.591 245.409 469.665 247.658 469.88 249.895C470.399 255.615 471.841 261.213 474.148 266.471C476.176 271.049 479.035 275.21 482.582 278.744C494.997 291.031 511.101 299.521 513.692 300.847C513.401 301.294 512.84 302.17 512.089 303.37C509.533 307.463 505.825 313.58 502.636 319.462L502.285 320.115C500.308 323.69 498.621 327.419 497.243 331.264L482.326 330.798C482.251 330.799 482.174 330.823 482.111 330.868C482.051 330.914 482.002 330.977 481.977 331.05C481.955 331.123 481.956 331.201 481.98 331.274C482.004 331.347 482.051 331.409 482.114 331.453C482.192 331.47 488.894 336.35 485.125 349.232C483.721 354.037 481.656 357.114 478.976 358.43C477.566 359.167 475.922 359.325 474.396 358.867C474.327 358.842 474.251 358.837 474.177 358.857C474.106 358.875 474.04 358.917 473.993 358.974C473.804 359.211 473.668 359.483 473.59 359.776C473.513 360.067 473.495 360.373 473.54 360.671C473.643 361.07 473.834 361.439 474.103 361.753C474.37 362.064 474.704 362.313 475.08 362.479C477.213 363.636 484.38 364.743 486.211 365.016L483.784 372.135C483.753 372.227 483.758 372.33 483.802 372.417C483.85 372.501 483.927 372.563 484.018 372.591C484.213 372.635 502.926 378.198 512.49 378.234C515.7 378.281 518.905 378.498 522.092 378.885C524.821 379.204 527.714 379.61 530.696 380.079C536.075 380.969 540.474 381.903 542.599 382.438C545.891 383.248 549.401 383.807 551.201 384.064L553.327 384.365L552.509 388.02C552.489 388.108 552.504 388.201 552.551 388.278C552.597 388.356 552.672 388.411 552.76 388.435C552.882 388.458 553.006 388.472 553.131 388.473ZM553.745 276.388C559.16 283.076 563.117 290.822 565.362 299.129C565.505 299.666 565.634 300.199 565.733 300.74C566.532 304.738 566.759 308.83 566.405 312.891C565.906 320.151 564.141 327.705 562.723 333.779C562.369 335.36 562.032 336.864 561.72 338.257C561.536 339.078 561.36 339.865 561.23 340.611C560.69 343.379 560.205 347.475 559.805 351.122C559.609 352.914 559.421 354.73 559.241 356.481C558.896 359.819 558.564 362.969 558.27 365.163C557.834 368.321 558.005 373.105 558.158 377.322C558.269 380.813 558.392 384.408 558.041 385.977C557.983 386.294 557.857 386.597 557.672 386.861C557.486 387.126 557.246 387.348 556.966 387.513C555.785 388.214 554.02 387.934 553.301 387.781L554.129 384.082C554.14 384.034 554.141 383.982 554.131 383.931C554.12 383.882 554.099 383.835 554.07 383.791C554.04 383.752 554.003 383.72 553.961 383.696C553.919 383.67 553.872 383.656 553.824 383.649C553.824 383.649 552.834 383.531 551.319 383.307C549.534 383.048 546.046 382.494 542.789 381.691C540.642 381.152 536.214 380.219 530.82 379.326C527.831 378.825 524.925 378.414 522.176 378.121C518.97 377.719 515.745 377.492 512.513 377.442C503.777 377.431 487.242 372.735 484.598 371.966L487.044 364.792C487.063 364.744 487.069 364.69 487.065 364.639C487.058 364.587 487.039 364.536 487.01 364.493C486.984 364.448 486.947 364.412 486.903 364.381C486.861 364.354 486.812 364.335 486.761 364.327C486.67 364.307 477.721 363.033 475.423 361.789C475.147 361.672 474.898 361.499 474.696 361.277C474.492 361.057 474.34 360.794 474.248 360.507C474.212 360.189 474.284 359.868 474.452 359.596C476.088 360.015 477.82 359.827 479.325 359.064C482.193 357.652 484.381 354.412 485.834 349.427C488.987 338.615 485.122 333.304 483.347 331.539L497.546 332.005C497.624 332.007 497.701 331.982 497.764 331.935C497.827 331.889 497.875 331.823 497.896 331.747C497.905 331.705 499.144 327.639 502.97 320.451L503.327 319.8C506.478 313.924 510.184 307.828 512.738 303.742C513.863 301.975 514.537 300.898 514.537 300.898C514.566 300.857 514.587 300.81 514.598 300.761C514.608 300.712 514.61 300.661 514.601 300.612C514.587 300.563 514.563 300.517 514.529 300.478C514.497 300.439 514.456 300.408 514.41 300.386C514.233 300.296 496.525 291.46 483.135 278.232C479.655 274.76 476.852 270.673 474.865 266.178C472.577 260.967 471.152 255.42 470.644 249.752C470.434 247.548 470.358 245.333 470.417 243.12C470.422 242.836 470.483 242.555 470.596 242.295C470.709 242.035 470.873 241.799 471.08 241.603C471.284 241.406 471.527 241.253 471.791 241.151C472.057 241.05 472.34 241.002 472.624 241.01L474.955 245.92C474.98 245.978 475.023 246.029 475.078 246.066C475.131 246.102 475.193 246.123 475.259 246.127C475.412 246.161 479.098 246.255 486.198 244.795C492.032 243.586 495.541 238.668 496.756 236.665C498.697 245.325 501.823 253.675 506.045 261.481C507.148 263.483 508.342 265.433 509.593 267.292C511.341 269.922 513.554 272.212 516.124 274.049C525.556 280.688 536.48 278.044 536.59 278.017L540.53 277.656L540.565 277.664L553.745 276.388Z" fill="#045C80"/>
<path d="M486.705 364.68C486.705 364.68 528.846 372.726 542.839 369.022C556.832 365.317 561.616 340.683 561.616 340.683C561.616 340.683 557.909 368.834 544.072 372.077C526.043 376.295 486.104 366.41 486.104 366.41L486.705 364.68Z" fill="#045C80"/>
<path d="M497.49 331.663C497.49 331.663 519.881 336.172 523.85 334.779C527.819 333.386 527.661 330.821 533.588 310.882C539.517 290.943 549.28 288.947 549.28 288.947C549.28 288.947 540.343 287.443 533.347 305C526.536 322.093 527.26 329.415 522.82 331.243C515.722 334.21 497.49 331.663 497.49 331.663Z" fill="#045C80"/>
<path d="M560.445 351.953L560.525 351.203C560.929 347.572 561.41 343.496 561.945 340.749C562.11 340.011 562.283 339.238 562.432 338.409L562.621 337.566L561.373 338.369C559.489 339.587 558.165 341.503 557.692 343.696C557.218 345.889 557.635 348.181 558.849 350.068C559.164 350.549 559.523 350.999 559.923 351.412L560.445 351.953ZM561.553 339.104C561.436 339.626 561.323 340.128 561.216 340.608C560.715 343.172 560.263 346.889 559.882 350.321C559.716 350.115 559.561 349.9 559.42 349.676C558.334 347.981 557.95 345.931 558.348 343.958C558.746 341.986 559.895 340.245 561.553 339.104Z" fill="#045C80"/>
<path d="M529.807 337.795C530.904 338.043 532.038 338.069 533.145 337.872C534.252 337.676 535.308 337.26 536.25 336.649L544.641 331.215C546.04 330.309 547.141 329.01 547.805 327.481C548.468 325.952 548.666 324.262 548.374 322.621C548.083 320.98 547.313 319.462 546.161 318.257C545.011 317.051 543.53 316.212 541.904 315.844L541.835 315.829C540.748 315.593 539.624 315.575 538.53 315.775C537.435 315.976 536.393 316.391 535.46 316.998L527.061 322.43C525.658 323.334 524.554 324.632 523.887 326.162C523.222 327.692 523.021 329.385 523.315 331.027C523.61 332.671 524.382 334.189 525.538 335.394C526.692 336.598 528.178 337.434 529.807 337.795ZM541.745 316.555C543.234 316.891 544.591 317.66 545.644 318.763C546.699 319.867 547.404 321.257 547.672 322.76C547.94 324.263 547.757 325.811 547.15 327.211C546.542 328.611 545.534 329.8 544.252 330.631L535.856 336.063C534.998 336.615 534.042 336.992 533.039 337.174C532.037 337.355 531.009 337.338 530.013 337.122C529.016 336.906 528.074 336.496 527.236 335.916C526.399 335.335 525.684 334.596 525.133 333.739C524.581 332.882 524.203 331.925 524.022 330.923C523.841 329.92 523.858 328.892 524.075 327.896C524.29 326.901 524.7 325.957 525.281 325.12C525.86 324.282 526.6 323.567 527.457 323.016L535.848 317.582C536.702 317.028 537.66 316.648 538.662 316.465C539.665 316.281 540.693 316.298 541.688 316.513L541.745 316.555Z" fill="#045C80"/>
<path d="M502.006 320.674L510.342 315.294C511.276 314.691 512.084 313.91 512.716 312.995C513.349 312.081 513.795 311.05 514.03 309.963C514.264 308.875 514.28 307.752 514.081 306.658C513.879 305.564 513.464 304.52 512.86 303.586L512.795 303.484C512.757 303.432 512.717 303.371 512.677 303.326L512.364 302.927L512.092 303.356C509.538 307.45 505.828 313.566 502.639 319.448L502.006 320.674ZM512.414 304.21C513.444 305.934 513.764 307.99 513.306 309.945C512.85 311.9 511.652 313.602 509.964 314.69L503.976 318.57C506.836 313.28 510.053 307.989 512.414 304.21Z" fill="#045C80"/>
<path d="M553.131 388.474C553.918 388.65 555.943 388.979 557.347 388.131C557.709 387.919 558.022 387.63 558.265 387.284C558.507 386.941 558.673 386.548 558.752 386.136C559.123 384.479 559.002 381 558.884 377.316L558.863 376.691L554.137 379.734C552.719 380.649 551.608 381.97 550.949 383.525L550.774 383.946L551.227 384.011L553.354 384.313L552.464 388.287L552.791 388.361C552.901 388.408 553.015 388.445 553.131 388.474ZM558.189 377.972C558.297 381.243 558.386 384.502 558.054 385.986C557.996 386.305 557.87 386.606 557.684 386.872C557.499 387.137 557.258 387.359 556.979 387.522C555.798 388.223 554.032 387.945 553.315 387.784L554.229 383.703L553.836 383.66C553.836 383.66 553.046 383.562 551.799 383.386C552.414 382.143 553.355 381.09 554.521 380.339L558.189 377.972Z" fill="#045C80"/>
<path d="M522.029 378.84L522.133 378.864C524.863 379.183 527.755 379.589 530.737 380.06L530.841 380.083L530.946 380.042C531.324 379.867 531.689 379.667 532.039 379.437L540.435 374.005C541.838 373.1 542.941 371.801 543.607 370.273C544.272 368.742 544.473 367.051 544.179 365.409C543.888 363.766 543.116 362.247 541.962 361.041C540.81 359.836 539.327 358.999 537.698 358.634C536.601 358.382 535.465 358.355 534.358 358.553C533.25 358.752 532.195 359.172 531.254 359.787L522.856 365.219C521.921 365.823 521.116 366.604 520.485 367.519C519.852 368.433 519.409 369.463 519.175 370.551C518.942 371.636 518.924 372.758 519.126 373.852C519.327 374.945 519.74 375.989 520.345 376.922C520.786 377.605 521.326 378.218 521.949 378.743L522.029 378.84ZM530.698 379.319C527.79 378.844 524.955 378.443 522.283 378.13C521.747 377.662 521.28 377.119 520.896 376.518C520.343 375.664 519.964 374.709 519.78 373.708C519.597 372.708 519.612 371.681 519.824 370.686C520.037 369.691 520.444 368.75 521.023 367.912C521.601 367.074 522.339 366.359 523.192 365.807L531.589 360.373C532.442 359.781 533.405 359.366 534.42 359.153C535.437 358.941 536.485 358.934 537.503 359.134C538.521 359.333 539.49 359.735 540.35 360.317C541.21 360.897 541.945 361.645 542.51 362.517C543.076 363.386 543.46 364.362 543.643 365.385C543.824 366.405 543.798 367.454 543.568 368.465C543.335 369.478 542.904 370.432 542.296 371.273C541.69 372.115 540.918 372.827 540.031 373.364L531.632 378.798C531.336 378.997 531.023 379.171 530.698 379.319Z" fill="#045C80"/>
<path d="M491.269 364.641L491.338 364.657C492.425 364.896 493.548 364.916 494.643 364.717C495.736 364.518 496.78 364.102 497.711 363.495L506.11 358.062C507.904 356.809 509.142 354.909 509.567 352.761C509.99 350.615 509.565 348.386 508.38 346.545C507.196 344.705 505.346 343.395 503.216 342.889C501.085 342.385 498.843 342.724 496.959 343.838L488.56 349.271C486.677 350.49 485.353 352.406 484.883 354.599C484.41 356.793 484.828 359.083 486.044 360.97C487.233 362.835 489.112 364.154 491.269 364.641ZM503.205 343.408C504.697 343.74 506.057 344.505 507.114 345.608C508.171 346.711 508.878 348.102 509.147 349.607C509.415 351.111 509.232 352.66 508.623 354.061C508.011 355.461 507 356.651 505.714 357.476L497.325 362.912C495.597 364.026 493.499 364.41 491.488 363.978C489.479 363.547 487.723 362.334 486.609 360.606C485.492 358.879 485.108 356.781 485.54 354.771C485.971 352.762 487.186 351.005 488.913 349.889L497.309 344.457C498.172 343.893 499.138 343.507 500.152 343.321C501.165 343.136 502.205 343.156 503.211 343.38L503.205 343.408Z" fill="#045C80"/>
<path d="M553.131 388.474C553.918 388.65 555.943 388.979 557.347 388.131C557.709 387.919 558.022 387.63 558.265 387.284C558.507 386.941 558.673 386.548 558.752 386.136C559.123 384.479 559.002 381 558.884 377.316L558.863 376.691L554.137 379.734C552.719 380.649 551.608 381.97 550.949 383.525L550.774 383.946L551.227 384.011L553.354 384.313L552.464 388.287L552.791 388.361C552.901 388.408 553.015 388.445 553.131 388.474ZM558.189 377.972C558.297 381.243 558.386 384.502 558.054 385.986C557.996 386.305 557.87 386.606 557.684 386.872C557.499 387.137 557.258 387.359 556.979 387.522C555.798 388.223 554.032 387.945 553.315 387.784L554.229 383.703L553.836 383.66C553.836 383.66 553.046 383.562 551.799 383.386C552.414 382.143 553.355 381.09 554.521 380.339L558.189 377.972Z" fill="#045C80"/>
<path d="M567.114 313.482L567.152 312.949C567.509 308.818 567.278 304.657 566.468 300.591C566.349 300.045 566.216 299.496 566.102 298.958L565.97 298.468L565.553 298.762C564.358 299.609 563.402 300.753 562.78 302.08C562.159 303.407 561.893 304.873 562.008 306.334C562.123 307.795 562.616 309.201 563.438 310.414C564.259 311.628 565.382 312.607 566.696 313.256L567.114 313.482ZM565.515 299.653C565.609 300.018 565.689 300.379 565.767 300.748C566.538 304.562 566.777 308.465 566.476 312.344C565.433 311.737 564.55 310.89 563.9 309.873C562.855 308.272 562.441 306.341 562.74 304.452C563.038 302.564 564.027 300.854 565.515 299.653Z" fill="#045C80"/>
<path d="M534.282 297.991C535.378 298.239 536.512 298.265 537.619 298.068C538.726 297.872 539.781 297.456 540.725 296.845L549.123 291.412C550.516 290.501 551.612 289.2 552.271 287.671C552.93 286.141 553.122 284.451 552.826 282.813C552.529 281.174 551.757 279.659 550.604 278.457C549.451 277.255 547.969 276.419 546.345 276.055L546.276 276.039C545.188 275.804 544.067 275.786 542.973 275.987C541.882 276.188 540.839 276.603 539.906 277.21L531.51 282.642C530.112 283.55 529.014 284.849 528.351 286.378C527.69 287.908 527.496 289.599 527.792 291.239C528.088 292.878 528.862 294.394 530.017 295.595C531.17 296.796 532.655 297.63 534.282 297.991ZM546.189 276.751C547.68 277.085 549.04 277.852 550.095 278.955C551.152 280.059 551.859 281.451 552.126 282.955C552.394 284.459 552.213 286.009 551.602 287.409C550.992 288.81 549.981 289.999 548.698 290.828L540.308 296.262C538.58 297.374 536.481 297.755 534.472 297.323C532.463 296.891 530.708 295.681 529.591 293.957C528.479 292.229 528.097 290.131 528.528 288.123C528.96 286.114 530.17 284.358 531.895 283.24L540.292 277.808C541.146 277.253 542.101 276.873 543.102 276.689C544.104 276.505 545.131 276.522 546.125 276.737L546.189 276.751Z" fill="#045C80"/>
<path d="M499.963 282.05C501.057 282.3 502.191 282.326 503.298 282.129C504.403 281.932 505.457 281.515 506.4 280.903L514.79 275.469C515.459 275.047 516.067 274.533 516.595 273.942L516.849 273.648L516.53 273.416C514.023 271.642 511.86 269.423 510.154 266.869C508.914 265.034 507.732 263.095 506.641 261.11L506.473 260.809L506.168 260.967C505.98 261.062 505.797 261.167 505.622 261.284L497.237 266.72C495.354 267.938 494.029 269.853 493.556 272.047C493.083 274.24 493.499 276.531 494.713 278.418C495.919 280.27 497.806 281.574 499.963 282.05ZM515.754 273.776C515.346 274.193 514.894 274.563 514.404 274.878L506.013 280.312C505.157 280.865 504.202 281.245 503.201 281.428C502.199 281.612 501.172 281.596 500.175 281.382C499.18 281.168 498.237 280.76 497.4 280.181C496.562 279.602 495.847 278.863 495.296 278.007C494.182 276.281 493.799 274.184 494.231 272.176C494.662 270.168 495.874 268.413 497.599 267.298L505.99 261.864L506.161 261.748C507.2 263.641 508.351 265.493 509.536 267.25C511.215 269.769 513.319 271.977 515.754 273.776Z" fill="#045C80"/>
<path d="M474.306 266.807L474.648 266.62C474.799 266.537 474.951 266.446 475.097 266.347L483.487 260.913C485.374 259.696 486.698 257.778 487.171 255.584C487.645 253.389 487.227 251.097 486.008 249.21C484.792 247.324 482.874 245.999 480.68 245.526C478.485 245.053 476.193 245.471 474.306 246.689L469.858 249.569L469.877 249.785C470.385 255.542 471.826 261.178 474.148 266.471L474.306 266.807ZM480.585 246.274C482.076 246.607 483.434 247.372 484.49 248.474C485.545 249.577 486.252 250.967 486.52 252.469C486.79 253.972 486.608 255.52 485.998 256.92C485.389 258.319 484.38 259.508 483.097 260.336L474.701 265.769L474.631 265.819C472.471 260.78 471.11 255.435 470.6 249.976L474.693 247.317C475.556 246.757 476.522 246.376 477.534 246.196C478.546 246.015 479.585 246.04 480.587 246.267L480.585 246.274Z" fill="#045C80"/>
<path d="M553.859 383.657C553.859 383.657 558.931 384.647 558.383 386.053C557.03 389.545 552.876 388.045 552.876 388.045L553.859 383.657Z" fill="#045C80"/>
<path d="M485.233 351.195C485.233 351.195 480.969 363.71 477.063 362.799C474.166 362.15 473.947 360.383 473.947 360.383L474.387 359.107C475.513 359.425 476.683 359.554 477.85 359.486C481.106 358.885 485.233 351.195 485.233 351.195Z" fill="#045C80"/>
<path d="M536.456 277.629C536.456 277.629 524.055 284.586 517.228 292.374C510.401 300.162 511.5 299.267 511.5 299.267L514.201 300.691C514.201 300.691 520.112 292.391 524.85 287.63C528.525 284.079 532.4 280.74 536.456 277.629Z" fill="#045C80"/>
<path d="M475.703 246.073C475.703 246.073 469.766 246.455 469.962 243.522C470.166 240.197 472.76 240.595 472.76 240.595L475.703 246.073Z" fill="#045C80"/>
<path d="M542.401 245.035L549.918 268.657C550.653 269.206 551.507 269.577 552.41 269.742C553.468 269.934 554.56 269.722 555.468 269.147C557.26 268.034 556.905 265.534 560.774 262.466C562.961 260.762 565.759 259.246 567.876 256.612C569.499 254.591 570.723 251.896 570.972 247.886C571.538 238.652 554.96 234.472 551.928 233.384C548.896 232.295 554.8 225.983 550.428 222.934C546.058 219.886 541.446 224.579 538.74 232.676L538.692 232.892C538.677 232.942 538.665 232.993 538.658 233.045C537.928 235.182 537.896 237.497 538.568 239.653C539.241 241.809 540.583 243.694 542.401 245.035Z" fill="#007EA4"/>
<path d="M552.061 270.022L552.347 270.086C553.49 270.295 554.669 270.065 555.65 269.443C556.423 268.875 557.02 268.102 557.377 267.212C558.21 265.458 559.446 263.925 560.983 262.74C561.613 262.244 562.288 261.774 563 261.275C564.923 260.042 566.658 258.536 568.147 256.804C570.129 254.241 571.241 251.114 571.325 247.877C571.857 239.221 558.333 235.023 553.241 233.436C552.734 233.279 552.325 233.151 552.033 233.049C551.05 232.704 551.296 231.604 551.826 229.69C552.463 227.368 553.257 224.474 550.619 222.641C549.987 222.159 549.247 221.84 548.465 221.71C547.682 221.581 546.879 221.645 546.127 221.898C543.139 222.896 540.331 226.787 538.414 232.603L538.367 232.812C538.349 232.876 538.334 232.941 538.323 233.007C537.6 235.196 537.583 237.556 538.27 239.756C538.958 241.956 540.317 243.886 542.159 245.274L549.605 268.741C549.629 268.805 549.669 268.862 549.722 268.906C550.415 269.439 551.212 269.819 552.061 270.022ZM548.508 222.468C549.121 222.613 549.7 222.877 550.213 223.244C552.435 224.788 551.74 227.301 551.134 229.52C550.62 231.387 550.129 233.156 551.798 233.735C552.09 233.837 552.478 233.96 553.019 234.125C557.969 235.672 571.106 239.769 570.608 247.841C570.533 250.93 569.478 253.916 567.594 256.366C566.147 258.037 564.461 259.488 562.594 260.672C561.873 261.184 561.188 261.659 560.547 262.167C558.931 263.418 557.629 265.029 556.745 266.873C556.446 267.647 555.938 268.323 555.276 268.826C554.442 269.353 553.44 269.549 552.469 269.375C551.661 269.227 550.893 268.903 550.225 268.426L542.742 244.914C542.714 244.84 542.665 244.776 542.601 244.729C540.838 243.442 539.538 241.624 538.886 239.542C538.235 237.46 538.267 235.223 538.982 233.162C538.996 233.099 539.004 233.064 539.009 233.043L539.048 232.869C540.909 227.238 543.557 223.509 546.331 222.587C547.032 222.349 547.785 222.31 548.507 222.475L548.508 222.468Z" fill="#045C80"/>
<path d="M550.45 261.705L552.376 269.727C553.434 269.92 554.527 269.707 555.434 269.132C557.227 268.019 556.872 265.519 560.741 262.451C562.928 260.747 565.726 259.231 567.843 256.597C567.843 256.597 559.654 260.511 555.9 259.671C554.892 259.443 553.839 259.515 552.872 259.876C551.905 260.237 551.063 260.873 550.45 261.705Z" fill="#045C80"/>
<path d="M542.401 245.035L546.801 242.466C546.801 242.466 545.422 241.507 541.452 238.563C538.316 236.237 538.451 233.942 538.646 233.072C537.92 235.206 537.894 237.516 538.571 239.667C539.245 241.817 540.587 243.697 542.401 245.035Z" fill="#045C80"/>
<path d="M534.585 251.432C534.783 253.582 536.192 253.371 535.864 255.324C535.536 257.276 533.93 259.388 535.066 261.368C535.67 262.432 539.024 262.898 540.818 264.777C542.051 266.062 542.542 268.022 540.897 271.288C540.399 272.256 539.828 273.184 539.192 274.066C533.158 282.565 529.817 282.782 531.438 284.557C534.878 288.333 553.909 276.008 553.909 276.008L550.452 261.698C550.452 261.698 557.058 261.817 556.099 256.885C555.341 252.964 552.623 252.355 550.575 252.95C547.666 253.798 547.718 257.678 546.36 257.374C545.002 257.07 548.406 250.066 548.268 247.146C548.118 243.807 546.774 242.46 546.774 242.46C546.774 242.46 534.392 249.29 534.585 251.432Z" fill="url(#paint2_linear_1_8111)"/>
<path d="M532.51 285.521C537.831 286.712 552.323 277.474 554.111 276.317C554.173 276.277 554.223 276.219 554.248 276.15C554.276 276.081 554.281 276.005 554.262 275.934L550.94 262.027C551.971 261.972 554.469 261.683 555.756 260.121C556.123 259.659 556.378 259.118 556.502 258.54C556.625 257.962 556.613 257.363 556.465 256.792C556.137 254.985 555.345 253.696 554.167 252.979C553.616 252.658 553.004 252.456 552.37 252.387C551.737 252.318 551.095 252.384 550.49 252.58C548.705 253.102 547.947 254.658 547.392 255.799C547.011 256.584 546.757 257.068 546.45 256.999C546.17 256.68 546.9 254.336 547.393 252.786C548.049 250.68 548.724 248.506 548.664 247.11C548.506 243.675 547.12 242.245 547.06 242.188C547.005 242.134 546.934 242.098 546.857 242.088C546.781 242.077 546.702 242.092 546.635 242.13C544.535 243.283 534.038 249.174 534.24 251.435C534.295 252.212 534.59 252.952 535.082 253.554C535.291 253.776 535.44 254.047 535.518 254.341C535.594 254.635 535.596 254.944 535.524 255.24C535.393 255.85 535.211 256.448 534.978 257.027C534.475 258.42 533.9 260.01 534.768 261.521C535.104 262.115 535.98 262.48 537.088 262.954C538.353 263.393 539.521 264.072 540.531 264.954C540.553 264.99 540.585 265.022 540.619 265.047C541.938 266.505 541.921 268.475 540.592 271.11C540.101 272.062 539.54 272.975 538.914 273.842C537.019 276.555 534.85 279.066 532.445 281.338C530.88 282.838 530.098 283.584 531.191 284.779C531.543 285.158 532.004 285.417 532.51 285.521ZM553.513 275.854C548.13 279.314 534.33 287.194 531.711 284.325C531.12 283.696 531.233 283.487 532.93 281.878C535.369 279.573 537.57 277.028 539.495 274.28C540.14 273.383 540.719 272.439 541.225 271.457C542.725 268.48 542.682 266.218 541.103 264.555C540.021 263.58 538.757 262.829 537.384 262.348C536.475 261.969 535.62 261.602 535.406 261.218C534.701 259.992 535.173 258.701 535.671 257.328C535.917 256.706 536.108 256.063 536.24 255.408C536.33 255.019 536.325 254.614 536.227 254.227C536.129 253.84 535.941 253.482 535.678 253.183C535.257 252.69 535.007 252.075 534.965 251.429C534.864 250.251 540.826 246.226 546.737 242.95C547.551 244.217 547.981 245.692 547.979 247.198C548.037 248.477 547.346 250.713 546.763 252.63C545.958 255.244 545.522 256.74 545.908 257.426C545.958 257.51 546.023 257.583 546.099 257.64C546.178 257.698 546.266 257.739 546.36 257.761C547.231 257.956 547.652 257.093 548.098 256.176C548.623 255.101 549.273 253.763 550.759 253.335C551.268 253.17 551.808 253.114 552.34 253.167C552.873 253.221 553.388 253.385 553.855 253.648C554.404 254.037 554.864 254.539 555.205 255.119C555.545 255.7 555.758 256.346 555.829 257.015C555.953 257.483 555.969 257.974 555.871 258.448C555.773 258.922 555.568 259.368 555.268 259.749C553.85 261.442 550.569 261.402 550.511 261.397C550.457 261.395 550.404 261.406 550.356 261.43C550.308 261.454 550.266 261.489 550.234 261.532C550.198 261.574 550.174 261.624 550.163 261.677C550.151 261.73 550.15 261.785 550.165 261.838L553.513 275.854Z" fill="#045C80"/>
<path d="M538.03 258.222C538.586 258.342 539.161 258.351 539.72 258.249C541.777 257.883 542.304 255.632 542.324 255.541C542.345 255.449 542.328 255.352 542.277 255.272C542.226 255.192 542.145 255.136 542.052 255.115C542.008 255.104 541.962 255.102 541.916 255.109C541.869 255.117 541.825 255.133 541.785 255.157C541.745 255.182 541.712 255.214 541.685 255.252C541.658 255.29 541.638 255.333 541.628 255.378C541.628 255.378 541.204 257.272 539.594 257.541C539.164 257.642 538.715 257.645 538.283 257.548C537.852 257.452 537.447 257.258 537.101 256.983C537.033 256.916 536.942 256.879 536.848 256.88C536.753 256.88 536.663 256.919 536.595 256.986C536.529 257.054 536.492 257.145 536.494 257.24C536.493 257.335 536.531 257.425 536.599 257.492C537.005 257.856 537.498 258.107 538.03 258.222Z" fill="#045C80"/>
<path d="M549.084 256.74C549.178 256.754 549.273 256.73 549.35 256.673C549.428 256.617 549.479 256.532 549.494 256.437C549.504 256.396 549.695 255.342 551.231 255.21C553.156 255.041 554.064 257.388 554.073 257.411C554.106 257.5 554.173 257.572 554.257 257.612C554.344 257.652 554.442 257.656 554.531 257.624C554.617 257.589 554.689 257.523 554.728 257.438C554.768 257.352 554.773 257.255 554.743 257.166C554.696 257.046 553.641 254.28 551.173 254.495C550.63 254.492 550.101 254.671 549.671 255.005C549.241 255.338 548.938 255.807 548.807 256.335C548.795 256.425 548.816 256.516 548.868 256.591C548.918 256.666 548.995 256.719 549.084 256.74Z" fill="#045C80"/>
<path d="M551.393 259.027C551.488 259.048 551.587 259.031 551.667 258.979C552.043 258.722 552.364 258.394 552.614 258.014C553.021 257.373 552.404 256.994 552.042 256.752C551.758 256.598 551.518 256.378 551.336 256.111C551.288 256.035 551.304 256.002 551.314 255.982C551.405 255.776 551.918 255.54 552.25 255.46C552.341 255.434 552.42 255.374 552.467 255.292C552.515 255.211 552.531 255.114 552.509 255.021C552.483 254.93 552.423 254.853 552.34 254.805C552.258 254.758 552.161 254.745 552.069 254.769C551.884 254.815 550.922 255.09 550.66 255.704C550.611 255.823 550.589 255.952 550.597 256.08C550.604 256.209 550.643 256.334 550.705 256.446C550.943 256.816 551.266 257.121 551.648 257.337C551.789 257.421 551.918 257.523 552.032 257.642C551.829 257.924 551.579 258.17 551.293 258.369C551.234 258.407 551.189 258.463 551.16 258.527C551.134 258.591 551.126 258.662 551.137 258.731C551.148 258.799 551.18 258.864 551.225 258.915C551.273 258.967 551.333 259.004 551.402 259.022L551.393 259.027Z" fill="#045C80"/>
<path d="M542.366 250.19C541.951 250.097 541.69 249.685 541.783 249.27C541.876 248.855 542.287 248.593 542.703 248.686C543.118 248.779 543.379 249.191 543.286 249.606C543.193 250.022 542.781 250.283 542.366 250.19Z" fill="#045C80"/>
<path opacity="0.45" d="M541.277 271.322C541.277 271.322 542.981 269.195 544.291 267.463C545.183 266.288 546.145 264.5 546.994 263.681C546.243 264.416 545.33 264.963 544.326 265.277C542.155 265.698 541.858 265.295 541.537 265.099C542.29 266.24 542.921 268.056 541.277 271.322Z" fill="#FE0065"/>
<path d="M445.872 319.758C449.619 317.04 456.171 320.792 454.868 326.318C453.534 331.976 449.045 331.406 447.168 330.963C444.109 330.242 439.892 328.829 441.818 320.662C443.095 315.246 445.758 311.11 450.972 312.339C456.905 313.738 456.077 318.702 456.077 318.702L452.207 317.789C452.167 317.129 451.931 316.26 450.211 315.878C448.347 315.485 446.68 316.951 445.872 319.758ZM447.869 327.782C449.422 328.148 450.958 327.441 451.415 325.504C451.856 323.633 450.888 322.242 449.266 321.86C447.69 321.488 446.138 322.261 445.691 324.154C445.234 326.092 446.293 327.41 447.869 327.782Z" fill="#045C80"/>
</g>
<path d="M455.135 205.126L458.756 205.873L457.985 209.613L446.043 207.15L446.815 203.41L451.445 204.365L453.615 193.842L448.7 195.662L449.538 191.596L454.549 189.312L458.24 190.073L455.135 205.126Z" fill="#FF4B39"/>
<path d="M470.938 192.281C475.865 193.297 478.147 197.643 476.897 203.706C475.608 209.954 471.561 212.776 466.908 211.817C462.347 210.876 459.646 206.71 460.944 200.415C462.185 194.399 466.124 191.288 470.938 192.281ZM467.746 207.752C470.038 208.224 472.026 206.237 472.725 202.845C473.429 199.431 472.597 196.861 470.099 196.346C467.372 195.783 465.897 197.489 465.116 201.276C464.426 204.621 465.317 207.25 467.746 207.752Z" fill="#FF4B39"/>
<defs>
<linearGradient id="paint0_linear_1_8111" x1="478.243" y1="222.472" x2="495.1" y2="262.614" gradientUnits="userSpaceOnUse">
<stop stop-color="#FFDE00"/>
<stop offset="1" stop-color="#FE0065"/>
</linearGradient>
<linearGradient id="paint1_linear_1_8111" x1="452.619" y1="340.148" x2="514.433" y2="351.853" gradientUnits="userSpaceOnUse">
<stop stop-color="#FFDE00"/>
<stop offset="1" stop-color="#FE0065"/>
</linearGradient>
<linearGradient id="paint2_linear_1_8111" x1="548.926" y1="244.047" x2="531.541" y2="316.991" gradientUnits="userSpaceOnUse">
<stop stop-color="#FFDE00"/>
<stop offset="1" stop-color="#FE0065"/>
</linearGradient>
</defs>
</svg>
