<svg width="518" height="587" viewBox="0 0 518 587" fill="none" xmlns="http://www.w3.org/2000/svg">
<path d="M202.219 509.122C199.539 508.101 193.437 508.741 189.781 509.276C186.126 509.812 188.645 528.207 187.209 529.123C185.772 530.038 179.608 532.847 179.994 536.498C180.534 541.847 196.661 550.832 207.413 542.983C218.167 535.135 223.495 525.604 223.375 522.091C223.258 518.579 207.956 511.307 202.219 509.122Z" fill="#007EA4"/>
<path d="M202.191 508.716L202.353 508.772C207.033 510.556 223.667 518.126 223.759 522.079C223.878 525.845 218.201 535.566 207.635 543.28C202.37 547.108 194.984 547.482 187.834 544.274C183.241 542.212 179.863 539.03 179.618 536.535C179.293 533.141 183.927 530.552 186.158 529.284C186.517 529.083 186.81 528.922 187.015 528.787C187.395 528.395 187.358 524.989 187.322 522.257C187.234 514.888 187.36 509.23 189.751 508.854C193.165 508.402 199.296 507.725 202.191 508.716ZM190.146 544.378C193.962 545.684 201.108 547.127 207.193 542.678C217.559 535.109 223.125 525.706 223.009 522.1C222.917 519.182 209.406 512.262 202.083 509.47L201.941 509.422C199.109 508.452 192.516 509.231 189.836 509.642C187.924 509.921 187.991 517.346 188.062 522.265C188.133 527.184 188.078 529.008 187.409 529.436C187.199 529.569 186.894 529.742 186.53 529.925C184.439 531.092 180.091 533.533 180.349 536.429C180.569 538.631 183.836 541.632 188.128 543.553C188.623 543.77 189.296 544.087 190.146 544.378Z" fill="#045C80"/>
<path d="M187.209 529.122L183.589 531.149C183.589 531.149 180.826 532.844 182.462 534.44C184.097 536.036 189.178 537.064 190.587 534.13C191.461 532.318 193.25 528.66 193.25 528.66L189.357 524.417L187.209 529.122Z" fill="#045C80"/>
<path d="M202.027 522.753C202.027 522.753 205.752 513.075 209.388 511.576C213.025 510.077 222.405 520.311 222.405 520.311C222.405 520.311 215.708 515.844 211.818 516.236C206.645 516.726 202.027 522.753 202.027 522.753Z" fill="#045C80"/>
<path d="M197.241 491.364C207.229 489.754 213.029 510.735 213.029 510.735L202.003 522.776C202.878 523.171 203.575 523.878 203.958 524.758C204.728 526.342 203.589 529.898 201.341 530.276C198.746 530.716 196.991 529.118 195.959 528.188C194.925 527.256 195.176 530.703 193.052 532.309C190.773 534.027 189.475 534.927 189.475 534.927C189.475 534.927 185.583 528.257 185.885 523.267C186.007 521.15 187.99 522.407 188.437 520.844C188.885 519.281 189.218 515.931 191.117 514.937C192.656 514.135 195.284 516.877 196.583 516.943C196.733 516.958 196.885 516.917 197.008 516.828C197.13 516.738 197.216 516.607 197.246 516.458C197.61 515.396 196.973 512.75 196.33 510.609C195.831 508.856 195.303 507.489 195.303 507.489C195.303 507.489 190.949 492.373 197.241 491.364Z" fill="url(#paint0_linear_1_2037)"/>
<path d="M200.708 491.286C208.708 494.025 213.198 509.876 213.404 510.658C213.416 510.72 213.411 510.784 213.39 510.843C213.37 510.903 213.335 510.956 213.288 510.998L202.626 522.642C203.365 523.112 203.959 523.781 204.338 524.572C204.561 525.221 204.643 525.91 204.578 526.593C204.513 527.276 204.303 527.937 203.961 528.532C203.737 529.055 203.391 529.518 202.953 529.882C202.516 530.247 201.998 530.502 201.441 530.627C198.63 531.103 196.682 529.305 195.743 528.446C195.597 528.726 195.477 529.018 195.382 529.319C195.047 530.597 194.337 531.745 193.344 532.615C191.084 534.316 189.766 535.233 189.756 535.238C189.714 535.269 189.666 535.291 189.614 535.302C189.563 535.313 189.51 535.313 189.458 535.302C189.408 535.29 189.36 535.268 189.319 535.237C189.278 535.207 189.243 535.168 189.217 535.124C189.053 534.846 185.27 528.292 185.574 523.248C185.547 522.794 185.702 522.349 186.002 522.008C186.303 521.666 186.725 521.457 187.178 521.425C187.721 521.295 188.042 521.215 188.157 520.716C188.261 520.412 188.33 520.024 188.425 519.606C188.812 517.857 189.35 515.455 191.015 514.586C192.142 513.999 193.587 514.881 194.854 515.663C195.402 516.067 196.021 516.367 196.677 516.548L196.712 516.56C196.812 516.594 196.903 516.538 196.976 516.326C197.129 515.88 197.209 514.555 196.052 510.704C195.551 509.006 195.037 507.62 195.033 507.61C194.899 507.145 191.97 496.922 194.632 492.725C194.911 492.262 195.287 491.866 195.737 491.566C196.184 491.265 196.695 491.068 197.228 490.988C198.396 490.8 199.59 490.901 200.708 491.286ZM212.632 510.647C212.005 508.526 206.328 490.3 197.302 491.717C196.877 491.784 196.469 491.944 196.114 492.188C195.756 492.431 195.459 492.75 195.241 493.123C192.768 497.021 195.689 507.266 195.715 507.37C195.715 507.37 196.244 508.784 196.743 510.489C197.672 513.575 197.971 515.655 197.658 516.568C197.6 516.794 197.464 516.992 197.273 517.126C197.081 517.26 196.849 517.323 196.617 517.302L196.554 517.281C195.778 517.103 195.047 516.766 194.409 516.293C193.312 515.617 192.056 514.847 191.315 515.234C189.954 515.954 189.462 518.15 189.101 519.759C189.006 520.2 188.91 520.595 188.816 520.918C188.714 521.25 188.515 521.544 188.246 521.763C187.977 521.982 187.648 522.116 187.303 522.148C186.7 522.29 186.33 522.376 186.281 523.261C186.031 527.43 188.836 532.914 189.603 534.347C190.125 533.972 191.24 533.168 192.828 531.972C193.702 531.188 194.329 530.165 194.627 529.029C194.891 528.257 195.066 527.748 195.521 527.643C195.649 527.617 195.782 527.626 195.906 527.668C196.031 527.711 196.142 527.786 196.228 527.885C197.142 528.727 198.842 530.298 201.295 529.881C201.73 529.765 202.135 529.553 202.479 529.26C202.821 528.966 203.093 528.599 203.274 528.186C203.553 527.689 203.728 527.141 203.786 526.574C203.844 526.008 203.784 525.435 203.611 524.893C203.267 524.098 202.64 523.458 201.854 523.097C201.795 523.076 201.743 523.041 201.703 522.996C201.661 522.95 201.632 522.894 201.618 522.834C201.608 522.774 201.613 522.712 201.632 522.654C201.652 522.595 201.687 522.543 201.732 522.502L212.632 510.647Z" fill="#045C80"/>
<path d="M202.218 526.353C202.287 526.375 202.349 526.418 202.395 526.476C202.439 526.534 202.466 526.604 202.47 526.677C202.462 527.134 202.299 527.574 202.011 527.929C201.722 528.283 201.322 528.53 200.877 528.63C198.914 529.255 197.559 527.209 197.503 527.119C197.451 527.036 197.432 526.935 197.454 526.839C197.475 526.742 197.533 526.658 197.617 526.605C197.657 526.577 197.703 526.558 197.752 526.549C197.8 526.54 197.849 526.541 197.897 526.552C197.945 526.562 197.992 526.582 198.032 526.611C198.071 526.639 198.104 526.675 198.131 526.717C198.131 526.717 199.227 528.366 200.649 527.912C200.941 527.866 201.21 527.721 201.407 527.5C201.604 527.279 201.721 526.998 201.734 526.701C201.73 526.652 201.737 526.603 201.752 526.557C201.768 526.51 201.793 526.467 201.825 526.43C201.858 526.394 201.897 526.364 201.941 526.342C201.986 526.321 202.035 526.31 202.083 526.307C202.131 526.312 202.177 526.328 202.218 526.353Z" fill="#045C80"/>
<path d="M199.997 524.96C200.053 524.976 200.103 525.007 200.142 525.049C200.176 525.083 200.205 525.125 200.222 525.17C200.242 525.216 200.252 525.264 200.251 525.314C200.251 525.363 200.243 525.412 200.223 525.457C200.203 525.502 200.177 525.544 200.142 525.579C199.971 525.771 199.834 525.992 199.737 526.231L200.012 526.325C200.363 526.428 200.681 526.619 200.938 526.88C201.02 526.967 201.078 527.073 201.111 527.189C201.143 527.305 201.147 527.426 201.122 527.543C200.944 528.009 200.586 528.384 200.131 528.588C200.088 528.611 200.04 528.624 199.989 528.627C199.941 528.631 199.891 528.625 199.845 528.61C199.798 528.595 199.755 528.571 199.717 528.538C199.68 528.506 199.648 528.467 199.626 528.423C199.604 528.379 199.59 528.331 199.586 528.282C199.582 528.233 199.589 528.183 199.605 528.137C199.619 528.089 199.644 528.046 199.675 528.009C199.709 527.971 199.748 527.941 199.791 527.918C200.043 527.814 200.252 527.63 200.389 527.395C200.205 527.215 199.977 527.085 199.728 527.018C199.388 526.902 198.766 526.642 199.014 525.983C199.147 525.631 199.344 525.306 199.602 525.03C199.654 524.982 199.72 524.95 199.79 524.938C199.859 524.925 199.932 524.933 199.997 524.96Z" fill="#045C80"/>
<path d="M192.155 518.883C192.419 518.972 192.673 519.091 192.91 519.236C193.426 519.585 193.839 520.067 194.102 520.63C194.366 521.194 194.472 521.819 194.409 522.438C194.395 522.538 194.345 522.63 194.264 522.692C194.185 522.755 194.082 522.783 193.981 522.77C193.882 522.758 193.791 522.707 193.727 522.626C193.666 522.547 193.637 522.445 193.649 522.344C193.698 521.868 193.619 521.388 193.42 520.953C193.218 520.518 192.904 520.145 192.51 519.874C192.162 519.633 191.756 519.487 191.334 519.449C190.911 519.411 190.487 519.483 190.101 519.658C190.015 519.703 189.915 519.712 189.824 519.685C189.732 519.657 189.652 519.595 189.604 519.511C189.557 519.428 189.543 519.329 189.567 519.235C189.591 519.142 189.649 519.061 189.731 519.01C190.104 518.823 190.512 518.716 190.928 518.694C191.346 518.672 191.763 518.736 192.155 518.883Z" fill="#045C80"/>
<path d="M190.939 527.007C190.457 526.842 189.934 527.098 189.769 527.579C189.604 528.06 189.861 528.583 190.342 528.748C190.822 528.913 191.345 528.656 191.51 528.175C191.675 527.694 191.419 527.171 190.939 527.007Z" fill="#045C80"/>
<path opacity="0.45" d="M196.823 510.833L201.071 519.769C200.547 519.306 199.976 518.901 199.367 518.56C198.541 518.069 197.68 517.644 196.788 517.29C197.097 517.309 197.543 517.05 197.704 516.37C197.972 515.259 197.467 512.975 196.823 510.833Z" fill="#FF4B39"/>
<path d="M114.664 444.83C114.664 444.83 120.22 438.769 126.95 436.226C127.295 436.091 127.652 435.976 128 435.858C135.196 433.576 147.045 433.68 147.045 433.68L147.122 461.384L146.864 461.462C146.307 461.612 144.815 462.042 142.787 462.652L142.32 462.793C138.958 463.816 134.347 465.298 130.067 466.869C122.24 469.772 123.159 474.365 118.427 472.571C112.722 470.389 121.989 459.999 121.989 459.999L114.664 444.83Z" fill="url(#paint1_linear_1_2037)"/>
<path d="M147.174 433.328C147.248 433.353 147.312 433.4 147.358 433.465C147.403 433.528 147.426 433.605 147.424 433.682L147.506 461.389C147.505 461.471 147.477 461.55 147.428 461.616C147.379 461.681 147.311 461.73 147.232 461.754L146.997 461.816C146.5 461.954 145.02 462.372 142.927 463.008L142.46 463.149C137.686 464.598 133.586 465.97 130.227 467.208C127.753 468.098 125.516 469.546 123.694 471.44C122.189 472.902 121.096 473.967 118.325 472.916C117.838 472.761 117.399 472.484 117.048 472.11C116.699 471.738 116.449 471.28 116.326 470.784C115.464 467.231 120.558 461.106 121.578 459.929L114.34 444.964C114.305 444.898 114.292 444.822 114.305 444.748C114.316 444.673 114.35 444.604 114.403 444.551C114.428 444.48 120.094 438.394 126.867 435.865C127.205 435.735 127.553 435.617 127.892 435.504C135.061 433.253 146.93 433.324 147.054 433.311C147.094 433.309 147.135 433.315 147.174 433.328ZM146.749 461.13L146.678 434.06C144.617 434.074 134.458 434.225 128.121 436.223C127.778 436.327 127.428 436.444 127.098 436.577L127.036 436.595C121.144 438.84 116.098 443.873 115.116 444.898L122.346 459.852C122.381 459.919 122.395 459.995 122.385 460.069C122.375 460.144 122.342 460.213 122.293 460.269C122.266 460.347 116.203 467.151 117.049 470.636C117.145 471.014 117.338 471.36 117.607 471.641C117.877 471.923 118.215 472.128 118.588 472.238C120.917 473.131 121.699 472.394 123.169 470.92C125.062 468.951 127.387 467.449 129.962 466.532C133.307 465.305 137.446 463.907 142.238 462.456L142.706 462.316C144.745 461.693 146.227 461.244 146.749 461.13Z" fill="#045C80"/>
<path opacity="0.45" d="M130.813 435.563C135.142 434.561 139.556 433.982 143.995 433.837L146.273 461.346L139.167 463.389C139.167 463.389 140.927 462.086 140.835 461.588C140.746 461.091 140.097 460.442 139.929 459.941C139.517 458.836 142.479 457.896 142.203 457.406C142.036 457.112 140.368 455.56 140.199 455.273C139.356 453.806 143.322 451.645 142.254 450.33C141.889 449.873 139.199 450.312 139.036 448.873C138.954 448.054 140.828 446.181 140.374 445.519C140.069 445.074 137.69 443.382 137.281 443.005C136.04 441.853 138.899 440.016 137.636 438.872C136.375 437.728 131.55 439.327 130.85 437.908C130.561 437.343 130.461 435.648 130.813 435.563Z" fill="#FF4B39"/>
<path d="M266.786 527.583C266.786 527.583 270.35 537.083 269.141 542.624C267.931 548.165 261.026 561.475 264.947 563.695C268.868 565.915 278.501 556.837 278.501 556.837C278.501 556.837 282.062 562.928 282.363 566.345C282.664 569.761 282.639 575.794 284.802 577.998C286.966 580.202 288.816 579.372 288.816 579.372C288.816 579.372 290.786 584.428 294.507 582.681C298.229 580.935 301.228 574.417 301.228 574.417C301.228 574.417 305.466 575.41 306.663 568.773C309.17 554.915 297.244 511.773 297.244 511.773L266.786 527.583Z" fill="url(#paint2_linear_1_2037)"/>
<path d="M297.368 511.411C297.419 511.434 297.464 511.468 297.5 511.51C297.536 511.552 297.562 511.603 297.576 511.657C298.068 513.407 309.493 555.056 307.006 568.835C306.538 571.403 305.579 573.186 304.14 574.132C303.335 574.663 302.374 574.905 301.414 574.82C300.807 576.06 298.057 581.365 294.665 582.98C294.211 583.214 293.711 583.349 293.201 583.375C292.69 583.402 292.179 583.321 291.702 583.136C289.99 582.454 288.957 580.551 288.604 579.782C287.907 579.946 286.314 580.026 284.535 578.222C282.623 576.279 282.347 571.795 282.116 568.197C282.076 567.527 282.039 566.897 281.965 566.326C281.725 563.54 279.176 558.792 278.392 557.385C276.58 559.026 268.434 566.075 264.741 563.972C261.708 562.253 264.335 555.134 266.638 548.892C267.466 546.804 268.173 544.67 268.756 542.5C269.925 537.143 266.45 527.776 266.413 527.677C266.377 527.593 266.373 527.499 266.403 527.412C266.432 527.326 266.493 527.254 266.573 527.21L297.017 511.418C297.071 511.389 297.131 511.373 297.192 511.372C297.252 511.371 297.313 511.384 297.368 511.411ZM292.109 582.524C292.475 582.642 292.86 582.686 293.243 582.654C293.626 582.622 293.998 582.515 294.34 582.338C297.886 580.666 300.845 574.356 300.874 574.295C300.909 574.217 300.972 574.154 301.049 574.117C301.127 574.08 301.215 574.071 301.299 574.093C302.16 574.221 303.038 574.022 303.759 573.535C305.008 572.706 305.861 571.092 306.285 568.746C308.609 555.884 298.243 516.962 296.993 512.343L267.245 527.764C267.858 529.484 270.617 537.617 269.502 542.7C268.914 544.907 268.197 547.078 267.355 549.201C265.257 554.888 262.645 561.965 265.129 563.369C268.165 565.105 275.615 559.051 278.238 556.565C278.279 556.526 278.328 556.496 278.381 556.479C278.435 556.462 278.492 556.457 278.548 556.464C278.604 556.472 278.657 556.492 278.704 556.524C278.751 556.555 278.791 556.597 278.819 556.645C278.969 556.902 282.434 562.857 282.73 566.311C282.775 566.873 282.817 567.512 282.875 568.196C283.078 571.484 283.368 575.996 285.081 577.737C287.021 579.714 288.584 579.055 288.671 579.03C288.718 579.01 288.768 579 288.818 578.999C288.868 578.999 288.918 579.008 288.965 579.027C289.012 579.046 289.055 579.074 289.09 579.111C289.125 579.148 289.152 579.192 289.169 579.24C289.169 579.24 290.18 581.761 292.01 582.49L292.109 582.524Z" fill="#045C80"/>
<path d="M286.054 537.431C286.141 537.46 286.215 537.52 286.26 537.6C286.306 537.68 286.32 537.773 286.301 537.863C285.506 541.194 284.532 544.48 283.382 547.706C281.174 554.154 278.887 556.953 278.785 557.069C278.721 557.144 278.631 557.192 278.533 557.201C278.435 557.21 278.337 557.181 278.261 557.119C278.223 557.087 278.191 557.048 278.168 557.005C278.145 556.961 278.131 556.913 278.126 556.863C278.122 556.814 278.128 556.764 278.142 556.717C278.157 556.67 278.181 556.626 278.213 556.588C278.213 556.588 280.539 553.77 282.695 547.471C283.835 544.273 284.802 541.017 285.593 537.716C285.613 537.619 285.67 537.533 285.752 537.479C285.835 537.424 285.936 537.404 286.033 537.423L286.054 537.431Z" fill="#045C80"/>
<path d="M286.322 553.624C286.388 553.646 286.446 553.686 286.49 553.739C286.535 553.792 286.565 553.856 286.575 553.924C286.589 554.023 288.074 563.729 287.819 569.763C287.561 575.645 289.136 579.174 289.155 579.211C289.187 579.3 289.185 579.399 289.148 579.486C289.111 579.573 289.042 579.643 288.956 579.682C288.869 579.72 288.771 579.725 288.682 579.694C288.592 579.663 288.518 579.6 288.473 579.516C288.406 579.366 286.816 575.785 287.079 569.73C287.333 563.768 285.854 554.136 285.841 554.036C285.827 553.939 285.851 553.84 285.91 553.761C285.968 553.682 286.055 553.629 286.152 553.613C286.209 553.602 286.267 553.606 286.322 553.624Z" fill="#045C80"/>
<path d="M291.207 550.33C291.273 550.352 291.331 550.392 291.375 550.445C291.42 550.497 291.449 550.562 291.46 550.63C291.482 550.819 294.163 569.435 298.314 573.087C298.694 573.435 299.142 573.7 299.629 573.867C300.116 574.034 300.632 574.098 301.146 574.056C301.244 574.042 301.344 574.067 301.424 574.126C301.504 574.185 301.557 574.274 301.571 574.372C301.586 574.47 301.561 574.57 301.502 574.65C301.442 574.73 301.354 574.783 301.256 574.798C300.636 574.85 300.012 574.773 299.423 574.572C298.835 574.37 298.294 574.048 297.837 573.627C293.489 569.766 290.85 551.465 290.738 550.707C290.724 550.609 290.749 550.511 290.807 550.431C290.865 550.352 290.952 550.299 291.049 550.283C291.105 550.286 291.159 550.302 291.207 550.33Z" fill="#045C80"/>
<path opacity="0.45" d="M301.074 529.018L297.236 511.793L267.429 527.25L268.983 533.681C268.983 533.681 269.068 529.946 269.391 529.811C270.182 529.465 270.553 530.391 271.304 529.976C272.133 529.363 272.999 528.801 273.896 528.293C274.676 528.118 277.116 530.115 277.912 530.008C278.708 529.901 279.916 527.413 280.653 527.246C281.836 526.979 284.349 529.824 285.549 529.713C286.946 529.582 288.656 526.206 290.014 525.912C291.372 525.618 293.916 530.498 295.15 530.106C296.756 529.596 296.408 527.516 297.269 527.336C298.935 526.973 301.074 529.018 301.074 529.018Z" fill="#FF4B39"/>
<path d="M404.799 307.306L447.403 270.229L431.712 228.149L391.868 227.094L354.575 262.266L404.799 307.306Z" fill="url(#paint3_linear_1_2037)"/>
<path d="M431.833 227.794C431.885 227.812 431.932 227.843 431.971 227.883C432.01 227.921 432.039 227.968 432.056 228.021L447.756 270.097C447.781 270.169 447.785 270.247 447.767 270.321C447.748 270.395 447.709 270.462 447.653 270.513L405.043 307.587C404.975 307.647 404.888 307.681 404.797 307.681C404.708 307.679 404.62 307.647 404.553 307.585L354.336 262.548C354.297 262.514 354.266 262.47 354.244 262.424C354.222 262.377 354.21 262.325 354.209 262.273C354.203 262.222 354.209 262.17 354.225 262.122C354.242 262.072 354.27 262.028 354.306 261.991L391.615 226.818C391.686 226.752 391.781 226.716 391.878 226.719L431.699 227.771L431.833 227.794ZM446.958 270.141L431.444 228.515L392.009 227.491L355.115 262.307L404.786 306.858L446.958 270.141Z" fill="#045C80"/>
<path opacity="0.45" d="M405.079 306.532L418.37 295.038C418.37 295.038 415.336 295.999 414.03 294.341C412.859 292.866 416.048 287.663 415.399 286.626C414.228 284.754 407.438 284.469 405.307 282.032C403.715 280.214 406.188 277.542 404.244 275.342C402.301 273.142 399.145 273.192 396.172 270.901C395.229 270.168 397.831 265.665 395.73 263.972C392.761 261.58 385.776 262.232 384.902 261.135C384.187 260.243 388.173 255.486 384.711 252.085C383.225 250.627 374.866 254.323 373.84 252.515C373.15 251.299 376.922 250.559 377.007 247.17C377.074 244.481 372.549 245.708 372.549 245.708L355.023 262.641L405.079 306.532Z" fill="#FF4B39"/>
<path d="M284.483 253.679L283.841 219.361L250.122 203.402L237.244 213.756L238.088 247.465L284.483 253.679Z" fill="url(#paint4_linear_1_2037)"/>
<path d="M250.243 203.049L284.019 218.986C284.081 219.016 284.137 219.064 284.175 219.122C284.212 219.182 284.234 219.25 284.236 219.321L284.858 253.674C284.863 253.727 284.856 253.782 284.838 253.834C284.821 253.884 284.792 253.932 284.756 253.971C284.715 254.006 284.668 254.031 284.617 254.047C284.564 254.062 284.509 254.066 284.456 254.058L238.061 247.844C237.973 247.832 237.892 247.79 237.833 247.723C237.775 247.657 237.743 247.57 237.742 247.481L236.899 213.774C236.892 213.718 236.897 213.66 236.916 213.605C236.934 213.551 236.966 213.502 237.006 213.462L249.883 203.107C249.935 203.069 249.993 203.044 250.056 203.035C250.117 203.025 250.182 203.028 250.243 203.049ZM283.457 219.584L250.151 203.824L237.603 213.912L238.438 247.136L284.078 253.272L283.457 219.584Z" fill="#045C80"/>
<path opacity="0.45" d="M284.483 253.679L283.823 242.445C283.823 242.445 283.018 239.156 281.743 238.839C280.468 238.52 279.908 241.01 278.722 240.896C276.511 240.678 276.92 237.243 275.106 236.558C273.907 236.109 271.801 238.29 270.732 237.924C269.111 237.369 270.583 234.409 267.78 233.45C265.317 232.607 263.507 234.61 261.29 234.231C259.467 233.916 259.497 231.8 257.511 231.617C255.208 231.414 252.447 233.775 251.353 233.685C249.707 233.555 248.276 229.649 246.63 229.584C245.703 229.544 243.857 231.979 242.936 231.847C241.782 231.681 242.204 228.005 240.31 227.784C237.57 227.406 238.024 230.165 238.024 230.165L238.342 246.626L284.483 253.679Z" fill="#FF4B39"/>
<path d="M276.453 446.664L412.501 309.942C412.501 309.942 413.017 294.462 390.413 274.537C367.81 254.61 359.768 253.913 359.768 253.913L274.503 341.268L289.979 252.067C289.979 252.067 275.174 237.427 256.508 236.65C237.84 235.875 233.251 237.893 233.251 237.893L200.404 429.055L276.453 446.664Z" fill="#FF4B39"/>
<path d="M361.58 254.003C365.02 255.181 373.785 259.376 390.671 274.244C413.148 294.055 412.887 309.782 412.881 309.939C412.88 310.033 412.848 310.126 412.791 310.201L276.718 446.928C276.674 446.975 276.618 447.009 276.556 447.027C276.495 447.045 276.429 447.046 276.367 447.03L200.32 429.414C200.229 429.392 200.149 429.336 200.097 429.259C200.043 429.18 200.022 429.085 200.038 428.993L232.857 237.845C232.869 237.785 232.897 237.728 232.934 237.679C232.974 237.631 233.022 237.592 233.078 237.566C233.267 237.48 237.936 235.529 256.503 236.294C275.069 237.059 290.11 251.66 290.258 251.806C290.302 251.847 290.333 251.899 290.351 251.957C290.37 252.015 290.376 252.075 290.366 252.135L275.09 340.149L359.5 253.656C359.539 253.616 359.585 253.584 359.637 253.565C359.689 253.546 359.744 253.54 359.799 253.544C360.408 253.631 361.005 253.784 361.58 254.003ZM412.125 309.791C412.093 308.198 411.215 293.371 390.167 274.816C369.724 256.8 361.168 254.559 359.906 254.317L274.774 341.559C274.717 341.616 274.645 341.653 274.568 341.667C274.489 341.68 274.409 341.667 274.336 341.632C274.266 341.595 274.208 341.538 274.172 341.466C274.135 341.396 274.121 341.316 274.134 341.236L289.583 252.23C288.03 250.758 273.843 237.778 256.469 237.064C240.093 236.385 234.571 237.87 233.553 238.211L200.835 428.767L276.302 446.248L412.125 309.791Z" fill="#045C80"/>
<path d="M274.738 341.5L229.799 388.034L277.537 323.857L274.738 341.5Z" fill="#045C80"/>
<path d="M392.054 292.353C392.107 292.36 392.157 292.378 392.203 292.404C392.239 292.439 392.267 292.479 392.287 292.525C392.307 292.571 392.317 292.62 392.318 292.668C392.319 292.718 392.309 292.768 392.291 292.813C392.273 292.859 392.245 292.901 392.211 292.936L259.175 433.701C259.105 433.767 259.015 433.803 258.92 433.804C258.825 433.804 258.732 433.767 258.663 433.703C258.593 433.637 258.551 433.548 258.545 433.453C258.54 433.358 258.57 433.264 258.63 433.191L391.663 292.433C391.715 292.385 391.779 292.353 391.848 292.34C391.917 292.324 391.988 292.33 392.054 292.353Z" fill="#045C80"/>
<path d="M268.128 407.832C271.626 409.143 274.867 411.057 277.707 413.484C277.779 413.55 277.823 413.641 277.829 413.74C277.835 413.837 277.804 413.933 277.741 414.009C277.708 414.047 277.668 414.077 277.624 414.099C277.579 414.12 277.531 414.133 277.481 414.136C277.431 414.14 277.382 414.131 277.335 414.115C277.288 414.099 277.245 414.074 277.208 414.041C277.128 413.974 268.837 406.73 261.896 407.785C254.955 408.841 244.054 421.787 243.94 421.913C243.909 421.952 243.871 421.984 243.828 422.006C243.785 422.031 243.736 422.045 243.688 422.049C243.641 422.054 243.591 422.049 243.544 422.035C243.498 422.019 243.454 421.996 243.416 421.964C243.377 421.932 243.347 421.893 243.323 421.85C243.301 421.805 243.286 421.757 243.282 421.708C243.277 421.659 243.283 421.61 243.297 421.563C243.312 421.514 243.337 421.471 243.369 421.432C243.822 420.892 254.533 408.158 261.784 407.052C263.931 406.799 266.107 407.065 268.128 407.832Z" fill="#045C80"/>
<path d="M132.238 434.525C132.262 434.454 132.698 433.18 135.444 431.858C137.705 430.75 152.266 428.919 165.301 430.646C166.422 430.793 167.56 430.977 168.624 431.175C170.481 431.511 172.316 431.959 174.119 432.518C179.977 434.366 183.844 438.434 186.362 442.602C188.264 445.808 189.656 449.291 190.484 452.926C190.76 454.127 190.858 454.857 190.858 454.857C191.909 451.926 193.152 449.068 194.578 446.301C195.972 443.615 198.061 434.05 199.503 426.952C200.417 422.409 201.057 418.903 201.057 418.903C205.052 417.824 209.129 417.073 213.247 416.656C218.42 416.071 223.639 415.991 228.828 416.414C230.342 416.539 231.845 416.789 233.318 417.162C238.788 418.577 243.94 421.589 248.522 424.906C254.977 429.591 260.297 434.932 263.806 437.454C270.489 442.257 279.136 443.494 279.136 443.494L284.357 438.686C284.555 438.809 284.732 438.963 284.881 439.142C285.34 439.671 285.798 440.714 284.795 442.348C284.293 443.051 283.742 443.718 283.147 444.345C279.611 448.251 271.618 456.214 267.076 460.724L263.761 463.986C267.193 463.847 270.63 464.041 274.025 464.567C275.841 464.84 277.631 465.27 279.373 465.852C286.303 468.225 290.548 473.356 295.617 484.558C300.687 495.759 304.621 516.489 304.913 522.401C305.206 528.314 301.626 529.184 301.626 529.184L301.174 527.179L299.783 521.009C294.744 520.058 289.57 520.068 284.534 521.039C283.892 521.159 283.24 521.307 282.588 521.479C277.004 523.041 271.889 525.949 267.691 529.949L268.083 532.756C268.083 532.756 268.548 533.706 266.425 532.979C265.972 532.824 265.458 532.016 264.912 530.745C263.516 526.974 262.39 523.108 261.542 519.177C258.982 508.502 256.678 495.574 256.678 495.574C256.678 495.574 255 496.225 252.153 497.402C248.472 498.917 242.894 501.348 236.429 504.315C235.914 504.55 235.38 504.794 234.85 505.047C222.607 510.78 213.065 510.747 213.065 510.747C213.065 510.747 212.581 509.854 211.741 508.451C209.52 504.702 204.931 497.365 201.24 494.125C200.448 493.3 199.42 492.744 198.298 492.532C193.552 492.26 195.355 507.475 195.355 507.475C195.355 507.475 184.372 500.29 180.55 495.289C176.727 490.287 167.374 470.857 163.265 465.923C159.158 460.99 142.822 462.672 142.822 462.672C142.822 462.672 143.158 461.039 143.424 458.394C143.852 454.212 143.857 449.999 143.437 445.816C143.269 444.13 142.936 442.464 142.442 440.842C140.866 435.747 138.288 434.082 138.288 434.082L132.238 434.525Z" fill="#FFDE00"/>
<path d="M235.729 417.552C240.383 419.255 244.754 421.645 248.699 424.641C252.391 427.322 255.642 430.183 258.526 432.664C260.652 434.515 262.485 436.115 263.983 437.19C270 441.512 277.756 442.926 279.002 443.123L284.134 438.435C284.191 438.382 284.263 438.349 284.34 438.34C284.417 438.331 284.495 438.346 284.562 438.384C284.794 438.526 285 438.706 285.171 438.917C285.647 439.467 286.278 440.672 285.118 442.56C284.601 443.282 284.036 443.969 283.426 444.614C280.138 448.233 272.86 455.54 267.343 461.005L264.717 463.594C267.853 463.53 270.989 463.738 274.089 464.216C275.928 464.49 277.74 464.925 279.503 465.517C286.412 467.882 290.72 472.829 295.964 484.422C301.084 495.729 305.005 516.612 305.289 522.411C305.604 528.56 301.869 529.559 301.713 529.601C301.615 529.624 301.513 529.609 301.427 529.558C301.383 529.532 301.345 529.498 301.315 529.456C301.286 529.415 301.266 529.368 301.256 529.318L299.465 521.382C294.549 520.499 289.512 520.525 284.604 521.457C283.971 521.573 283.326 521.724 282.677 521.889C277.226 523.425 272.221 526.242 268.08 530.106L268.44 532.68C268.489 532.805 268.503 532.94 268.481 533.071C268.46 533.203 268.404 533.327 268.318 533.429C268.003 533.772 267.409 533.775 266.319 533.401C265.972 533.283 265.415 532.902 264.579 530.955C263.145 527.146 261.991 523.238 261.125 519.262C258.836 509.78 256.773 498.461 256.338 496.082C255.668 496.351 254.232 496.942 252.25 497.742C246.856 499.984 241.568 502.309 236.535 504.651C236.021 504.886 235.486 505.13 234.963 505.386C222.8 511.091 213.111 511.118 213.016 511.117C212.95 511.118 212.884 511.101 212.825 511.067C212.768 511.034 212.719 510.984 212.688 510.926C212.688 510.926 212.202 510.032 211.367 508.639C209.03 504.676 204.555 497.608 200.94 494.401C200.213 493.631 199.264 493.107 198.227 492.903C197.985 492.886 197.744 492.926 197.523 493.019C197.299 493.111 197.102 493.254 196.945 493.436C194.371 496.169 195.663 507.319 195.681 507.428C195.685 507.499 195.673 507.571 195.641 507.635C195.609 507.7 195.561 507.754 195.5 507.793C195.44 507.83 195.37 507.849 195.298 507.847C195.229 507.846 195.158 507.823 195.1 507.783C194.653 507.495 184.055 500.521 180.159 495.55C178.288 493.137 175.282 487.553 172.071 481.709C168.626 475.35 165.057 468.774 162.927 466.218C159.009 461.492 142.968 463.077 142.811 463.095C142.751 463.101 142.691 463.095 142.636 463.076C142.579 463.057 142.528 463.025 142.484 462.983C142.446 462.938 142.419 462.885 142.403 462.828C142.39 462.771 142.388 462.711 142.401 462.654C142.401 462.654 142.735 461.004 142.997 458.413C143.417 454.258 143.42 450.07 143.007 445.914C142.84 444.251 142.514 442.608 142.03 441.009C140.69 436.675 138.592 434.881 138.121 434.522L132.207 434.957C132.146 434.965 132.086 434.96 132.027 434.939C131.97 434.92 131.918 434.887 131.875 434.843C131.838 434.793 131.815 434.736 131.805 434.674C131.795 434.613 131.801 434.551 131.822 434.492C131.872 434.344 132.4 432.99 135.183 431.602C137.616 430.411 152.234 428.623 165.258 430.354C166.423 430.508 167.52 430.677 168.604 430.883C170.473 431.225 172.319 431.678 174.134 432.238C179.245 433.846 183.47 437.309 186.591 442.49C188.542 445.683 189.982 449.162 190.857 452.8L190.99 453.407C191.934 450.908 193.02 448.466 194.24 446.09C195.309 444.028 196.996 437.37 199.132 426.832C200.035 422.349 200.678 418.828 200.684 418.791C200.696 418.722 200.727 418.659 200.774 418.608C200.82 418.556 200.882 418.52 200.948 418.502C204.964 417.419 209.059 416.663 213.196 416.242C218.397 415.654 223.644 415.572 228.859 415.998C230.39 416.133 231.908 416.386 233.399 416.763C234.158 417.014 234.937 417.281 235.729 417.552ZM272.314 442.17C269.191 441.141 266.233 439.667 263.531 437.794C262.009 436.696 260.172 435.063 258.025 433.229C255.157 430.728 251.938 427.91 248.247 425.246C242.817 421.291 237.879 418.779 233.165 417.559C231.719 417.186 230.247 416.931 228.761 416.796C219.552 416.083 210.29 416.898 201.348 419.208C201.189 420.063 200.608 423.193 199.831 427.032C197.69 437.742 196.018 444.286 194.893 446.463C193.476 449.216 192.24 452.058 191.191 454.97C191.161 455.05 191.107 455.118 191.036 455.164C190.964 455.21 190.881 455.231 190.795 455.222C190.711 455.213 190.633 455.176 190.573 455.117C190.513 455.057 190.476 454.98 190.465 454.896C190.465 454.896 190.367 454.166 190.094 452.998C189.27 449.404 187.898 445.96 186.023 442.786C182.987 437.792 178.969 434.424 173.983 432.867C172.195 432.313 170.374 431.866 168.533 431.531C167.493 431.333 166.383 431.158 165.225 431.007C152.213 429.28 137.696 431.15 135.564 432.176C134.556 432.62 133.649 433.268 132.903 434.08L138.215 433.692C138.296 433.696 138.376 433.724 138.442 433.77C138.555 433.809 141.148 435.566 142.749 440.733C143.248 442.38 143.585 444.071 143.755 445.783C144.18 449.989 144.175 454.226 143.743 458.432C143.564 460.245 143.345 461.577 143.227 462.248C146.063 462.002 159.67 461.085 163.507 465.681C165.685 468.301 169.269 474.906 172.734 481.296C175.916 487.13 178.913 492.695 180.747 495.055C184.006 499.255 192.42 505.078 194.835 506.711C194.581 504.031 193.976 495.472 196.392 492.923C196.622 492.663 196.906 492.457 197.227 492.323C197.547 492.189 197.893 492.129 198.24 492.148C199.134 492.193 200.162 492.743 201.403 493.832C205.1 497.075 209.618 504.252 211.983 508.249C212.59 509.248 213.013 510.017 213.205 510.36C214.684 510.313 223.617 509.86 234.613 504.697C235.143 504.443 235.679 504.2 236.194 503.965C241.235 501.618 246.533 499.288 251.929 497.039C254.747 495.877 256.444 495.216 256.461 495.214C256.513 495.194 256.569 495.185 256.625 495.189C256.682 495.193 256.736 495.21 256.785 495.238C256.832 495.265 256.874 495.302 256.905 495.347C256.936 495.392 256.956 495.443 256.965 495.498C256.992 495.626 259.3 508.539 261.829 519.076C262.682 523.014 263.823 526.883 265.244 530.653C265.982 532.376 266.415 532.636 266.536 532.677C266.902 532.835 267.298 532.914 267.698 532.909C267.686 532.882 267.679 532.853 267.68 532.823L267.288 530.016C267.282 529.96 267.289 529.903 267.307 529.849C267.326 529.795 267.356 529.746 267.395 529.705C271.651 525.67 276.823 522.73 282.468 521.137C283.129 520.96 283.8 520.803 284.44 520.689C289.526 519.721 294.748 519.712 299.838 520.663C299.908 520.678 299.971 520.714 300.021 520.764C300.071 520.815 300.105 520.88 300.119 520.949L301.869 528.705C302.719 528.301 304.749 526.876 304.52 522.417C304.233 516.672 300.339 495.94 295.285 484.72C290.23 473.499 285.945 468.505 279.263 466.217C277.54 465.642 275.77 465.216 273.974 464.944C270.617 464.422 267.217 464.219 263.822 464.339C263.746 464.344 263.671 464.325 263.607 464.286C263.542 464.247 263.492 464.189 263.461 464.12C263.432 464.05 263.424 463.972 263.438 463.897C263.453 463.822 263.489 463.752 263.543 463.697L266.856 460.443C272.366 454.975 279.625 447.702 282.914 444.075C283.487 443.472 284.02 442.833 284.51 442.162C285.371 440.757 285.054 439.881 284.628 439.395C284.563 439.318 284.493 439.246 284.416 439.18L279.377 443.781C279.337 443.819 279.29 443.847 279.237 443.863C279.185 443.879 279.13 443.884 279.076 443.876C276.78 443.489 274.521 442.911 272.321 442.148L272.314 442.17Z" fill="#045C80"/>
<path d="M236.266 473.291C236.266 473.291 244.396 468.277 250.935 466.364C255.251 465.166 259.688 464.462 264.163 464.266L273.707 454.153C273.707 454.153 253.026 460.833 247.364 464.113C241.701 467.394 236.266 473.291 236.266 473.291Z" fill="#045C80"/>
<path d="M185.599 484.602C185.599 484.602 184.45 476.411 186.302 469.248C187.612 464.386 189.222 459.61 191.126 454.948L189.363 449.126C189.363 449.126 184.253 462.275 183.647 467.832C183.042 473.39 185.599 484.602 185.599 484.602Z" fill="#045C80"/>
<path d="M132.23 434.522C132.23 434.522 134.087 431.616 136.379 431.53C138.669 431.445 141.488 437.629 141.488 437.629L138.288 434.082L132.23 434.522Z" fill="#045C80"/>
<path d="M301.654 529.217C302.52 528.721 303.249 528.016 303.773 527.167C304.297 526.317 304.601 525.35 304.656 524.354C304.83 520.934 299.547 520.683 299.547 520.683L301.654 529.217Z" fill="#045C80"/>
<path d="M267.401 529.779L268.068 532.775C268.068 532.775 266.945 533.537 266.169 532.868C265.394 532.199 267.401 529.779 267.401 529.779Z" fill="#045C80"/>
<path d="M278.835 443.77C278.835 443.77 282.177 444.772 283.599 443.393C286.551 440.521 284.413 438.705 284.413 438.705L278.835 443.77Z" fill="#045C80"/>
<path d="M296.049 514.914C297.255 515.332 298.361 515.995 299.299 516.861C300.236 517.727 300.985 518.778 301.497 519.947C302.01 521.115 302.275 522.378 302.276 523.654C302.278 524.93 302.016 526.193 301.506 527.363C301.475 527.435 301.422 527.495 301.354 527.535C301.287 527.574 301.208 527.591 301.13 527.583C301.053 527.574 300.98 527.542 300.921 527.491C300.862 527.44 300.82 527.372 300.801 527.296L299.463 521.365C294.546 520.482 289.509 520.508 284.602 521.441C284.537 521.452 284.471 521.447 284.409 521.426C284.347 521.405 284.292 521.368 284.248 521.32C284.206 521.271 284.176 521.213 284.163 521.151C284.15 521.088 284.153 521.023 284.172 520.962C284.535 519.771 285.133 518.666 285.932 517.712C286.732 516.758 287.715 515.975 288.824 515.411C289.933 514.846 291.145 514.511 292.386 514.426C293.628 514.34 294.873 514.506 296.049 514.914ZM301.274 525.868C301.828 523.789 301.574 521.578 300.564 519.678C299.554 517.779 297.862 516.332 295.828 515.629C294.777 515.267 293.665 515.117 292.556 515.186C291.446 515.256 290.361 515.543 289.363 516.033C287.436 516.976 285.933 518.61 285.155 520.61C290.042 519.758 295.043 519.789 299.92 520.7C299.99 520.715 300.054 520.75 300.104 520.801C300.154 520.852 300.188 520.916 300.202 520.986L301.274 525.868Z" fill="#045C80"/>
<path d="M283.392 488.897C284.832 489.39 286.128 490.232 287.165 491.347C288.202 492.461 288.948 493.815 289.337 495.287C289.726 496.759 289.746 498.304 289.395 499.785C289.044 501.267 288.332 502.639 287.324 503.78C286.316 504.921 285.042 505.795 283.615 506.326C282.187 506.856 280.652 507.026 279.143 506.822C277.634 506.616 276.2 506.042 274.966 505.15C273.732 504.258 272.738 503.075 272.07 501.706C271.269 500.062 270.973 498.217 271.219 496.404C271.465 494.592 272.243 492.893 273.455 491.522C274.666 490.151 276.257 489.17 278.025 488.703C279.794 488.236 281.662 488.303 283.392 488.897ZM277.638 505.7C279.5 506.336 281.525 506.307 283.367 505.617C285.21 504.928 286.757 503.621 287.744 501.92C288.731 500.218 289.099 498.227 288.783 496.285C288.468 494.343 287.489 492.571 286.013 491.27C284.538 489.969 282.657 489.219 280.691 489.149C278.725 489.078 276.795 489.691 275.23 490.884C273.666 492.076 272.563 493.774 272.109 495.689C271.656 497.603 271.879 499.615 272.743 501.383C273.233 502.39 273.918 503.29 274.759 504.031C275.599 504.772 276.578 505.34 277.638 505.7Z" fill="#045C80"/>
<path d="M261.663 518.823L261.734 518.847C263.754 520.041 265.246 521.957 265.91 524.208C266.573 526.459 266.358 528.877 265.307 530.976C265.275 531.039 265.225 531.093 265.163 531.129C265.102 531.165 265.031 531.182 264.959 531.18C264.888 531.177 264.819 531.154 264.76 531.113C264.702 531.072 264.656 531.015 264.629 530.949C263.195 527.14 262.041 523.233 261.175 519.257C261.158 519.186 261.162 519.112 261.186 519.043C261.209 518.974 261.252 518.913 261.308 518.867C261.359 518.831 261.418 518.809 261.48 518.801C261.542 518.793 261.605 518.801 261.663 518.823ZM265.002 529.859C265.655 528.13 265.73 526.235 265.214 524.459C264.698 522.684 263.62 521.124 262.141 520.014C262.905 523.348 263.86 526.635 265.002 529.859Z" fill="#045C80"/>
<path d="M267.232 460.383C267.284 460.4 267.331 460.429 267.37 460.467C267.409 460.505 267.439 460.551 267.458 460.602C267.485 460.669 267.491 460.743 267.475 460.814C267.459 460.885 267.422 460.949 267.369 460.999L264.743 463.587C267.879 463.523 271.015 463.732 274.115 464.21C274.164 464.215 274.213 464.232 274.256 464.257C274.299 464.283 274.336 464.317 274.364 464.359C274.629 464.742 274.864 465.145 275.067 465.564C275.864 467.208 276.158 469.052 275.91 470.863C275.662 472.674 274.884 474.371 273.673 475.74C272.463 477.11 270.874 478.091 269.108 478.559C267.341 479.028 265.475 478.963 263.745 478.374C262.013 477.778 260.496 476.681 259.387 475.223C258.277 473.765 257.625 472.01 257.513 470.181C257.401 468.353 257.834 466.532 258.757 464.949C259.68 463.366 261.052 462.093 262.699 461.29C264.078 460.62 265.603 460.302 267.135 460.365L267.232 460.383ZM263.675 464.352C263.626 464.335 263.581 464.309 263.542 464.274C263.504 464.239 263.473 464.197 263.452 464.149C263.422 464.079 263.414 464.001 263.429 463.926C263.443 463.85 263.479 463.781 263.533 463.726L266.183 461.114C264.221 461.244 262.364 462.049 260.928 463.392C259.492 464.735 258.565 466.534 258.305 468.483C258.045 470.432 258.467 472.411 259.5 474.084C260.534 475.757 262.114 477.021 263.973 477.661C265.655 478.242 267.476 478.282 269.18 477.773C270.885 477.265 272.387 476.234 273.475 474.827C274.563 473.419 275.182 471.706 275.245 469.928C275.308 468.151 274.811 466.398 273.825 464.917C270.516 464.414 267.167 464.221 263.822 464.339C263.784 464.355 263.744 464.363 263.703 464.362L263.675 464.352Z" fill="#045C80"/>
<path d="M246.369 489.996C247.959 490.542 249.369 491.511 250.448 492.799C251.527 494.087 252.235 495.645 252.495 497.304C252.508 497.386 252.493 497.47 252.453 497.542C252.412 497.615 252.348 497.671 252.271 497.703C246.878 499.944 241.59 502.27 236.557 504.611C236.481 504.646 236.398 504.654 236.315 504.635C236.235 504.616 236.162 504.57 236.11 504.506C235.686 503.98 235.321 503.407 235.026 502.798C233.948 500.593 233.789 498.05 234.584 495.727C235.38 493.404 237.064 491.492 239.267 490.411C240.365 489.875 241.558 489.563 242.777 489.491C243.996 489.42 245.217 489.592 246.369 489.996ZM251.684 497.154C251.541 496.424 251.305 495.716 250.982 495.047C250.497 494.045 249.818 493.149 248.986 492.409C248.153 491.67 247.183 491.101 246.132 490.737C244.008 490.01 241.683 490.155 239.667 491.141C237.64 492.135 236.091 493.893 235.36 496.028C234.629 498.164 234.775 500.502 235.768 502.53C236 502.997 236.272 503.443 236.584 503.861C241.399 501.58 246.509 499.336 251.684 497.154Z" fill="#045C80"/>
<path d="M209.699 492.355C211.326 492.909 212.765 493.905 213.858 495.231C214.949 496.557 215.651 498.162 215.883 499.864C216.115 501.566 215.87 503.3 215.172 504.87C214.475 506.44 213.354 507.785 211.935 508.755C211.894 508.785 211.846 508.805 211.795 508.815C211.745 508.824 211.691 508.823 211.642 508.812C211.592 508.801 211.544 508.779 211.502 508.749C211.461 508.718 211.425 508.679 211.399 508.634C209.064 504.672 204.589 497.604 200.974 494.397C200.933 494.36 200.901 494.315 200.881 494.265C200.859 494.215 200.85 494.162 200.85 494.107C200.852 494.053 200.864 494 200.889 493.951C200.912 493.902 200.945 493.859 200.986 493.824C201.5 493.427 202.054 493.086 202.64 492.808C204.839 491.728 207.378 491.565 209.699 492.355ZM211.835 507.898C213.532 506.628 214.695 504.769 215.094 502.686C215.494 500.604 215.1 498.447 213.992 496.64C212.883 494.831 211.139 493.503 209.103 492.914C207.066 492.325 204.882 492.518 202.979 493.455C202.57 493.65 202.179 493.881 201.81 494.146C205.332 497.415 209.498 503.982 211.835 507.898Z" fill="#045C80"/>
<path d="M285.037 438.8C285.099 438.821 285.155 438.859 285.196 438.91C285.672 439.461 286.304 440.665 285.143 442.553C284.627 443.276 284.061 443.962 283.451 444.608C283.399 444.661 283.332 444.698 283.259 444.715C283.186 444.732 283.11 444.728 283.039 444.704C282.97 444.674 282.911 444.626 282.869 444.563C282.827 444.501 282.804 444.429 282.803 444.354C282.823 442.401 283.456 440.505 284.612 438.931C284.644 438.886 284.686 438.848 284.735 438.821C284.784 438.793 284.839 438.778 284.895 438.775C284.943 438.776 284.991 438.784 285.037 438.8ZM283.63 443.277C283.948 442.925 284.242 442.553 284.51 442.163C284.767 441.837 284.939 441.453 285.008 441.044C285.078 440.635 285.043 440.215 284.908 439.823C284.237 440.869 283.802 442.047 283.63 443.277Z" fill="#045C80"/>
<path d="M257.676 436.075C259.933 436.92 261.772 438.613 262.802 440.793C263.831 442.973 263.971 445.468 263.19 447.749C262.409 450.03 260.769 451.917 258.619 453.008C256.469 454.099 253.979 454.31 251.677 453.594C250.524 453.202 249.461 452.584 248.549 451.778C247.637 450.972 246.896 449.992 246.365 448.897C245.565 447.252 245.269 445.406 245.516 443.594C245.763 441.781 246.541 440.082 247.753 438.712C248.965 437.341 250.555 436.36 252.322 435.891C254.091 435.423 255.958 435.488 257.688 436.079L257.676 436.075ZM251.92 452.886C254.034 453.541 256.322 453.346 258.295 452.342C260.269 451.339 261.775 449.605 262.492 447.51C263.209 445.416 263.082 443.123 262.138 441.121C261.193 439.118 259.505 437.562 257.433 436.783C255.317 436.127 253.03 436.323 251.055 437.326C249.082 438.33 247.577 440.063 246.86 442.158C246.142 444.253 246.269 446.545 247.213 448.548C248.159 450.551 249.845 452.107 251.92 452.886Z" fill="#045C80"/>
<path d="M234.304 465.249C236.629 466.045 238.541 467.731 239.623 469.938C240.704 472.143 240.863 474.688 240.068 477.013C239.272 479.337 237.586 481.25 235.38 482.33C233.172 483.41 230.628 483.571 228.304 482.775C227.152 482.379 226.091 481.76 225.18 480.953C224.268 480.146 223.527 479.166 222.996 478.071C222.198 476.425 221.906 474.581 222.155 472.769C222.404 470.958 223.183 469.261 224.394 467.891C225.606 466.522 227.194 465.54 228.961 465.072C230.728 464.603 232.596 464.667 234.326 465.256L234.304 465.249ZM228.546 482.067C230.684 482.799 233.022 482.651 235.051 481.658C237.078 480.665 238.627 478.906 239.359 476.77C240.09 474.633 239.944 472.294 238.951 470.267C237.957 468.238 236.2 466.689 234.062 465.957C232.471 465.411 230.753 465.349 229.125 465.779C227.499 466.208 226.035 467.11 224.921 468.371C223.806 469.632 223.09 471.195 222.863 472.863C222.637 474.53 222.91 476.228 223.646 477.74C224.628 479.762 226.373 481.312 228.496 482.05L228.546 482.067Z" fill="#045C80"/>
<path d="M197.644 467.579C199.902 468.425 201.74 470.117 202.772 472.297C203.801 474.477 203.939 476.972 203.158 479.253C202.377 481.534 200.739 483.421 198.589 484.513C196.438 485.603 193.948 485.814 191.646 485.098C189.388 484.252 187.548 482.56 186.519 480.38C185.489 478.2 185.35 475.704 186.131 473.423C186.912 471.142 188.552 469.256 190.701 468.164C192.851 467.073 195.342 466.863 197.644 467.579ZM191.888 484.39C194.003 485.045 196.291 484.85 198.264 483.846C200.238 482.842 201.745 481.11 202.462 479.015C203.179 476.92 203.05 474.627 202.107 472.625C201.163 470.622 199.474 469.066 197.402 468.287C195.81 467.743 194.095 467.682 192.469 468.112C190.844 468.542 189.383 469.443 188.269 470.703C187.155 471.962 186.439 473.523 186.211 475.189C185.983 476.855 186.252 478.55 186.988 480.063C187.472 481.067 188.148 481.964 188.982 482.704C189.814 483.443 190.785 484.011 191.839 484.373L191.888 484.39Z" fill="#045C80"/>
<path d="M235.729 417.553C240.382 419.257 244.753 421.647 248.698 424.644C248.742 424.673 248.78 424.713 248.805 424.759C248.833 424.805 248.848 424.856 248.853 424.909C248.859 424.963 248.851 425.017 248.833 425.069C248.816 425.12 248.789 425.167 248.751 425.206C247.982 426.018 247.074 426.684 246.068 427.174C244.98 427.709 243.795 428.023 242.586 428.099C241.376 428.175 240.162 428.01 239.014 427.614C236.913 426.888 235.141 425.431 234.024 423.508C232.906 421.585 232.519 419.326 232.929 417.14C232.938 417.09 232.959 417.041 232.987 417C233.016 416.958 233.055 416.924 233.099 416.897C233.141 416.869 233.189 416.85 233.24 416.841C233.292 416.832 233.343 416.835 233.392 416.847C234.158 417.015 234.937 417.281 235.729 417.553ZM247.927 424.98C242.787 421.283 238.089 418.882 233.599 417.654C233.325 419.609 233.741 421.6 234.773 423.283C235.806 424.967 237.389 426.239 239.257 426.882C240.308 427.244 241.422 427.394 242.532 427.323C243.641 427.252 244.726 426.963 245.725 426.472C246.533 426.095 247.278 425.592 247.927 424.98Z" fill="#045C80"/>
<path d="M221.636 439.243C223.894 440.089 225.734 441.781 226.763 443.961C227.793 446.141 227.933 448.637 227.152 450.918C226.371 453.199 224.731 455.085 222.581 456.176C220.431 457.268 217.94 457.478 215.638 456.762C213.38 455.916 211.54 454.224 210.511 452.044C209.481 449.864 209.342 447.368 210.122 445.087C210.903 442.806 212.544 440.92 214.693 439.828C216.843 438.737 219.334 438.527 221.636 439.243ZM215.88 456.054C217.995 456.709 220.283 456.514 222.256 455.51C224.231 454.507 225.736 452.774 226.454 450.679C227.171 448.584 227.044 446.292 226.098 444.289C225.155 442.286 223.466 440.73 221.394 439.951C219.279 439.296 216.991 439.491 215.018 440.495C213.043 441.498 211.538 443.231 210.82 445.326C210.103 447.421 210.23 449.713 211.176 451.716C212.119 453.719 213.808 455.275 215.88 456.054Z" fill="#045C80"/>
<path d="M184.989 441.578C185.527 441.763 186.049 441.998 186.546 442.278C186.603 442.308 186.649 442.354 186.681 442.411C188.608 445.634 190.018 449.141 190.859 452.801C190.872 452.866 190.871 452.933 190.853 452.997C190.49 454.185 189.892 455.288 189.093 456.24C188.297 457.193 187.316 457.975 186.208 458.54C185.103 459.106 183.894 459.443 182.655 459.532C181.416 459.621 180.171 459.461 178.997 459.06C177.813 458.692 176.715 458.09 175.77 457.291C174.824 456.493 174.047 455.511 173.486 454.407C172.926 453.303 172.592 452.097 172.506 450.862C172.419 449.626 172.582 448.386 172.983 447.214C173.384 446.043 174.016 444.963 174.841 444.04C175.667 443.117 176.67 442.369 177.789 441.84C178.909 441.311 180.125 441.012 181.362 440.96C182.598 440.909 183.834 441.106 184.995 441.541L184.989 441.578ZM186.121 442.891C184.925 442.233 183.591 441.872 182.227 441.837C180.861 441.801 179.509 442.094 178.282 442.69C176.769 443.428 175.51 444.598 174.662 446.052C173.814 447.505 173.414 449.178 173.516 450.857C173.619 452.538 174.216 454.15 175.234 455.49C176.251 456.831 177.643 457.84 179.233 458.389C180.307 458.758 181.443 458.909 182.575 458.833C183.708 458.757 184.814 458.455 185.828 457.945C186.842 457.436 187.744 456.729 188.481 455.866C189.218 455.003 189.775 454.001 190.121 452.92C189.294 449.39 187.934 446.005 186.093 442.882L186.121 442.891Z" fill="#045C80"/>
<path d="M213.353 416.296C213.403 416.313 213.447 416.34 213.486 416.377C213.524 416.412 213.554 416.457 213.574 416.506C214.317 418.395 214.421 420.478 213.866 422.431C213.312 424.385 212.13 426.103 210.505 427.32C208.878 428.536 206.896 429.184 204.865 429.164C202.834 429.144 200.867 428.458 199.264 427.209C199.209 427.167 199.167 427.109 199.144 427.044C199.119 426.978 199.114 426.907 199.131 426.84C200.033 422.356 200.677 418.836 200.682 418.798C200.693 418.73 200.725 418.666 200.771 418.615C200.82 418.564 200.88 418.527 200.946 418.509C204.961 417.426 209.057 416.67 213.194 416.25C213.251 416.251 213.305 416.267 213.353 416.296ZM202.225 428.009C203.744 428.536 205.381 428.621 206.948 428.255C208.514 427.889 209.943 427.086 211.072 425.94C212.199 424.794 212.979 423.352 213.321 421.78C213.663 420.209 213.553 418.573 213.004 417.062C209.084 417.481 205.201 418.195 201.39 419.199C201.229 420.037 200.667 423.064 199.92 426.794C200.615 427.312 201.385 427.72 202.204 428.003L202.225 428.009Z" fill="#045C80"/>
<path d="M168.745 430.821C168.82 430.847 168.887 430.899 168.932 430.967C168.978 431.036 169 431.117 168.995 431.199C168.986 431.291 168.946 431.378 168.878 431.443C168.811 431.507 168.722 431.544 168.63 431.548C167.452 431.592 166.278 431.405 165.172 430.997C165.085 430.968 165.011 430.906 164.967 430.825C164.924 430.744 164.911 430.649 164.934 430.56C164.956 430.47 165.01 430.39 165.086 430.337C165.162 430.284 165.256 430.262 165.349 430.275C166.513 430.428 167.61 430.598 168.695 430.804L168.745 430.821Z" fill="#045C80"/>
<path d="M147.224 440.779C149.369 441.513 151.17 443.006 152.287 444.978C153.405 446.95 153.76 449.262 153.287 451.479C152.813 453.695 151.544 455.661 149.719 457.004C147.893 458.347 145.639 458.975 143.383 458.768C143.283 458.758 143.192 458.71 143.128 458.633C143.067 458.553 143.039 458.453 143.05 458.354C143.469 454.198 143.473 450.011 143.059 445.854C142.894 444.191 142.565 442.548 142.082 440.948C142.067 440.899 142.062 440.847 142.07 440.797C142.077 440.746 142.093 440.697 142.119 440.653C142.145 440.607 142.179 440.567 142.221 440.536C142.262 440.505 142.311 440.484 142.363 440.475C143.981 440.141 145.659 440.246 147.224 440.779ZM143.827 458.05C145.016 458.107 146.202 457.913 147.313 457.482C148.422 457.051 149.429 456.392 150.269 455.548C151.109 454.704 151.762 453.693 152.186 452.58C152.611 451.468 152.797 450.279 152.734 449.09C152.669 447.901 152.357 446.739 151.817 445.678C151.276 444.618 150.518 443.682 149.593 442.932C148.67 442.182 147.597 441.635 146.447 441.324C145.299 441.015 144.096 440.949 142.92 441.132C143.348 442.652 143.645 444.206 143.805 445.777C144.214 449.858 144.22 453.968 143.827 458.05Z" fill="#045C80"/>
<path d="M481.055 245.043C481.055 245.043 501.629 243.388 502.598 225.199C503.566 207.011 457.699 173.867 416.867 154.913C376.035 135.958 338.065 125.756 320.217 138.293C302.371 150.831 306.721 165.867 306.721 165.867L481.055 245.043Z" fill="#FFDE00"/>
<path d="M383.771 141.012C395.078 144.966 406.174 149.501 417.014 154.599C459.32 174.241 503.929 207.292 502.962 225.244C501.983 243.557 481.286 245.43 481.081 245.43L480.996 245.401L480.904 245.369L306.391 166.093L306.344 165.926C306.293 165.775 302.13 150.518 319.983 137.968C333.846 128.266 358.778 132.455 383.771 141.012ZM481.137 244.667C482.635 244.516 501.327 242.216 502.241 225.179C503.184 207.551 458.785 174.786 416.721 155.249C383.77 139.951 340.323 124.64 320.451 138.611C304.031 150.141 306.669 163.942 307.055 165.586L481.137 244.667Z" fill="#045C80"/>
<path d="M316.701 150.209C331.228 144.111 357.339 148.64 407.469 169.426C422.484 175.65 434.836 182.418 444.871 189.348C468.34 205.568 479.141 222.687 481.821 235.807C485.649 254.516 451.334 280.409 446.053 280.499C440.771 280.588 442.276 274.691 442.276 274.691C441.562 266.458 437.916 258.755 432.003 252.983C427.71 248.821 422.558 245.649 416.91 243.688C393.048 234.965 372.533 245.339 372.533 245.339C372.533 245.339 371.635 244.8 370.034 243.747C365.385 240.639 360.896 237.297 356.587 233.732C355.444 232.789 354.26 231.791 353.033 230.738C349.251 227.465 345.177 223.659 340.96 219.321C334.668 212.841 328.885 205.888 323.662 198.523C302.07 167.88 302.164 156.287 316.701 150.209Z" fill="#007EA4"/>
<path d="M377.035 157.359C386.201 160.498 396.366 164.391 407.621 169.051C421.867 174.956 434.472 181.677 445.079 188.992C465.478 203.094 479.003 220.109 482.174 235.699C483.473 242.068 480.506 250.018 473.593 258.684C464.014 270.698 449.417 280.788 446.033 280.88C445.385 280.949 444.729 280.862 444.122 280.623C443.516 280.385 442.975 280.004 442.547 279.513C441.182 277.795 441.745 275.086 441.841 274.645C441.082 266.539 437.483 258.964 431.68 253.254L431.624 253.235C427.372 249.135 422.281 246.003 416.703 244.06C393.283 235.503 372.858 245.568 372.658 245.666C372.603 245.697 372.541 245.711 372.477 245.709C372.414 245.706 372.352 245.687 372.299 245.655C372.299 245.655 371.371 245.106 369.785 244.058C365.121 240.949 360.622 237.599 356.304 234.026C355.15 233.102 353.962 232.099 352.74 231.017C348.579 227.418 344.506 223.563 340.641 219.583C334.335 213.09 328.541 206.121 323.311 198.735C309.523 179.186 304.365 167.02 306.595 159.284C307.763 155.199 310.914 152.213 316.498 149.872C328.293 144.942 347.447 147.229 377.035 157.359ZM444.432 279.921C444.951 280.086 445.497 280.16 446.041 280.14C448.928 280.068 463.037 270.76 473.029 258.229C477.752 252.309 483.042 243.628 481.478 235.863C478.33 220.481 464.922 203.632 444.683 189.64C434.108 182.325 421.542 175.628 407.354 169.741C359.944 150.109 332.031 144.188 316.861 150.549C311.497 152.792 308.498 155.593 307.384 159.475C305.218 166.974 310.344 178.937 323.986 198.285C329.2 205.637 334.969 212.577 341.244 219.047C345.097 223.014 349.154 226.848 353.301 230.442C354.525 231.486 355.7 232.488 356.846 233.436C361.146 236.989 365.626 240.319 370.266 243.416C371.445 244.199 372.248 244.695 372.582 244.896C374.712 243.895 394.502 235.153 417.035 243.343C422.731 245.332 427.926 248.534 432.265 252.726L432.335 252.75C438.265 258.596 441.927 266.357 442.669 274.652C442.665 274.685 442.653 274.721 442.636 274.75C442.636 274.75 441.96 277.484 443.183 279.019C443.502 279.435 443.936 279.749 444.432 279.921Z" fill="#045C80"/>
<path d="M428.22 213.841C432.396 205.156 439.082 196.208 444.878 189.327C468.347 205.547 479.147 222.667 481.828 235.787C485.656 254.494 451.341 280.389 446.06 280.478C440.778 280.567 442.284 274.668 442.284 274.668C441.569 266.437 437.923 258.735 432.01 252.963C431.631 252.383 419.672 231.625 428.22 213.841Z" fill="#FF4B39"/>
<path d="M444.985 188.968L445.077 189C465.476 203.102 479.001 220.117 482.172 235.707C483.472 242.073 480.504 250.026 473.591 258.691C464.012 270.706 449.415 280.796 446.031 280.887C445.383 280.956 444.728 280.868 444.12 280.631C443.514 280.392 442.973 280.011 442.545 279.52C441.18 277.803 441.743 275.094 441.839 274.652C441.08 266.546 437.482 258.97 431.679 253.26C431.647 253.23 431.622 253.195 431.604 253.156C431.004 252.16 419.281 231.404 427.829 213.668C432.216 204.55 439.334 195.265 444.544 189.079C444.595 189.014 444.666 188.968 444.746 188.948C444.826 188.928 444.909 188.936 444.985 188.968ZM444.432 279.921C444.952 280.087 445.497 280.16 446.042 280.14C448.929 280.068 463.037 270.76 473.029 258.229C477.753 252.309 483.042 243.628 481.478 235.863C478.344 220.556 465.044 203.784 444.964 189.839C439.808 195.982 432.856 205.084 428.57 214C420.278 231.288 431.587 251.52 432.305 252.771C438.234 258.619 441.896 266.378 442.639 274.672C442.634 274.708 442.623 274.741 442.605 274.772C442.605 274.772 441.93 277.505 443.152 279.039C443.482 279.453 443.928 279.759 444.432 279.921Z" fill="#045C80"/>
<path d="M481.353 212.278C481.448 212.313 481.527 212.381 481.571 212.472L490.477 231.639C490.498 231.683 490.509 231.732 490.511 231.78C490.512 231.83 490.504 231.879 490.487 231.925C490.47 231.972 490.443 232.015 490.41 232.051C490.376 232.087 490.336 232.116 490.291 232.136C490.246 232.156 490.197 232.168 490.148 232.17C490.099 232.171 490.05 232.163 490.004 232.145C489.957 232.129 489.915 232.102 489.879 232.069C489.843 232.034 489.813 231.995 489.793 231.949L480.923 212.795C480.901 212.752 480.888 212.705 480.884 212.656C480.881 212.607 480.888 212.558 480.903 212.512C480.919 212.466 480.944 212.425 480.977 212.386C481.009 212.35 481.048 212.322 481.092 212.3C481.132 212.279 481.176 212.267 481.22 212.264C481.265 212.26 481.31 212.265 481.353 212.278Z" fill="#045C80"/>
<path d="M457.209 188.764C457.256 188.774 457.301 188.79 457.344 188.81L471.263 200.979C471.301 201.01 471.331 201.05 471.353 201.094C471.376 201.137 471.389 201.185 471.393 201.234C471.396 201.285 471.391 201.332 471.375 201.38C471.36 201.427 471.335 201.47 471.304 201.507C471.237 201.583 471.144 201.629 471.044 201.636C470.944 201.643 470.845 201.611 470.768 201.546L456.849 189.377C456.761 189.327 456.697 189.245 456.67 189.147C456.644 189.049 456.656 188.946 456.706 188.858C456.756 188.77 456.839 188.706 456.937 188.679C457.034 188.653 457.138 188.666 457.225 188.716L457.209 188.764Z" fill="#045C80"/>
<path d="M426.043 169.387L426.121 169.414L443.779 180.204C443.821 180.23 443.857 180.264 443.886 180.304C443.916 180.343 443.936 180.39 443.948 180.437C443.96 180.484 443.961 180.534 443.954 180.583C443.946 180.632 443.928 180.68 443.902 180.72C443.85 180.806 443.769 180.864 443.673 180.889C443.578 180.912 443.477 180.897 443.392 180.847L425.735 170.057C425.645 170.014 425.575 169.938 425.541 169.844C425.507 169.75 425.512 169.647 425.554 169.556C425.597 169.465 425.673 169.397 425.767 169.363C425.861 169.329 425.965 169.333 426.055 169.375L426.043 169.387Z" fill="#045C80"/>
<path d="M392.141 152.553L411.773 161.457C411.818 161.476 411.858 161.505 411.893 161.539C411.926 161.575 411.953 161.617 411.97 161.663C411.988 161.708 411.996 161.758 411.994 161.807C411.992 161.856 411.981 161.903 411.96 161.948C411.917 162.038 411.842 162.107 411.749 162.142C411.656 162.176 411.553 162.173 411.462 162.134L391.828 153.235C391.735 153.2 391.662 153.127 391.623 153.035C391.583 152.945 391.582 152.842 391.619 152.749C391.656 152.657 391.728 152.582 391.819 152.544C391.91 152.505 392.013 152.503 392.106 152.541L392.141 152.553Z" fill="#045C80"/>
<path d="M372.682 145.89C372.771 145.921 372.846 145.984 372.891 146.065C372.936 146.148 372.948 146.245 372.925 146.336C372.899 146.431 372.838 146.513 372.755 146.563C372.671 146.615 372.571 146.63 372.475 146.61L349.979 141.083C349.931 141.071 349.885 141.051 349.845 141.023C349.806 140.993 349.771 140.956 349.746 140.914C349.719 140.872 349.702 140.825 349.694 140.777C349.686 140.729 349.688 140.678 349.699 140.63C349.711 140.583 349.732 140.538 349.763 140.497C349.793 140.458 349.829 140.425 349.87 140.4C349.914 140.376 349.961 140.359 350.009 140.351C350.058 140.345 350.107 140.347 350.156 140.36L372.654 145.881L372.682 145.89Z" fill="#045C80"/>
<path d="M335.612 138.424C335.685 138.449 335.749 138.498 335.796 138.561C335.84 138.626 335.865 138.703 335.863 138.78C335.863 138.859 335.839 138.935 335.792 138.999C335.746 139.062 335.68 139.11 335.606 139.134L322.498 143.346C322.451 143.361 322.403 143.369 322.353 143.364C322.304 143.362 322.256 143.347 322.212 143.326C322.168 143.303 322.129 143.271 322.097 143.233C322.066 143.196 322.042 143.152 322.028 143.104C322.013 143.058 322.007 143.008 322.011 142.96C322.014 142.91 322.028 142.863 322.051 142.819C322.072 142.775 322.104 142.736 322.139 142.705C322.177 142.673 322.221 142.649 322.267 142.633L335.375 138.422C335.45 138.396 335.535 138.396 335.612 138.424Z" fill="#045C80"/>
<path d="M356.592 233.72C361.58 229.498 375.698 218.522 381.011 224.761C384.095 228.389 375.464 238.189 370.032 243.731C365.386 240.623 360.899 237.282 356.592 233.72Z" fill="#FFDE00"/>
<path d="M378.87 222.859C379.817 223.168 380.66 223.731 381.311 224.484C384.423 228.144 377.049 237.094 370.318 243.956L370.102 244.172L369.85 244.008C365.186 240.899 360.687 237.549 356.369 233.976L356.024 233.69L356.36 233.403C361.315 229.232 372.45 220.66 378.87 222.859ZM369.991 243.249C378.909 234.109 382.82 227.468 380.729 225.005C375.695 219.106 361.854 229.804 357.185 233.717C362.626 238.174 367.106 241.329 369.991 243.249Z" fill="#045C80"/>
<path d="M340.965 219.306C345.83 215.168 360.158 203.948 365.522 210.246C368.903 214.228 358.161 225.668 353.038 230.723C349.255 227.452 345.167 223.641 340.965 219.306Z" fill="#FFDE00"/>
<path d="M363.369 208.337C364.316 208.662 365.158 209.237 365.804 210.002C369.284 214.088 359.467 224.907 353.304 230.989L353.053 231.236L352.793 231.004C348.632 227.403 344.558 223.55 340.693 219.57L340.412 219.284L340.722 219.025C345.703 214.801 356.956 206.142 363.369 208.337ZM353.024 230.213C362.87 220.441 367.44 213.077 365.234 210.488C360.156 204.533 346.153 215.404 341.51 219.334C345.195 223.12 349.067 226.779 353.024 230.213Z" fill="#045C80"/>
<path d="M304.866 213.944C304.866 213.944 317.456 210.822 316.205 199.441C314.953 188.06 283.107 172.175 255.879 164.552C228.652 156.929 204.027 154.5 194.24 164.102C184.45 173.705 188.706 182.571 188.706 182.571L304.866 213.944Z" fill="#FFDE00"/>
<path d="M266.847 167.604C291.678 176.105 315.482 189.546 316.577 199.395C317.848 210.972 305.085 214.273 304.956 214.307L304.861 214.331L304.776 214.301L188.405 182.895L188.331 182.744C188.291 182.652 184.103 173.522 194.005 163.865C205.112 152.974 233.85 158.053 256.008 164.224C259.573 165.222 263.215 166.36 266.847 167.604ZM304.886 213.566C306.096 213.243 317.01 210.029 315.851 199.487C314.644 188.507 283.81 172.754 255.783 164.946C233.815 158.825 205.357 153.761 194.502 164.398C185.728 173.004 188.475 181.077 188.96 182.27L304.886 213.566Z" fill="#045C80"/>
<path d="M193.255 171.871C201.65 166.616 218.304 166.76 251.516 174.524C260.206 176.47 268.664 179.337 276.748 183.077C292.962 190.74 301.418 200.224 304.4 208.123C308.683 219.356 290.043 238.897 286.773 239.51C283.502 240.122 283.832 236.296 283.832 236.296C282.553 231.26 279.507 226.849 275.252 223.868C272.163 221.727 268.643 220.285 264.94 219.642C255.455 217.941 245.677 219.919 237.598 225.173C237.598 225.173 236.976 224.959 235.886 224.444C232.68 222.995 229.551 221.38 226.512 219.605C225.699 219.137 224.866 218.637 223.994 218.11C221.315 216.464 218.394 214.515 215.345 212.263C210.782 208.883 206.487 205.158 202.497 201.117C185.986 184.33 184.861 177.127 193.255 171.871Z" fill="#007EA4"/>
<path d="M265.413 178.096C269.329 179.427 273.169 180.977 276.912 182.737C296.249 191.88 302.654 202.48 304.752 207.992C306.224 211.848 305.191 217.125 301.77 223.237C297.156 231.471 289.204 239.432 286.836 239.88C286.422 239.992 285.987 240.004 285.568 239.912C285.15 239.82 284.759 239.631 284.429 239.355C283.384 238.413 283.444 236.646 283.461 236.319C282.166 231.41 279.181 227.115 275.033 224.189L274.99 224.174C271.949 222.079 268.492 220.666 264.854 220.031C255.471 218.374 245.808 220.325 237.803 225.494C237.754 225.531 237.694 225.554 237.632 225.561C237.569 225.571 237.508 225.562 237.449 225.54C237.449 225.54 236.818 225.324 235.715 224.804C232.498 223.346 229.359 221.722 226.311 219.938C225.498 219.47 224.657 218.97 223.793 218.443C220.829 216.638 217.912 214.651 215.107 212.567C210.526 209.181 206.217 205.445 202.214 201.391C191.654 190.66 187.186 183.594 187.786 178.517C188.107 175.82 189.775 173.606 193.035 171.566C201.953 165.984 219.983 166.772 251.582 174.167C256.256 175.246 260.871 176.556 265.413 178.096ZM285.469 239.111C285.877 239.234 286.307 239.247 286.722 239.152C288.416 238.823 296.323 231.478 301.134 222.877C303.446 218.757 305.828 212.867 304.075 208.266C300.571 199.071 290.55 190.018 276.614 183.419C268.549 179.702 260.117 176.844 251.454 174.891C220.086 167.56 202.205 166.728 193.478 172.193C190.447 174.113 188.857 176.147 188.572 178.596C188.007 183.415 192.39 190.287 202.791 200.863C206.768 204.885 211.05 208.595 215.598 211.962C218.384 214.029 221.288 215.989 224.222 217.792C225.086 218.317 225.92 218.816 226.726 219.282C229.744 221.05 232.854 222.661 236.04 224.109C236.78 224.441 237.3 224.658 237.557 224.762C239.081 223.702 250.389 216.502 265.014 219.288C268.767 219.94 272.334 221.401 275.465 223.57L275.528 223.591C279.855 226.611 282.943 231.093 284.225 236.21C284.231 236.245 284.232 236.278 284.228 236.314C284.228 236.314 284.092 238.006 284.963 238.787C285.106 238.931 285.28 239.042 285.469 239.111Z" fill="#045C80"/>
<path d="M268.914 199.974C270.62 194.162 273.824 187.943 276.748 183.076C292.962 190.74 301.418 200.223 304.4 208.123C308.683 219.356 290.043 238.897 286.773 239.509C283.502 240.122 283.832 236.296 283.832 236.296C282.553 231.26 279.508 226.849 275.252 223.868C274.985 223.539 265.425 211.875 268.914 199.974Z" fill="#FF4B39"/>
<path d="M276.87 182.722L276.912 182.737C296.25 191.88 302.655 202.48 304.753 207.99C306.225 211.848 305.192 217.125 301.771 223.237C297.157 231.471 289.204 239.432 286.837 239.878C286.422 239.992 285.988 240.002 285.569 239.912C285.151 239.82 284.76 239.631 284.429 239.355C283.385 238.411 283.445 236.646 283.462 236.319C282.166 231.41 279.182 227.115 275.033 224.189C275.004 224.166 274.977 224.143 274.955 224.115C274.543 223.609 265.049 211.842 268.555 199.868C270.35 193.752 273.83 187.257 276.428 182.88C276.474 182.807 276.542 182.752 276.622 182.724C276.702 182.696 276.789 182.694 276.87 182.722ZM285.47 239.111C285.877 239.234 286.308 239.247 286.722 239.152C288.417 238.822 296.323 231.478 301.135 222.877C303.447 218.757 305.829 212.867 304.075 208.266C300.587 199.163 290.712 190.151 276.943 183.57C274.383 187.906 271.042 194.202 269.319 200.088C265.965 211.522 274.906 222.825 275.551 223.622C279.876 226.641 282.966 231.123 284.248 236.24C284.253 236.275 284.255 236.31 284.251 236.344C284.251 236.344 284.115 238.036 284.987 238.817C285.126 238.947 285.291 239.048 285.47 239.111Z" fill="#045C80"/>
<path d="M301.804 193.442C301.881 193.468 301.947 193.518 301.991 193.586L309.448 204.561C309.482 204.602 309.509 204.648 309.523 204.698C309.538 204.749 309.542 204.804 309.537 204.856C309.529 204.909 309.512 204.958 309.484 205.005C309.456 205.051 309.418 205.087 309.375 205.118C309.33 205.148 309.279 205.168 309.227 205.176C309.174 205.185 309.122 205.182 309.071 205.168C309.02 205.155 308.97 205.132 308.93 205.098C308.888 205.064 308.855 205.022 308.832 204.975L301.375 194C301.348 193.96 301.328 193.914 301.318 193.867C301.307 193.82 301.307 193.771 301.316 193.722C301.325 193.676 301.343 193.631 301.369 193.59C301.397 193.55 301.432 193.515 301.472 193.487C301.519 193.454 301.574 193.431 301.632 193.424C301.688 193.417 301.748 193.423 301.804 193.442Z" fill="#045C80"/>
<path d="M284.427 181.348L284.505 181.374L294.376 187.508C294.42 187.535 294.456 187.568 294.486 187.609C294.517 187.651 294.536 187.696 294.548 187.746C294.56 187.795 294.562 187.845 294.553 187.896C294.546 187.945 294.528 187.993 294.5 188.037C294.473 188.079 294.44 188.115 294.399 188.146C294.358 188.176 294.312 188.195 294.262 188.207C294.213 188.219 294.161 188.22 294.112 188.211C294.063 188.205 294.014 188.186 293.972 188.159L284.097 182.035C284.012 181.981 283.954 181.897 283.932 181.801C283.911 181.705 283.927 181.603 283.98 181.52C284.023 181.444 284.091 181.385 284.172 181.353C284.255 181.321 284.344 181.321 284.427 181.348Z" fill="#045C80"/>
<path d="M263.114 172.501L275.152 177.413C275.197 177.432 275.24 177.459 275.275 177.494C275.309 177.528 275.337 177.571 275.357 177.617C275.375 177.66 275.385 177.709 275.385 177.758C275.386 177.808 275.376 177.856 275.356 177.903C275.342 177.95 275.314 177.994 275.281 178.03C275.246 178.068 275.205 178.097 275.159 178.116C275.113 178.136 275.062 178.145 275.012 178.142C274.963 178.142 274.913 178.129 274.867 178.107L262.837 173.196C262.742 173.164 262.665 173.096 262.621 173.007C262.577 172.917 262.571 172.816 262.603 172.722C262.635 172.628 262.703 172.55 262.792 172.506C262.881 172.463 262.985 172.457 263.079 172.489L263.114 172.501Z" fill="#045C80"/>
<path d="M253.459 169.036C253.551 169.068 253.628 169.138 253.672 169.227C253.716 169.314 253.722 169.417 253.69 169.512C253.658 169.606 253.59 169.684 253.501 169.727C253.412 169.771 253.308 169.777 253.216 169.745L240.131 166.222C240.037 166.194 239.957 166.132 239.91 166.047C239.861 165.962 239.846 165.862 239.868 165.767C239.88 165.719 239.901 165.675 239.931 165.636C239.962 165.595 240 165.562 240.043 165.538C240.087 165.514 240.133 165.499 240.182 165.493C240.232 165.487 240.282 165.492 240.329 165.506L253.416 169.022L253.459 169.036Z" fill="#045C80"/>
<path d="M227.625 163.372C227.722 163.39 227.809 163.451 227.863 163.534C227.916 163.618 227.935 163.719 227.914 163.817C227.893 163.915 227.835 164 227.751 164.054C227.667 164.11 227.564 164.128 227.468 164.108L212.949 162.971C212.9 162.969 212.853 162.955 212.809 162.933C212.767 162.911 212.728 162.881 212.696 162.843C212.665 162.806 212.641 162.762 212.628 162.717C212.613 162.67 212.607 162.621 212.612 162.571C212.618 162.474 212.664 162.382 212.738 162.317C212.814 162.252 212.909 162.219 213.008 162.226L227.526 163.36L227.625 163.372Z" fill="#045C80"/>
<path d="M203.87 162.513C203.96 162.544 204.035 162.609 204.076 162.695C204.098 162.737 204.112 162.788 204.114 162.836C204.118 162.884 204.111 162.934 204.095 162.982C204.079 163.028 204.054 163.071 204.021 163.107C203.989 163.146 203.948 163.175 203.904 163.197L196.223 167.153C196.18 167.175 196.132 167.19 196.084 167.192C196.035 167.196 195.986 167.189 195.94 167.173C195.894 167.158 195.851 167.133 195.814 167.1C195.778 167.069 195.748 167.028 195.728 166.984C195.706 166.941 195.694 166.891 195.69 166.843C195.686 166.794 195.693 166.744 195.709 166.696C195.725 166.65 195.75 166.607 195.783 166.571C195.817 166.533 195.856 166.503 195.9 166.481L203.581 162.525C203.626 162.502 203.676 162.49 203.724 162.488C203.774 162.486 203.824 162.495 203.87 162.513Z" fill="#045C80"/>
<path d="M226.513 219.603C229.167 216.471 236.811 208.231 240.741 211.56C243.027 213.498 238.675 220.455 235.872 224.445C232.669 222.996 229.545 221.379 226.513 219.603Z" fill="#FFDE00"/>
<path d="M239.825 210.608C240.251 210.756 240.646 210.982 240.989 211.274C243.374 213.293 239.696 219.674 236.187 224.656L236.007 224.904L235.716 224.804C232.5 223.346 229.36 221.722 226.312 219.938L225.921 219.718L226.212 219.374C229.024 216.084 235.565 209.149 239.825 210.608ZM235.748 223.976C240.195 217.59 241.967 213.088 240.509 211.846C236.933 208.827 229.678 216.528 227.091 219.51C230.786 221.629 233.787 223.092 235.748 223.976Z" fill="#045C80"/>
<path d="M215.353 212.265C217.98 209.211 225.69 200.778 229.657 204.137C232.172 206.263 226.664 214.453 224.002 218.112C221.313 216.496 218.401 214.518 215.353 212.265Z" fill="#FFDE00"/>
<path d="M228.734 203.18C229.16 203.328 229.555 203.554 229.898 203.849C232.43 205.988 228.25 212.908 224.307 218.328L224.099 218.611L223.805 218.432C220.848 216.628 217.93 214.641 215.124 212.558L214.81 212.323L215.062 212.021C217.872 208.713 224.446 201.712 228.734 203.18ZM223.904 217.612C228.926 210.632 230.979 205.745 229.415 204.426C225.797 201.368 218.456 209.223 215.897 212.198C218.492 214.105 221.183 215.928 223.904 217.612Z" fill="#045C80"/>
<path d="M140.812 274.158L108.362 261.348L131.93 184.224L92.7055 168.032L102.367 136.513L173.83 164.399L140.812 274.158Z" fill="#FFDE00"/>
<path d="M102.128 136.012L102.51 136.143L174.312 164.19L174.2 164.517L141.061 274.653L107.913 261.573L108.025 261.247L131.497 184.447L92.2595 168.25L102.128 136.012ZM173.372 164.628L102.609 137.006L93.1785 167.783L132.404 183.973L132.294 184.293L108.823 261.085L140.57 273.617L173.372 164.628Z" fill="#045C80"/>
<path d="M140.812 274.158L128.149 274.164L95.0227 261.691L119.106 183.612L79.5046 169.081L89.988 135.692L102.367 136.513L92.7049 168.034L131.93 184.224L108.362 261.348L140.812 274.158Z" fill="#FFDE00"/>
<path d="M102.864 136.169L93.194 167.828L132.419 184.018L132.31 184.337L108.84 261.132L142.794 274.536L128.103 274.551L128.033 274.527L94.577 261.927L94.6914 261.593L118.675 183.86L79.0669 169.317L79.1807 168.984L89.7563 135.326L102.864 136.169ZM131.477 184.44L92.2587 168.252L101.872 136.851L90.2684 136.095L79.9833 168.857L119.587 183.388L95.4941 261.465L128.228 273.795L138.858 273.79L107.901 261.609L108.012 261.284L131.477 184.44Z" fill="#045C80"/>
<g opacity="0.5">
<path d="M128.358 273.861L116.922 275.301L88.8151 266.11L121.883 182.356L88.2271 171.762L102.535 135.926L113.595 135.376L100.3 169.18L133.375 181.539L100.911 264.243L128.358 273.861Z" fill="#045C80"/>
<path d="M113.736 134.984C113.776 134.993 113.81 135.012 113.841 135.04C113.869 135.069 113.891 135.104 113.905 135.148C113.919 135.189 113.924 135.235 113.921 135.286C113.917 135.336 113.904 135.388 113.881 135.437L100.774 168.912L133.586 181.17C133.657 181.197 133.709 181.259 133.734 181.342C133.758 181.424 133.751 181.52 133.715 181.617L101.382 263.976L128.561 273.5C128.631 273.524 128.684 273.577 128.711 273.652C128.737 273.728 128.736 273.819 128.708 273.909C128.679 273.999 128.626 274.082 128.558 274.147C128.491 274.21 128.412 274.252 128.334 274.264L116.9 275.714C116.86 275.712 116.822 275.701 116.791 275.684L88.6775 266.491C88.6036 266.466 88.5471 266.403 88.5229 266.318C88.4987 266.234 88.5057 266.133 88.5452 266.035L121.479 182.642L88.0957 172.135C88.0193 172.111 87.9613 172.048 87.9355 171.963C87.9097 171.878 87.9175 171.775 87.9571 171.678L102.271 135.845C102.303 135.761 102.358 135.683 102.427 135.625C102.496 135.566 102.574 135.533 102.648 135.527L113.708 134.969L113.736 134.984ZM132.918 181.809L100.1 169.549C100.027 169.519 99.9741 169.457 99.9515 169.373C99.9264 169.29 99.9351 169.19 99.9722 169.094L113.102 135.779L102.731 136.31L88.6913 171.476L122.068 181.981C122.144 182.005 122.2 182.065 122.227 182.149C122.253 182.232 122.247 182.335 122.21 182.431L89.2747 265.833L117.051 274.921L126.653 273.711L100.712 264.648C100.637 264.624 100.582 264.564 100.558 264.482C100.534 264.397 100.543 264.297 100.583 264.201L132.918 181.809Z" fill="#045C80"/>
</g>
<path d="M145.738 90.0354L62.7108 68.5275L62.788 53.6393L21.2927 43.1092L22.283 28.0902L104.729 49.3989L104.343 64.4044L145.643 75.0884L145.738 90.0354Z" fill="#FF4B39"/>
<path d="M104.85 49.0444C104.926 49.0704 104.99 49.119 105.035 49.186C105.079 49.2505 105.101 49.3285 105.099 49.4081L104.729 64.1156L145.745 74.7269C145.824 74.7479 145.895 74.7948 145.945 74.8575C145.995 74.9221 146.024 75.0019 146.024 75.0846L146.109 90.0365C146.11 90.0926 146.097 90.15 146.071 90.201C146.047 90.2526 146.011 90.2979 145.968 90.3346C145.922 90.3707 145.869 90.3937 145.814 90.4037C145.758 90.4156 145.699 90.4139 145.644 90.3993L62.619 68.892C62.5395 68.871 62.4677 68.8217 62.4177 68.7571C62.3664 68.69 62.3405 68.609 62.3399 68.5263L62.4123 53.9293L21.2034 43.4663C21.1178 43.4453 21.0417 43.3965 20.9898 43.3251C20.9373 43.2556 20.9108 43.1702 20.9165 43.0814L21.9118 28.0661C21.9159 28.0119 21.9324 27.9577 21.9594 27.9091C21.9838 27.8618 22.0211 27.819 22.0634 27.786C22.1093 27.7543 22.1601 27.7325 22.2133 27.7218C22.2683 27.7117 22.3232 27.714 22.3768 27.7262L104.822 49.035L104.85 49.0444ZM104.217 64.755C104.141 64.7291 104.077 64.6805 104.032 64.6153C103.988 64.5508 103.965 64.4728 103.969 64.3938L104.34 49.6845L22.6211 28.5606L21.6931 42.8193L62.8891 53.2778C62.9692 53.297 63.0416 53.3445 63.0911 53.4109C63.1424 53.478 63.1682 53.559 63.167 53.6411L63.0959 68.2158L145.365 89.5281L145.285 75.3532L104.261 64.7394L104.217 64.755Z" fill="#045C80"/>
<path d="M145.738 90.0354L151.734 68.7355L152.801 54.1861L111.439 43.2665L111.496 28.3633L29.3744 7.37989L22.2834 28.0902L104.729 49.3989L104.344 64.4044L145.644 75.0884L145.738 90.0354Z" fill="#FF4B39"/>
<path d="M111.617 28.0107C111.691 28.036 111.754 28.0846 111.798 28.1492C111.843 28.2118 111.867 28.2861 111.869 28.3651L111.813 42.9844L152.899 53.8321C152.983 53.8525 153.058 53.9031 153.11 53.9745C153.16 54.0453 153.183 54.1337 153.176 54.2201L152.1 68.7743C152.095 68.7995 152.087 68.8236 152.076 68.8444L146.08 90.1443C146.066 90.2448 146.013 90.3357 145.93 90.3961C145.85 90.4553 145.748 90.4823 145.65 90.4673C145.549 90.4535 145.459 90.3997 145.397 90.319C145.338 90.2389 145.311 90.1369 145.325 90.0364L145.238 75.3764L104.214 64.7625C104.133 64.7409 104.061 64.6915 104.012 64.6251C103.961 64.558 103.935 64.4751 103.937 64.3912L104.308 49.6819L22.1537 28.4502C22.1025 28.4368 22.0564 28.4148 22.0141 28.3818C21.973 28.3512 21.9394 28.3108 21.9157 28.2656C21.8927 28.2185 21.8789 28.1684 21.8737 28.1171C21.8686 28.0659 21.8765 28.0129 21.8929 27.9649L28.9846 7.25274C29.0143 7.16597 29.0772 7.09057 29.1603 7.04681C29.2408 7.00427 29.3378 6.99208 29.4277 7.01873L111.544 28.0169L111.617 28.0107ZM111.324 43.6068C111.25 43.5815 111.186 43.5329 111.142 43.4702C111.096 43.405 111.072 43.3308 111.072 43.2524L111.125 28.6404L29.6104 7.8465L22.7684 27.8294L104.822 49.0369C104.904 49.0548 104.977 49.1024 105.027 49.1713C105.079 49.2383 105.103 49.3231 105.099 49.4082L104.729 64.1157L145.745 74.727C145.824 74.748 145.895 74.7949 145.945 74.8594C145.995 74.9222 146.024 75.002 146.024 75.0847L146.092 87.3804L151.36 68.6714L152.412 54.4656L111.344 43.6137L111.324 43.6068Z" fill="#045C80"/>
<g opacity="0.5">
<path d="M138.556 90.0353L147.974 64.5116L151.379 47.4612L111.79 40.011L114.244 22.6772L35.5293 8.69538L25.1116 33.6724L104.097 47.9914L101.299 65.4857L140.865 72.6698L138.556 90.0353Z" fill="#045C80"/>
<path d="M114.411 22.269C114.48 22.2912 114.536 22.3396 114.569 22.409C114.604 22.4761 114.616 22.5593 114.605 22.6508L112.201 39.6341L151.503 47.0268C151.583 47.0399 151.651 47.0891 151.691 47.1655C151.73 47.2413 151.74 47.3388 151.718 47.4422L148.304 64.4792C148.295 64.5091 148.283 64.5381 148.269 64.5638L138.857 90.0571C138.825 90.175 138.759 90.2878 138.667 90.3662C138.577 90.4474 138.471 90.4916 138.375 90.4866C138.277 90.4833 138.195 90.4323 138.147 90.3463C138.1 90.2608 138.09 90.1457 138.12 90.0273L140.388 73.0149L101.11 65.8858C101.033 65.8709 100.969 65.8227 100.93 65.7518C100.891 65.6782 100.878 65.5874 100.893 65.4897L103.627 48.362L24.9658 34.1105C24.916 34.1037 24.8717 34.0836 24.8365 34.051C24.8003 34.0207 24.7733 33.9781 24.7569 33.9285C24.7414 33.8768 24.7339 33.8199 24.7388 33.7615C24.7428 33.7004 24.7582 33.6401 24.7824 33.5823L35.1949 8.63265C35.2377 8.5254 35.3135 8.4326 35.4017 8.37077C35.4917 8.30944 35.5896 8.28522 35.6761 8.30256L114.337 22.2875L114.411 22.269ZM111.612 40.4188C111.542 40.3988 111.486 40.3504 111.452 40.2833C111.417 40.2134 111.405 40.128 111.417 40.0392L113.818 23.0648L35.7246 9.24287L25.6788 33.3141L104.245 47.5457C104.323 47.5583 104.388 47.6043 104.428 47.6779C104.468 47.7493 104.479 47.8446 104.459 47.9435L101.728 65.0695L140.999 72.1966C141.075 72.2109 141.136 72.2559 141.178 72.3228C141.218 72.3915 141.233 72.4806 141.221 72.5766L139.313 86.846L147.581 64.4535L150.915 47.8219L111.631 40.4243L111.612 40.4188Z" fill="#045C80"/>
</g>
<path d="M182.903 121.779L286.69 123.691L267.888 98.7866L230.902 99.9157L208.565 76.2762L171.947 79.7298L193.746 98.9527L163.016 100.988L182.903 121.779Z" fill="#045C80"/>
<path d="M208.678 75.9211C208.739 75.9296 208.797 75.9492 208.848 75.9793L231.073 99.508L267.884 98.3831C267.943 98.3787 268.003 98.3909 268.058 98.4178C268.113 98.443 268.16 98.4816 268.197 98.5294L287 123.432C287.043 123.488 287.069 123.555 287.075 123.623C287.08 123.692 287.066 123.762 287.033 123.823C287.001 123.886 286.954 123.94 286.892 123.976C286.832 124.014 286.764 124.032 286.693 124.032L182.904 122.12C182.807 122.126 182.709 122.093 182.636 122.028L162.75 101.231C162.701 101.181 162.667 101.118 162.649 101.05C162.633 100.981 162.637 100.91 162.66 100.843C162.682 100.777 162.723 100.718 162.778 100.673C162.834 100.63 162.899 100.601 162.968 100.592L192.803 98.6378L171.676 80.0084C171.623 79.9593 171.583 79.896 171.566 79.8243C171.547 79.7538 171.55 79.6785 171.574 79.6102C171.598 79.54 171.641 79.4787 171.7 79.4348C171.756 79.3902 171.827 79.3629 171.9 79.3567L208.499 75.8907C208.561 75.8832 208.624 75.8941 208.678 75.9211ZM230.782 100.268C230.723 100.265 230.666 100.245 230.618 100.212L208.405 76.6958L172.829 80.0629L193.988 98.7116C194.041 98.7608 194.079 98.8253 194.096 98.8951C194.116 98.9656 194.113 99.0409 194.089 99.1092C194.067 99.18 194.025 99.242 193.967 99.2859C193.91 99.3324 193.839 99.3577 193.765 99.3633L163.829 101.338L183.042 121.439L285.93 123.303L267.702 99.1666L230.937 100.299L230.782 100.268Z" fill="#045C80"/>
<path d="M182.555 99.6997L189.475 105.011L273.887 106.74L286.69 123.691L182.903 121.779L163.016 100.988L182.555 99.6997Z" fill="#007EA4"/>
<path d="M273.978 106.377C274.049 106.399 274.112 106.444 274.159 106.501L286.96 123.458C287.002 123.513 287.027 123.58 287.034 123.65C287.04 123.718 287.024 123.787 286.993 123.848C286.961 123.912 286.912 123.965 286.851 124.002C286.791 124.039 286.723 124.057 286.651 124.057L182.864 122.146C182.765 122.151 182.669 122.118 182.594 122.053L162.709 101.257C162.66 101.207 162.625 101.143 162.608 101.075C162.593 101.006 162.597 100.935 162.619 100.869C162.642 100.802 162.683 100.744 162.737 100.699C162.791 100.656 162.859 100.627 162.927 100.62L182.524 99.3263C182.616 99.3209 182.709 99.3525 182.778 99.4135L189.595 104.656L273.881 106.383C273.915 106.376 273.946 106.375 273.978 106.377ZM285.902 123.293L273.724 107.119L189.464 105.386C189.385 105.384 189.309 105.358 189.245 105.311L182.434 100.077L163.825 101.298L183.041 121.4L285.902 123.293Z" fill="#045C80"/>
<g opacity="0.5">
<path d="M184.741 102.896L190.798 108.183L274.824 99.5055L284.888 117.556L181.542 128.476L165.02 106.865L184.741 102.896Z" fill="#045C80"/>
<path d="M274.944 99.085C275.012 99.1018 275.068 99.1452 275.105 99.2056L285.16 117.242C285.194 117.302 285.208 117.375 285.203 117.456C285.198 117.534 285.172 117.616 285.131 117.691C285.088 117.769 285.031 117.837 284.965 117.887C284.899 117.938 284.828 117.967 284.756 117.977L181.468 128.884C181.369 128.902 181.278 128.876 181.214 128.811L164.704 107.218C164.663 107.166 164.638 107.097 164.632 107.021C164.628 106.942 164.643 106.86 164.676 106.78C164.71 106.7 164.76 106.627 164.821 106.568C164.882 106.511 164.954 106.469 165.024 106.452L184.791 102.475C184.885 102.457 184.972 102.482 185.032 102.544L190.994 107.759L274.847 99.1042C274.881 99.0917 274.913 99.0859 274.944 99.085ZM284.131 117.186L274.572 99.9774L190.746 108.622C190.667 108.629 190.596 108.609 190.539 108.563L184.581 103.357L165.811 107.125L181.764 127.997L284.131 117.186Z" fill="#045C80"/>
</g>
<path d="M193.747 98.9526L199.096 83.3304L193.563 77.6883L171.947 79.7297L193.747 98.9526Z" fill="#007EA4"/>
<path d="M112.993 482.85L118.444 466.931L99.5692 469.816L112.993 482.85Z" fill="#045C80"/>
<path d="M118.565 466.577C118.629 466.601 118.686 466.639 118.733 466.689C118.773 466.74 118.798 466.799 118.81 466.862C118.821 466.925 118.817 466.99 118.798 467.052L113.345 482.978C113.325 483.038 113.288 483.091 113.241 483.133C113.193 483.175 113.136 483.204 113.074 483.217C113.012 483.227 112.948 483.222 112.889 483.202C112.83 483.181 112.776 483.147 112.734 483.101L99.318 470.061C99.2688 470.012 99.2344 469.95 99.2168 469.881C99.2011 469.812 99.2049 469.741 99.2276 469.675C99.2504 469.608 99.2912 469.549 99.3456 469.505C99.4018 469.461 99.4671 469.433 99.5361 469.424L118.388 466.563C118.448 466.552 118.51 466.557 118.565 466.577ZM112.83 482.177L117.902 467.362L100.371 470.058L112.83 482.177Z" fill="#045C80"/>
<path d="M108.362 261.347L95.0225 261.691L119.106 183.611L131.931 184.222L108.362 261.347Z" fill="#045C80"/>
<path d="M132.052 183.869C132.128 183.893 132.195 183.945 132.24 184.012C132.272 184.058 132.293 184.111 132.301 184.165C132.311 184.22 132.306 184.276 132.288 184.33L108.721 261.454C108.696 261.53 108.651 261.595 108.587 261.643C108.523 261.69 108.448 261.717 108.368 261.721L95.0292 262.065C94.9693 262.065 94.912 262.052 94.8592 262.025C94.8063 261.999 94.7598 261.96 94.7244 261.913C94.6865 261.867 94.6616 261.813 94.651 261.754C94.6403 261.695 94.6452 261.632 94.666 261.577L118.751 183.498C118.774 183.419 118.825 183.35 118.892 183.303C118.96 183.256 119.042 183.235 119.125 183.238L131.947 183.85L132.052 183.869ZM108.077 260.982L131.431 184.575L119.388 183.97L95.5373 261.274L108.077 260.982Z" fill="#045C80"/>
<path d="M92.7057 168.031L79.5048 169.081L89.9888 135.69L102.367 136.513L92.7057 168.031Z" fill="#045C80"/>
<path d="M102.46 136.151C102.505 136.164 102.549 136.187 102.586 136.217C102.625 136.248 102.655 136.287 102.677 136.33C102.7 136.373 102.712 136.421 102.717 136.468C102.719 136.516 102.712 136.565 102.697 136.611L93.0464 168.103C93.0242 168.174 92.9811 168.239 92.924 168.286C92.8643 168.334 92.7925 168.363 92.7178 168.37L79.5258 169.387C79.464 169.399 79.4023 169.392 79.345 169.373C79.2878 169.353 79.235 169.321 79.1934 169.273C79.1543 169.225 79.1301 169.169 79.1177 169.109C79.1077 169.048 79.11 168.987 79.1302 168.928L89.6166 135.548C89.6419 135.468 89.6906 135.398 89.7588 135.349C89.8265 135.303 89.9094 135.277 89.9927 135.281L102.368 136.094L102.46 136.151ZM92.4531 167.685L101.9 136.86L90.2964 136.105L80.0715 168.673L92.4531 167.685Z" fill="#045C80"/>
<path d="M104.346 64.4031L111.44 43.267L111.498 28.3638L104.729 49.3989L104.346 64.4031Z" fill="#045C80"/>
<path d="M111.616 28.0108C111.691 28.0342 111.755 28.0828 111.801 28.1461C111.845 28.2107 111.868 28.2868 111.868 28.3652L111.811 43.2683C111.804 43.3053 111.792 43.3404 111.775 43.3736L104.677 64.5189C104.649 64.602 104.589 64.6743 104.513 64.7206C104.438 64.7669 104.347 64.7834 104.259 64.7697C104.169 64.7554 104.091 64.7079 104.034 64.6371C103.978 64.5681 103.948 64.4796 103.954 64.3889L104.345 49.3873C104.352 49.3528 104.364 49.3195 104.379 49.2876L111.148 28.2525C111.173 28.1682 111.229 28.0946 111.305 28.0483C111.381 28.0002 111.471 27.9837 111.559 27.9973L111.616 28.0108ZM111.066 43.2031L111.112 30.7793L105.102 49.465L104.788 61.931L111.066 43.2031Z" fill="#045C80"/>
<path d="M145.738 90.0354L151.734 68.7355L152.801 54.1861L145.644 75.0884L145.738 90.0354Z" fill="#045C80"/>
<path d="M152.922 53.8314C153.001 53.8585 153.069 53.9085 153.115 53.978C153.161 54.0475 153.185 54.1297 153.179 54.2124L152.102 68.7666C152.098 68.7919 152.09 68.8159 152.078 68.8386L146.083 90.1367C146.069 90.2372 146.015 90.3281 145.933 90.3885C145.852 90.4495 145.751 90.4746 145.652 90.4615C145.552 90.4459 145.461 90.392 145.4 90.3113C145.341 90.2312 145.314 90.1292 145.328 90.0287L145.238 75.075C145.243 75.0355 145.256 74.9968 145.276 74.9624L152.433 54.0601C152.463 53.9733 152.525 53.9016 152.604 53.8566C152.683 53.8116 152.775 53.7956 152.867 53.8124L152.922 53.8314ZM151.36 68.6711L152.179 57.0423L145.985 75.1347L146.057 87.3681L151.36 68.6711Z" fill="#045C80"/>
<path d="M39.3622 442.242L85.0123 487.18L112.995 482.851L99.569 469.816L132.681 464.759L113.351 446.492L80.8049 450.643L67.1803 438.189L39.3622 442.242Z" fill="#007EA4"/>
<path d="M113.472 446.139C113.523 446.158 113.571 446.188 113.609 446.225L132.94 464.485C132.989 464.534 133.025 464.597 133.041 464.665C133.057 464.734 133.053 464.805 133.03 464.871C133.007 464.938 132.967 464.997 132.912 465.041C132.858 465.085 132.791 465.113 132.722 465.122L100.378 470.061L113.254 482.576C113.305 482.626 113.339 482.688 113.355 482.756C113.371 482.825 113.367 482.896 113.344 482.963C113.322 483.029 113.281 483.088 113.226 483.132C113.172 483.177 113.107 483.205 113.036 483.213L85.0607 487.545C85.003 487.551 84.9454 487.544 84.89 487.525C84.8347 487.506 84.7852 487.476 84.7432 487.436L39.0955 442.491C39.0459 442.443 39.0095 442.381 38.9935 442.313C38.9757 442.245 38.9795 442.174 39.0022 442.107C39.0249 442.041 39.0655 441.983 39.1216 441.939C39.1758 441.896 39.2426 441.869 39.3112 441.861L67.1293 437.808C67.1832 437.801 67.2407 437.808 67.2924 437.825C67.346 437.844 67.3936 437.873 67.4339 437.912L80.9258 450.242L113.305 446.121C113.362 446.116 113.418 446.122 113.472 446.139ZM131.865 464.504L113.222 446.892L80.8533 451.008C80.7994 451.015 80.7437 451.009 80.692 450.991C80.6403 450.973 80.5945 450.944 80.5561 450.906L67.0642 438.576L40.1683 442.503L85.1153 486.765L112.161 482.581L99.2778 470.064C99.2286 470.015 99.1943 469.953 99.1766 469.884C99.1608 469.815 99.1647 469.744 99.1874 469.677C99.2102 469.611 99.251 469.552 99.3053 469.508C99.3615 469.464 99.4269 469.436 99.4959 469.427L131.865 464.504Z" fill="#045C80"/>
<path d="M39.3626 442.241L45.2494 425.048L73.4156 420.948L86.6386 434.087L119.178 428.503L138.781 447.172L132.679 464.758L113.351 446.492L80.8034 450.642L67.1806 438.188L39.3626 442.241Z" fill="#007EA4"/>
<path d="M119.299 428.15C119.351 428.168 119.398 428.198 119.437 428.236L139.033 446.919C139.084 446.967 139.123 447.03 139.138 447.099C139.156 447.168 139.154 447.241 139.129 447.307L133.029 464.894C133.007 464.952 132.972 465.005 132.927 465.048C132.879 465.089 132.824 465.119 132.764 465.136C132.703 465.146 132.639 465.14 132.58 465.12C132.521 465.1 132.467 465.065 132.425 465.019L113.225 446.884L80.8536 451.007C80.7997 451.014 80.744 451.008 80.6923 450.991C80.6406 450.973 80.5948 450.944 80.5564 450.906L67.0626 438.575L39.4381 442.624C39.3743 442.635 39.3099 442.631 39.249 442.61C39.1881 442.589 39.1343 442.553 39.091 442.505C39.0501 442.456 39.023 442.396 39.0099 442.332C38.9986 442.269 39.0044 442.203 39.0254 442.142L44.9122 424.949C44.9343 424.885 44.9745 424.828 45.0265 424.784C45.0786 424.74 45.1418 424.712 45.2108 424.704L73.3751 420.602C73.4339 420.593 73.4921 420.598 73.5474 420.617C73.6028 420.636 73.6536 420.669 73.6945 420.712L86.7816 433.694L119.13 428.163C119.185 428.146 119.242 428.141 119.299 428.15ZM138.349 447.278L119.057 428.905L86.7016 434.434C86.6429 434.443 86.5846 434.438 86.5293 434.419C86.4739 434.4 86.4232 434.367 86.3841 434.325L73.2969 421.319L45.5383 425.361L39.9157 441.783L67.1247 437.821C67.1786 437.815 67.2343 437.821 67.2878 437.839C67.3414 437.857 67.3891 437.887 67.4275 437.925L80.9213 450.256L113.3 446.135C113.355 446.13 113.411 446.137 113.462 446.155C113.516 446.173 113.564 446.202 113.605 446.239L132.523 464.088L138.349 447.278Z" fill="#045C80"/>
<g opacity="0.5">
<path d="M39.3626 449.086L47.9351 428.692L76.5032 420.489L87.5157 433.864L120.654 423.418L137.109 442.32L128.261 463.191L112.014 444.715L79.096 453.522L67.5781 440.98L39.3626 449.086Z" fill="#045C80"/>
<path d="M120.812 423.018C120.86 423.033 120.903 423.061 120.935 423.1L137.37 441.996C137.413 442.044 137.441 442.112 137.446 442.188C137.452 442.265 137.438 442.348 137.403 442.428L128.563 463.274C128.532 463.344 128.489 463.408 128.437 463.462C128.384 463.516 128.324 463.557 128.263 463.583C128.2 463.602 128.138 463.604 128.082 463.588C128.027 463.572 127.979 463.539 127.945 463.493L111.815 445.172L79.097 453.916C79.0425 453.93 78.9883 453.93 78.9399 453.917C78.8915 453.903 78.8508 453.876 78.8188 453.837L67.4165 441.435L39.412 449.502C39.3471 449.523 39.284 449.526 39.227 449.509C39.17 449.493 39.1225 449.459 39.0872 449.409C39.0546 449.358 39.0371 449.294 39.0343 449.222C39.0333 449.151 39.0495 449.076 39.0799 449.003L47.6466 428.633C47.6788 428.556 47.7276 428.486 47.7861 428.43C47.8447 428.373 47.9118 428.334 47.9815 428.315L76.5289 420.121C76.5885 420.104 76.6454 420.102 76.6972 420.117C76.749 420.131 76.7942 420.162 76.8278 420.206L87.7236 433.403L120.642 423.054C120.7 423.028 120.757 423.016 120.812 423.018ZM136.636 442.491L120.452 423.911L87.5267 434.258C87.4671 434.275 87.4101 434.277 87.3583 434.262C87.3065 434.247 87.2614 434.217 87.2295 434.173L76.3374 420.949L48.2012 429.026L40.0189 448.482L67.598 440.567C67.6525 440.552 67.7067 440.552 67.7568 440.566C67.8069 440.58 67.8495 440.608 67.8814 440.647L79.2836 453.049L112.008 444.307C112.064 444.295 112.117 444.296 112.166 444.31C112.216 444.324 112.259 444.351 112.294 444.388L128.19 462.417L136.636 442.491Z" fill="#045C80"/>
</g>
<path d="M80.8049 450.643L86.6383 434.088L73.4153 420.948L67.1804 438.188L80.8049 450.643Z" fill="#045C80"/>
<path d="M73.5369 420.594C73.5902 420.614 73.6396 420.644 73.6798 420.683L86.8997 433.814C86.9506 433.864 86.9865 433.928 87.0037 433.998C87.019 434.067 87.0165 434.141 86.9932 434.209L81.1604 450.757C81.1388 450.814 81.1046 450.865 81.0578 450.906C81.0128 450.947 80.9574 450.976 80.8986 450.991C80.8387 451.003 80.7762 450.999 80.7172 450.979C80.6581 450.959 80.6061 450.924 80.5662 450.877L66.9567 438.475C66.9022 438.424 66.8647 438.359 66.8479 438.287C66.8312 438.216 66.8343 438.14 66.8583 438.07L73.0932 420.83C73.1134 420.771 73.148 420.718 73.1951 420.677C73.2421 420.636 73.3008 420.609 73.3624 420.598C73.4191 420.583 73.4794 420.582 73.5369 420.594ZM86.2036 434.184L73.5713 421.626L67.6183 438.085L80.6375 449.977L86.2036 434.184Z" fill="#045C80"/>
<path d="M132.679 464.759L113.351 446.492L119.178 428.503L138.781 447.172L132.679 464.759Z" fill="#045C80"/>
<path d="M119.299 428.15C119.35 428.168 119.398 428.198 119.436 428.236L139.033 446.918C139.084 446.967 139.122 447.03 139.138 447.098C139.156 447.168 139.153 447.241 139.128 447.307L133.028 464.894C133.006 464.952 132.972 465.005 132.927 465.047C132.879 465.089 132.823 465.119 132.764 465.136C132.703 465.146 132.639 465.14 132.58 465.12C132.521 465.1 132.467 465.065 132.425 465.019L113.101 446.739C113.05 446.69 113.014 446.627 112.996 446.558C112.978 446.489 112.982 446.417 113.005 446.35L118.831 428.361C118.853 428.301 118.89 428.248 118.936 428.205C118.981 428.162 119.038 428.13 119.099 428.113C119.167 428.107 119.237 428.12 119.299 428.15ZM138.349 447.278L119.356 429.189L113.783 446.387L132.523 464.088L138.349 447.278Z" fill="#045C80"/>
<defs>
<linearGradient id="paint0_linear_1_2037" x1="195.287" y1="531.397" x2="216.16" y2="459.091" gradientUnits="userSpaceOnUse">
<stop stop-color="#FFDE00"/>
<stop offset="1" stop-color="#FE0065"/>
</linearGradient>
<linearGradient id="paint1_linear_1_2037" x1="121.292" y1="453.924" x2="186.911" y2="450.493" gradientUnits="userSpaceOnUse">
<stop stop-color="#FFDE00"/>
<stop offset="1" stop-color="#FE0065"/>
</linearGradient>
<linearGradient id="paint2_linear_1_2037" x1="288.405" y1="562.949" x2="264.752" y2="484.65" gradientUnits="userSpaceOnUse">
<stop stop-color="#FFDE00"/>
<stop offset="1" stop-color="#FE0065"/>
</linearGradient>
<linearGradient id="paint3_linear_1_2037" x1="425.56" y1="241.406" x2="348.64" y2="319.188" gradientUnits="userSpaceOnUse">
<stop stop-color="#FFDE00"/>
<stop offset="1" stop-color="#FE0065"/>
</linearGradient>
<linearGradient id="paint4_linear_1_2037" x1="260.65" y1="215.523" x2="261.603" y2="296.299" gradientUnits="userSpaceOnUse">
<stop stop-color="#FFDE00"/>
<stop offset="1" stop-color="#FE0065"/>
</linearGradient>
</defs>
</svg>
