<svg width="117" height="118" viewBox="0 0 117 118" fill="none" xmlns="http://www.w3.org/2000/svg">
<path d="M56.5544 1.65771C57.6756 0.702428 59.3244 0.702428 60.4456 1.65771L63.7901 4.50723C64.6986 5.28137 65.9797 5.4432 67.0523 4.91935L71.0003 2.99107C72.3238 2.34463 73.9209 2.75469 74.7693 3.95878L77.3 7.55051C77.9875 8.52628 79.1881 9.00163 80.3573 8.76097L84.6608 7.8751C86.1035 7.57812 87.5484 8.37247 88.0707 9.74972L89.6287 13.858C90.0519 14.9741 91.0966 15.7331 92.2889 15.7907L96.6775 16.0029C98.1487 16.0741 99.3507 17.2028 99.5141 18.6667L100.001 23.0333C100.134 24.2196 100.957 25.2145 102.097 25.5669L106.295 26.8638C107.703 27.2986 108.586 28.6908 108.38 30.1493L107.766 34.5C107.6 35.6819 108.149 36.8503 109.167 37.4752L112.91 39.7754C114.165 40.5465 114.675 42.1146 114.113 43.4761L112.436 47.5374C111.98 48.6408 112.222 49.9092 113.052 50.7674L116.106 53.9263C117.13 54.9853 117.233 56.6309 116.35 57.8098L113.716 61.3266C113.001 62.282 112.92 63.5707 113.51 64.6083L115.682 68.4274C116.411 69.7077 116.102 71.3274 114.953 72.2497L111.527 75.001C110.597 75.7484 110.198 76.9765 110.511 78.1282L111.666 82.3676C112.053 83.7888 111.351 85.2808 110.009 85.8885L106.007 87.7014C104.919 88.1939 104.227 89.2841 104.245 90.4776L104.308 94.8709C104.33 96.3438 103.279 97.6142 101.828 97.8692L97.5006 98.6298C96.325 98.8364 95.3837 99.7203 95.1037 100.881L94.0729 105.152C93.7273 106.584 92.3934 107.553 90.9248 107.439L86.5442 107.1C85.3541 107.007 84.2226 107.629 83.6628 108.684L81.6022 112.564C80.9114 113.865 79.3783 114.472 77.9842 113.997L73.8256 112.578C72.6959 112.193 71.4452 112.514 70.6408 113.396L67.6798 116.642C66.6872 117.731 65.0514 117.937 63.8193 117.13L60.1441 114.722C59.1456 114.068 57.8544 114.068 56.8559 114.722L53.1807 117.13C51.9486 117.937 50.3128 117.731 49.3202 116.642L46.3592 113.396C45.5548 112.514 44.3041 112.193 43.1744 112.578L39.0158 113.997C37.6217 114.472 36.0886 113.865 35.3978 112.564L33.3372 108.684C32.7774 107.629 31.6459 107.007 30.4558 107.1L26.0752 107.439C24.6066 107.553 23.2727 106.584 22.9271 105.152L21.8963 100.881C21.6163 99.7203 20.675 98.8364 19.4994 98.6298L15.1719 97.8692C13.7212 97.6142 12.6702 96.3438 12.6916 94.8709L12.7553 90.4776C12.7727 89.2841 12.0808 88.1939 10.9935 87.7014L6.99113 85.8885C5.64939 85.2808 4.94734 83.7888 5.33432 82.3676L6.48866 78.1282C6.80226 76.9765 6.40324 75.7484 5.47257 75.001L2.04683 72.2497C0.898378 71.3274 0.589413 69.7077 1.31768 68.4274L3.49005 64.6083C4.08022 63.5707 3.99914 62.282 3.28358 61.3266L0.649679 57.8098C-0.233315 56.6309 -0.129782 54.9853 0.894013 53.9263L3.94791 50.7674C4.77757 49.9092 5.01953 48.6408 4.56405 47.5374L2.88748 43.4761C2.32542 42.1146 2.83495 40.5465 4.08994 39.7754L7.83349 37.4752C8.8505 36.8503 9.40029 35.6819 9.23352 34.5L8.61962 30.1493C8.41382 28.6908 9.29732 27.2986 10.7047 26.8638L14.9026 25.5669C16.0431 25.2145 16.8662 24.2196 16.9986 23.0333L17.4859 18.6667C17.6493 17.2028 18.8513 16.0741 20.3225 16.0029L24.7111 15.7907C25.9034 15.7331 26.9481 14.9741 27.3713 13.858L28.9293 9.74972C29.4516 8.37247 30.8965 7.57812 32.3392 7.8751L36.6427 8.76097C37.8119 9.00163 39.0125 8.52628 39.7 7.55052L42.2307 3.95879C43.0791 2.75469 44.6762 2.34463 45.9997 2.99107L49.9477 4.91935C51.0203 5.4432 52.3014 5.28137 53.2099 4.50723L56.5544 1.65771Z" fill="#FF4B39"/>
</svg>
