<svg width="34" height="34" viewBox="0 0 34 34" fill="none" xmlns="http://www.w3.org/2000/svg">
<path id="Vector" d="M34 17C34 18.1903 30.3328 18.9469 30.0839 20.0607C29.8267 21.2084 32.8136 23.5209 32.3241 24.5581C31.8263 25.6124 28.2006 24.6602 27.4954 25.5699C26.7818 26.4796 28.4993 29.8888 27.6032 30.62C26.7155 31.3426 23.8531 28.8771 22.8243 29.3872C21.8121 29.8888 21.9117 33.7231 20.7833 33.9867C19.6964 34.2417 18.1615 30.7475 17 30.7475C15.8385 30.7475 14.3036 34.2417 13.2167 33.9867C12.0966 33.7231 12.1962 29.8888 11.1757 29.3872C10.1469 28.8771 7.28453 31.3426 6.39678 30.62C5.50903 29.8888 7.21815 26.4796 6.50464 25.5699C5.79941 24.6602 2.17374 25.6209 1.67594 24.5581C1.18643 23.5209 4.16496 21.2084 3.91606 20.0607C3.66715 18.9469 0 18.1903 0 17C0 15.8097 3.66715 15.0531 3.91606 13.9393C4.17325 12.7916 1.18643 10.4791 1.67594 9.44186C2.17374 8.38763 5.79941 9.33984 6.50464 8.43014C7.21815 7.52044 5.50073 4.1112 6.39678 3.38004C7.28453 2.65739 10.1469 5.12292 11.1757 4.61281C12.1879 4.1112 12.0883 0.27687 13.2167 0.0133131C14.3036 -0.241742 15.8385 3.25252 17 3.25252C18.1615 3.25252 19.6964 -0.241742 20.7833 0.0133131C21.9117 0.27687 21.8121 4.1112 22.8243 4.61281C23.8531 5.12292 26.7155 2.65739 27.6032 3.38004C28.491 4.1112 26.7818 7.52044 27.4954 8.43014C28.2006 9.33984 31.8263 8.37913 32.3241 9.44186C32.8136 10.4791 29.835 12.7916 30.0839 13.9393C30.3328 15.0531 34 15.8097 34 17Z" fill="white"/>
</svg>
