<svg width="47" height="47" viewBox="0 0 47 47" fill="none" xmlns="http://www.w3.org/2000/svg">
<path d="M22.367 0.938666C22.7662 0.386061 23.5891 0.386062 23.9883 0.938666L27.7179 6.10206C27.9852 6.47207 28.4691 6.61415 28.894 6.44738L34.8231 4.12006C35.4577 3.87098 36.15 4.3159 36.187 4.99659L36.5331 11.3567C36.5578 11.8125 36.8881 12.1936 37.3357 12.283L43.5818 13.5307C44.2503 13.6642 44.5922 14.4128 44.2553 15.0055L41.1079 20.543C40.8824 20.9398 40.9541 21.439 41.2823 21.7562L45.8624 26.1827C46.3526 26.6565 46.2355 27.4711 45.6317 27.7875L39.99 30.7444C39.5858 30.9563 39.3763 31.415 39.4809 31.8593L40.9407 38.0593C41.0969 38.7228 40.558 39.3448 39.879 39.2846L33.5344 38.722C33.0797 38.6816 32.6554 38.9543 32.5033 39.3846L30.3794 45.3896C30.1521 46.0323 29.3624 46.2641 28.8238 45.8464L23.7905 41.9429C23.4298 41.6632 22.9255 41.6632 22.5648 41.9429L17.5315 45.8464C16.9928 46.2641 16.2032 46.0323 15.9759 45.3896L13.852 39.3846C13.6998 38.9543 13.2756 38.6816 12.8209 38.722L6.47629 39.2846C5.79727 39.3448 5.25835 38.7228 5.41458 38.0593L6.87441 31.8593C6.97902 31.415 6.76952 30.9563 6.36525 30.7444L0.723619 27.7875C0.119832 27.4711 0.00271348 26.6565 0.492887 26.1827L5.07294 21.7562C5.40114 21.439 5.47292 20.9398 5.24737 20.543L2.09994 15.0055C1.76309 14.4128 2.10496 13.6642 2.77344 13.5307L9.01959 12.283C9.46718 12.1936 9.79744 11.8125 9.82223 11.3567L10.1683 4.99659C10.2053 4.3159 10.8976 3.87098 11.5322 4.12006L17.4613 6.44738C17.8862 6.61415 18.3701 6.47207 18.6373 6.10206L22.367 0.938666Z" fill="#FF4B39"/>
</svg>
