<svg width="20" height="20" viewBox="0 0 20 20" fill="none" xmlns="http://www.w3.org/2000/svg">
<path id="Vector" d="M20 10C20 10.7002 17.8428 11.1452 17.6964 11.8004C17.5451 12.4755 19.3021 13.8358 19.0142 14.446C18.7213 15.0661 16.5886 14.506 16.1737 15.0411C15.754 15.5762 16.7643 17.5816 16.2372 18.0117C15.715 18.4368 14.0312 16.9865 13.4261 17.2866C12.8306 17.5816 12.8892 19.8371 12.2255 19.9922C11.5861 20.1422 10.6833 18.0868 10 18.0868C9.31674 18.0868 8.41386 20.1422 7.77452 19.9922C7.11567 19.8371 7.17423 17.5816 6.57394 17.2866C5.96877 16.9865 4.28502 18.4368 3.76281 18.0117C3.24061 17.5816 4.24597 15.5762 3.82626 15.0411C3.41142 14.506 1.27867 15.0711 0.985847 14.446C0.697901 13.8358 2.44998 12.4755 2.30356 11.8004C2.15715 11.1452 0 10.7002 0 10C0 9.29985 2.15715 8.85475 2.30356 8.19961C2.45486 7.52446 0.697901 6.16417 0.985847 5.55403C1.27867 4.9339 3.41142 5.49402 3.82626 4.95891C4.24597 4.42379 3.23572 2.41835 3.76281 1.98826C4.28502 1.56317 5.96877 3.01348 6.57394 2.71342C7.16935 2.41835 7.11079 0.162865 7.77452 0.00783125C8.41386 -0.142201 9.31674 1.91324 10 1.91324C10.6833 1.91324 11.5861 -0.142201 12.2255 0.00783125C12.8892 0.162865 12.8306 2.41835 13.4261 2.71342C14.0312 3.01348 15.715 1.56317 16.2372 1.98826C16.7594 2.41835 15.754 4.42379 16.1737 4.95891C16.5886 5.49402 18.7213 4.9289 19.0142 5.55403C19.3021 6.16417 17.55 7.52446 17.6964 8.19961C17.8428 8.85475 20 9.29985 20 10Z" fill="#FF4B39"/>
</svg>
