<svg width="1030" height="1030" viewBox="0 0 1030 1030" fill="none" xmlns="http://www.w3.org/2000/svg">
<g clip-path="url(#clip0_1_4015)">
<path d="M370.681 293.471L549.275 270.501C550.352 270.362 551.336 269.824 552.034 268.992C552.732 268.16 553.091 267.096 553.04 266.012L552.966 264.896C552.919 263.835 552.484 262.829 551.742 262.069C551.001 261.309 550.005 260.848 548.946 260.775L369.239 248.332C369.085 248.332 370.535 293.476 370.681 293.471Z" fill="#FF4B39"/>
<path d="M551.597 270.039C552.217 269.569 552.715 268.956 553.048 268.252C553.381 267.549 553.539 266.775 553.509 265.997L553.435 264.881C553.383 263.705 552.901 262.59 552.079 261.748C551.258 260.906 550.156 260.395 548.982 260.314L369.247 247.88C368.685 247.897 368.685 247.897 368.882 254.98C368.99 258.966 369.152 264.317 369.32 269.758C369.508 275.594 369.702 281.531 369.869 286.011C370.17 293.988 370.17 293.988 370.675 293.956L549.269 270.987C550.117 270.89 550.922 270.562 551.597 270.039ZM369.691 248.821L548.932 261.266C549.877 261.331 550.766 261.742 551.427 262.42C552.089 263.098 552.478 263.996 552.52 264.942L552.594 266.058C552.631 267.024 552.307 267.968 551.684 268.707C551.062 269.446 550.187 269.927 549.229 270.055L371.123 292.971C370.811 288.531 369.716 253.268 369.691 248.821Z" fill="#045C80"/>
<path d="M364.005 270.863C364.406 283.325 368.786 293.538 370.681 293.471C372.576 293.403 377.157 282.808 376.754 270.349C376.354 257.887 371.134 248.264 369.239 248.332C367.344 248.399 363.61 258.397 364.005 270.863Z" fill="#045C80"/>
<path d="M371.458 293.609C372.772 292.61 374.153 289.44 375.015 286.687C376.647 281.389 377.388 275.858 377.215 270.316C376.837 257.873 371.681 247.78 369.232 247.858C367.365 247.915 365.771 253.194 365.323 254.811C363.943 260.047 363.346 265.458 363.553 270.868C363.708 276.354 364.65 281.789 366.35 287.008C366.905 288.649 368.853 293.993 370.707 293.932C370.983 293.902 371.244 293.789 371.458 293.609ZM369.004 248.887C369.072 248.83 369.154 248.792 369.239 248.779C370.463 248.739 375.86 257.267 376.278 270.395C376.45 275.829 375.721 281.255 374.122 286.451C372.662 291.076 371.145 293.014 370.656 293.034C370.166 293.054 368.809 291.482 367.219 286.746C365.537 281.617 364.602 276.271 364.438 270.876C364.239 265.556 364.824 260.236 366.177 255.089C367.296 251.051 368.452 249.33 369.015 248.901L369.004 248.887Z" fill="#045C80"/>
<path d="M388.674 291.566C388.718 291.543 388.757 291.514 388.793 291.475C388.881 291.409 395.052 281.904 394.095 270.24C393.188 259.089 386.873 249.384 386.807 249.281C386.772 249.231 386.729 249.187 386.678 249.152C386.626 249.119 386.57 249.095 386.509 249.083C386.448 249.072 386.386 249.072 386.327 249.083C386.266 249.095 386.21 249.118 386.159 249.153C386.108 249.187 386.062 249.232 386.029 249.282C385.995 249.333 385.971 249.391 385.958 249.451C385.948 249.511 385.947 249.574 385.959 249.634C385.97 249.694 385.995 249.751 386.03 249.801C386.098 249.89 392.27 259.411 393.166 270.313C394.094 281.647 388.076 290.871 388.016 290.963C387.981 291.013 387.956 291.07 387.946 291.129C387.933 291.189 387.933 291.25 387.945 291.311C387.957 291.371 387.981 291.427 388.016 291.477C388.051 291.527 388.096 291.57 388.148 291.602C388.23 291.649 388.322 291.673 388.416 291.667C388.509 291.661 388.599 291.626 388.674 291.566Z" fill="#045C80"/>
<path d="M401.484 289.914C401.536 289.885 401.583 289.85 401.624 289.807C404.773 283.846 406.189 277.122 405.713 270.396C405.111 263.316 403.075 256.43 399.724 250.163C399.692 250.11 399.649 250.065 399.6 250.028C399.551 249.992 399.494 249.966 399.434 249.951C399.374 249.937 399.311 249.935 399.25 249.945C399.19 249.954 399.132 249.975 399.08 250.007C399.027 250.039 398.98 250.083 398.944 250.132C398.908 250.182 398.883 250.238 398.867 250.299C398.854 250.358 398.852 250.42 398.861 250.481C398.871 250.542 398.893 250.6 398.924 250.653C402.213 256.786 404.216 263.526 404.811 270.46C405.273 276.989 403.9 283.518 400.848 289.307C400.815 289.361 400.795 289.42 400.786 289.481C400.778 289.543 400.782 289.605 400.799 289.664C400.814 289.725 400.842 289.781 400.879 289.83C400.919 289.878 400.965 289.919 401.019 289.95C401.093 289.986 401.175 290.002 401.257 289.995C401.338 289.989 401.418 289.96 401.484 289.914Z" fill="#045C80"/>
<path d="M427.423 274.272C424.753 276.299 420.947 275.778 418.92 273.109C416.893 270.44 417.413 266.634 420.083 264.606C422.751 262.58 426.559 263.1 428.586 265.769C430.613 268.438 430.091 272.246 427.423 274.272Z" fill="#007EA4"/>
<path d="M427.706 274.643C428.736 273.861 429.511 272.792 429.931 271.571C430.353 270.349 430.402 269.03 430.074 267.78C429.746 266.529 429.055 265.405 428.087 264.548C427.12 263.691 425.92 263.139 424.64 262.964C423.359 262.789 422.055 262.998 420.892 263.564C419.731 264.129 418.762 265.028 418.111 266.143C417.459 267.26 417.152 268.544 417.23 269.834C417.309 271.124 417.767 272.363 418.548 273.392C419.597 274.772 421.152 275.678 422.868 275.914C424.585 276.149 426.325 275.692 427.706 274.643ZM420.366 264.978C421.248 264.308 422.309 263.916 423.416 263.847C424.522 263.781 425.622 264.043 426.579 264.602C427.535 265.161 428.304 265.991 428.79 266.987C429.275 267.983 429.454 269.101 429.303 270.198C429.153 271.296 428.682 272.324 427.946 273.154C427.211 273.983 426.247 274.576 425.177 274.856C424.106 275.138 422.973 275.096 421.926 274.734C420.88 274.373 419.963 273.708 419.294 272.826C418.395 271.643 418.003 270.152 418.205 268.68C418.404 267.209 419.182 265.877 420.366 264.978Z" fill="#045C80"/>
<path d="M444.932 272.323C442.859 273.897 439.901 273.493 438.327 271.419C436.752 269.346 437.157 266.388 439.23 264.814C441.305 263.238 444.261 263.643 445.836 265.717C447.41 267.791 447.008 270.747 444.932 272.323Z" fill="#007EA4"/>
<path d="M445.215 272.695C446.035 272.074 446.652 271.226 446.988 270.255C447.324 269.285 447.365 268.237 447.105 267.243C446.846 266.25 446.298 265.355 445.529 264.674C444.762 263.991 443.808 263.553 442.791 263.413C441.774 263.272 440.737 263.438 439.814 263.886C438.891 264.335 438.12 265.049 437.603 265.935C437.083 266.822 436.84 267.842 436.902 268.867C436.964 269.892 437.327 270.877 437.949 271.695C438.782 272.788 440.015 273.505 441.376 273.693C442.736 273.881 444.118 273.522 445.215 272.695ZM439.507 265.178C440.176 264.667 440.984 264.366 441.824 264.314C442.666 264.261 443.503 264.46 444.231 264.884C444.96 265.309 445.546 265.939 445.915 266.697C446.284 267.454 446.42 268.305 446.307 269.139C446.193 269.974 445.834 270.756 445.274 271.387C444.715 272.017 443.981 272.468 443.166 272.681C442.35 272.895 441.49 272.86 440.694 272.584C439.897 272.309 439.201 271.802 438.694 271.129C438.015 270.231 437.719 269.101 437.871 267.985C438.024 266.87 438.611 265.861 439.507 265.178Z" fill="#045C80"/>
<path d="M546.712 271.03L546.816 270.951C547.726 269.411 548.12 267.621 547.941 265.841C547.755 263.837 547.032 261.919 545.849 260.291C545.774 260.192 545.663 260.128 545.54 260.111C545.418 260.094 545.293 260.127 545.195 260.202C545.096 260.277 545.031 260.388 545.015 260.51C544.998 260.633 545.03 260.757 545.105 260.856C546.17 262.334 546.827 264.067 547.01 265.88C547.16 267.446 546.831 269.02 546.066 270.395C545.995 270.495 545.966 270.619 545.986 270.74C546.005 270.861 546.072 270.97 546.171 271.042C546.251 271.098 546.346 271.127 546.444 271.125C546.541 271.123 546.635 271.089 546.712 271.03Z" fill="#045C80"/>
<path d="M562.002 262.021L588.837 265.357L591.15 265.64C591.15 265.64 595.707 266.423 599.5 258.42C601.397 254.389 599.851 250.253 597.832 247.132C596.583 245.211 595.088 243.462 593.387 241.927C594.04 240.198 594.094 238.301 593.541 236.538C592.989 234.776 591.862 233.249 590.34 232.202C584.9 228.127 579.311 235.478 579.311 235.478L575.954 235.225C575.954 235.225 574.29 227.709 567.251 231.483C560.212 235.258 563.917 239.442 563.917 239.442C563.917 239.442 555.739 245.653 555.829 252.981C555.92 260.309 562.002 262.021 562.002 262.021Z" fill="#007EA4"/>
<path d="M595.475 264.606C597.424 262.988 598.958 260.927 599.948 258.595C601.578 255.154 600.994 251.096 598.256 246.857C597.042 244.99 595.599 243.281 593.96 241.772C594.562 239.976 594.564 238.033 593.966 236.236C593.368 234.438 592.203 232.883 590.646 231.804C585.434 227.92 580.114 233.789 579.126 234.973L576.339 234.745C576.07 233.835 575.155 231.365 572.914 230.312C571.264 229.56 569.288 229.783 567.046 230.982C564.408 232.387 562.909 234.041 562.569 235.894C562.375 237.07 562.634 238.277 563.294 239.271C561.673 240.595 555.278 246.237 555.38 252.9C555.322 254.963 555.912 256.991 557.069 258.7C558.225 260.409 559.89 261.711 561.826 262.423L561.911 262.442L591.105 266.061C592.697 266.174 594.269 265.651 595.475 264.606ZM582.278 233.212C584.293 231.682 587.197 230.427 590.091 232.555C591.537 233.532 592.61 234.971 593.136 236.636C593.662 238.301 593.61 240.095 592.987 241.726C592.949 241.817 592.94 241.918 592.963 242.015C592.985 242.111 593.038 242.198 593.114 242.263C594.783 243.782 596.248 245.509 597.474 247.403C600.057 251.421 600.605 255.06 599.104 258.24C595.534 265.78 591.302 265.208 591.262 265.203L562.075 261.578C561.551 261.413 556.436 259.601 556.333 252.95C556.246 245.983 564.154 239.848 564.229 239.792C564.28 239.752 564.323 239.703 564.355 239.647C564.386 239.59 564.406 239.528 564.413 239.464C564.418 239.4 564.41 239.335 564.39 239.274C564.37 239.213 564.338 239.157 564.295 239.108C563.964 238.688 563.722 238.204 563.585 237.687C563.449 237.17 563.42 236.63 563.5 236.101C563.792 234.555 565.126 233.132 567.508 231.885C569.485 230.83 571.211 230.586 572.553 231.243C574.817 232.278 575.509 235.305 575.519 235.332C575.542 235.431 575.595 235.519 575.671 235.585C575.747 235.652 575.841 235.693 575.941 235.703L579.285 235.954C579.364 235.963 579.443 235.95 579.515 235.918C579.588 235.886 579.65 235.835 579.696 235.771C580.449 234.815 581.316 233.956 582.278 233.212Z" fill="#045C80"/>
<path d="M562.003 262.02C562.003 262.02 556.281 257.573 560.409 253.161C564.538 248.748 565.881 248.865 565.881 248.865L568.81 261.985L562.003 262.02Z" fill="#045C80"/>
<path d="M584.931 262.297L588.837 265.357L591.15 265.64C591.15 265.64 595.707 266.423 599.5 258.42C601.397 254.388 599.851 250.253 597.832 247.132C597.832 247.132 599.9 255.01 594.991 258.163C590.082 261.316 587.725 259.261 587.725 259.261L584.931 262.297Z" fill="#045C80"/>
<path d="M566.167 270.498C567.448 271.8 566.059 276.207 571.989 276.745C576.723 277.159 577.222 273.263 580.111 272.745C581.046 272.625 581.997 272.758 582.864 273.128C584.612 273.945 586.105 275.223 587.182 276.824C590.643 281.382 593.028 288.211 593.028 288.211C595.801 286.05 598.353 283.617 600.643 280.95C603.934 276.963 603.294 270.146 603.294 270.146C603.294 270.146 585.751 262.636 586.603 261.72C587.231 260.79 587.668 259.746 587.89 258.646C588.111 257.546 588.112 256.413 587.892 255.313C587.244 253.039 583.94 248.936 579.385 251.012C578.714 251.263 578.102 251.65 577.586 252.148C577.071 252.646 576.663 253.245 576.389 253.908C576.114 254.57 575.979 255.282 575.992 255.998C576.004 256.715 576.164 257.422 576.461 258.074C576.839 258.959 574.647 259.452 570.649 258.139C566.651 256.826 565.997 249.714 565.958 249.369C565.768 249.783 559.82 263.268 561.234 266.179C562.648 269.091 564.891 269.205 566.167 270.498Z" fill="url(#paint0_linear_1_4015)"/>
<path d="M593.318 288.577C596.118 286.388 598.697 283.931 601.017 281.241C604.382 277.15 603.789 270.38 603.768 270.09C603.757 270.008 603.725 269.929 603.674 269.863C603.624 269.797 603.557 269.744 603.48 269.711C596.14 266.575 588.28 262.862 587.121 261.784C588.356 259.814 588.79 257.446 588.333 255.167C588.002 254.159 587.474 253.228 586.779 252.427C586.085 251.626 585.237 250.972 584.286 250.503C583.483 250.137 582.608 249.954 581.726 249.965C580.843 249.977 579.974 250.184 579.18 250.57C578.456 250.85 577.797 251.274 577.242 251.817C576.687 252.36 576.249 253.01 575.954 253.728C575.658 254.445 575.513 255.216 575.525 255.992C575.538 256.768 575.708 257.533 576.026 258.241C575.879 258.434 574.274 258.821 570.807 257.667C567.34 256.514 566.515 250.025 566.425 249.273C566.413 249.171 566.368 249.077 566.298 249.004C566.227 248.93 566.135 248.882 566.034 248.866C565.933 248.847 565.828 248.863 565.737 248.911C565.646 248.959 565.573 249.036 565.532 249.13C565.473 249.269 559.265 263.138 560.814 266.335C561.556 267.872 562.807 269.104 564.354 269.824C564.885 270.085 565.377 270.417 565.818 270.81C566.125 271.273 566.318 271.802 566.38 272.353C566.785 274.121 567.4 276.784 571.927 277.203C574.963 277.465 576.399 276.069 577.66 274.842C578.307 274.047 579.184 273.471 580.171 273.193L580.215 273.159C581.054 273.068 581.902 273.196 582.677 273.529C584.342 274.313 585.762 275.537 586.783 277.069C590.171 281.53 592.536 288.256 592.56 288.32C592.583 288.39 592.623 288.454 592.676 288.506C592.73 288.557 592.795 288.595 592.867 288.615C592.939 288.648 593.018 288.662 593.097 288.656C593.177 288.649 593.253 288.622 593.318 288.577ZM602.859 270.452C602.929 271.748 603.072 277.324 600.276 280.62C598.149 283.102 595.791 285.379 593.236 287.419C591.826 283.547 589.91 279.878 587.54 276.506C586.414 274.828 584.846 273.496 583.009 272.655C582.065 272.254 581.031 272.113 580.014 272.245L579.962 272.285C578.808 272.596 577.776 273.252 577.006 274.166C575.844 275.306 574.636 276.494 572.022 276.263C568.159 275.914 567.7 273.906 567.296 272.138C567.214 271.417 566.937 270.732 566.494 270.157C565.994 269.698 565.432 269.312 564.825 269.009C563.442 268.389 562.323 267.299 561.668 265.932C560.702 263.934 563.885 255.375 565.754 250.966C566.241 253.398 567.483 257.519 570.516 258.534C573.548 259.548 575.952 259.657 576.724 258.836C576.84 258.705 576.916 258.543 576.944 258.37C576.973 258.198 576.952 258.02 576.884 257.859C576.606 257.263 576.454 256.616 576.44 255.958C576.427 255.301 576.55 254.648 576.803 254.041C577.056 253.434 577.433 252.886 577.91 252.433C578.386 251.98 578.953 251.632 579.572 251.41C580.24 251.073 580.976 250.892 581.724 250.88C582.472 250.868 583.213 251.026 583.892 251.341C585.566 252.175 586.842 253.638 587.44 255.411C587.833 257.479 587.407 259.619 586.251 261.378C586.187 261.448 586.142 261.532 586.119 261.623C586.096 261.714 586.096 261.809 586.119 261.9C586.405 263.219 596.603 267.771 602.859 270.452Z" fill="#045C80"/>
<path d="M593.049 241.574C593.049 241.574 592.166 244.718 589.368 245.201C578.227 247.156 579.326 235.466 579.326 235.466C579.326 235.466 576.049 247.591 587.974 247.889C592.934 248.014 594.609 243.073 594.609 243.073L593.049 241.574Z" fill="#045C80"/>
<path d="M564.321 239.757C566.037 238.151 568.112 236.978 570.373 236.333C572.347 235.802 574.396 235.605 576.436 235.75L575.603 234.87C575.603 234.87 571.846 234.429 569.297 235.427C567.284 236.358 565.435 237.608 563.821 239.129L564.321 239.757Z" fill="#045C80"/>
<path d="M585.188 254.717L585.299 254.633C585.37 254.531 585.398 254.405 585.377 254.283C585.356 254.161 585.289 254.051 585.189 253.978C585.061 253.887 582.089 251.795 579.673 253.63L579.576 253.704C579.003 254.082 578.574 254.643 578.359 255.296C578.144 255.948 578.156 256.654 578.392 257.299C578.417 257.356 578.453 257.406 578.498 257.448C578.543 257.49 578.596 257.523 578.654 257.545C578.712 257.566 578.773 257.576 578.835 257.574C578.896 257.571 578.957 257.557 579.013 257.531C579.126 257.477 579.212 257.38 579.255 257.263C579.297 257.145 579.291 257.016 579.239 256.902C579.091 256.446 579.101 255.954 579.269 255.505C579.437 255.056 579.752 254.677 580.163 254.43L580.238 254.374C582.111 252.951 584.614 254.719 584.639 254.736C584.721 254.79 584.818 254.817 584.916 254.814C585.014 254.81 585.109 254.777 585.188 254.717Z" fill="#045C80"/>
<path d="M583.104 258.223C583.169 258.174 583.221 258.111 583.256 258.037C583.461 257.502 583.566 256.934 583.565 256.361C583.546 255.425 582.613 255.431 582.06 255.429C581.658 255.461 581.254 255.404 580.877 255.26C580.784 255.214 580.804 255.163 580.787 255.141C580.858 254.689 581.069 254.27 581.39 253.944C581.475 253.851 581.518 253.727 581.512 253.602C581.505 253.476 581.449 253.358 581.355 253.273C581.262 253.189 581.139 253.145 581.013 253.152C580.887 253.158 580.769 253.214 580.684 253.308C580.512 253.498 579.707 254.461 579.852 255.3C579.884 255.458 579.952 255.607 580.05 255.736C580.147 255.865 580.273 255.97 580.417 256.043C580.922 256.267 581.474 256.363 582.024 256.323C582.228 256.308 582.432 256.322 582.631 256.366C582.621 256.786 582.539 257.2 582.391 257.593C582.342 257.706 582.34 257.834 582.385 257.949C582.431 258.064 582.52 258.156 582.633 258.205C582.703 258.251 582.783 258.276 582.866 258.279C582.949 258.283 583.031 258.263 583.104 258.223Z" fill="#045C80"/>
<path d="M571.194 270.62C571.54 270.355 571.838 270.033 572.077 269.668C572.967 268.371 572.591 265.421 572.543 265.095C572.52 264.977 572.453 264.873 572.356 264.804C572.259 264.734 572.139 264.705 572.021 264.721C571.903 264.737 571.795 264.798 571.72 264.891C571.646 264.984 571.609 265.102 571.619 265.221C571.723 266.022 571.886 268.29 571.308 269.15C571.018 269.642 570.565 270.018 570.028 270.212C569.491 270.406 568.903 270.406 568.365 270.213C568.307 270.185 568.243 270.169 568.179 270.166C568.114 270.163 568.05 270.174 567.99 270.197C567.929 270.221 567.875 270.256 567.829 270.302C567.783 270.348 567.748 270.402 567.724 270.462C567.701 270.523 567.69 270.587 567.692 270.652C567.695 270.716 567.711 270.78 567.739 270.837C567.768 270.896 567.808 270.947 567.857 270.989C567.907 271.03 567.964 271.062 568.026 271.08C568.55 271.275 569.115 271.335 569.669 271.255C570.222 271.175 570.747 270.956 571.194 270.62Z" fill="#045C80"/>
<path d="M571.843 235.569C571.934 235.497 571.995 235.394 572.015 235.279C572.034 235.165 572.01 235.048 571.948 234.95C571.443 234.161 569.934 232.716 568.136 233.343C565.945 234.116 565.857 237.242 565.875 237.404C565.873 237.529 565.921 237.649 566.007 237.738C566.094 237.827 566.212 237.879 566.336 237.881C566.461 237.882 566.581 237.835 566.67 237.749C566.759 237.662 566.811 237.544 566.813 237.419C566.813 237.419 566.896 234.812 568.47 234.261C570.045 233.71 571.178 235.464 571.195 235.487C571.227 235.538 571.27 235.583 571.32 235.617C571.37 235.652 571.427 235.677 571.487 235.689C571.547 235.702 571.608 235.702 571.668 235.69C571.728 235.679 571.785 235.655 571.836 235.621L571.843 235.569Z" fill="#045C80"/>
<path d="M593.724 242.925C593.822 242.85 593.887 242.74 593.904 242.617C593.921 242.494 593.888 242.37 593.813 242.271C593.739 242.173 593.628 242.108 593.505 242.091C593.382 242.074 593.258 242.107 593.159 242.182C593.159 242.182 589.781 244.278 587.62 244.149C587.085 244.076 586.576 243.874 586.135 243.562C585.694 243.25 585.334 242.837 585.087 242.357C584.777 241.838 584.606 241.248 584.591 240.644C584.575 240.039 584.716 239.441 584.999 238.907C585.119 238.63 585.298 238.382 585.524 238.18C585.749 237.979 586.015 237.828 586.304 237.74C587.026 237.646 587.756 237.822 588.356 238.234C588.406 238.27 588.463 238.295 588.523 238.309C588.583 238.323 588.645 238.325 588.706 238.315C588.767 238.305 588.825 238.283 588.877 238.25C588.93 238.217 588.975 238.174 589.01 238.123C589.046 238.073 589.072 238.017 589.086 237.956C589.099 237.896 589.101 237.834 589.09 237.774C589.079 237.713 589.056 237.655 589.022 237.604C588.988 237.552 588.944 237.508 588.893 237.474C588.07 236.905 587.059 236.681 586.073 236.849C585.651 236.961 585.26 237.167 584.927 237.45C584.595 237.733 584.329 238.086 584.15 238.485C583.795 239.152 583.616 239.9 583.63 240.656C583.645 241.413 583.852 242.153 584.232 242.807C584.555 243.424 585.025 243.952 585.599 244.346C586.174 244.739 586.836 244.985 587.528 245.063C589.992 245.22 593.467 243.05 593.612 242.963L593.724 242.925Z" fill="#045C80"/>
<path d="M567.508 261.028C567.003 261.411 566.282 261.313 565.899 260.808C565.515 260.303 565.614 259.582 566.119 259.199C566.624 258.815 567.344 258.914 567.728 259.419C568.111 259.924 568.013 260.644 567.508 261.028Z" fill="#045C80"/>
<path opacity="0.45" d="M580 272.244C581.012 272.127 582.038 272.262 582.985 272.639C584.79 273.456 586.344 274.74 587.486 276.359L584.389 265.441C584.301 266.92 583.775 268.34 582.878 269.519C582.123 270.621 581.142 271.55 580 272.244Z" fill="#FF4B39"/>
<path d="M523.459 312.098L541.866 301.789C541.622 294.583 540.39 287.444 538.204 280.573C536.845 276.53 534.363 270.42 531.966 267.727C527.376 262.609 522.445 263.094 522.107 263.081C523.012 262.756 523.893 262.369 524.744 261.922C526.05 261.234 527.128 260.179 527.844 258.888L533.478 259.299C533.128 258.262 532.692 257.255 532.177 256.289C529.533 251.264 526.026 249.238 521.649 249.479C520.661 249.529 519.697 249.801 518.83 250.277C517.962 250.753 517.215 251.419 516.642 252.226C515.734 251.127 514.502 250.341 513.122 249.982C511.742 249.622 510.284 249.706 508.954 250.222C504.065 251.965 504.522 256.272 504.522 256.272L498.859 255.884L500.962 260.676C502.743 261.062 504.483 261.617 506.159 262.333C507.104 263.021 508.299 264.224 510.834 263.858C512.718 263.428 514.492 262.608 516.04 261.452L518.207 263.194C518.207 263.194 512.039 265.475 514.906 269.652C516.734 272.203 519.29 274.144 522.24 275.219L508.718 278.453L523.459 312.098Z" fill="url(#paint1_linear_1_4015)"/>
<path d="M542.148 302.161C542.206 302.116 542.252 302.058 542.284 301.992C542.315 301.925 542.329 301.852 542.326 301.779C542.078 294.527 540.839 287.343 538.643 280.427C537.106 275.839 534.624 270.01 532.275 267.41C530.197 264.922 527.297 263.261 524.1 262.727L524.899 262.343C526.207 261.671 527.299 260.642 528.05 259.376L533.385 259.733C533.461 259.737 533.538 259.723 533.608 259.692C533.678 259.661 533.74 259.614 533.789 259.555C533.836 259.494 533.868 259.423 533.882 259.347C533.896 259.271 533.892 259.193 533.868 259.119C533.505 258.06 533.06 257.03 532.537 256.039C529.893 251.013 526.274 248.733 521.563 248.981C520.601 249.031 519.66 249.278 518.798 249.707C517.936 250.136 517.171 250.737 516.551 251.474C515.561 250.454 514.293 249.748 512.905 249.443C511.517 249.138 510.069 249.248 508.743 249.76C507.424 250.129 506.254 250.904 505.398 251.974C504.543 253.044 504.046 254.356 503.977 255.724L498.832 255.387C498.752 255.38 498.671 255.394 498.598 255.428C498.525 255.462 498.462 255.514 498.416 255.581C498.37 255.647 498.342 255.724 498.335 255.804C498.328 255.884 498.343 255.965 498.377 256.038L500.473 260.835C500.501 260.901 500.544 260.958 500.597 261.005C500.651 261.051 500.714 261.085 500.782 261.104C504.811 262.148 505.655 262.55 505.824 262.68L506.132 262.915C506.766 263.483 507.519 263.902 508.337 264.139C509.154 264.377 510.015 264.427 510.855 264.287C512.706 263.89 514.453 263.11 515.985 261.997L517.276 263.033C516.226 263.549 514.358 264.686 513.806 266.43C513.64 267.017 513.616 267.635 513.736 268.233C513.856 268.83 514.116 269.391 514.495 269.869C516.088 272.097 518.225 273.88 520.703 275.049L508.568 277.933C508.502 277.95 508.439 277.98 508.384 278.021C508.329 278.063 508.283 278.116 508.249 278.176C508.22 278.237 508.204 278.304 508.203 278.371C508.202 278.439 508.215 278.506 508.242 278.568L522.993 312.241C523.021 312.3 523.06 312.353 523.109 312.396C523.159 312.439 523.216 312.472 523.278 312.493C523.339 312.515 523.403 312.524 523.468 312.517C523.532 312.511 523.594 312.49 523.649 312.457L542.056 302.148L542.148 302.161ZM521.789 262.678C521.712 262.735 521.654 262.814 521.624 262.905C521.594 262.996 521.592 263.094 521.62 263.186C521.647 263.278 521.702 263.359 521.777 263.418C521.853 263.478 521.944 263.513 522.04 263.518L522.187 263.512C524.14 263.459 527.943 263.959 531.567 268.006C533.817 270.506 536.224 276.192 537.747 280.698C539.88 287.437 541.099 294.432 541.372 301.495L523.664 311.426L509.374 278.716L522.357 275.621C522.456 275.599 522.546 275.546 522.612 275.468C522.678 275.39 522.717 275.293 522.722 275.192C522.721 275.089 522.687 274.989 522.625 274.908C522.563 274.826 522.476 274.766 522.378 274.738C519.529 273.697 517.06 271.822 515.292 269.358C514.995 268.996 514.79 268.569 514.691 268.112C514.593 267.655 514.604 267.181 514.725 266.729C515.342 264.748 518.329 263.617 518.356 263.608C518.435 263.579 518.503 263.53 518.556 263.466C518.608 263.401 518.641 263.324 518.653 263.242C518.668 263.161 518.66 263.077 518.631 263C518.601 262.923 518.551 262.856 518.486 262.806L516.319 261.064C516.238 261 516.138 260.965 516.035 260.963C515.932 260.96 515.831 260.992 515.748 261.052C514.256 262.164 512.551 262.957 510.739 263.379C510.025 263.502 509.291 263.458 508.596 263.252C507.901 263.047 507.263 262.683 506.73 262.191L506.404 261.946C506.222 261.815 505.695 261.43 501.263 260.27L499.569 256.388L504.479 256.679C504.546 256.683 504.613 256.672 504.675 256.647C504.737 256.622 504.793 256.584 504.839 256.535C504.887 256.488 504.924 256.43 504.947 256.366C504.97 256.302 504.977 256.234 504.969 256.167C504.951 256.004 504.639 252.197 509.101 250.602C510.337 250.122 511.693 250.042 512.977 250.374C514.26 250.704 515.408 251.429 516.258 252.447C516.304 252.506 516.363 252.554 516.43 252.586C516.498 252.618 516.573 252.634 516.647 252.631C516.722 252.628 516.795 252.607 516.861 252.57C516.926 252.533 516.981 252.481 517.022 252.418C517.551 251.671 518.244 251.054 519.048 250.614C519.851 250.175 520.745 249.924 521.66 249.881C526.035 249.653 529.235 251.736 531.755 256.445C532.143 257.183 532.488 257.942 532.791 258.719L527.846 258.382C527.754 258.376 527.663 258.398 527.583 258.444C527.503 258.49 527.439 258.558 527.398 258.641C526.727 259.839 525.725 260.819 524.513 261.464C523.679 261.886 522.824 262.265 521.952 262.6C521.892 262.613 521.836 262.639 521.789 262.678Z" fill="#045C80"/>
<path opacity="0.45" d="M541.867 301.789L540.844 294.946C540.844 294.946 541.101 297.74 540.282 297.881C539.676 297.978 538.639 296.89 537.673 297.377C535.977 298.231 534.601 305.852 534.601 305.852L541.867 301.789Z" fill="#FF4B39"/>
<path d="M516.316 261.816C516.408 261.747 516.471 261.645 516.491 261.532C516.512 261.419 516.489 261.302 516.427 261.205C515.586 259.731 515.08 258.09 514.945 256.398C514.909 255.658 515.064 254.92 515.396 254.256C515.728 253.593 516.227 253.027 516.842 252.613C516.947 252.547 517.021 252.443 517.05 252.322C517.079 252.202 517.06 252.075 516.997 251.968C516.965 251.916 516.923 251.869 516.873 251.833C516.823 251.797 516.767 251.771 516.707 251.756C516.647 251.742 516.584 251.74 516.524 251.749C516.463 251.759 516.404 251.781 516.352 251.813C515.592 252.316 514.976 253.007 514.565 253.821C514.155 254.634 513.964 255.541 514.012 256.451C514.152 258.299 514.711 260.091 515.647 261.691C515.679 261.744 515.721 261.789 515.77 261.825C515.82 261.861 515.876 261.886 515.936 261.9C515.995 261.914 516.057 261.916 516.118 261.905C516.178 261.894 516.235 261.872 516.287 261.839L516.316 261.816Z" fill="#045C80"/>
<path d="M506.411 262.714C506.498 262.651 506.559 262.56 506.586 262.456C506.612 262.353 506.601 262.243 506.556 262.147C506.073 261.052 505.654 259.929 505.303 258.784C505.115 257.952 505.002 257.105 504.963 256.253C504.956 256.129 504.9 256.013 504.808 255.93C504.715 255.848 504.594 255.805 504.47 255.812C504.346 255.819 504.23 255.875 504.148 255.967C504.065 256.059 504.023 256.181 504.03 256.305C504.071 257.231 504.197 258.152 504.407 259.055C504.781 260.245 505.221 261.413 505.727 262.553C505.753 262.61 505.789 262.66 505.834 262.702C505.879 262.744 505.932 262.777 505.99 262.799C506.047 262.82 506.109 262.83 506.17 262.828C506.232 262.825 506.293 262.811 506.349 262.785L506.411 262.714Z" fill="#045C80"/>
<path d="M529.953 304.177C529.953 304.177 520.718 285.178 520.745 282.79C520.772 280.401 518.501 274.787 518.501 274.787L514.636 275.378C514.636 275.378 495.198 239.825 486.032 245.075C480.314 248.35 491.291 264.35 491.291 264.35C491.291 264.35 476.128 243.44 469.665 247.68C462.617 252.294 475.318 270.56 475.318 270.56C475.318 270.56 464.357 256.33 458.322 262.073C452.287 267.817 463.741 281.977 466.2 285.397C468.656 288.819 495.952 323.034 495.952 323.034L520.982 313.944L529.953 304.177Z" fill="url(#paint2_linear_1_4015)"/>
<path d="M521.26 314.249L521.327 314.198L530.295 304.504C530.361 304.434 530.403 304.346 530.418 304.252C530.432 304.157 530.417 304.061 530.374 303.975C526.687 296.388 521.214 284.473 521.24 282.777C521.292 280.299 519.05 274.816 518.956 274.583C518.917 274.487 518.847 274.407 518.757 274.356C518.667 274.305 518.563 274.286 518.461 274.302L514.894 274.807C513.167 271.699 499.202 246.949 489.695 244.263C489.057 244.048 488.381 243.968 487.711 244.029C487.04 244.09 486.39 244.29 485.802 244.617C485.366 244.874 484.989 245.219 484.696 245.632C484.404 246.044 484.201 246.513 484.102 247.009C483.412 250.007 485.347 254.715 487.334 258.505C482.255 252.527 473.997 244.215 469.436 247.209C468.855 247.595 468.36 248.096 467.982 248.682C467.604 249.267 467.35 249.925 467.239 250.613C466.384 255.014 469.556 261.678 472.088 266.121C469.412 263.464 465.66 260.451 462.226 260.176C461.462 260.101 460.692 260.194 459.967 260.449C459.243 260.703 458.585 261.111 458.035 261.647C452.205 267.187 461.541 279.756 465.034 284.466C465.356 284.889 465.633 285.254 465.847 285.536C468.264 288.906 494.488 321.802 495.617 323.195C495.676 323.273 495.76 323.327 495.854 323.354C495.947 323.38 496.046 323.375 496.138 323.339L521.174 314.243L521.26 314.249ZM529.385 304.093L520.72 313.475L496.104 322.415C493.562 319.222 468.874 288.255 466.566 285.061C466.351 284.778 466.074 284.414 465.747 283.983C462.37 279.431 453.396 267.35 458.649 262.411C459.102 261.962 459.647 261.619 460.248 261.406C460.849 261.193 461.488 261.116 462.122 261.181C467.792 261.622 474.878 270.754 474.953 270.837C475.028 270.933 475.138 270.996 475.258 271.013C475.377 271.032 475.5 271.003 475.6 270.932C475.65 270.897 475.693 270.853 475.725 270.801C475.757 270.75 475.78 270.692 475.79 270.632C475.8 270.572 475.797 270.512 475.783 270.452C475.769 270.393 475.744 270.337 475.707 270.288C475.611 270.162 466.85 257.45 468.129 250.875C468.213 250.308 468.415 249.766 468.724 249.283C469.032 248.801 469.439 248.389 469.917 248.075C474.909 244.8 486.765 258.914 490.907 264.631C490.979 264.729 491.087 264.796 491.207 264.816C491.328 264.836 491.451 264.809 491.552 264.739C491.603 264.706 491.648 264.662 491.682 264.612C491.717 264.561 491.74 264.504 491.752 264.443C491.763 264.383 491.762 264.321 491.748 264.261C491.735 264.202 491.709 264.145 491.673 264.096C491.588 263.984 483.806 252.486 484.981 247.303C485.051 246.924 485.202 246.564 485.424 246.25C485.647 245.935 485.936 245.672 486.27 245.48C486.752 245.219 487.283 245.06 487.829 245.014C488.376 244.968 488.926 245.037 489.444 245.215C499.002 247.921 514.077 275.321 514.243 275.617C514.288 275.701 514.357 275.769 514.442 275.812C514.527 275.855 514.623 275.87 514.717 275.856L518.238 275.351C518.729 276.584 520.354 280.871 520.314 282.824C520.26 285.115 527.963 301.14 529.385 304.093Z" fill="#045C80"/>
<path d="M517.579 279.332C517.678 279.257 517.743 279.146 517.759 279.024C517.776 278.901 517.743 278.777 517.669 278.678L515.28 275.533C515.205 275.434 515.094 275.37 514.972 275.353C514.849 275.336 514.725 275.369 514.626 275.444C514.53 275.52 514.467 275.631 514.45 275.753C514.433 275.875 514.464 275.998 514.537 276.098L516.936 279.258C517.014 279.349 517.124 279.407 517.243 279.421C517.362 279.435 517.482 279.403 517.579 279.332Z" fill="#045C80"/>
<path d="M499.093 275.998C499.188 275.926 499.252 275.821 499.271 275.703C499.291 275.586 499.265 275.465 499.199 275.366L491.702 264.027C491.63 263.927 491.523 263.859 491.403 263.835C491.282 263.811 491.157 263.834 491.053 263.898C490.999 263.929 490.952 263.972 490.915 264.023C490.879 264.074 490.853 264.132 490.841 264.193C490.829 264.255 490.83 264.318 490.844 264.379C490.859 264.44 490.886 264.497 490.924 264.547L498.444 275.869C498.478 275.92 498.522 275.964 498.573 275.998C498.624 276.033 498.681 276.056 498.742 276.068C498.802 276.08 498.864 276.08 498.924 276.068C498.985 276.056 499.042 276.032 499.093 275.998Z" fill="#045C80"/>
<path d="M482.856 281.493C482.951 281.419 483.012 281.313 483.029 281.194C483.045 281.078 483.018 280.957 482.95 280.859L475.708 270.241C475.673 270.191 475.63 270.147 475.58 270.113C475.527 270.08 475.47 270.057 475.411 270.045C475.351 270.034 475.29 270.035 475.229 270.048C475.171 270.06 475.113 270.086 475.063 270.121C475.009 270.151 474.964 270.193 474.926 270.244C474.891 270.295 474.866 270.352 474.855 270.413C474.843 270.475 474.845 270.538 474.86 270.598C474.875 270.659 474.903 270.715 474.942 270.763L482.185 281.382C482.22 281.432 482.263 281.477 482.314 281.511C482.366 281.544 482.422 281.569 482.483 281.58C482.544 281.592 482.606 281.592 482.665 281.581C482.726 281.568 482.784 281.543 482.835 281.509L482.856 281.493Z" fill="#045C80"/>
<path d="M528.907 302.016L531.138 300.322C531.138 300.322 524.608 289.655 523.164 285.886C522.524 284.24 521.538 281.26 521.538 281.26C521.005 278.782 523.384 276.928 523.407 275.925C523.431 274.922 522.251 275.174 522.251 275.174L520.695 274.515L518.525 274.745C518.525 274.745 518.964 275.971 518.962 275.984C519.023 276.265 519.668 278.812 520.465 281.606C521.047 283.788 521.748 285.937 522.563 288.043C523.991 291.39 528.907 302.016 528.907 302.016Z" fill="#045C80"/>
<path opacity="0.45" d="M487.302 311.351C487.302 311.351 491.884 313.956 492.424 313.71C493.302 313.324 492.566 312.031 493.835 311.138C494.734 310.455 497.464 313.294 498.718 312.611C499.969 311.931 499.096 310.858 501.319 310.003C502.353 309.604 506.074 311.632 507.142 311.325C508.008 311.077 507.638 306.33 509.553 305.778C510.656 305.456 514.266 308.189 515.397 308.01C516.785 307.8 516.861 304.613 518.044 303.855C518.929 303.276 521.129 305.216 521.932 304.513C522.46 304.112 520.835 302.744 522.673 301.137C523.764 300.179 525.536 302.081 526.366 301.368C527.197 300.656 526.648 298.235 526.648 298.235L529.77 304.785L496.337 322.754L487.302 311.351Z" fill="#FF4B39"/>
<path d="M497.615 556.329L495.659 581.892L539.45 603.652L583.998 589.223L584.221 541.647L532.852 534.481L497.615 556.329Z" fill="url(#paint3_linear_1_4015)"/>
<path d="M584.279 589.593C584.336 589.55 584.382 589.494 584.415 589.432C584.446 589.368 584.467 589.297 584.469 589.228L584.686 541.657C584.696 541.545 584.662 541.432 584.593 541.34C584.525 541.25 584.425 541.188 584.313 541.165L532.943 534.002C532.835 533.989 532.725 534.014 532.633 534.072L497.406 555.912C497.343 555.951 497.29 556.003 497.252 556.066C497.212 556.127 497.19 556.196 497.182 556.27L495.226 581.833C495.217 581.926 495.237 582.018 495.28 582.099C495.327 582.181 495.395 582.246 495.478 582.287L539.267 604.048C539.321 604.075 539.38 604.091 539.439 604.096C539.5 604.099 539.56 604.093 539.617 604.075L584.136 589.668C584.188 589.651 584.236 589.626 584.279 589.593ZM583.751 542.062L583.53 588.886L539.485 603.144L496.163 581.601L498.077 556.598L532.964 534.958L583.751 542.062Z" fill="#045C80"/>
<path d="M696.523 547.884L725.968 555.708L734.559 589.158L718.146 613.532L703.655 613.773L674.946 602.613L696.523 547.884Z" fill="url(#paint4_linear_1_4015)"/>
<path d="M718.429 613.902L718.548 613.812L734.961 589.438C734.997 589.383 735.021 589.321 735.033 589.257C735.044 589.191 735.042 589.125 735.027 589.062L726.43 555.605C726.407 555.524 726.365 555.451 726.307 555.394C726.247 555.334 726.175 555.294 726.095 555.272L696.687 547.419C696.575 547.39 696.456 547.403 696.354 547.456C696.252 547.509 696.171 547.595 696.128 547.702L674.552 602.433C674.527 602.489 674.515 602.55 674.515 602.611C674.517 602.675 674.53 602.736 674.557 602.792C674.581 602.848 674.618 602.9 674.659 602.942C674.704 602.985 674.757 603.019 674.815 603.042L703.524 614.203C703.581 614.224 703.641 614.234 703.7 614.232L718.205 613.992C718.287 613.983 718.365 613.951 718.429 613.902ZM734.059 589.068L717.899 613.063L703.718 613.284L675.531 602.333L696.79 548.42L725.566 556.073L734.059 589.068Z" fill="#045C80"/>
<path opacity="0.45" d="M696.453 548.379L706.206 550.927C706.206 550.927 704.179 553.042 704.261 553.459C704.612 555.373 705.762 555.837 706.203 558.162C706.59 560.107 704.89 560.555 704.718 563.017C704.615 564.654 707.517 565.851 707.074 568.261C706.694 570.449 703.604 570.487 703.252 573.064C703.012 574.829 706.361 575.721 705.645 578.175C705.142 579.857 701.608 580.127 701.132 582.773C700.753 584.962 704.394 586.545 703.043 589.059C702.211 590.616 698.071 591.85 697.082 594.407C696.25 596.539 698.903 600.478 698.255 601.524C696.973 603.585 693.95 602.739 693.84 604.464C693.774 605.548 696.492 610.471 696.492 610.471L674.659 601.927L696.453 548.379Z" fill="#FF4B39"/>
<path opacity="0.45" d="M583.673 541.746L583.705 555.682C583.705 555.682 580.374 560.555 578.6 560.568C577.267 560.571 573.505 556.758 571.439 556.03C569.997 555.52 565.216 559.584 562.743 559.737C559.458 559.889 556.094 555.41 554.471 555.188C552.847 554.966 545.202 560.21 543.471 560.448C539.546 560.99 538.047 555.667 535.652 556.081C533.422 556.461 527.221 563.501 524.993 563.576C523.305 563.686 518.713 560.34 517.002 560.419C515.294 560.498 512.265 566.746 510.599 566.711C507.841 566.662 506.893 563.268 505.917 563.234C504.498 563.139 500.961 571.404 499.539 571.429C497.941 571.471 497.161 568.991 497.161 568.991L498.071 556.777L583.673 541.746Z" fill="#FF4B39"/>
<path d="M630.013 376.388L631.83 387.07C631.83 387.07 529.101 410.526 513.571 439.985C498.044 469.444 495.56 560.865 495.56 560.865C495.56 560.865 517.321 550.926 547.509 549.386C577.695 547.844 584.158 549.794 584.158 549.794L584.154 566.384C584.154 566.384 596.443 575.678 619.198 587.753C641.952 599.826 675.476 612.819 675.476 612.819C675.476 612.819 693.383 602.936 698.924 577.922C704.463 552.906 700.081 546.704 700.081 546.704C700.081 546.704 649.99 528.721 639.008 518.212L764.855 422.279C767.637 393.849 761.169 374.603 752.48 362.373C743.791 350.145 724.256 334.161 724.256 334.161L630.013 376.388Z" fill="#007EA4"/>
<path d="M678.851 611.136C689.406 602.881 696.699 591.156 699.435 578.038C704.956 553.107 700.707 546.709 700.523 546.451C700.465 546.375 700.389 546.317 700.299 546.28C699.804 546.106 651.333 528.651 639.802 518.252L765.205 422.659C765.256 422.62 765.298 422.57 765.331 422.515C765.361 422.457 765.382 422.396 765.39 422.332C768.417 391.323 760.325 372.44 752.929 362.114C744.309 349.976 724.818 333.971 724.613 333.81C724.545 333.754 724.465 333.719 724.379 333.708C724.294 333.696 724.208 333.709 724.129 333.744L629.871 376.014C629.777 376.058 629.7 376.132 629.651 376.224C629.602 376.316 629.585 376.422 629.603 376.525L631.352 386.778C623.131 388.673 528.341 411.149 513.209 439.815C497.777 469.059 495.162 559.996 495.129 560.913C495.127 560.991 495.144 561.07 495.182 561.14C495.218 561.211 495.272 561.271 495.342 561.314C495.408 561.356 495.483 561.382 495.561 561.388C495.639 561.393 495.717 561.379 495.79 561.349C512.29 554.646 529.804 550.78 547.59 549.909C573.666 548.571 582.092 549.863 583.77 550.206L583.757 566.416C583.758 566.489 583.772 566.561 583.805 566.625C583.84 566.691 583.889 566.746 583.948 566.788C584.038 566.907 596.524 576.25 619.045 588.199C641.563 600.147 675.038 613.152 675.373 613.286C675.438 613.31 675.506 613.32 675.575 613.313C675.644 613.307 675.71 613.288 675.769 613.252C676.842 612.613 677.872 611.908 678.851 611.136ZM699.836 547.136C700.346 548.086 703.553 555.227 698.552 577.863C693.434 601.009 677.431 611.194 675.508 612.35C672.628 611.231 641.026 598.82 619.488 587.392C598.523 576.27 586.314 567.405 584.694 566.196L584.703 549.848C584.703 549.746 584.669 549.649 584.609 549.569C584.548 549.489 584.463 549.431 584.366 549.403C584.091 549.317 577.403 547.458 547.538 548.99C529.889 549.892 512.511 553.685 496.09 560.217C496.366 551.486 499.431 467.92 514.027 440.273C529.305 411.321 630.941 387.828 631.978 387.603C632.094 387.577 632.196 387.508 632.263 387.409C632.33 387.311 632.356 387.19 632.337 387.072L630.578 376.744L724.212 334.687C726.427 336.523 744.066 351.262 752.134 362.626C759.387 372.826 767.392 391.409 764.419 422.026L638.734 517.834C638.683 517.876 638.639 517.927 638.608 517.988C638.577 518.048 638.559 518.114 638.555 518.182C638.551 518.249 638.563 518.314 638.586 518.376C638.612 518.439 638.65 518.493 638.698 518.54C649.412 528.821 696.146 545.766 699.786 547.07L699.836 547.136Z" fill="#045C80"/>
<path d="M583.62 549.254C583.62 549.254 602.11 551.249 603.241 556.088C604.371 560.925 600.619 562.006 597.056 562.671C593.495 563.336 584.172 564.413 584.172 564.413L583.62 549.254Z" fill="#045C80"/>
<path d="M631.83 387.07C631.83 387.07 637.239 407.499 612.509 431.401C587.78 455.304 572.942 463.195 572.852 465.843C572.611 473.118 591.285 509.286 594.057 520.391C596.827 531.498 603.24 556.088 603.24 556.088C603.24 556.088 586.878 481.826 582.335 469.098C579.97 462.465 623.854 434.238 630.845 415.473C637.585 397.472 631.83 387.07 631.83 387.07Z" fill="#045C80"/>
<path d="M603.042 556.414C603.114 556.359 603.168 556.285 603.197 556.201C603.227 556.114 603.23 556.022 603.209 555.937L592.5 510.682C592.47 510.563 592.397 510.459 592.293 510.394C592.188 510.329 592.061 510.308 591.941 510.335C591.881 510.346 591.824 510.372 591.774 510.407C591.723 510.442 591.68 510.487 591.647 510.54C591.615 510.591 591.592 510.649 591.583 510.711C591.573 510.771 591.577 510.832 591.592 510.892L602.305 556.153C602.32 556.212 602.344 556.268 602.381 556.317C602.414 556.365 602.459 556.408 602.511 556.439C602.563 556.471 602.619 556.493 602.679 556.503C602.739 556.512 602.8 556.509 602.858 556.496C602.925 556.482 602.988 556.452 603.042 556.414Z" fill="#045C80"/>
<path d="M688.61 578.217C688.688 578.158 688.745 578.074 688.769 577.98C688.787 577.919 688.794 577.859 688.79 577.797C688.786 577.739 688.768 577.679 688.742 577.625C688.713 577.57 688.674 577.523 688.629 577.483C688.581 577.446 688.528 577.415 688.469 577.399C687.523 577.108 594.101 548.034 600.851 504.519C604.592 480.423 632.106 455.555 656.374 433.608C676.53 415.383 695.56 398.177 697.264 384.506C699.428 367.071 687.809 353.53 687.701 353.388C687.661 353.341 687.613 353.304 687.559 353.277C687.503 353.249 687.443 353.232 687.383 353.229C687.323 353.226 687.261 353.233 687.203 353.252C687.146 353.274 687.093 353.305 687.047 353.346C686.955 353.428 686.898 353.542 686.889 353.666C686.879 353.787 686.919 353.911 686.997 354.005C687.104 354.145 698.483 367.355 696.38 384.39C694.761 397.695 675.808 414.819 655.791 432.916C631.402 454.952 603.765 479.949 599.974 504.364C597.127 522.737 611.494 541.333 641.588 558.207C656.446 566.337 672.035 573.061 688.147 578.286C688.223 578.318 688.305 578.329 688.389 578.318C688.471 578.304 688.546 578.269 688.61 578.217Z" fill="#045C80"/>
<path d="M697.087 384.828C697.186 384.753 697.251 384.642 697.267 384.519C697.283 384.396 697.251 384.272 697.176 384.173C697.102 384.075 696.99 384.01 696.867 383.992C696.745 383.977 696.621 384.01 696.523 384.085C696.426 384.158 686.359 391.016 678.861 385.525C671.213 379.869 664.441 366.537 664.35 366.418C664.294 366.307 664.195 366.222 664.076 366.184C663.955 366.143 663.826 366.155 663.714 366.212C663.6 366.268 663.517 366.368 663.477 366.487C663.438 366.606 663.449 366.737 663.506 366.85C663.784 367.401 670.459 380.513 678.276 386.299C686.289 392.219 696.888 384.967 696.998 384.895L697.087 384.828Z" fill="#045C80"/>
<path d="M545.074 536.533C545.151 536.478 545.208 536.398 545.238 536.308C545.269 536.219 545.272 536.122 545.244 536.029C545.031 535.302 524.247 462.393 545.496 440.887C566.863 419.255 631.502 396.347 632.154 396.11C632.217 396.093 632.275 396.064 632.325 396.023C632.375 395.982 632.417 395.932 632.447 395.875C632.478 395.818 632.496 395.755 632.5 395.691C632.505 395.626 632.496 395.561 632.474 395.501C632.453 395.44 632.418 395.384 632.374 395.337C632.33 395.291 632.275 395.252 632.216 395.227C632.156 395.202 632.091 395.189 632.028 395.191C631.962 395.192 631.899 395.206 631.839 395.233C631.19 395.458 566.353 418.459 544.823 440.215C523.184 462.108 543.465 533.256 544.339 536.274C544.373 536.392 544.454 536.491 544.561 536.551C544.666 536.612 544.793 536.63 544.913 536.597C544.971 536.584 545.026 536.564 545.074 536.533Z" fill="#045C80"/>
<path d="M529.693 373.609C532.422 375.777 535.431 377.569 538.637 378.936C542.393 380.521 546.405 381.41 550.477 381.562C556.359 381.677 562.198 380.567 567.628 378.304C569.218 377.681 570.775 376.969 572.312 376.198C573.851 375.43 575.426 374.572 576.927 373.678C584.898 368.766 592.209 362.857 598.687 356.099C601.867 352.876 604.515 349.88 606.584 347.417C609.523 343.909 611.165 341.595 611.165 341.595C611.165 341.595 614.42 345.326 617.828 350.029C620.298 353.301 622.442 356.808 624.231 360.499C626.502 365.666 628.435 370.976 630.02 376.396C630.02 376.396 633.606 378.864 641.355 377.352C643.138 376.991 644.89 376.497 646.601 375.877C654.67 372.951 662.692 366.997 675.134 360.071C677.464 358.771 679.947 357.424 682.638 356.06C685.817 354.442 689.255 352.794 692.984 351.159L694.272 350.602C698.629 348.698 702.579 347.061 706.104 345.636C716.83 341.36 723.735 339.2 726.788 338.311C728.009 337.959 728.616 337.815 728.616 337.815L728.716 337.948L737.602 346.007C738.954 345.42 740.199 344.613 741.286 343.618C742.177 342.708 742.692 341.625 741.931 340.515C741.466 339.826 740.185 338.138 738.196 335.814C737.869 335.382 737.481 334.964 737.076 334.508C733.229 330.152 729.11 326.043 724.746 322.208C720.037 318.047 715.007 314.262 709.704 310.89C707.481 309.506 705.2 308.154 702.818 306.916C702.761 306.842 702.652 306.821 702.558 306.775C700.684 305.851 698.872 304.884 697.02 303.944C695.396 303.132 693.779 302.331 692.173 301.543C692.073 301.489 691.972 301.449 691.873 301.395C691.122 301.04 690.391 300.678 689.654 300.325C678.001 294.767 666.934 290.136 656.851 286.304C654.793 285.524 652.782 284.775 650.815 284.068C645.736 282.226 640.955 280.592 636.534 279.155C626.69 275.963 618.564 273.753 612.816 272.327C606.721 270.801 603.303 270.174 603.303 270.174C603.085 272.637 602.503 275.054 601.575 277.346L601.469 277.592C601.36 277.85 601.225 278.105 601.098 278.354C600.594 279.347 599.928 280.249 599.127 281.023C591.517 288.29 590.17 281.577 590.17 281.577C590.17 281.577 587.514 281.167 584.898 286.752C584.721 287.141 584.57 287.541 584.448 287.95C582.005 295.432 579.249 319.48 566.826 323.404C561.578 325.046 557.122 321.185 553.577 315.883C553.419 315.675 553.266 315.474 553.153 315.232C552.831 314.809 552.578 314.321 552.308 313.857C547.676 306.075 544.853 296.507 544.205 296.179C543.324 295.842 542.361 295.78 541.444 296.001L541.76 301.048L540.71 301.518L537.609 302.899L534.489 294.777C534.489 294.777 533.674 293.133 529.719 294.191C525.763 295.249 525.765 295.236 525.765 295.236L528.865 301.99C527.702 303.191 526.45 304.303 525.119 305.315C523.607 306.522 522.032 307.648 520.4 308.688C518.797 309.741 516.946 310.854 514.826 311.983C513.882 312.501 512.874 313.008 511.824 313.524L511.416 313.728C506.865 316.044 502.048 317.8 497.075 318.957C495.763 319.275 494.422 319.453 493.072 319.489C493.072 319.489 493.685 321.086 494.857 323.771C495.522 325.294 496.365 327.163 497.379 329.3C503.154 341.302 514.45 361.656 529.693 373.609Z" fill="#FFDE00"/>
<path d="M740.705 344.705C741.032 344.464 741.339 344.197 741.622 343.905C743.193 342.3 742.87 341.01 742.328 340.204C741.785 339.396 740.391 337.653 738.564 335.464L738.452 335.316C738.158 334.929 737.803 334.554 737.446 334.145C733.585 329.776 729.454 325.656 725.074 321.805C720.347 317.627 715.297 313.826 709.972 310.441C707.592 308.942 705.332 307.633 703.055 306.456C702.97 306.397 702.882 306.348 702.788 306.305C700.916 305.384 699.102 304.415 697.252 303.476C695.626 302.663 694.011 301.863 692.404 301.075L692.248 300.994L692.089 300.985L690.783 300.36L689.846 299.899C679.188 294.817 668.133 290.093 657.011 285.867C654.945 285.092 652.93 284.337 650.962 283.627C646.111 281.871 641.328 280.204 636.67 278.702C626.405 275.372 618.094 273.149 612.925 271.869C606.883 270.35 603.42 269.71 603.369 269.69C603.305 269.679 603.24 269.682 603.177 269.697C603.114 269.712 603.055 269.741 603.004 269.78C602.953 269.821 602.911 269.871 602.88 269.929C602.849 269.987 602.83 270.05 602.825 270.115C602.598 272.522 602.022 274.883 601.113 277.123L601.045 277.281L601.006 277.369C600.916 277.584 600.813 277.795 600.7 278L600.652 278.106C600.184 279.063 599.558 279.935 598.801 280.685C596.149 283.214 593.99 284.338 592.465 283.843C591.99 283.63 591.571 283.308 591.243 282.903C590.916 282.499 590.688 282.022 590.579 281.513C590.559 281.42 590.512 281.336 590.444 281.27C590.376 281.205 590.289 281.162 590.196 281.147C590.078 281.131 587.157 280.758 584.485 286.656C584.299 287.063 584.139 287.482 584.007 287.91C583.546 289.433 583.015 291.559 582.44 294.059C580.181 303.757 576.365 320.02 566.702 323.056C562.413 324.401 558.139 321.937 553.985 315.726L553.844 315.54C553.737 315.399 553.635 315.265 553.528 315.123C553.2 314.692 552.953 314.212 552.689 313.756C550.143 309.231 547.961 304.51 546.164 299.638C545.017 296.676 544.752 296.08 544.39 295.898C543.41 295.508 542.333 295.433 541.308 295.683C541.201 295.71 541.108 295.772 541.042 295.86C540.977 295.949 540.944 296.057 540.949 296.167L541.279 300.863L537.873 302.382L534.93 294.724C534.81 294.474 533.803 292.731 529.59 293.867L525.679 294.891C525.619 294.906 525.562 294.93 525.509 294.961C525.418 295.025 525.353 295.118 525.325 295.226C525.297 295.333 525.308 295.447 525.356 295.547L528.324 302.002C527.219 303.105 526.043 304.135 524.804 305.086C523.305 306.283 521.742 307.399 520.123 308.43C518.395 309.566 516.525 310.669 514.584 311.71C513.555 312.268 512.439 312.823 511.596 313.24L511.188 313.444C506.669 315.729 501.887 317.459 496.952 318.593C495.671 318.899 494.365 319.074 493.049 319.119C492.972 319.115 492.895 319.13 492.826 319.164C492.756 319.198 492.696 319.249 492.652 319.312C492.607 319.375 492.58 319.448 492.571 319.525C492.562 319.602 492.574 319.679 492.603 319.751C492.603 319.751 493.237 321.391 494.4 324.048C495.144 325.769 495.966 327.653 496.926 329.597C502.379 340.989 513.839 361.932 529.339 374.086C532.102 376.278 535.147 378.09 538.392 379.475C542.191 381.065 546.247 381.955 550.365 382.106C556.31 382.216 562.216 381.092 567.706 378.808C569.191 378.231 570.73 377.542 572.426 376.687C573.969 375.925 575.532 375.066 577.077 374.152C585.088 369.233 592.431 363.3 598.92 356.497C601.696 353.685 604.362 350.759 606.846 347.794C608.997 345.223 610.46 343.29 611.11 342.433C612.065 343.551 614.681 346.687 617.366 350.393C619.83 353.638 621.962 357.124 623.731 360.796C625.989 365.945 627.917 371.231 629.502 376.624C629.516 376.677 629.54 376.727 629.573 376.77C629.605 376.813 629.646 376.849 629.694 376.877C629.845 376.984 633.527 379.44 641.379 377.909C643.184 377.538 644.96 377.04 646.693 376.416C651.938 374.509 657.045 371.415 663.513 367.491C666.963 365.396 670.895 363.056 675.28 360.556C678.049 359.016 680.429 357.75 682.748 356.574C686.206 354.815 689.577 353.218 693.093 351.673L693.497 351.495L694.375 351.108C698.232 349.425 702.097 347.8 706.209 346.144C716.744 341.941 723.644 339.774 726.85 338.84C727.613 338.61 728.132 338.475 728.408 338.407L737.323 346.348C737.388 346.41 737.469 346.45 737.558 346.465C737.646 346.478 737.737 346.467 737.819 346.43C738.843 345.966 739.811 345.387 740.705 344.705ZM603.711 270.696C604.9 270.965 608.02 271.585 612.71 272.759C617.866 274.037 626.156 276.264 636.397 279.576C641.049 281.072 645.827 282.732 650.672 284.481C652.639 285.188 654.656 285.945 656.708 286.718C667.812 290.936 678.834 295.648 689.474 300.721L690.41 301.181L691.703 301.804L691.859 301.886L691.985 301.944C693.595 302.736 695.213 303.539 696.839 304.353C698.711 305.274 700.533 306.237 702.375 307.181L702.611 307.307C704.888 308.499 707.107 309.754 709.484 311.279C714.769 314.64 719.78 318.411 724.473 322.557C728.824 326.377 732.93 330.474 736.761 334.819C737.12 335.214 737.447 335.599 737.75 335.966L737.868 336.122C739.96 338.568 741.18 340.206 741.57 340.78C741.958 341.353 742.203 342.046 740.978 343.289C740.015 344.184 738.914 344.919 737.716 345.462L728.934 337.478C728.88 337.424 728.81 337.382 728.735 337.362C728.66 337.342 728.58 337.341 728.504 337.359C728.504 337.359 727.898 337.503 726.657 337.861C723.451 338.795 716.501 340.988 705.937 345.2C701.812 346.869 697.902 348.513 694.084 350.17L693.2 350.549L692.796 350.727C689.286 352.279 685.88 353.891 682.406 355.662C680.067 356.841 677.671 358.086 674.896 359.664C670.474 362.146 666.557 364.521 663.093 366.613C656.675 370.512 651.605 373.591 646.446 375.457C644.758 376.069 643.028 376.555 641.268 376.913C634.65 378.2 631.137 376.507 630.425 376.11C628.836 370.732 626.911 365.46 624.661 360.323C622.868 356.602 620.706 353.068 618.209 349.774C614.829 345.108 611.552 341.348 611.518 341.303C611.473 341.251 611.415 341.209 611.351 341.184C611.286 341.156 611.215 341.146 611.146 341.152C611.077 341.152 611.009 341.17 610.947 341.201C610.885 341.233 610.834 341.281 610.795 341.339C610.795 341.339 609.11 343.673 606.236 347.144C603.782 350.087 601.123 353.007 598.363 355.795C591.928 362.542 584.647 368.425 576.7 373.3C575.184 374.206 573.636 375.055 572.113 375.812C570.417 376.666 568.926 377.328 567.47 377.895C562.102 380.136 556.323 381.234 550.505 381.12C546.494 380.973 542.546 380.106 538.842 378.558C535.675 377.202 532.701 375.432 530.002 373.291C514.658 361.253 503.277 340.459 497.864 329.131C496.944 327.18 496.122 325.296 495.353 323.618C494.583 321.94 494.091 320.661 493.812 319.97C494.964 319.875 496.108 319.7 497.236 319.445C502.246 318.299 507.101 316.545 511.687 314.226L512.102 314.016C512.959 313.601 514.083 313.04 515.12 312.463C517.082 311.419 518.98 310.306 520.73 309.153C522.374 308.103 523.962 306.968 525.486 305.752C526.833 304.724 528.1 303.597 529.279 302.38C529.341 302.312 529.382 302.228 529.397 302.138C529.411 302.047 529.399 301.955 529.362 301.871L526.486 295.615C527.092 295.471 528.115 295.198 529.907 294.717C533.365 293.79 534.121 295.033 534.149 295.07L537.243 303.142C537.265 303.201 537.3 303.255 537.344 303.3C537.389 303.345 537.442 303.38 537.5 303.404C537.56 303.428 537.623 303.441 537.687 303.44C537.751 303.44 537.815 303.427 537.874 303.402L542.025 301.551C542.112 301.51 542.184 301.445 542.233 301.362C542.281 301.279 542.302 301.183 542.295 301.088L541.977 296.487C542.669 296.362 543.382 296.434 544.035 296.695C544.164 296.866 544.747 298.358 545.341 299.959C547.152 304.877 549.352 309.642 551.92 314.211C552.195 314.682 552.484 315.154 552.782 315.608C552.883 315.742 552.996 315.89 553.109 316.039L553.245 316.218C557.659 322.818 562.301 325.411 567.023 323.925C568.447 323.465 569.782 322.765 570.97 321.853C578.256 316.32 581.284 303.295 583.388 294.241C583.965 291.775 584.464 289.638 584.944 288.171C585.059 287.779 585.202 287.395 585.374 287.024C587.254 282.924 589.136 282.222 589.839 282.098C590.006 282.697 590.312 283.248 590.73 283.708C591.148 284.167 591.668 284.523 592.249 284.746C594.115 285.321 596.532 284.212 599.512 281.375C600.344 280.553 601.033 279.598 601.551 278.549L601.633 278.487C601.751 278.257 601.869 278.026 601.961 277.792L602.077 277.528C602.943 275.34 603.493 273.039 603.711 270.696Z" fill="#045C80"/>
<path d="M620.877 327.771L610.845 341.251C610.845 341.251 618.702 350.995 620.489 353.857C622.275 356.72 623.416 358.808 623.416 358.808C623.416 358.808 620.07 348.876 619.739 343.408C619.407 337.938 620.877 327.771 620.877 327.771Z" fill="#045C80"/>
<path d="M728.255 337.478C728.255 337.478 732.851 335.889 735.962 336.374C739.504 336.931 742.927 340.251 742.366 341.981C741.803 343.71 737.608 345.966 737.608 345.966L728.255 337.478Z" fill="#045C80"/>
<path d="M541.376 295.865C541.376 295.865 544.001 295.325 544.44 296.504C545.724 299.924 542.001 301.428 542.001 301.428L541.376 295.865Z" fill="#045C80"/>
<path d="M525.652 295.381C525.652 295.381 532.409 292.207 534.264 294.48C536.118 296.752 529.164 302.397 529.164 302.397L525.652 295.381Z" fill="#045C80"/>
<path d="M605.289 282.498C605.187 283.104 593.993 282.813 589.752 290.781C585.51 298.749 576.646 332.384 563.531 333.669C550.416 334.953 545.291 320.887 541.492 311.932L537.653 302.925C537.653 302.925 544.139 316.205 547.25 321.028C550.362 325.851 554.363 330.796 563.54 328.585C568.844 327.312 574.908 321.265 578.375 313.451C581.843 305.637 587.533 291.95 588.659 290.145C589.785 288.34 590.941 285.88 595.195 284.303C599.448 282.726 605.386 281.792 605.289 282.498Z" fill="#045C80"/>
<path d="M708.815 328.691C709.053 328.511 709.252 328.285 709.4 328.026C709.589 327.694 709.692 327.321 709.695 326.94C709.699 326.559 709.606 326.184 709.423 325.849L697.455 303.698C697.423 303.608 697.364 303.53 697.286 303.475C695.66 302.662 694.043 301.86 692.437 301.072L692.281 300.991L692.089 300.985C692.033 300.958 691.97 300.94 691.907 300.936C691.843 300.932 691.78 300.941 691.72 300.962C691.658 300.975 691.6 301.001 691.549 301.039C691.499 301.077 691.458 301.126 691.43 301.182L679.674 326.825C679.522 327.165 679.46 327.539 679.492 327.911C679.522 328.281 679.647 328.639 679.853 328.95C680.059 329.261 680.339 329.515 680.669 329.689C680.998 329.864 681.366 329.951 681.74 329.946L707.524 329.121C707.988 329.116 708.44 328.966 708.815 328.691ZM696.696 304.274L708.603 326.297C708.708 326.491 708.763 326.71 708.76 326.931C708.758 327.151 708.7 327.37 708.59 327.561C708.48 327.752 708.324 327.914 708.133 328.025C707.944 328.138 707.729 328.2 707.509 328.207L681.723 329.03C681.505 329.042 681.285 328.994 681.089 328.893C680.894 328.793 680.729 328.644 680.609 328.458C680.486 328.275 680.412 328.064 680.394 327.841C680.376 327.621 680.416 327.4 680.509 327.2L692.099 301.987C693.64 302.75 695.17 303.499 696.696 304.274Z" fill="#045C80"/>
<path d="M646.251 368.101C646.542 367.881 646.774 367.593 646.925 367.26L658.991 341.053C659.142 340.713 659.205 340.339 659.173 339.967C659.142 339.597 659.018 339.239 658.812 338.928C658.606 338.617 658.326 338.363 657.996 338.189C657.666 338.015 657.299 337.927 656.927 337.933L631.134 338.762C630.756 338.776 630.386 338.884 630.061 339.079C629.737 339.276 629.466 339.549 629.279 339.879C629.09 340.207 628.989 340.579 628.984 340.958C628.979 341.336 629.073 341.711 629.254 342.044L642.972 367.427C643.125 367.708 643.338 367.955 643.596 368.147C643.853 368.339 644.149 368.474 644.462 368.541C644.777 368.609 645.102 368.608 645.415 368.539C645.728 368.468 646.023 368.333 646.279 368.138L646.251 368.101ZM656.929 338.832C657.151 338.827 657.369 338.877 657.565 338.977C657.76 339.078 657.927 339.228 658.05 339.412C658.172 339.595 658.246 339.807 658.262 340.026C658.279 340.246 658.238 340.465 658.145 340.665L646.08 366.872C645.975 367.084 645.814 367.265 645.615 367.394C645.415 367.521 645.184 367.592 644.947 367.598C644.71 367.605 644.476 367.546 644.271 367.428C644.063 367.309 643.895 367.138 643.78 366.931L630.059 341.562C629.955 341.367 629.9 341.147 629.903 340.927C629.906 340.706 629.964 340.49 630.072 340.297C630.182 340.103 630.34 339.943 630.531 339.829C630.721 339.715 630.938 339.652 631.16 339.646L656.929 338.832Z" fill="#045C80"/>
<path d="M644.523 313.663C644.816 313.44 645.051 313.151 645.204 312.816L657.27 286.608C657.307 286.534 657.334 286.455 657.349 286.373C657.364 286.266 657.344 286.158 657.29 286.064C657.237 285.972 657.154 285.9 657.053 285.859C654.987 285.085 652.977 284.336 651.008 283.626C650.953 283.604 650.893 283.594 650.833 283.596L629.385 284.281C629.006 284.295 628.636 284.404 628.31 284.598C627.986 284.795 627.716 285.071 627.527 285.399C627.337 285.728 627.236 286.1 627.23 286.479C627.225 286.859 627.316 287.232 627.495 287.567L641.217 312.938C641.417 313.303 641.715 313.605 642.077 313.81C642.441 314.016 642.854 314.115 643.27 314.097C643.722 314.08 644.157 313.928 644.523 313.663ZM656.269 286.572L644.359 312.428C644.257 312.646 644.097 312.833 643.894 312.965C643.693 313.099 643.457 313.171 643.216 313.176C642.976 313.189 642.736 313.131 642.529 313.012C642.32 312.89 642.151 312.711 642.044 312.498L628.322 287.127C628.216 286.934 628.161 286.717 628.162 286.494C628.165 286.274 628.223 286.057 628.334 285.866C628.444 285.675 628.6 285.513 628.79 285.4C628.98 285.286 629.195 285.224 629.417 285.219L650.772 284.535C652.564 285.166 654.39 285.837 656.253 286.55L656.269 286.572Z" fill="#045C80"/>
<path d="M613.839 277.178C614.078 276.998 614.276 276.771 614.424 276.512C614.606 276.186 614.703 275.819 614.707 275.446C614.71 275.073 614.619 274.704 614.443 274.375L613.215 272.095C613.184 272.039 613.14 271.989 613.088 271.949C613.036 271.91 612.977 271.882 612.913 271.868C606.871 270.348 603.408 269.708 603.357 269.688C603.293 269.677 603.228 269.68 603.165 269.695C603.102 269.711 603.043 269.739 602.991 269.778C602.941 269.819 602.899 269.87 602.868 269.927C602.837 269.985 602.818 270.048 602.812 270.113C602.586 272.52 602.01 274.881 601.101 277.121L601.033 277.279L600.994 277.367C600.962 277.439 600.948 277.519 600.955 277.598C600.962 277.677 600.988 277.753 601.032 277.819C601.077 277.884 601.137 277.938 601.208 277.974C601.279 278.011 601.358 278.029 601.437 278.027L612.552 277.675C613.023 277.65 613.474 277.476 613.839 277.178ZM612.489 272.683L613.627 274.784C613.734 274.977 613.789 275.195 613.787 275.416C613.785 275.637 613.726 275.854 613.617 276.045C613.507 276.237 613.349 276.398 613.16 276.511C612.97 276.624 612.754 276.687 612.533 276.693L602.148 277.018C602.935 274.977 603.454 272.841 603.69 270.666C604.86 270.926 607.924 271.565 612.511 272.712L612.489 272.683Z" fill="#045C80"/>
<path d="M615.601 331.674C615.841 331.492 616.044 331.264 616.194 331.003C616.383 330.674 616.485 330.302 616.489 329.924C616.493 329.545 616.399 329.171 616.216 328.84L602.519 303.44C602.321 303.077 602.027 302.778 601.669 302.573C601.309 302.367 600.902 302.267 600.489 302.279C600.075 302.292 599.675 302.42 599.331 302.648C598.986 302.876 598.712 303.195 598.536 303.568L586.471 329.776C586.313 330.12 586.245 330.501 586.274 330.879C586.303 331.257 586.427 331.621 586.636 331.938C586.844 332.254 587.13 332.51 587.468 332.684C587.804 332.857 588.18 332.94 588.559 332.926L614.352 332.097C614.801 332.085 615.237 331.938 615.601 331.674ZM599.761 303.483C599.974 303.325 600.231 303.237 600.496 303.23C600.736 303.22 600.974 303.276 601.184 303.396C601.392 303.515 601.564 303.692 601.676 303.905L615.403 329.282C615.504 329.476 615.557 329.694 615.552 329.912C615.55 330.132 615.491 330.347 615.384 330.539C615.273 330.73 615.116 330.893 614.925 331.007C614.735 331.121 614.518 331.184 614.296 331.19L588.51 332.013C588.291 332.023 588.072 331.974 587.876 331.873C587.678 331.771 587.511 331.622 587.39 331.44C587.268 331.256 587.195 331.043 587.178 330.822C587.161 330.602 587.203 330.383 587.296 330.183L599.397 303.96C599.477 303.773 599.601 303.608 599.761 303.483Z" fill="#045C80"/>
<path d="M553.06 371.068C553.353 370.846 553.587 370.554 553.742 370.221L565.777 344.036C565.929 343.696 565.992 343.323 565.959 342.951C565.929 342.58 565.805 342.222 565.599 341.911C565.393 341.6 565.112 341.346 564.783 341.172C564.453 340.998 564.086 340.911 563.713 340.917L537.928 341.741C537.549 341.754 537.18 341.863 536.855 342.058C536.53 342.254 536.26 342.53 536.07 342.859C535.88 343.189 535.778 343.56 535.774 343.939C535.769 344.318 535.86 344.693 536.041 345.027L549.755 370.389C549.953 370.755 550.25 371.056 550.613 371.259C550.975 371.464 551.387 371.561 551.803 371.543C552.26 371.516 552.698 371.349 553.06 371.068ZM563.686 341.838C563.907 341.831 564.126 341.879 564.322 341.98C564.518 342.08 564.686 342.23 564.808 342.414C564.93 342.598 565.003 342.81 565.02 343.031C565.035 343.25 564.995 343.471 564.902 343.671L552.831 369.871C552.734 370.092 552.577 370.278 552.377 370.412C552.177 370.545 551.942 370.619 551.702 370.623C551.461 370.634 551.222 370.575 551.013 370.457C550.804 370.336 550.634 370.161 550.522 369.948L536.803 344.565C536.698 344.371 536.644 344.154 536.646 343.934C536.65 343.713 536.709 343.498 536.819 343.307C536.929 343.116 537.088 342.956 537.276 342.844C537.467 342.731 537.682 342.669 537.902 342.663L563.686 341.838Z" fill="#045C80"/>
<path d="M551.297 316.618C551.588 316.397 551.819 316.108 551.972 315.777L552.748 314.097C552.777 314.029 552.791 313.955 552.787 313.88C552.784 313.806 552.763 313.733 552.726 313.668C550.181 309.143 547.999 304.422 546.202 299.55C545.055 296.588 544.79 295.992 544.428 295.81C543.448 295.42 542.371 295.344 541.346 295.595C541.24 295.621 541.145 295.684 541.08 295.772C541.014 295.861 540.982 295.969 540.987 296.079L541.282 300.543L540.479 301.153C540.387 301.218 540.321 301.316 540.295 301.426C540.269 301.537 540.284 301.653 540.337 301.753L547.973 315.883C548.173 316.249 548.471 316.552 548.834 316.757C549.197 316.962 549.61 317.061 550.026 317.044C550.483 317.032 550.926 316.884 551.297 316.618ZM551.774 313.911L551.108 315.366C551.007 315.585 550.847 315.772 550.645 315.905C550.443 316.037 550.208 316.11 549.966 316.116C549.726 316.128 549.487 316.071 549.279 315.95C549.071 315.829 548.902 315.651 548.793 315.436L541.41 301.7L542.094 301.181C542.158 301.133 542.209 301.07 542.242 300.998C542.275 300.925 542.29 300.846 542.284 300.767L541.984 296.435C542.676 296.309 543.389 296.381 544.041 296.643C544.171 296.814 544.753 298.306 545.347 299.906C547.132 304.741 549.286 309.43 551.791 313.933L551.774 313.911Z" fill="#045C80"/>
<path d="M522.196 328.542C522.434 328.362 522.634 328.135 522.781 327.875C522.971 327.546 523.072 327.173 523.077 326.791C523.081 326.411 522.988 326.034 522.805 325.7L515.286 311.786C515.224 311.676 515.12 311.595 514.998 311.56C514.94 311.543 514.88 311.538 514.821 311.545C514.762 311.552 514.705 311.57 514.652 311.6C513.623 312.159 512.509 312.712 511.664 313.13L511.256 313.335C506.737 315.619 501.957 317.347 497.02 318.483C496.949 318.495 496.879 318.525 496.823 318.568C496.764 318.612 496.716 318.671 496.686 318.737L494.477 323.545C494.445 323.604 494.429 323.668 494.429 323.733C494.427 323.8 494.443 323.865 494.47 323.925C495.214 325.646 496.036 327.53 496.996 329.474C497.036 329.555 497.099 329.623 497.176 329.67C497.254 329.717 497.343 329.741 497.434 329.739L520.916 328.987C521.378 328.976 521.826 328.82 522.196 328.542ZM514.672 312.628L521.972 326.133C522.079 326.327 522.134 326.545 522.132 326.766C522.131 326.986 522.071 327.204 521.962 327.395C521.852 327.587 521.694 327.747 521.506 327.86C521.315 327.974 521.099 328.037 520.879 328.042L497.697 328.79C496.854 327.015 496.086 325.324 495.389 323.743L497.397 319.381C502.327 318.219 507.102 316.481 511.624 314.204L512.04 313.994C512.82 313.6 513.756 313.136 514.672 312.628Z" fill="#045C80"/>
<path d="M389.533 649.706C389.533 649.706 386.06 653.514 386.729 658.364C387.399 663.211 387.805 663.887 387.805 663.887L596.656 666.063C596.656 666.063 600.762 662.687 598.21 647.579C597.826 645.485 597.288 643.421 596.603 641.404L594.451 618.502L400.313 625.833L389.533 649.706Z" fill="#FFDE00"/>
<path d="M596.817 666.538L596.957 666.431C597.136 666.295 601.245 662.708 598.689 647.533C598.307 645.427 597.771 643.356 597.086 641.329L594.923 618.027L594.48 618.046L400.007 625.386L389.166 649.421C388.72 649.948 385.658 653.678 386.321 658.381C386.984 663.081 387.38 663.943 387.454 664.073L387.611 664.28L387.885 664.284L596.817 666.538ZM594.053 618.967L596.163 641.551C596.839 643.547 597.369 645.589 597.744 647.662C599.967 660.794 597.066 664.906 596.452 665.597L388.19 663.374C387.762 661.681 387.446 659.965 387.241 658.233C386.609 653.695 389.878 650.006 389.909 649.97L389.986 649.853L400.619 626.268L594.053 618.967Z" fill="#045C80"/>
<path d="M605.708 612.146C605.507 622.552 602.338 632.686 596.577 641.354C596.5 641.049 593.666 632.147 538.222 630.795C530.76 630.623 523.666 630.502 516.938 630.43C472.668 630.052 443.015 632.174 420.111 637.503C392.653 643.889 389.497 649.674 389.497 649.674C389.497 649.674 379.957 623.991 397.666 605.29C415.374 586.591 480.314 589.734 486.81 583.592C493.308 577.453 495.761 577.383 495.951 579.748C496.025 580.663 498.568 580.104 502.534 579.014C507.969 577.513 516.105 574.981 524.345 573.776C525.618 573.582 526.889 573.437 528.152 573.323C538.626 572.403 560.587 574.973 573.73 576.751C580.016 577.606 584.267 578.28 584.267 578.28C584.267 578.28 583.868 573.401 588.868 574.364C593.866 575.326 606.046 594.377 605.708 612.146Z" fill="#FF4B39"/>
<path d="M596.848 641.758C596.918 641.708 596.973 641.638 597.003 641.557L597.211 641.248C602.843 632.583 605.941 622.518 606.149 612.187C606.481 594.856 594.608 575.022 589.007 573.943C588.348 573.751 587.655 573.718 586.982 573.848C586.311 573.976 585.679 574.265 585.141 574.686C584.327 575.51 583.864 576.618 583.851 577.775C582.544 577.596 578.793 577.01 573.854 576.341C561.331 574.655 538.751 571.967 528.174 572.921C526.926 573.035 525.633 573.187 524.341 573.368C517.944 574.425 511.622 575.895 505.415 577.777L502.52 578.592C501.163 578.967 497.028 580.115 496.477 579.666C496.499 579.305 496.41 578.945 496.221 578.639C496.031 578.332 495.751 578.089 495.419 577.948C493.866 577.356 490.98 579.08 486.562 583.268C484.286 585.393 473.844 586.432 461.739 587.629C439.407 589.864 408.817 592.93 397.411 604.969C379.703 623.655 389.069 649.554 389.138 649.831C389.172 649.913 389.227 649.985 389.299 650.039C389.368 650.09 389.453 650.124 389.543 650.133C389.633 650.138 389.721 650.117 389.8 650.076C389.88 650.031 389.945 649.966 389.989 649.886C390.034 649.852 393.571 644.201 420.259 637.988C443.059 632.68 472.887 630.509 516.976 630.927C523.943 630.994 531.103 631.113 538.252 631.299C593.013 632.63 596.149 641.421 596.176 641.505C596.203 641.601 596.26 641.684 596.337 641.745C596.417 641.805 596.511 641.841 596.61 641.846C596.696 641.836 596.778 641.807 596.848 641.758ZM585.884 575.235C586.315 574.966 586.799 574.789 587.305 574.718C587.809 574.649 588.323 574.686 588.811 574.83C593.445 575.729 605.527 594.664 605.189 612.142C604.998 622.204 602.022 632.017 596.59 640.49C594.765 638.087 585.408 631.524 538.215 630.368C531.055 630.199 523.912 630.058 516.924 630.008C472.744 629.563 442.859 631.764 419.983 637.085C397.919 642.225 391.446 646.975 389.699 648.735C388.313 644.314 382.431 622.076 398.006 605.642C409.186 593.846 439.564 590.811 461.747 588.594C475.05 587.262 484.638 586.322 487.136 583.958C492.645 578.741 494.463 578.649 494.982 578.855C495.269 578.965 495.43 579.286 495.469 579.819C495.484 579.949 495.523 580.073 495.59 580.186C495.653 580.297 495.741 580.397 495.846 580.471C496.565 580.971 498.215 580.735 502.649 579.503L505.544 578.687C511.751 576.794 518.077 575.308 524.477 574.24C525.76 574.062 527.035 573.903 528.263 573.791C538.75 572.86 561.232 575.529 573.719 577.216C579.935 578.052 584.231 578.708 584.253 578.737C584.323 578.748 584.393 578.744 584.463 578.722C584.53 578.702 584.591 578.664 584.641 578.617C584.694 578.568 584.731 578.509 584.758 578.443C584.783 578.378 584.792 578.306 584.786 578.237C584.75 577.711 584.817 577.183 584.986 576.686C585.154 576.186 585.421 575.728 585.77 575.334L585.884 575.235Z" fill="#045C80"/>
<path d="M504.887 650.483C517.105 650.58 519.727 645.157 530.622 645.78C538.366 646.219 542.306 653.448 549.103 654.077C557.513 654.886 566.585 648.772 573.09 649.835C579.209 650.838 582.883 658.997 586.907 660.173C593.181 661.996 596.671 664.001 596.649 666.069C596.625 668.139 593.473 669.852 587.844 671.454C583.635 672.658 577.362 669.507 570.659 670.436C564.388 671.318 561.499 675.741 553.466 676.355C546.545 676.921 542.483 672.373 534.508 672.664C524.604 673.02 515.463 678.919 504.456 678.873C503.26 678.844 487.915 673.301 486.685 673.284C478.43 673.222 475.904 678.295 468.225 677.982C461.216 677.689 454.782 671.582 448.404 671.115C439.804 670.505 431.555 675.481 424.428 674.598C418.248 673.839 413.64 669.33 408.828 668.415C396.236 666.019 387.866 666.821 387.897 663.805C387.906 661.456 396.619 651.921 404.434 650.076C411.154 648.49 416.119 654.566 427.168 653.526C433.075 652.967 438.708 645.442 445.554 645.074C451.764 644.743 459.1 651.55 465.927 651.384C472.402 651.236 476.824 644.28 483.715 644.275C485.807 644.329 502.744 650.455 504.887 650.483Z" fill="#FFDE00"/>
<path d="M595.446 668.717C595.913 668.436 596.304 668.053 596.595 667.593C596.886 667.135 597.066 666.614 597.12 666.074C597.148 663.778 593.817 661.725 587.043 659.72C585.446 659.253 583.803 657.491 582.048 655.597C579.599 652.959 576.822 649.966 573.173 649.372C569.895 648.839 566.081 650.068 561.993 651.309C557.763 652.636 553.37 654.014 549.146 653.611C546.05 653.312 543.548 651.58 540.907 649.751C537.925 647.679 534.851 645.546 530.661 645.305C525.108 644.986 521.718 646.235 518.101 647.506C513.908 649.213 509.417 650.066 504.891 650.009C503.901 650.002 498.89 648.388 494.467 646.965C488.64 645.095 484.75 643.864 483.692 643.859C480.016 643.85 477.046 645.742 474.176 647.567C471.47 649.284 468.924 650.901 465.896 650.974C462.566 651.052 459.025 649.381 455.602 647.761C452.178 646.139 448.705 644.498 445.517 644.669C441.777 644.87 438.457 647.087 435.246 649.221C432.438 651.095 429.8 652.853 427.109 653.124C421.385 653.661 417.333 652.261 413.775 651.002C410.486 649.865 407.642 648.882 404.33 649.663C396.269 651.553 387.468 661.296 387.422 663.828C387.406 666.183 390.761 666.544 396.867 667.206C400.11 667.569 404.14 668.012 408.703 668.898C410.937 669.471 413.075 670.372 415.047 671.571C417.885 673.085 420.822 674.652 424.32 675.077C427.821 675.503 431.753 674.522 435.768 673.419C439.784 672.313 444.02 671.255 448.296 671.56C451.257 671.771 454.257 673.235 457.398 674.811C460.831 676.506 464.388 678.27 468.115 678.395C472.063 678.561 474.74 677.316 477.327 676.089C479.911 674.865 482.526 673.675 486.603 673.735C487.167 673.752 491.696 675.27 495.327 676.485C501.01 678.397 503.759 679.299 504.37 679.302C510.272 679.356 515.674 677.67 520.871 676.054C525.499 674.616 529.863 673.261 534.442 673.099C538.386 672.954 541.353 674.019 544.229 675.045C547.109 676.072 549.89 677.066 553.425 676.796C557.948 676.455 560.828 674.95 563.618 673.498C565.784 672.208 568.169 671.319 570.652 670.876C573.864 670.574 577.103 670.786 580.247 671.501C583.201 672.025 585.752 672.469 587.909 671.851C591.47 670.903 593.96 669.846 595.446 668.717ZM396.367 654.784C398.775 652.848 401.547 651.417 404.518 650.575C407.568 649.867 410.284 650.802 413.437 651.901C417.109 653.169 421.266 654.597 427.191 654.05C430.1 653.775 432.852 651.931 435.76 649.99C438.876 647.919 442.081 645.777 445.563 645.593C448.51 645.431 451.765 646.969 455.194 648.596C458.623 650.224 462.364 651.989 465.913 651.908C469.203 651.827 471.976 650.06 474.67 648.355C477.36 646.65 480.281 644.786 483.691 644.798C484.676 644.8 489.727 646.417 494.201 647.834C499.977 649.697 503.848 650.921 504.907 650.926C509.542 650.988 514.144 650.12 518.436 648.364C521.945 647.105 525.267 645.92 530.628 646.221C534.554 646.451 537.525 648.509 540.409 650.516C543.04 652.329 545.751 654.218 549.094 654.53C553.507 654.952 557.982 653.559 562.313 652.192C566.267 650.961 569.998 649.791 573.055 650.283C576.392 650.833 579.05 653.701 581.397 656.221C583.232 658.204 584.968 660.074 586.821 660.614C595.022 663.003 596.227 665.052 596.216 666.057C596.206 667.061 595.094 668.901 587.723 671.018C585.796 671.568 583.321 671.15 580.49 670.65C577.256 669.91 573.921 669.69 570.62 669.999C568.036 670.46 565.558 671.376 563.298 672.708C560.284 674.514 556.898 675.615 553.397 675.925C550.071 676.178 547.402 675.238 544.583 674.227C541.762 673.213 538.571 672.085 534.454 672.235C529.753 672.407 525.326 673.785 520.645 675.23C515.487 676.804 510.207 678.467 504.421 678.442C503.857 678.424 499.315 676.905 495.683 675.702C490.019 673.788 487.291 672.895 486.664 672.888C482.433 672.845 479.68 674.127 477.011 675.366C474.344 676.608 471.945 677.725 468.222 677.576C464.498 677.427 461.212 675.712 457.861 674.06C454.51 672.41 451.565 670.941 448.402 670.695C443.974 670.376 439.703 671.498 435.568 672.584C431.647 673.593 427.877 674.605 424.45 674.182C421.024 673.761 418.275 672.226 415.489 670.765C413.434 669.524 411.211 668.593 408.885 667.997C404.275 667.125 400.212 666.671 396.957 666.304C391.745 665.726 388.314 665.343 388.325 663.846C388.337 662.595 391.825 658.234 396.367 654.784Z" fill="#045C80"/>
<g opacity="0.5">
<path d="M504.887 650.483C517.106 650.582 519.727 645.157 530.622 645.78C538.366 646.219 542.306 653.448 549.103 654.077C557.515 654.888 566.585 648.772 573.09 649.835C579.209 650.838 582.883 658.997 586.907 660.173C593.181 661.996 596.671 664.001 596.649 666.069C596.624 668.139 593.473 669.852 587.844 671.455C583.635 672.658 577.363 669.509 570.659 670.436C564.388 671.318 561.499 675.741 553.465 676.356C546.545 676.921 542.483 672.374 534.508 672.664C524.605 673.022 515.463 678.919 504.456 678.873C503.26 678.844 487.915 673.301 486.685 673.285C478.43 673.222 475.904 678.295 468.225 677.982C461.216 677.69 454.782 671.582 448.403 671.115C439.804 670.505 431.555 675.481 424.428 674.599C418.248 673.839 413.642 669.333 408.828 668.416C396.237 666.021 387.866 666.821 387.898 663.807C387.905 661.456 396.618 651.921 404.434 650.076C411.154 648.49 416.119 654.567 427.168 653.526C433.075 652.967 438.708 645.442 445.554 645.074C451.763 644.744 459.1 651.55 465.927 651.384C472.402 651.236 476.824 644.28 483.715 644.275C485.807 644.329 502.744 650.455 504.887 650.483Z" fill="#045C80"/>
<path d="M595.446 668.717C595.913 668.436 596.304 668.053 596.595 667.593C596.886 667.135 597.066 666.614 597.12 666.074C597.148 663.778 593.817 661.725 587.043 659.72C585.446 659.253 583.803 657.491 582.048 655.597C579.599 652.959 576.822 649.966 573.173 649.372C569.895 648.839 566.081 650.068 561.993 651.309C557.763 652.636 553.37 654.014 549.146 653.611C546.05 653.312 543.548 651.58 540.907 649.751C537.925 647.679 534.851 645.546 530.661 645.305C525.108 644.986 521.718 646.235 518.101 647.506C513.908 649.213 509.417 650.066 504.891 650.009C503.901 650.002 498.89 648.388 494.467 646.965C488.64 645.095 484.75 643.864 483.692 643.859C480.016 643.85 477.046 645.742 474.176 647.567C471.47 649.284 468.924 650.901 465.896 650.974C462.566 651.052 459.025 649.381 455.602 647.761C452.178 646.139 448.705 644.498 445.517 644.669C441.777 644.87 438.457 647.087 435.246 649.221C432.438 651.095 429.8 652.853 427.109 653.124C421.385 653.661 417.333 652.261 413.775 651.002C410.486 649.865 407.642 648.882 404.33 649.663C396.269 651.553 387.468 661.296 387.422 663.828C387.406 666.183 390.761 666.544 396.867 667.206C400.11 667.569 404.14 668.012 408.703 668.898C410.937 669.471 413.075 670.372 415.047 671.571C417.885 673.085 420.822 674.652 424.32 675.077C427.821 675.503 431.753 674.522 435.768 673.419C439.784 672.313 444.02 671.255 448.296 671.56C451.257 671.771 454.257 673.235 457.398 674.811C460.831 676.506 464.388 678.27 468.115 678.395C472.063 678.561 474.74 677.316 477.327 676.089C479.911 674.865 482.526 673.675 486.603 673.735C487.167 673.752 491.696 675.27 495.327 676.485C501.01 678.397 503.759 679.299 504.37 679.302C510.272 679.356 515.674 677.67 520.871 676.054C525.499 674.616 529.863 673.261 534.442 673.099C538.386 672.954 541.353 674.019 544.229 675.045C547.109 676.072 549.89 677.066 553.425 676.796C557.948 676.455 560.828 674.95 563.618 673.498C565.784 672.208 568.169 671.319 570.652 670.876C573.864 670.574 577.103 670.786 580.247 671.501C583.201 672.025 585.752 672.469 587.909 671.851C591.47 670.903 593.96 669.846 595.446 668.717ZM396.367 654.784C398.775 652.848 401.547 651.417 404.518 650.575C407.568 649.867 410.284 650.802 413.437 651.901C417.109 653.169 421.266 654.597 427.191 654.05C430.1 653.775 432.852 651.931 435.76 649.99C438.876 647.919 442.081 645.777 445.563 645.593C448.51 645.431 451.765 646.969 455.194 648.596C458.623 650.224 462.364 651.989 465.913 651.908C469.203 651.827 471.976 650.06 474.67 648.355C477.36 646.65 480.281 644.786 483.691 644.798C484.676 644.8 489.727 646.417 494.201 647.834C499.977 649.697 503.848 650.921 504.907 650.926C509.542 650.988 514.144 650.12 518.436 648.364C521.945 647.105 525.267 645.92 530.628 646.221C534.554 646.451 537.525 648.509 540.409 650.516C543.04 652.329 545.751 654.218 549.094 654.53C553.507 654.952 557.982 653.559 562.313 652.192C566.267 650.961 569.998 649.791 573.055 650.283C576.392 650.833 579.05 653.701 581.397 656.221C583.232 658.204 584.968 660.074 586.821 660.614C595.022 663.003 596.227 665.052 596.216 666.057C596.206 667.061 595.094 668.901 587.723 671.018C585.796 671.568 583.321 671.15 580.49 670.65C577.256 669.91 573.921 669.69 570.62 669.999C568.036 670.46 565.558 671.376 563.298 672.708C560.284 674.514 556.898 675.615 553.397 675.925C550.071 676.178 547.402 675.238 544.583 674.227C541.762 673.213 538.571 672.085 534.454 672.235C529.753 672.407 525.326 673.785 520.645 675.23C515.487 676.804 510.207 678.467 504.421 678.442C503.857 678.424 499.315 676.905 495.683 675.702C490.019 673.788 487.291 672.895 486.664 672.888C482.433 672.845 479.68 674.127 477.011 675.366C474.344 676.608 471.945 677.725 468.222 677.576C464.498 677.427 461.212 675.712 457.861 674.06C454.51 672.41 451.565 670.941 448.402 670.695C443.974 670.376 439.703 671.498 435.568 672.584C431.647 673.593 427.877 674.605 424.45 674.182C421.024 673.761 418.275 672.226 415.489 670.765C413.434 669.524 411.211 668.593 408.885 667.997C404.275 667.125 400.212 666.671 396.957 666.304C391.745 665.726 388.314 665.343 388.325 663.846C388.337 662.595 391.825 658.234 396.367 654.784Z" fill="#045C80"/>
</g>
<path d="M524.396 573.796C517.021 581.577 502.018 596.334 495.382 595.066C489.637 593.956 496.73 585.204 502.605 579.03C508.034 577.522 516.17 574.99 524.396 573.796Z" fill="#007EA4"/>
<path d="M507.637 589.933C513.721 585.088 519.434 579.79 524.722 574.086L525.647 573.114L524.317 573.306C517.919 574.36 511.596 575.834 505.39 577.712L502.495 578.529L502.376 578.559L502.271 578.638C495.246 586.027 492.092 591.058 492.936 593.652C493.122 594.144 493.441 594.575 493.861 594.893C494.278 595.213 494.778 595.408 495.302 595.456C498.286 596.096 502.827 593.585 507.637 589.933ZM523.095 574.443C510.018 588.1 499.946 595.444 495.448 594.582C495.088 594.567 494.743 594.448 494.45 594.24C494.157 594.032 493.929 593.744 493.796 593.411C493.104 591.264 496.314 586.292 502.831 579.421L505.611 578.636C511.358 576.91 517.201 575.517 523.113 574.466L523.095 574.443Z" fill="#045C80"/>
<path d="M599.324 655.822C599.38 655.779 599.424 655.727 599.457 655.666C599.49 655.604 599.509 655.536 599.512 655.467C599.517 655.343 599.47 655.225 599.386 655.135C599.302 655.045 599.187 654.991 599.064 654.986C599.036 654.949 592.482 654.652 589.048 651.832C588.313 651.216 587.481 650.476 586.501 649.603C582.704 646.145 577.441 641.455 573.163 641.13C570.484 640.923 566.662 642.22 562.974 643.474C559.284 644.729 555.643 645.968 553.151 645.776C550.91 645.602 547.457 643.91 543.79 642.122C539.092 639.828 534.23 637.438 530.554 637.462C527.403 637.511 523.176 638.95 519.11 640.375C514.732 641.894 510.591 643.326 508.222 642.862C506.422 642.408 504.653 641.835 502.925 641.152C497.731 639.235 490.684 636.686 483.686 637.428C479.669 637.735 475.788 639.01 472.371 641.144C470.365 642.316 468.924 643.165 466.228 642.798C464.188 642.517 461.853 642.098 459.377 641.648C454.479 640.77 449.41 639.837 445.501 639.816C440.167 639.753 437.023 641.74 434.243 643.513C431.762 645.093 429.624 646.446 426.317 646.273C423.68 646.085 421.059 645.727 418.467 645.201C414.043 644.388 409.863 643.61 405.372 644.536C394.081 646.849 386.492 657.957 386.412 658.067C386.344 658.171 386.32 658.297 386.345 658.419C386.369 658.54 386.441 658.648 386.544 658.717C386.644 658.785 386.77 658.81 386.891 658.786C387.011 658.762 387.117 658.694 387.186 658.592C387.29 658.514 394.641 647.691 405.56 645.448C409.849 644.535 413.961 645.317 418.295 646.116C420.926 646.661 423.592 647.035 426.271 647.233C429.908 647.39 432.279 645.884 434.747 644.315C437.527 642.541 440.415 640.711 445.479 640.771C449.321 640.818 454.336 641.724 459.195 642.594C461.683 643.048 464.018 643.467 466.078 643.742C469.093 644.161 470.738 643.192 472.825 641.973C476.123 639.905 479.872 638.667 483.752 638.362C490.556 637.627 497.503 640.171 502.588 642.02C504.354 642.721 506.167 643.303 508.013 643.761C510.64 644.285 514.892 642.802 519.39 641.238C523.388 639.832 527.522 638.393 530.537 638.379C534.02 638.336 538.968 640.79 543.371 642.932C547.118 644.776 550.648 646.493 553.067 646.682C555.751 646.883 559.574 645.588 563.264 644.333C566.952 643.079 570.595 641.838 573.079 642.024C577.041 642.333 582.115 646.885 585.87 650.27C586.855 651.151 587.71 651.92 588.447 652.522C592.148 655.573 598.735 655.881 599.013 655.892C599.122 655.905 599.232 655.879 599.324 655.822Z" fill="#045C80"/>
<path d="M568.381 620C559.882 626.455 547.76 624.799 541.305 616.299C534.849 607.797 536.508 595.676 545.008 589.221C553.508 582.767 565.63 584.423 572.086 592.924C578.541 601.424 576.881 613.546 568.381 620Z" fill="#FFDE00"/>
<path d="M568.664 620.373C571.781 618.006 574.127 614.766 575.404 611.066C576.681 607.366 576.832 603.37 575.837 599.584C574.844 595.799 572.749 592.393 569.818 589.797C566.888 587.201 563.255 585.531 559.375 585.002C555.498 584.472 551.549 585.103 548.03 586.815C544.51 588.529 541.578 591.248 539.603 594.629C537.631 598.009 536.702 601.9 536.939 605.807C537.175 609.715 538.564 613.463 540.932 616.582C544.109 620.757 548.814 623.503 554.015 624.212C559.214 624.923 564.482 623.543 568.664 620.373ZM545.295 589.6C548.266 587.344 551.839 586.02 555.562 585.795C559.286 585.568 562.993 586.453 566.213 588.334C569.434 590.218 572.025 593.01 573.657 596.366C575.29 599.719 575.891 603.482 575.385 607.178C574.876 610.873 573.288 614.337 570.812 617.127C568.338 619.919 565.091 621.915 561.481 622.86C557.876 623.805 554.067 623.662 550.541 622.444C547.016 621.224 543.931 618.988 541.678 616.016C538.66 612.031 537.346 607.011 538.025 602.058C538.702 597.107 541.318 592.626 545.295 589.6Z" fill="#045C80"/>
<path d="M523.149 623.637C518.9 626.865 512.838 626.034 509.611 621.784C506.383 617.534 507.212 611.474 511.462 608.247C515.712 605.02 521.774 605.847 525.001 610.097C528.229 614.347 527.399 620.41 523.149 623.637Z" fill="#FFDE00"/>
<path d="M523.431 624.008C525.025 622.794 526.222 621.135 526.872 619.242C527.521 617.347 527.596 615.304 527.085 613.367C526.573 611.43 525.501 609.69 524.001 608.362C522.499 607.037 520.64 606.185 518.655 605.915C516.67 605.645 514.65 605.97 512.85 606.848C511.051 607.726 509.553 609.118 508.542 610.849C507.533 612.577 507.058 614.568 507.18 616.567C507.301 618.565 508.014 620.484 509.224 622.077C510.855 624.216 513.265 625.621 515.93 625.983C518.593 626.344 521.291 625.633 523.431 624.008ZM511.745 608.619C513.192 607.517 514.935 606.867 516.75 606.756C518.567 606.646 520.373 607.076 521.945 607.992C523.517 608.908 524.782 610.269 525.579 611.906C526.376 613.539 526.672 615.375 526.426 617.176C526.181 618.98 525.406 620.669 524.199 622.031C522.994 623.392 521.412 624.366 519.651 624.83C517.893 625.292 516.034 625.221 514.315 624.63C512.596 624.035 511.089 622.946 509.989 621.497C508.519 619.557 507.878 617.109 508.206 614.695C508.535 612.281 509.809 610.096 511.745 608.619Z" fill="#045C80"/>
<path d="M459.29 632.334C459.36 632.28 459.414 632.206 459.445 632.124C459.473 632.041 459.481 631.949 459.461 631.862C459.238 630.86 454.037 607.509 450.274 599.991C446.513 592.475 440.673 590.203 440.427 590.11C440.309 590.067 440.178 590.074 440.066 590.129C439.956 590.182 439.868 590.276 439.827 590.393C439.785 590.511 439.791 590.642 439.844 590.752C439.899 590.864 439.994 590.952 440.11 590.993C440.139 591.03 445.789 593.129 449.444 600.412C453.097 607.694 458.494 631.825 458.547 632.064C458.578 632.186 458.653 632.288 458.759 632.355C458.862 632.422 458.99 632.445 459.112 632.423C459.177 632.407 459.239 632.376 459.29 632.334Z" fill="#045C80"/>
<path d="M444.805 633.745C444.876 633.694 444.932 633.621 444.962 633.54C444.994 633.457 445.001 633.368 444.982 633.282C444.774 632.268 440.056 608.888 436.352 601.371C432.65 593.856 429.284 592.064 429.2 591.953C429.091 591.915 428.972 591.917 428.867 591.96C428.761 592.003 428.676 592.081 428.625 592.184C428.574 592.287 428.561 592.404 428.592 592.513C428.621 592.624 428.69 592.719 428.786 592.781C428.826 592.833 431.95 594.493 435.562 601.704C439.235 609.136 444.067 633.143 444.108 633.383C444.135 633.503 444.206 633.609 444.307 633.677C444.411 633.746 444.535 633.771 444.657 633.75C444.705 633.756 444.756 633.754 444.805 633.745Z" fill="#045C80"/>
<path d="M744.366 695.091C750.799 688.389 755.09 672.165 758.289 659.69C759.957 653.195 772.902 577.53 771.772 568.462C770.238 556.424 766.628 552.333 753.226 547.529C745.764 544.849 734.236 544.366 725.361 545.244C718.292 545.923 712.87 547.427 712.468 549.291C711.553 553.504 714.478 552.617 715.681 553.521C722.227 558.667 721.719 577.82 719.813 586.208C719.072 589.557 717.981 592.818 716.557 595.935C714.27 600.735 711.26 605.154 707.635 609.042C706.869 609.916 706.188 610.716 705.634 611.453C702.362 615.823 696.252 608.858 694.23 613.711C691.528 620.219 700.465 623.112 705.231 624.524C705.932 624.896 706.472 625.51 706.755 626.252C708.22 629.42 709.354 632.728 710.141 636.128C710.502 637.471 710.849 638.884 711.204 640.339C711.989 643.612 712.782 647.171 713.521 650.724C714.662 656.223 716.297 661.664 716.582 666.299C718.701 701.521 734.584 705.287 744.366 695.091Z" fill="#FF4B39"/>
<path d="M742.355 697.522C743.192 696.883 743.977 696.176 744.701 695.412C751.413 688.426 755.825 671.207 758.747 659.8C760.37 653.478 773.394 577.685 772.239 568.399C770.682 556.145 766.977 551.96 753.386 547.077C745.306 544.155 733.204 544.011 725.312 544.764C722.357 545.04 712.647 546.178 712.009 549.181C711.261 552.704 712.996 553.121 714.311 553.494C714.68 553.555 715.034 553.682 715.358 553.87C721.633 558.813 721.296 577.495 719.286 586.054C718.549 589.372 717.468 592.605 716.056 595.694C713.871 600.349 710.994 604.643 707.525 608.433L707.277 608.726C706.425 609.702 705.789 610.456 705.251 611.169C703.816 613.089 701.78 612.538 699.609 611.935C697.441 611.331 694.95 610.691 693.771 613.509C693.421 614.245 693.232 615.05 693.225 615.867C693.217 616.682 693.388 617.49 693.725 618.234C695.373 621.672 700.362 623.532 705.028 624.89C705.218 624.942 705.642 625.22 706.267 626.384C707.716 629.522 708.837 632.797 709.616 636.164C709.978 637.506 710.319 638.911 710.674 640.367C711.435 643.515 712.202 647.011 712.986 650.729C713.337 652.41 713.725 654.095 714.122 655.728C715.047 659.181 715.688 662.697 716.041 666.252C717.542 691.383 725.705 698.01 730.412 699.734C734.342 701.249 738.556 700.407 742.355 697.522ZM713.527 548.603C714.955 547.519 718.83 546.323 725.391 545.701C733.174 544.96 745.094 545.111 753.058 547.972C766.224 552.698 769.803 556.733 771.294 568.529C772.404 577.369 759.413 653.408 757.859 659.619C754.96 670.929 750.584 688.014 744.05 694.814C739.984 699.077 735.139 700.585 730.818 699.001C723.165 696.196 718.158 684.291 717.064 666.332C716.706 662.73 716.054 659.163 715.117 655.665C714.731 654.048 714.335 652.368 713.973 650.672C713.199 646.936 712.424 643.444 711.658 640.274C711.305 638.82 710.96 637.394 710.598 636.051C709.794 632.591 708.627 629.224 707.119 626.008C706.78 625.156 706.136 624.458 705.315 624.048C702.599 623.25 696.242 621.362 694.569 617.863C694.279 617.235 694.133 616.552 694.14 615.861C694.145 615.171 694.306 614.492 694.608 613.869C695.445 611.887 696.837 612.177 699.338 612.845C701.606 613.467 704.145 614.143 705.957 611.709C706.469 611.028 707.096 610.294 707.936 609.33L708.188 609.031C711.742 605.203 714.697 600.862 716.953 596.151C718.382 592.999 719.479 589.706 720.23 586.325C722.234 577.512 722.522 558.347 715.94 553.17C715.516 552.886 715.037 552.69 714.534 552.599C713.311 552.285 712.345 552.032 712.907 549.391C713.014 549.063 713.235 548.785 713.527 548.603Z" fill="#045C80"/>
<path d="M707.608 609.051C712.033 614.153 719.9 622.152 723.787 619.366C727.925 616.388 720.549 602.751 716.545 595.936C714.254 600.738 711.239 605.162 707.608 609.051Z" fill="#007EA4"/>
<path d="M724.121 619.697C728.135 616.649 722.441 604.985 716.934 595.707L716.451 594.902L716.08 595.713C713.887 600.361 711.002 604.649 707.524 608.435L707.009 609.037L707.252 609.357C712.725 615.669 720.087 622.597 724.06 619.743L724.121 619.697ZM716.572 596.944C723.529 608.811 726.127 617.002 723.556 618.954L723.511 618.988C720.933 620.841 715.372 617.223 708.228 609.05C711.56 605.425 714.37 601.35 716.572 596.944Z" fill="#045C80"/>
<path d="M753.836 583.298C748.367 587.452 740.566 586.386 736.412 580.915C732.259 575.446 733.326 567.646 738.796 563.492C744.265 559.339 752.066 560.405 756.219 565.874C760.373 571.345 759.306 579.145 753.836 583.298Z" fill="#FFDE00"/>
<path d="M754.133 583.673C756.783 581.617 758.529 578.61 759.002 575.289C759.476 571.971 758.637 568.595 756.666 565.881C754.696 563.168 751.746 561.327 748.443 560.751C745.139 560.173 741.739 560.904 738.965 562.789C736.169 564.749 734.261 567.736 733.654 571.096C733.048 574.457 733.791 577.92 735.725 580.735C737.678 583.545 740.667 585.467 744.035 586.076C747.404 586.686 750.876 585.934 753.69 583.985L754.133 583.673ZM739.085 563.857L739.509 563.535C741.456 562.189 743.757 561.447 746.124 561.408C748.49 561.368 750.815 562.031 752.806 563.314C754.796 564.596 756.361 566.439 757.304 568.611C758.245 570.781 758.523 573.184 758.1 575.513C757.828 577.063 757.249 578.542 756.398 579.865C755.547 581.188 754.439 582.327 753.142 583.217C750.57 585.013 747.397 585.731 744.303 585.212C741.209 584.692 738.442 582.978 736.6 580.44C734.756 577.901 733.983 574.74 734.447 571.638C734.912 568.536 736.575 565.739 739.081 563.851L739.085 563.857Z" fill="#045C80"/>
<path d="M756.265 603.999C753.53 606.076 749.629 605.542 747.552 602.808C745.476 600.073 746.009 596.172 748.744 594.095C751.478 592.019 755.379 592.553 757.456 595.287C759.532 598.021 758.999 601.923 756.265 603.999Z" fill="#FFDE00"/>
<path d="M756.552 604.365C757.986 603.322 758.948 601.752 759.225 600.001C759.502 598.25 759.072 596.46 758.029 595.026C756.987 593.591 755.417 592.63 753.665 592.353C751.915 592.077 750.125 592.507 748.69 593.548C747.291 594.583 746.349 596.122 746.065 597.838C745.781 599.555 746.176 601.315 747.168 602.745C748.159 604.175 749.669 605.163 751.376 605.5C753.084 605.836 754.855 605.493 756.314 604.545L756.552 604.365ZM749.032 594.462L749.24 594.304C750.496 593.499 752.016 593.215 753.477 593.507C754.94 593.802 756.232 594.65 757.08 595.876C757.929 597.101 758.27 598.61 758.03 600.081C757.791 601.554 756.99 602.876 755.794 603.768C755.184 604.213 754.49 604.531 753.756 604.707C753.021 604.884 752.26 604.915 751.513 604.796C750.768 604.679 750.052 604.414 749.408 604.02C748.763 603.624 748.204 603.108 747.759 602.496C747.316 601.885 746.997 601.193 746.819 600.457C746.644 599.724 746.614 598.962 746.731 598.215C746.85 597.47 747.113 596.753 747.508 596.109C747.902 595.465 748.42 594.906 749.032 594.462Z" fill="#045C80"/>
<path d="M759.291 656.644C759.379 656.581 759.438 656.489 759.461 656.386C759.478 656.327 759.481 656.266 759.472 656.205C759.465 656.143 759.445 656.085 759.412 656.033C759.38 655.98 759.339 655.934 759.29 655.897C759.241 655.861 759.184 655.834 759.124 655.821C751.139 653.89 742.97 652.799 734.757 652.569C727.728 652.469 720.808 654.293 714.74 657.84C714.639 657.91 714.569 658.016 714.545 658.138C714.52 658.259 714.545 658.385 714.611 658.488C714.646 658.538 714.689 658.583 714.74 658.618C714.791 658.653 714.849 658.676 714.909 658.686C714.97 658.698 715.033 658.7 715.092 658.688C715.152 658.674 715.209 658.652 715.259 658.617C721.165 655.177 727.9 653.415 734.733 653.525C742.869 653.755 750.961 654.834 758.871 656.739C758.945 656.759 759.02 656.761 759.094 656.745C759.168 656.728 759.236 656.692 759.291 656.644Z" fill="#045C80"/>
<path d="M756.568 667.69C756.648 667.629 756.707 667.545 756.734 667.447C756.766 667.328 756.75 667.201 756.69 667.093C756.63 666.985 756.53 666.907 756.413 666.87C755.719 666.681 739.372 662.123 731.655 662.331C726.422 662.603 721.247 663.58 716.274 665.232C716.159 665.273 716.065 665.36 716.011 665.472C715.956 665.581 715.947 665.708 715.987 665.825C716.007 665.884 716.038 665.937 716.079 665.983C716.12 666.028 716.173 666.065 716.227 666.092C716.284 666.119 716.343 666.132 716.404 666.135C716.468 666.139 716.529 666.13 716.586 666.108C721.471 664.49 726.548 663.534 731.688 663.269C739.252 663.057 755.995 667.725 756.186 667.746C756.251 667.762 756.316 667.768 756.382 667.757C756.448 667.747 756.511 667.724 756.568 667.69Z" fill="#045C80"/>
</g>
<defs>
<linearGradient id="paint0_linear_1_4015" x1="571.844" y1="255.051" x2="622.198" y2="318.998" gradientUnits="userSpaceOnUse">
<stop stop-color="#FFDE00"/>
<stop offset="1" stop-color="#FE0065"/>
</linearGradient>
<linearGradient id="paint1_linear_1_4015" x1="518.694" y1="269.377" x2="554.334" y2="327.207" gradientUnits="userSpaceOnUse">
<stop stop-color="#FFDE00"/>
<stop offset="1" stop-color="#FE0065"/>
</linearGradient>
<linearGradient id="paint2_linear_1_4015" x1="490.336" y1="277.232" x2="535.897" y2="342.122" gradientUnits="userSpaceOnUse">
<stop stop-color="#FFDE00"/>
<stop offset="1" stop-color="#FE0065"/>
</linearGradient>
<linearGradient id="paint3_linear_1_4015" x1="538.465" y1="591.211" x2="550.435" y2="497.108" gradientUnits="userSpaceOnUse">
<stop stop-color="#FFDE00"/>
<stop offset="1" stop-color="#FE0065"/>
</linearGradient>
<linearGradient id="paint4_linear_1_4015" x1="728.497" y1="590.468" x2="644.807" y2="556.734" gradientUnits="userSpaceOnUse">
<stop stop-color="#FFDE00"/>
<stop offset="1" stop-color="#FE0065"/>
</linearGradient>
<clipPath id="clip0_1_4015">
<rect width="734.703" height="734.703" fill="white" transform="matrix(-0.796394 0.604778 0.604778 0.796394 585.113 0)"/>
</clipPath>
</defs>
</svg>
