<svg width="1292" height="372" viewBox="0 0 1292 372" fill="none" xmlns="http://www.w3.org/2000/svg">
<path d="M470.329 405.452C346.17 432.568 197.014 470.131 111 447.096L7.23635 447.096C356.516 502.749 1060.74 615.909 1083.41 623.323C1111.73 632.59 1367.19 631.226 1238.12 415.472C1109.05 199.719 864.462 345.082 768.979 330.949C673.496 316.816 625.528 371.557 470.329 405.452Z" fill="#E0FF97"/>
<path d="M656.001 375.945V342.642C674.541 333.372 711.826 314.833 712.65 314.833C713.474 314.833 772.275 315.748 801.572 316.206L884.658 315.176V375.945H656.001Z" fill="white"/>
<rect x="922.767" y="293.891" width="43.2594" height="85.1455" fill="white"/>
<rect x="1064.91" y="293.891" width="48.066" height="85.1455" fill="white"/>
<g clip-path="url(#clip0_1_2857)">
<path d="M1110.82 289.85H1100.59V304.14H1100.9C1101.55 304.14 1102.08 304.668 1102.08 305.321C1102.08 305.974 1101.55 306.501 1100.9 306.501H1097.91C1097.25 306.501 1096.73 305.974 1096.73 305.321C1096.73 304.668 1097.25 304.14 1097.91 304.14H1098.22V289.85H1097.91C1097.25 289.85 1096.73 289.323 1096.73 288.67C1096.73 284.57 1094.64 283.13 1092.22 281.462C1090.83 280.509 1089.4 279.518 1088.4 277.999C1088.11 277.551 1087.78 276.795 1087.47 275.977C1087.16 276.803 1086.83 277.558 1086.54 277.999C1085.54 279.518 1084.11 280.509 1082.72 281.462C1080.3 283.13 1078.21 284.57 1078.21 288.67C1078.21 289.323 1077.68 289.85 1077.03 289.85H1076.72V304.14H1077.03C1077.68 304.14 1078.21 304.668 1078.21 305.321C1078.21 305.974 1077.68 306.501 1077.03 306.501H1074.04C1073.39 306.501 1072.86 305.974 1072.86 305.321C1072.86 304.668 1073.39 304.14 1074.04 304.14H1074.35V289.85H1063.18V372.452H1065.32V325.237V317.903C1065.32 317.25 1065.85 316.723 1066.5 316.723H1072.52C1073.17 316.723 1073.7 317.25 1073.7 317.903V324.057H1077.36V317.903C1077.36 317.25 1077.89 316.723 1078.54 316.723H1084.56C1085.21 316.723 1085.74 317.25 1085.74 317.903V324.057H1089.19V317.903C1089.19 317.25 1089.72 316.723 1090.37 316.723H1096.39C1097.04 316.723 1097.57 317.25 1097.57 317.903V324.057H1101.23V317.903C1101.23 317.25 1101.76 316.723 1102.41 316.723H1108.43C1109.08 316.723 1109.61 317.25 1109.61 317.903V372.468H1111.75V289.85H1110.81H1110.82ZM1087.81 288.827H1087.32V285.892C1087.32 285.758 1087.43 285.648 1087.56 285.648C1087.7 285.648 1087.81 285.758 1087.81 285.892V288.827Z" fill="#FF4B39"/>
<path d="M1092.55 372.523L1087.47 372.546L1082.57 372.523V355.911C1082.57 353.157 1084.81 350.922 1087.55 350.922C1090.3 350.922 1092.54 353.165 1092.54 355.911V372.523H1092.55Z" fill="#FF4B39"/>
<path d="M763.384 236.018V272.994H777.271V236.018H763.384ZM770.323 241.935C769.687 241.935 769.16 241.416 769.16 240.771C769.16 240.125 769.679 239.606 770.323 239.606C770.968 239.606 771.486 240.125 771.486 240.771C771.486 241.416 770.968 241.935 770.323 241.935Z" fill="#D8F6FF"/>
<path d="M679.921 316.896H666.474V372.554H679.921V316.896Z" fill="#D8F6FF"/>
<path d="M726.753 309.861H729.315L727.838 314.535H725.668L724.191 309.861H726.753Z" fill="#D8F6FF"/>
<path d="M738.856 316.896H731.775V372.554H738.856V316.896Z" fill="#D8F6FF"/>
<path d="M771.502 206.241H775.511V233.657H774.662V227.59C774.662 226.937 774.135 226.409 773.483 226.409C772.831 226.409 772.304 226.937 772.304 227.59V233.657H771.502V206.241Z" fill="#D8F6FF"/>
<path d="M765.137 206.241H769.145V233.657H768.343V227.59C768.343 226.937 767.817 226.409 767.164 226.409C766.512 226.409 765.986 226.937 765.986 227.59V233.657H765.137V206.241Z" fill="#D8F6FF"/>
<path d="M784.949 372.554H755.698V357.996H770.323H784.949V372.554Z" fill="#D8F6FF"/>
<path d="M784.949 350.796H770.323H755.698V275.355H762.205H770.323H778.45H784.949V350.796Z" fill="#D8F6FF"/>
<path d="M808.873 316.896H801.792V372.554H808.873V316.896Z" fill="#D8F6FF"/>
<path d="M813.894 309.861H816.456L814.979 314.535H812.81L811.332 309.861H813.894Z" fill="#D8F6FF"/>
<path d="M874.173 316.896H860.727V372.554H874.173V316.896Z" fill="#D8F6FF"/>
<path d="M710.697 105.32C711.553 105.32 712.245 104.627 712.245 103.77C712.245 102.912 711.553 102.219 710.697 102.219C709.84 102.219 709.148 102.912 709.148 103.77C709.148 104.627 709.84 105.32 710.697 105.32Z" fill="#045C80"/>
<path d="M730.596 193.997C731.303 193.997 731.869 193.422 731.869 192.722C731.869 192.021 731.295 191.447 730.596 191.447C729.896 191.447 729.323 192.021 729.323 192.722C729.323 193.422 729.896 193.997 730.596 193.997Z" fill="#045C80"/>
<path d="M1141.1 305.635C1140.4 305.635 1139.83 306.21 1139.83 306.91C1139.83 307.611 1140.4 308.185 1141.1 308.185C1141.8 308.185 1142.37 307.611 1142.37 306.91C1142.37 306.21 1141.8 305.635 1141.1 305.635Z" fill="#045C80"/>
<path d="M918.302 92.6114C919.009 92.6114 919.575 92.0369 919.575 91.3366C919.575 90.6362 919.001 90.0618 918.302 90.0618C917.603 90.0618 917.029 90.6362 917.029 91.3366C917.029 92.0369 917.603 92.6114 918.302 92.6114Z" fill="#045C80"/>
<path d="M1036.23 140.156C1037.01 140.156 1037.63 139.527 1037.63 138.748C1037.63 137.969 1037.01 137.339 1036.23 137.339C1035.45 137.339 1034.82 137.969 1034.82 138.748C1034.82 139.527 1035.45 140.156 1036.23 140.156Z" fill="#045C80"/>
<path d="M638.888 328.645C639.918 328.645 640.758 327.803 640.758 326.772C640.758 325.741 639.918 324.899 638.888 324.899C637.858 324.899 637.018 325.741 637.018 326.772C637.018 327.803 637.858 328.645 638.888 328.645Z" fill="#045C80"/>
<path d="M836.293 107.822C836.725 108.184 837.361 108.184 837.794 107.822L844.655 102.149L851.516 107.822C851.948 108.184 852.584 108.184 853.017 107.822L859.886 102.149L866.754 107.822C866.974 108.003 867.242 108.09 867.501 108.09C867.839 108.09 868.177 107.94 868.413 107.665C868.829 107.161 868.758 106.422 868.255 106.005L860.64 99.7094C860.208 99.3474 859.571 99.3474 859.139 99.7094L852.27 105.383L845.409 99.7094C844.977 99.3474 844.34 99.3474 843.908 99.7094L837.047 105.383L830.186 99.7094C829.683 99.2923 828.944 99.3631 828.528 99.8667C828.111 100.37 828.182 101.11 828.685 101.527L836.293 107.822Z" fill="#045C80"/>
<path d="M668.925 176.425C669.358 176.787 669.994 176.787 670.427 176.425L677.287 170.751L684.148 176.425C684.581 176.787 685.217 176.787 685.65 176.425L692.518 170.751L699.387 176.425C699.607 176.606 699.874 176.693 700.134 176.693C700.472 176.693 700.81 176.543 701.045 176.26C701.462 175.756 701.391 175.016 700.888 174.599L693.273 168.304C692.841 167.942 692.204 167.942 691.772 168.304L684.903 173.978L678.042 168.304C677.61 167.942 676.973 167.942 676.541 168.304L669.68 173.978L662.819 168.304C662.316 167.887 661.577 167.958 661.161 168.461C660.744 168.965 660.815 169.705 661.318 170.122L668.925 176.417V176.425Z" fill="#045C80"/>
<path d="M841.574 223.341H858.102C861.685 223.341 864.609 220.421 864.609 216.825C864.609 213.614 862.338 210.978 859.288 210.427C858.487 206.446 855.013 203.55 850.856 203.55C846.698 203.55 843.264 206.453 842.439 210.38C842.156 210.341 841.865 210.317 841.574 210.317C841.095 210.317 840.639 210.372 840.191 210.467H833.888C833.236 210.467 832.709 210.994 832.709 211.647C832.709 212.3 833.236 212.827 833.888 212.827H836.45C835.585 213.929 835.067 215.314 835.067 216.825C835.067 220.413 837.982 223.341 841.574 223.341ZM841.574 212.678C842.061 212.678 842.556 212.764 843.028 212.945C843.382 213.079 843.775 213.032 844.089 212.827C844.403 212.615 844.6 212.269 844.615 211.891C844.765 208.539 847.5 205.911 850.856 205.911C854.211 205.911 856.789 208.366 857.08 211.608C857.135 212.206 857.622 212.67 858.22 212.686C860.475 212.749 862.251 214.567 862.251 216.833C862.251 219.099 860.389 220.988 858.102 220.988H841.574C839.287 220.988 837.424 219.123 837.424 216.833C837.424 214.543 839.287 212.678 841.574 212.678Z" fill="#045C80"/>
<path d="M824.142 217.722H832.819C833.471 217.722 833.998 217.195 833.998 216.542C833.998 215.889 833.471 215.361 832.819 215.361H824.142C823.49 215.361 822.963 215.889 822.963 216.542C822.963 217.195 823.49 217.722 824.142 217.722Z" fill="#045C80"/>
<path d="M832.811 220.508H828.473C827.821 220.508 827.294 221.035 827.294 221.688C827.294 222.341 827.821 222.868 828.473 222.868H832.811C833.463 222.868 833.99 222.341 833.99 221.688C833.99 221.035 833.463 220.508 832.811 220.508Z" fill="#045C80"/>
<path d="M839.515 208.279H841.142C841.794 208.279 842.32 207.752 842.32 207.099C842.32 206.446 841.794 205.918 841.142 205.918H839.515C838.862 205.918 838.336 206.446 838.336 207.099C838.336 207.752 838.862 208.279 839.515 208.279Z" fill="#045C80"/>
<path d="M1071.29 104.95H1076.43C1075.13 106.453 1074.34 108.397 1074.34 110.521C1074.34 111.93 1074.68 113.252 1075.29 114.425H1071.29C1070.64 114.425 1070.12 114.952 1070.12 115.605C1070.12 116.258 1070.64 116.785 1071.29 116.785H1075.63C1076.03 116.785 1076.39 116.581 1076.6 116.282C1078.18 117.997 1080.44 119.083 1082.96 119.083H1099.24C1103.52 119.083 1107.01 115.621 1107.01 111.371C1107.01 107.122 1103.52 103.66 1099.24 103.66C1098.45 103.66 1097.66 103.786 1096.91 104.022C1096.19 100.496 1093.05 97.8286 1089.29 97.8286C1086.35 97.8286 1083.73 99.4418 1082.4 101.991C1081.46 102.054 1080.58 102.267 1079.74 102.597H1071.29C1070.63 102.597 1070.11 103.125 1070.11 103.778C1070.11 104.431 1070.63 104.958 1071.29 104.958L1071.29 104.95ZM1082.99 104.328H1083.13C1083.63 104.344 1084.07 104.053 1084.26 103.589C1085.08 101.519 1087.06 100.181 1089.3 100.181C1092.28 100.181 1094.71 102.582 1094.71 105.595V105.713C1094.68 106.146 1094.9 106.555 1095.27 106.776C1095.64 106.996 1096.11 106.996 1096.48 106.776C1097.32 106.28 1098.27 106.012 1099.24 106.012C1102.22 106.012 1104.65 108.413 1104.65 111.363C1104.65 114.314 1102.22 116.714 1099.24 116.714H1082.96C1079.51 116.714 1076.7 113.937 1076.7 110.514C1076.7 107.091 1079.51 104.321 1082.99 104.321V104.328Z" fill="#045C80"/>
<path d="M1063.3 109.632H1071.98C1072.63 109.632 1073.16 109.105 1073.16 108.452C1073.16 107.799 1072.63 107.271 1071.98 107.271H1063.3C1062.65 107.271 1062.12 107.799 1062.12 108.452C1062.12 109.105 1062.65 109.632 1063.3 109.632Z" fill="#045C80"/>
<path d="M1065.98 114.425C1065.33 114.425 1064.8 114.952 1064.8 115.605C1064.8 116.258 1065.33 116.785 1065.98 116.785H1066.89C1067.55 116.785 1068.07 116.258 1068.07 115.605C1068.07 114.952 1067.55 114.425 1066.89 114.425H1065.98Z" fill="#045C80"/>
<path d="M1079.52 100.182H1080.43C1081.08 100.182 1081.61 99.6543 1081.61 99.0012C1081.61 98.348 1081.08 97.8208 1080.43 97.8208H1079.52C1078.86 97.8208 1078.34 98.348 1078.34 99.0012C1078.34 99.6543 1078.86 100.182 1079.52 100.182Z" fill="#045C80"/>
<path d="M889.153 255.722H888.037V254.604C888.037 253.951 887.51 253.424 886.858 253.424C886.206 253.424 885.679 253.951 885.679 254.604V255.722H884.563C883.911 255.722 883.384 256.249 883.384 256.902C883.384 257.555 883.911 258.083 884.563 258.083H885.679V259.2C885.679 259.853 886.206 260.38 886.858 260.38C887.51 260.38 888.037 259.853 888.037 259.2V258.083H889.153C889.805 258.083 890.332 257.555 890.332 256.902C890.332 256.249 889.805 255.722 889.153 255.722Z" fill="#045C80"/>
<path d="M700.134 271.578C699.482 271.578 698.955 272.105 698.955 272.758V273.876H697.839C697.187 273.876 696.66 274.403 696.66 275.056C696.66 275.709 697.187 276.237 697.839 276.237H698.955V277.354C698.955 278.007 699.482 278.534 700.134 278.534C700.786 278.534 701.313 278.007 701.313 277.354V276.237H702.429C703.081 276.237 703.608 275.709 703.608 275.056C703.608 274.403 703.081 273.876 702.429 273.876H701.313V272.758C701.313 272.105 700.786 271.578 700.134 271.578Z" fill="#045C80"/>
<path d="M1037.35 299.812H1036.24C1035.58 299.812 1035.06 300.339 1035.06 300.993C1035.06 301.646 1035.58 302.173 1036.24 302.173H1037.35V303.29C1037.35 303.943 1037.88 304.471 1038.53 304.471C1039.18 304.471 1039.71 303.943 1039.71 303.29V302.173H1040.82C1041.48 302.173 1042 301.646 1042 300.993C1042 300.339 1041.48 299.812 1040.82 299.812H1039.71V298.695C1039.71 298.042 1039.18 297.514 1038.53 297.514C1037.88 297.514 1037.35 298.042 1037.35 298.695V299.812Z" fill="#045C80"/>
<path d="M654.772 222.137H655.007V222.373C655.007 223.026 655.534 223.553 656.186 223.553C656.839 223.553 657.365 223.026 657.365 222.373V222.137H657.601C658.253 222.137 658.78 221.609 658.78 220.956C658.78 220.303 658.253 219.776 657.601 219.776H657.365V219.54C657.365 218.887 656.839 218.359 656.186 218.359C655.534 218.359 655.007 218.887 655.007 219.54V219.776H654.772C654.119 219.776 653.593 220.303 653.593 220.956C653.593 221.609 654.119 222.137 654.772 222.137Z" fill="#045C80"/>
<path d="M1111.53 151.016H1111.76V151.252C1111.76 151.905 1112.29 152.432 1112.94 152.432C1113.59 152.432 1114.12 151.905 1114.12 151.252V151.016H1114.35C1115.01 151.016 1115.53 150.488 1115.53 149.835C1115.53 149.182 1115.01 148.655 1114.35 148.655H1114.12V148.419C1114.12 147.766 1113.59 147.239 1112.94 147.239C1112.29 147.239 1111.76 147.766 1111.76 148.419V148.655H1111.53C1110.87 148.655 1110.35 149.182 1110.35 149.835C1110.35 150.488 1110.87 151.016 1111.53 151.016Z" fill="#045C80"/>
<path d="M836.245 155.045C835.593 155.045 835.067 155.572 835.067 156.225V156.461H834.831C834.178 156.461 833.652 156.988 833.652 157.641C833.652 158.295 834.178 158.822 834.831 158.822H835.067V159.058C835.067 159.711 835.593 160.238 836.245 160.238C836.898 160.238 837.424 159.711 837.424 159.058V158.822H837.66C838.312 158.822 838.839 158.295 838.839 157.641C838.839 156.988 838.312 156.461 837.66 156.461H837.424V156.225C837.424 155.572 836.898 155.045 836.245 155.045Z" fill="#045C80"/>
<path d="M1050.81 217.329H1050.57V217.092C1050.57 216.439 1050.04 215.912 1049.39 215.912C1048.74 215.912 1048.21 216.439 1048.21 217.092V217.329H1047.98C1047.32 217.329 1046.8 217.856 1046.8 218.509C1046.8 219.162 1047.32 219.689 1047.98 219.689H1048.21V219.925C1048.21 220.578 1048.74 221.106 1049.39 221.106C1050.04 221.106 1050.57 220.578 1050.57 219.925V219.689H1050.81C1051.46 219.689 1051.98 219.162 1051.98 218.509C1051.98 217.856 1051.46 217.329 1050.81 217.329Z" fill="#045C80"/>
<path d="M1045.89 357.139C1046.09 356.43 1046.19 355.706 1046.19 354.959C1046.19 350.591 1042.64 347.035 1038.28 347.035C1033.92 347.035 1030.36 350.591 1030.36 354.959C1030.36 355.093 1030.36 355.226 1030.38 355.368C1028.82 356.674 1027.9 358.602 1027.9 360.672C1027.9 364.473 1030.99 367.565 1034.78 367.565H1037.34V372.727C1037.34 373.38 1037.87 373.908 1038.52 373.908C1039.17 373.908 1039.7 373.38 1039.7 372.727V367.565H1043.71C1046.7 367.565 1049.15 365.126 1049.15 362.12C1049.15 359.932 1047.82 357.988 1045.89 357.139ZM1043.72 365.204H1034.79C1032.29 365.204 1030.26 363.174 1030.26 360.672C1030.26 359.153 1031.02 357.744 1032.28 356.902C1032.66 356.651 1032.86 356.202 1032.79 355.754C1032.75 355.455 1032.73 355.203 1032.73 354.967C1032.73 351.898 1035.22 349.403 1038.29 349.403C1041.35 349.403 1043.84 351.898 1043.84 354.967C1043.84 355.809 1043.65 356.627 1043.28 357.398C1043.11 357.737 1043.12 358.138 1043.29 358.468C1043.47 358.799 1043.8 359.027 1044.17 359.082C1045.67 359.303 1046.8 360.609 1046.8 362.128C1046.8 363.827 1045.41 365.212 1043.72 365.212V365.204Z" fill="#045C80"/>
<path d="M911.378 356.328C911.378 352.205 908.03 348.853 903.912 348.853C899.794 348.853 896.446 352.205 896.446 356.328C896.446 357.54 896.737 358.705 897.287 359.767C896.116 360.751 895.424 362.191 895.424 363.764C895.424 366.66 897.774 369.013 900.666 369.013H903.15V373.436C903.15 374.089 903.676 374.616 904.329 374.616C904.981 374.616 905.508 374.089 905.508 373.436V369.013H906.655C910.239 369.013 913.162 366.094 913.162 362.498C913.162 360.727 912.463 359.074 911.213 357.855C911.323 357.351 911.37 356.832 911.37 356.32L911.378 356.328ZM906.663 366.652H900.674C899.079 366.652 897.79 365.354 897.79 363.764C897.79 362.655 898.419 361.663 899.425 361.176C899.739 361.018 899.975 360.735 900.053 360.389C900.132 360.042 900.053 359.68 899.849 359.405C899.173 358.508 898.812 357.446 898.812 356.328C898.812 353.511 901.106 351.213 903.92 351.213C906.734 351.213 909.028 353.511 909.028 356.328C909.028 356.863 908.942 357.39 908.777 357.91C908.62 358.382 908.785 358.909 909.178 359.208C910.215 360.003 910.812 361.207 910.812 362.505C910.812 364.795 908.95 366.66 906.663 366.66V366.652Z" fill="#045C80"/>
<path d="M1136.44 360.782C1136.44 357.564 1133.82 354.943 1130.61 354.943C1127.39 354.943 1124.78 357.564 1124.78 360.782C1124.78 361.648 1124.96 362.482 1125.33 363.253C1124.5 364.032 1124.02 365.11 1124.02 366.29C1124.02 368.604 1125.9 370.485 1128.21 370.485H1129.74V373.451C1129.74 374.104 1130.27 374.632 1130.92 374.632C1131.57 374.632 1132.1 374.104 1132.1 373.451V370.485H1132.64C1135.46 370.485 1137.76 368.187 1137.76 365.362C1137.76 364.024 1137.25 362.773 1136.34 361.829C1136.41 361.482 1136.44 361.136 1136.44 360.79V360.782ZM1132.64 368.116H1128.21C1127.2 368.116 1126.38 367.298 1126.38 366.282C1126.38 365.582 1126.77 364.953 1127.42 364.646C1127.73 364.488 1127.97 364.205 1128.04 363.859C1128.12 363.513 1128.04 363.151 1127.84 362.875C1127.38 362.261 1127.13 361.545 1127.13 360.782C1127.13 358.862 1128.69 357.304 1130.61 357.304C1132.52 357.304 1134.08 358.862 1134.08 360.782C1134.08 361.144 1134.03 361.506 1133.91 361.86C1133.75 362.332 1133.92 362.859 1134.31 363.158C1135 363.686 1135.39 364.488 1135.39 365.354C1135.39 366.881 1134.15 368.116 1132.63 368.116H1132.64Z" fill="#045C80"/>
<path d="M643.439 359.696C642.786 357.918 641.105 356.721 639.171 356.721C636.656 356.721 634.613 358.767 634.613 361.285C634.613 361.364 634.613 361.435 634.613 361.514C632.782 362.112 631.461 363.835 631.461 365.857C631.461 368.376 633.505 370.422 636.02 370.422H636.955C637.191 370.429 637.442 370.429 637.709 370.437V373.695C637.709 374.348 638.236 374.875 638.888 374.875C639.541 374.875 640.067 374.348 640.067 373.695V370.437C640.389 370.437 640.664 370.429 640.869 370.414C642.401 370.335 643.808 369.666 644.838 368.533C645.867 367.392 646.394 365.92 646.315 364.394C646.221 362.427 645.128 360.672 643.439 359.704V359.696ZM643.085 366.943C642.48 367.612 641.647 368.006 640.743 368.053C640.012 368.092 638.165 368.077 636.963 368.061H636.012C634.802 368.061 633.811 367.069 633.811 365.85C633.811 364.63 634.794 363.654 636.004 363.646C636.389 363.646 636.751 363.457 636.971 363.135C637.191 362.82 637.238 362.411 637.104 362.049C637.01 361.797 636.963 361.537 636.963 361.278C636.963 360.066 637.953 359.074 639.163 359.074C640.193 359.074 641.073 359.775 641.301 360.774C641.387 361.128 641.631 361.427 641.961 361.585C643.124 362.112 643.887 363.229 643.949 364.496C643.997 365.401 643.682 366.267 643.077 366.935L643.085 366.943Z" fill="#045C80"/>
<path d="M1009.83 337.977V297.216C1009.83 296.562 1009.3 296.035 1008.65 296.035H994.896C994.244 296.035 993.717 296.562 993.717 297.216V337.977L984.326 373.31C984.232 373.664 984.31 374.041 984.53 374.333C984.75 374.624 985.096 374.797 985.465 374.797H1018.08C1018.45 374.797 1018.8 374.624 1019.02 374.333C1019.24 374.041 1019.31 373.664 1019.22 373.31L1009.83 337.977ZM996.075 298.396H1007.47V336.954H996.075V298.396ZM991.148 372.436L993.136 366.7L995.116 372.436H991.148ZM998.661 372.436L1001.77 360.798L1004.89 372.436H998.661ZM1008.08 372.436L1010.07 366.7L1012.05 372.436H1008.08ZM1014.54 372.436L1011.18 362.702C1011.02 362.23 1010.57 361.907 1010.06 361.907C1009.56 361.907 1009.11 362.23 1008.95 362.702L1006.57 369.595L1002.91 355.927C1002.77 355.407 1002.31 355.053 1001.77 355.053C1001.24 355.053 1000.77 355.415 1000.63 355.927L996.822 370.17L994.236 362.702C994.071 362.23 993.623 361.907 993.12 361.907C992.617 361.907 992.169 362.23 992.004 362.702L988.641 372.436H986.99L995.792 339.315H1007.73L1016.53 372.436H1014.53H1014.54Z" fill="#045C80"/>
<path d="M993.128 294.194H1010.06C1010.72 294.194 1011.24 293.667 1011.24 293.013C1011.24 292.36 1010.72 291.833 1010.06 291.833H993.128C992.476 291.833 991.949 292.36 991.949 293.013C991.949 293.667 992.476 294.194 993.128 294.194Z" fill="#045C80"/>
<path d="M993.128 289.992H1010.06C1010.72 289.992 1011.24 289.464 1011.24 288.811C1011.24 288.158 1010.72 287.631 1010.06 287.631H993.128C992.476 287.631 991.949 288.158 991.949 288.811C991.949 289.464 992.476 289.992 993.128 289.992Z" fill="#045C80"/>
<path d="M993.128 285.797H1010.06C1010.72 285.797 1011.24 285.27 1011.24 284.617C1011.24 283.964 1010.72 283.437 1010.06 283.437H993.128C992.476 283.437 991.949 283.964 991.949 284.617C991.949 285.27 992.476 285.797 993.128 285.797Z" fill="#045C80"/>
<path d="M997.553 229.274C996.901 229.274 996.374 229.801 996.374 230.454V280.682C996.374 281.336 996.901 281.863 997.553 281.863H1005.64C1006.29 281.863 1006.82 281.336 1006.82 280.682V230.454C1006.82 229.801 1006.29 229.274 1005.64 229.274H997.553ZM1004.46 279.502H998.732V231.634H1004.46V279.502Z" fill="#045C80"/>
<path d="M995.722 227.676H1007.47C1008.12 227.676 1008.65 227.149 1008.65 226.496V221.287C1008.65 220.633 1008.12 220.106 1007.47 220.106H995.722C995.07 220.106 994.543 220.633 994.543 221.287V226.496C994.543 227.149 995.07 227.676 995.722 227.676ZM996.901 222.467H1006.29V225.316H996.901V222.467Z" fill="#045C80"/>
<path d="M995.722 184.695H1007.47C1008.12 184.695 1008.65 184.168 1008.65 183.515V164.519C1008.65 163.866 1008.12 163.339 1007.47 163.339H995.722C995.07 163.339 994.543 163.866 994.543 164.519V183.515C994.543 184.168 995.07 184.695 995.722 184.695ZM996.901 165.699H1006.29V182.335H996.901V165.699Z" fill="#045C80"/>
<path d="M998.472 186.057C997.82 186.057 997.293 186.584 997.293 187.237V217.627C997.293 218.281 997.82 218.808 998.472 218.808H1004.72C1005.37 218.808 1005.9 218.281 1005.9 217.627V187.237C1005.9 186.584 1005.37 186.057 1004.72 186.057H998.472ZM1003.54 216.447H999.651V188.417H1003.54V216.447Z" fill="#045C80"/>
<path d="M999.038 140.023H1000.41V161.072C1000.41 161.726 1000.94 162.253 1001.59 162.253C1002.24 162.253 1002.77 161.726 1002.77 161.072V140.023H1004.15C1004.8 140.023 1005.33 139.495 1005.33 138.842C1005.33 138.189 1004.8 137.662 1004.15 137.662H1002.77V121.924H1003.34C1004 121.924 1004.52 121.396 1004.52 120.743C1004.52 120.09 1004 119.563 1003.34 119.563H1002.77V109.632H1002.85C1003.5 109.632 1004.03 109.105 1004.03 108.452C1004.03 107.799 1003.5 107.271 1002.85 107.271H1002.77V98.2456C1003.22 98.0804 1003.54 97.6476 1003.54 97.1439C1003.54 96.6403 1003.22 96.2075 1002.77 96.0423V92.4461C1003.22 92.2808 1003.54 91.848 1003.54 91.3444C1003.54 90.6913 1003.01 90.1641 1002.36 90.1641H1000.83C1000.18 90.1641 999.651 90.6913 999.651 91.3444C999.651 91.848 999.973 92.2808 1000.42 92.4461V96.0423C999.973 96.2075 999.651 96.6403 999.651 97.1439C999.651 97.6476 999.973 98.0804 1000.42 98.2456V107.271H1000.34C999.69 107.271 999.164 107.799 999.164 108.452C999.164 109.105 999.69 109.632 1000.34 109.632H1000.42V119.563H999.848C999.195 119.563 998.669 120.09 998.669 120.743C998.669 121.396 999.195 121.924 999.848 121.924H1000.42V137.662H999.046C998.394 137.662 997.867 138.189 997.867 138.842C997.867 139.495 998.394 140.023 999.046 140.023H999.038Z" fill="#045C80"/>
<path d="M968.403 119.642C967.948 119.469 967.429 119.595 967.099 119.964L948.331 141.274C948.143 141.486 948.041 141.77 948.041 142.053V175.622L929.58 196.074C929.383 196.295 929.273 196.57 929.273 196.869V274.836L917.437 287.906C917.241 288.127 917.131 288.41 917.131 288.701V373.617C917.131 374.27 917.657 374.797 918.31 374.797H923.858C924.015 374.876 924.188 374.923 924.385 374.923H961.92C962.108 374.923 962.281 374.876 962.446 374.797H967.995C968.647 374.797 969.174 374.27 969.174 373.617V120.743C969.174 120.256 968.867 119.815 968.411 119.642H968.403ZM960.733 369.446L958.037 372.42H952.913L960.733 363.788V369.446ZM960.733 360.271L949.73 372.42H944.732L960.733 354.746V360.271ZM960.733 351.237L941.549 372.42H936.425L960.733 345.579V351.237ZM960.733 342.062L933.242 372.42H928.244L960.741 336.537V342.062H960.733ZM960.733 333.028L925.556 371.87V366.212L960.733 327.37V333.028ZM960.733 323.852L925.556 362.694V356.989L960.733 318.147V323.852ZM960.733 314.63L925.556 353.472V347.948L960.733 309.106V314.63ZM960.733 305.588L925.556 344.43V338.772L960.733 299.93V305.588ZM960.733 296.421L925.556 335.263V329.739L960.733 290.897V296.421ZM960.733 287.387L925.556 326.229V320.571L960.733 281.729V287.387ZM960.733 278.212L925.556 317.054V311.529L960.733 272.688V278.212ZM960.733 269.178L925.556 308.02V302.362L960.733 263.52V269.178ZM960.733 260.011L925.556 298.852V292.817L960.733 253.975V260.011ZM966.808 295.059V372.428H963.091V250.922C963.091 250.434 962.792 249.993 962.336 249.82C961.88 249.647 961.37 249.765 961.04 250.127L923.505 291.573C923.308 291.794 923.198 292.077 923.198 292.368V372.428H919.481V289.15L966.8 236.899V295.067L966.808 295.059ZM960.733 186.804V192.462L937.698 217.895V212.237L960.733 186.804ZM937.698 208.72V200.985L960.733 175.434V183.287L937.698 208.72ZM960.733 195.972V201.496L937.698 226.929V221.405L960.733 195.972ZM960.733 205.006V210.663L937.698 236.096V230.438L960.733 205.006ZM960.733 214.181V219.705L937.698 245.138V239.614L960.733 214.181ZM960.733 223.215V228.873L937.698 254.305V248.648L960.733 223.215ZM960.733 232.39V240.07L937.698 265.503V257.823L960.733 232.39ZM966.808 233.366L963.091 237.466V172.357C963.091 171.869 962.792 171.428 962.336 171.255C961.88 171.082 961.37 171.2 961.04 171.562L935.647 199.725C935.45 199.946 935.34 200.221 935.34 200.52V268.108L931.623 272.208V197.302L966.8 158.342V233.366H966.808ZM966.808 154.824L956.466 166.274V158.09L966.808 146.672V154.824ZM966.808 143.155L956.466 154.573V146.444L966.808 134.979V143.162V143.155ZM966.808 131.445L954.414 145.193C954.218 145.413 954.108 145.688 954.108 145.987V168.886L950.39 173.002V142.494L966.8 123.86V131.453L966.808 131.445Z" fill="#045C80"/>
<path d="M1076.98 335.577C1076.32 335.577 1075.8 336.105 1075.8 336.758V340.252C1075.8 340.905 1076.32 341.432 1076.98 341.432C1077.63 341.432 1078.16 340.905 1078.16 340.252V336.758C1078.16 336.105 1077.63 335.577 1076.98 335.577Z" fill="#045C80"/>
<path d="M1086.13 291.188H1088.98C1089.63 291.188 1090.16 290.66 1090.16 290.007V285.892C1090.16 284.452 1088.99 283.287 1087.55 283.287C1086.12 283.287 1084.95 284.46 1084.95 285.892V290.007C1084.95 290.66 1085.48 291.188 1086.13 291.188ZM1087.31 285.892C1087.31 285.758 1087.42 285.648 1087.55 285.648C1087.69 285.648 1087.8 285.758 1087.8 285.892V288.827H1087.31V285.892Z" fill="#045C80"/>
<path d="M1083.08 238.009C1083.08 238.662 1083.6 239.189 1084.25 239.189H1090.87C1091.52 239.189 1092.05 238.662 1092.05 238.009V228.44C1092.05 226.409 1089.36 222.215 1088.55 220.98C1088.11 220.327 1087.02 220.327 1086.58 220.98C1085.76 222.215 1083.08 226.409 1083.08 228.44V238.009ZM1085.43 228.44C1085.43 227.732 1086.42 225.748 1087.56 223.844C1088.71 225.748 1089.69 227.732 1089.69 228.44V236.828H1085.43V228.44Z" fill="#045C80"/>
<path d="M1072.86 238.009C1072.86 238.662 1073.39 239.189 1074.04 239.189H1080.65C1081.31 239.189 1081.83 238.662 1081.83 238.009V228.44C1081.83 227.362 1081.08 225.686 1080.25 224.159L1087.52 189.307L1094.68 224.159C1093.85 225.686 1093.1 227.37 1093.1 228.44V238.009C1093.1 238.662 1093.63 239.189 1094.28 239.189H1100.9C1101.55 239.189 1102.08 238.662 1102.08 238.009V228.44C1102.08 226.409 1099.39 222.215 1098.57 220.98C1098.14 220.327 1097.05 220.327 1096.61 220.98C1096.57 221.035 1096.52 221.106 1096.48 221.177L1089.32 186.364L1090.38 187.135C1090.58 187.284 1090.82 187.363 1091.07 187.363C1091.31 187.363 1091.56 187.284 1091.76 187.135C1092.18 186.836 1092.35 186.301 1092.18 185.813L1091.04 182.28L1094.04 180.1C1094.46 179.801 1094.63 179.266 1094.46 178.778C1094.31 178.29 1093.85 177.96 1093.34 177.96H1089.63L1088.48 174.426C1088.33 173.938 1087.87 173.608 1087.36 173.608C1086.85 173.608 1086.39 173.938 1086.23 174.426L1085.09 177.96H1081.38C1080.87 177.96 1080.41 178.29 1080.25 178.778C1080.1 179.266 1080.27 179.801 1080.68 180.1L1083.68 182.28L1082.53 185.813C1082.38 186.301 1082.55 186.828 1082.96 187.135C1083.37 187.434 1083.93 187.434 1084.34 187.135L1085.74 186.12L1078.43 221.184C1078.38 221.114 1078.34 221.035 1078.3 220.98C1077.86 220.327 1076.77 220.327 1076.33 220.98C1075.51 222.215 1072.83 226.409 1072.83 228.44V238.009H1072.86ZM1095.45 228.44C1095.45 227.731 1096.44 225.748 1097.58 223.844C1098.73 225.748 1099.71 227.731 1099.71 228.44V236.828H1095.45V228.44ZM1085.02 180.328H1085.96C1086.47 180.328 1086.93 179.998 1087.08 179.51L1087.37 178.621L1087.67 179.51C1087.82 179.998 1088.28 180.328 1088.79 180.328H1089.72L1088.97 180.879C1088.55 181.178 1088.38 181.713 1088.55 182.201L1088.84 183.09L1088.53 182.87C1088.53 182.87 1088.51 182.846 1088.51 182.838C1088.48 182.807 1088.46 182.783 1088.44 182.752C1088.42 182.72 1088.4 182.689 1088.36 182.657C1088.34 182.634 1088.31 182.61 1088.29 182.587C1088.25 182.563 1088.22 182.531 1088.19 182.508C1088.16 182.484 1088.12 182.469 1088.09 182.453C1088.06 182.437 1088.03 182.413 1088 182.406C1087.93 182.382 1087.87 182.358 1087.81 182.343C1087.8 182.343 1087.79 182.343 1087.78 182.335C1087.7 182.319 1087.63 182.311 1087.56 182.311C1087.56 182.311 1087.55 182.311 1087.53 182.311C1087.52 182.311 1087.5 182.311 1087.48 182.311C1087.46 182.311 1087.45 182.311 1087.42 182.311C1087.41 182.311 1087.39 182.311 1087.37 182.311C1087.13 182.311 1086.89 182.39 1086.68 182.539L1085.92 183.09L1086.21 182.201C1086.37 181.713 1086.2 181.178 1085.79 180.879L1085.03 180.328H1085.02ZM1075.22 228.44C1075.22 227.731 1076.2 225.748 1077.35 223.844C1078.49 225.748 1079.48 227.731 1079.48 228.44V236.828H1075.22V228.44Z" fill="#045C80"/>
<path d="M1087.56 267.864C1092.41 267.864 1096.36 263.913 1096.36 259.058C1096.36 254.203 1092.41 250.253 1087.56 250.253C1082.71 250.253 1078.77 254.203 1078.77 259.058C1078.77 263.913 1082.71 267.864 1087.56 267.864ZM1087.56 252.606C1091.12 252.606 1094 255.501 1094 259.05C1094 262.599 1091.12 265.495 1087.56 265.495C1084.01 265.495 1081.13 262.607 1081.13 259.05C1081.13 255.494 1084.01 252.606 1087.56 252.606Z" fill="#045C80"/>
<path d="M1070.92 250.253C1070.27 250.253 1069.75 250.78 1069.75 251.433V266.691C1069.75 267.344 1070.27 267.872 1070.92 267.872C1071.58 267.872 1072.1 267.344 1072.1 266.691V251.433C1072.1 250.78 1071.58 250.253 1070.92 250.253Z" fill="#045C80"/>
<path d="M1077.35 218.58C1078 218.58 1078.52 218.052 1078.52 217.399V214.079C1078.52 213.425 1078 212.898 1077.35 212.898C1076.69 212.898 1076.17 213.425 1076.17 214.079V217.399C1076.17 218.052 1076.69 218.58 1077.35 218.58Z" fill="#045C80"/>
<path d="M1097.96 341.432C1098.61 341.432 1099.14 340.905 1099.14 340.252V336.758C1099.14 336.105 1098.61 335.577 1097.96 335.577C1097.31 335.577 1096.78 336.105 1096.78 336.758V340.252C1096.78 340.905 1097.31 341.432 1097.96 341.432Z" fill="#045C80"/>
<path d="M1094.12 304.14H1080.81C1080.16 304.14 1079.63 304.667 1079.63 305.32C1079.63 305.974 1080.16 306.501 1080.81 306.501H1094.12C1094.78 306.501 1095.3 305.974 1095.3 305.32C1095.3 304.667 1094.78 304.14 1094.12 304.14Z" fill="#045C80"/>
<path d="M1115.17 287.489H1111.99V281.029H1112.05C1112.7 281.029 1113.23 280.502 1113.23 279.848C1113.23 279.195 1112.7 278.668 1112.05 278.668H1111.64L1109.84 260.168C1109.78 259.562 1109.28 259.098 1108.67 259.098C1108.07 259.098 1107.56 259.562 1107.5 260.168L1105.71 278.668H1105.29C1104.64 278.668 1104.11 279.195 1104.11 279.848C1104.11 280.502 1104.64 281.029 1105.29 281.029H1105.36V287.489H1102.07V244.563C1102.07 243.91 1101.54 243.383 1100.89 243.383H1074.04C1073.39 243.383 1072.86 243.91 1072.86 244.563V287.489H1069.57V281.029H1069.64C1070.29 281.029 1070.82 280.502 1070.82 279.848C1070.82 279.195 1070.29 278.668 1069.64 278.668H1069.22L1067.43 260.168C1067.37 259.562 1066.86 259.098 1066.26 259.098C1065.65 259.098 1065.14 259.562 1065.09 260.168L1063.29 278.668H1062.88C1062.23 278.668 1061.7 279.195 1061.7 279.848C1061.7 280.502 1062.23 281.029 1062.88 281.029H1062.94V287.489H1059.76C1059.11 287.489 1058.58 288.017 1058.58 288.67C1058.58 289.323 1059.11 289.85 1059.76 289.85H1060.82V373.624C1060.82 374.277 1061.35 374.805 1061.99 374.805L1081.3 374.899C1081.3 374.899 1081.35 374.907 1081.39 374.907H1093.72C1093.72 374.907 1093.78 374.907 1093.81 374.899L1112.93 374.805C1113.58 374.805 1114.1 374.277 1114.1 373.624V289.85H1115.16C1115.82 289.85 1116.34 289.323 1116.34 288.67C1116.34 288.017 1115.82 287.489 1115.16 287.489H1115.17ZM1108.67 272.499L1109.27 278.668H1108.08L1108.67 272.499ZM1107.71 281.029H1109.63V287.489H1107.71V281.029ZM1075.22 245.744H1099.71V287.489H1099.03C1098.63 283.02 1095.94 281.163 1093.54 279.518C1092.29 278.652 1091.11 277.842 1090.36 276.701C1089.93 276.048 1089.17 273.813 1088.69 272.2C1088.86 271.578 1088.5 270.941 1087.89 270.76C1087.74 270.72 1087.6 270.712 1087.47 270.72C1087.33 270.712 1087.19 270.72 1087.05 270.76C1086.43 270.941 1086.08 271.578 1086.24 272.2C1085.76 273.813 1085 276.048 1084.58 276.701C1083.83 277.834 1082.64 278.652 1081.39 279.518C1079 281.17 1076.31 283.02 1075.91 287.489H1075.22V245.744H1075.22ZM1066.26 272.507L1066.85 278.676H1065.66L1066.26 272.507ZM1065.3 281.037H1067.22V287.497H1065.3V281.037ZM1071.34 325.245V372.483L1067.68 372.468V319.092H1071.34V325.245ZM1092.54 372.538L1087.46 372.562L1082.56 372.538V355.927C1082.56 353.173 1084.8 350.938 1087.55 350.938C1090.29 350.938 1092.53 353.18 1092.53 355.927V372.538H1092.54ZM1101.22 372.491L1094.9 372.523V355.919C1094.9 351.866 1091.6 348.569 1087.56 348.569C1083.51 348.569 1080.21 351.866 1080.21 355.919V372.523L1073.7 372.491V326.426H1078.54C1079.19 326.426 1079.72 325.898 1079.72 325.245V319.092H1083.38V325.245C1083.38 325.898 1083.91 326.426 1084.56 326.426H1090.58C1091.23 326.426 1091.76 325.898 1091.76 325.245V319.092H1095.21V325.245C1095.21 325.898 1095.74 326.426 1096.39 326.426H1101.23V372.491H1101.22ZM1107.24 325.245V372.46L1103.58 372.475V319.084H1107.24V325.237V325.245ZM1111.75 372.46H1109.6V325.245V317.911C1109.6 317.258 1109.07 316.731 1108.42 316.731H1102.4C1101.75 316.731 1101.22 317.258 1101.22 317.911V324.065H1097.56V317.911C1097.56 317.258 1097.03 316.731 1096.38 316.731H1090.36C1089.71 316.731 1089.18 317.258 1089.18 317.911V324.065H1085.73V317.911C1085.73 317.258 1085.21 316.731 1084.55 316.731H1078.53C1077.88 316.731 1077.35 317.258 1077.35 317.911V324.065H1073.69V317.911C1073.69 317.258 1073.17 316.731 1072.51 316.731H1066.49C1065.84 316.731 1065.31 317.258 1065.31 317.911V372.475H1063.17V289.858H1074.34V304.148H1074.03C1073.38 304.148 1072.85 304.675 1072.85 305.329C1072.85 305.982 1073.38 306.509 1074.03 306.509H1077.02C1077.68 306.509 1078.2 305.982 1078.2 305.329C1078.2 304.675 1077.68 304.148 1077.02 304.148H1076.71V289.858H1077.02C1077.68 289.858 1078.2 289.331 1078.2 288.678C1078.2 284.578 1080.29 283.138 1082.71 281.469C1084.1 280.517 1085.53 279.526 1086.53 278.007C1086.82 277.566 1087.15 276.803 1087.46 275.985C1087.77 276.811 1088.1 277.566 1088.39 278.007C1089.39 279.526 1090.82 280.517 1092.21 281.469C1094.63 283.138 1096.72 284.578 1096.72 288.678C1096.72 289.331 1097.25 289.858 1097.9 289.858H1098.21V304.148H1097.9C1097.25 304.148 1096.72 304.675 1096.72 305.329C1096.72 305.982 1097.25 306.509 1097.9 306.509H1100.89C1101.54 306.509 1102.07 305.982 1102.07 305.329C1102.07 304.675 1101.54 304.148 1100.89 304.148H1100.58V289.858H1111.75V372.46H1111.75Z" fill="#045C80"/>
<path d="M1104.01 267.864C1104.66 267.864 1105.19 267.337 1105.19 266.683V251.425C1105.19 250.772 1104.66 250.245 1104.01 250.245C1103.36 250.245 1102.83 250.772 1102.83 251.425V266.683C1102.83 267.337 1103.36 267.864 1104.01 267.864Z" fill="#045C80"/>
<path d="M1087.56 242.328H1103.14C1103.79 242.328 1104.32 241.801 1104.32 241.148C1104.32 240.495 1103.79 239.968 1103.14 239.968H1071.81C1071.15 239.968 1070.63 240.495 1070.63 241.148C1070.63 241.801 1071.15 242.328 1071.81 242.328H1087.56Z" fill="#045C80"/>
<path d="M1097.59 218.58C1098.24 218.58 1098.77 218.052 1098.77 217.399V214.079C1098.77 213.425 1098.24 212.898 1097.59 212.898C1096.94 212.898 1096.41 213.425 1096.41 214.079V217.399C1096.41 218.052 1096.94 218.58 1097.59 218.58Z" fill="#045C80"/>
<path d="M1087.47 218.564C1087.47 218.564 1087.53 218.572 1087.56 218.572C1088.22 218.572 1088.74 218.045 1088.74 217.391V214.071C1088.74 213.418 1088.22 212.89 1087.56 212.89C1087.53 212.89 1087.5 212.89 1087.47 212.898C1087.44 212.898 1087.41 212.89 1087.37 212.89C1086.72 212.89 1086.2 213.418 1086.2 214.071V217.391C1086.2 218.045 1086.72 218.572 1087.37 218.572C1087.41 218.572 1087.44 218.572 1087.47 218.564Z" fill="#045C80"/>
<path d="M653.553 313.158H692.181C692.833 313.158 693.36 312.631 693.36 311.978C693.36 311.325 692.833 310.797 692.181 310.797H685.752V284.869C685.752 284.216 685.225 283.688 684.573 283.688C683.921 283.688 683.394 284.216 683.394 284.869V310.797H682.278V289.268C682.278 288.615 681.752 288.087 681.099 288.087H678.545V281.65C678.545 280.997 678.019 280.47 677.366 280.47H676.887L678.49 275.41C678.6 275.048 678.537 274.663 678.317 274.356C678.097 274.049 677.744 273.876 677.366 273.876H669.02C668.643 273.876 668.289 274.057 668.069 274.356C667.849 274.663 667.786 275.048 667.896 275.41L669.499 280.47H669.02C668.368 280.47 667.841 280.997 667.841 281.65V288.087H665.287C664.635 288.087 664.108 288.615 664.108 289.268V310.797H662.332V284.869C662.332 284.216 661.805 283.688 661.153 283.688C660.501 283.688 659.974 284.216 659.974 284.869V310.797H653.546C652.893 310.797 652.367 311.325 652.367 311.978C652.367 312.631 652.893 313.158 653.546 313.158H653.553ZM673.201 276.236H675.763L674.427 280.47H671.983L670.647 276.236H673.209H673.201ZM670.207 282.831H676.195V287.867H670.207V282.831ZM666.474 290.448H679.921V310.797H666.474V290.448Z" fill="#045C80"/>
<path d="M749.253 266.786C749.905 266.786 750.432 266.259 750.432 265.605V255.053C750.432 254.4 749.905 253.873 749.253 253.873C748.601 253.873 748.074 254.4 748.074 255.053V265.605C748.074 266.259 748.601 266.786 749.253 266.786Z" fill="#045C80"/>
<path d="M740.034 271.185C740.687 271.185 741.213 270.657 741.213 270.004V264.732C741.213 264.079 740.687 263.552 740.034 263.552C739.382 263.552 738.855 264.079 738.855 264.732V270.004C738.855 270.657 739.382 271.185 740.034 271.185Z" fill="#045C80"/>
<path d="M726.753 305.431C727.405 305.431 727.931 304.904 727.931 304.25V297.727C727.931 297.074 727.405 296.547 726.753 296.547C726.1 296.547 725.574 297.074 725.574 297.727V304.25C725.574 304.904 726.1 305.431 726.753 305.431Z" fill="#045C80"/>
<path d="M749.253 285.467C749.905 285.467 750.432 284.94 750.432 284.287V279.014C750.432 278.361 749.905 277.834 749.253 277.834C748.601 277.834 748.074 278.361 748.074 279.014V284.287C748.074 284.94 748.601 285.467 749.253 285.467Z" fill="#045C80"/>
<path d="M758.362 238.418C757.71 238.418 757.183 238.945 757.183 239.598V244.87C757.183 245.523 757.71 246.051 758.362 246.051C759.014 246.051 759.541 245.523 759.541 244.87V239.598C759.541 238.945 759.014 238.418 758.362 238.418Z" fill="#045C80"/>
<path d="M758.362 249.702C757.71 249.702 757.183 250.229 757.183 250.882V256.155C757.183 256.808 757.71 257.335 758.362 257.335C759.014 257.335 759.541 256.808 759.541 256.155V250.882C759.541 250.229 759.014 249.702 758.362 249.702Z" fill="#045C80"/>
<path d="M758.362 260.986C757.71 260.986 757.183 261.514 757.183 262.167V267.439C757.183 268.092 757.71 268.619 758.362 268.619C759.014 268.619 759.541 268.092 759.541 267.439V262.167C759.541 261.514 759.014 260.986 758.362 260.986Z" fill="#045C80"/>
<path d="M782.285 246.051C782.937 246.051 783.464 245.523 783.464 244.87V239.598C783.464 238.945 782.937 238.418 782.285 238.418C781.633 238.418 781.106 238.945 781.106 239.598V244.87C781.106 245.523 781.633 246.051 782.285 246.051Z" fill="#045C80"/>
<path d="M782.285 257.335C782.937 257.335 783.464 256.808 783.464 256.155V250.882C783.464 250.229 782.937 249.702 782.285 249.702C781.633 249.702 781.106 250.229 781.106 250.882V256.155C781.106 256.808 781.633 257.335 782.285 257.335Z" fill="#045C80"/>
<path d="M782.285 268.619C782.937 268.619 783.464 268.092 783.464 267.439V262.167C783.464 261.514 782.937 260.986 782.285 260.986C781.633 260.986 781.106 261.514 781.106 262.167V267.439C781.106 268.092 781.633 268.619 782.285 268.619Z" fill="#045C80"/>
<path d="M749.253 296.452C749.905 296.452 750.432 295.925 750.432 295.272V289.999C750.432 289.346 749.905 288.819 749.253 288.819C748.601 288.819 748.074 289.346 748.074 289.999V295.272C748.074 295.925 748.601 296.452 749.253 296.452Z" fill="#045C80"/>
<path d="M749.253 307.445C749.905 307.445 750.432 306.918 750.432 306.265V300.993C750.432 300.339 749.905 299.812 749.253 299.812C748.601 299.812 748.074 300.339 748.074 300.993V306.265C748.074 306.918 748.601 307.445 749.253 307.445Z" fill="#045C80"/>
<path d="M749.253 318.431C749.905 318.431 750.432 317.903 750.432 317.25V311.978C750.432 311.325 749.905 310.798 749.253 310.798C748.601 310.798 748.074 311.325 748.074 311.978V317.25C748.074 317.903 748.601 318.431 749.253 318.431Z" fill="#045C80"/>
<path d="M749.253 329.424C749.905 329.424 750.432 328.896 750.432 328.243V322.971C750.432 322.318 749.905 321.791 749.253 321.791C748.601 321.791 748.074 322.318 748.074 322.971V328.243C748.074 328.896 748.601 329.424 749.253 329.424Z" fill="#045C80"/>
<path d="M726.753 326.567C727.405 326.567 727.931 326.04 727.931 325.387V320.114C727.931 319.461 727.405 318.934 726.753 318.934C726.1 318.934 725.574 319.461 725.574 320.114V325.387C725.574 326.04 726.1 326.567 726.753 326.567Z" fill="#045C80"/>
<path d="M726.753 337.552C727.405 337.552 727.931 337.025 727.931 336.372V331.1C727.931 330.447 727.405 329.919 726.753 329.919C726.1 329.919 725.574 330.447 725.574 331.1V336.372C725.574 337.025 726.1 337.552 726.753 337.552Z" fill="#045C80"/>
<path d="M726.753 348.538C727.405 348.538 727.931 348.011 727.931 347.357V342.085C727.931 341.432 727.405 340.905 726.753 340.905C726.1 340.905 725.574 341.432 725.574 342.085V347.357C725.574 348.011 726.1 348.538 726.753 348.538Z" fill="#045C80"/>
<path d="M726.753 359.531C727.405 359.531 727.931 359.004 727.931 358.35V353.078C727.931 352.425 727.405 351.898 726.753 351.898C726.1 351.898 725.574 352.425 725.574 353.078V358.35C725.574 359.004 726.1 359.531 726.753 359.531Z" fill="#045C80"/>
<path d="M726.753 370.516C727.405 370.516 727.931 369.989 727.931 369.336V364.063C727.931 363.41 727.405 362.883 726.753 362.883C726.1 362.883 725.574 363.41 725.574 364.063V369.336C725.574 369.989 726.1 370.516 726.753 370.516Z" fill="#045C80"/>
<path d="M684.644 320.107V325.379C684.644 326.032 685.17 326.559 685.822 326.559C686.475 326.559 687.001 326.032 687.001 325.379V320.107C687.001 319.453 686.475 318.926 685.822 318.926C685.17 318.926 684.644 319.453 684.644 320.107Z" fill="#045C80"/>
<path d="M685.822 329.919C685.17 329.919 684.644 330.447 684.644 331.1V336.372C684.644 337.025 685.17 337.552 685.822 337.552C686.475 337.552 687.001 337.025 687.001 336.372V331.1C687.001 330.447 686.475 329.919 685.822 329.919Z" fill="#045C80"/>
<path d="M685.822 340.905C685.17 340.905 684.644 341.432 684.644 342.085V347.357C684.644 348.011 685.17 348.538 685.822 348.538C686.475 348.538 687.001 348.011 687.001 347.357V342.085C687.001 341.432 686.475 340.905 685.822 340.905Z" fill="#045C80"/>
<path d="M685.822 351.898C685.17 351.898 684.644 352.425 684.644 353.078V358.35C684.644 359.004 685.17 359.531 685.822 359.531C686.475 359.531 687.001 359.004 687.001 358.35V353.078C687.001 352.425 686.475 351.898 685.822 351.898Z" fill="#045C80"/>
<path d="M685.822 362.883C685.17 362.883 684.644 363.41 684.644 364.063V369.336C684.644 369.989 685.17 370.516 685.822 370.516C686.475 370.516 687.001 369.989 687.001 369.336V364.063C687.001 363.41 686.475 362.883 685.822 362.883Z" fill="#045C80"/>
<path d="M660.799 326.788C661.452 326.788 661.978 326.26 661.978 325.607V320.335C661.978 319.682 661.452 319.155 660.799 319.155C660.147 319.155 659.621 319.682 659.621 320.335V325.607C659.621 326.26 660.147 326.788 660.799 326.788Z" fill="#045C80"/>
<path d="M660.799 337.773C661.452 337.773 661.978 337.246 661.978 336.593V331.32C661.978 330.667 661.452 330.14 660.799 330.14C660.147 330.14 659.621 330.667 659.621 331.32V336.593C659.621 337.246 660.147 337.773 660.799 337.773Z" fill="#045C80"/>
<path d="M660.799 348.766C661.452 348.766 661.978 348.239 661.978 347.585V342.313C661.978 341.66 661.452 341.133 660.799 341.133C660.147 341.133 659.621 341.66 659.621 342.313V347.585C659.621 348.239 660.147 348.766 660.799 348.766Z" fill="#045C80"/>
<path d="M660.799 359.751C661.452 359.751 661.978 359.224 661.978 358.571V353.299C661.978 352.645 661.452 352.118 660.799 352.118C660.147 352.118 659.621 352.645 659.621 353.299V358.571C659.621 359.224 660.147 359.751 660.799 359.751Z" fill="#045C80"/>
<path d="M660.799 370.744C661.452 370.744 661.978 370.217 661.978 369.564V364.292C661.978 363.639 661.452 363.111 660.799 363.111C660.147 363.111 659.621 363.639 659.621 364.292V369.564C659.621 370.217 660.147 370.744 660.799 370.744Z" fill="#045C80"/>
<path d="M749.253 340.409C749.905 340.409 750.432 339.882 750.432 339.229V333.956C750.432 333.303 749.905 332.776 749.253 332.776C748.601 332.776 748.074 333.303 748.074 333.956V339.229C748.074 339.882 748.601 340.409 749.253 340.409Z" fill="#045C80"/>
<path d="M749.253 351.402C749.905 351.402 750.432 350.875 750.432 350.222V344.949C750.432 344.296 749.905 343.769 749.253 343.769C748.601 343.769 748.074 344.296 748.074 344.949V350.222C748.074 350.875 748.601 351.402 749.253 351.402Z" fill="#045C80"/>
<path d="M749.253 362.387C749.905 362.387 750.432 361.86 750.432 361.207V355.935C750.432 355.281 749.905 354.754 749.253 354.754C748.601 354.754 748.074 355.281 748.074 355.935V361.207C748.074 361.86 748.601 362.387 749.253 362.387Z" fill="#045C80"/>
<path d="M760.005 276.953C759.352 276.953 758.826 277.48 758.826 278.133V347.578C758.826 348.231 759.352 348.758 760.005 348.758C760.657 348.758 761.183 348.231 761.183 347.578V278.133C761.183 277.48 760.657 276.953 760.005 276.953Z" fill="#045C80"/>
<path d="M766.81 276.953C766.158 276.953 765.631 277.48 765.631 278.133V347.578C765.631 348.231 766.158 348.758 766.81 348.758C767.463 348.758 767.989 348.231 767.989 347.578V278.133C767.989 277.48 767.463 276.953 766.81 276.953Z" fill="#045C80"/>
<path d="M791.394 266.786C792.046 266.786 792.573 266.259 792.573 265.605V255.053C792.573 254.4 792.046 253.873 791.394 253.873C790.741 253.873 790.215 254.4 790.215 255.053V265.605C790.215 266.259 790.741 266.786 791.394 266.786Z" fill="#045C80"/>
<path d="M800.612 271.185C801.265 271.185 801.791 270.657 801.791 270.004V264.732C801.791 264.079 801.265 263.552 800.612 263.552C799.96 263.552 799.434 264.079 799.434 264.732V270.004C799.434 270.657 799.96 271.185 800.612 271.185Z" fill="#045C80"/>
<path d="M791.394 285.467C792.046 285.467 792.573 284.94 792.573 284.287V279.014C792.573 278.361 792.046 277.834 791.394 277.834C790.741 277.834 790.215 278.361 790.215 279.014V284.287C790.215 284.94 790.741 285.467 791.394 285.467Z" fill="#045C80"/>
<path d="M791.394 296.452C792.046 296.452 792.573 295.925 792.573 295.272V289.999C792.573 289.346 792.046 288.819 791.394 288.819C790.741 288.819 790.215 289.346 790.215 289.999V295.272C790.215 295.925 790.741 296.452 791.394 296.452Z" fill="#045C80"/>
<path d="M791.394 307.445C792.046 307.445 792.573 306.918 792.573 306.265V300.993C792.573 300.339 792.046 299.812 791.394 299.812C790.741 299.812 790.215 300.339 790.215 300.993V306.265C790.215 306.918 790.741 307.445 791.394 307.445Z" fill="#045C80"/>
<path d="M791.394 318.431C792.046 318.431 792.573 317.903 792.573 317.25V311.978C792.573 311.325 792.046 310.798 791.394 310.798C790.741 310.798 790.215 311.325 790.215 311.978V317.25C790.215 317.903 790.741 318.431 791.394 318.431Z" fill="#045C80"/>
<path d="M791.394 329.424C792.046 329.424 792.573 328.896 792.573 328.243V322.971C792.573 322.318 792.046 321.791 791.394 321.791C790.741 321.791 790.215 322.318 790.215 322.971V328.243C790.215 328.896 790.741 329.424 791.394 329.424Z" fill="#045C80"/>
<path d="M791.394 340.409C792.046 340.409 792.573 339.882 792.573 339.229V333.956C792.573 333.303 792.046 332.776 791.394 332.776C790.741 332.776 790.215 333.303 790.215 333.956V339.229C790.215 339.882 790.741 340.409 791.394 340.409Z" fill="#045C80"/>
<path d="M791.394 351.402C792.046 351.402 792.573 350.875 792.573 350.222V344.949C792.573 344.296 792.046 343.769 791.394 343.769C790.741 343.769 790.215 344.296 790.215 344.949V350.222C790.215 350.875 790.741 351.402 791.394 351.402Z" fill="#045C80"/>
<path d="M791.394 362.387C792.046 362.387 792.573 361.86 792.573 361.207V355.935C792.573 355.281 792.046 354.754 791.394 354.754C790.741 354.754 790.215 355.281 790.215 355.935V361.207C790.215 361.86 790.741 362.387 791.394 362.387Z" fill="#045C80"/>
<path d="M780.642 348.766C781.295 348.766 781.821 348.239 781.821 347.586V278.141C781.821 277.488 781.295 276.96 780.642 276.96C779.99 276.96 779.463 277.488 779.463 278.141V347.586C779.463 348.239 779.99 348.766 780.642 348.766Z" fill="#045C80"/>
<path d="M773.837 276.953C773.184 276.953 772.658 277.48 772.658 278.133V347.578C772.658 348.231 773.184 348.758 773.837 348.758C774.489 348.758 775.015 348.231 775.015 347.578V278.133C775.015 277.48 774.489 276.953 773.837 276.953Z" fill="#045C80"/>
<path d="M696.864 370.965C697.517 370.965 698.043 370.437 698.043 369.784V320.256C698.043 319.603 697.517 319.076 696.864 319.076C696.212 319.076 695.686 319.603 695.686 320.256V369.784C695.686 370.437 696.212 370.965 696.864 370.965Z" fill="#045C80"/>
<path d="M703.671 370.965C704.323 370.965 704.849 370.437 704.849 369.784V320.256C704.849 319.603 704.323 319.076 703.671 319.076C703.018 319.076 702.492 319.603 702.492 320.256V369.784C702.492 370.437 703.018 370.965 703.671 370.965Z" fill="#045C80"/>
<path d="M717.503 370.965C718.155 370.965 718.681 370.437 718.681 369.784V320.256C718.681 319.603 718.155 319.076 717.503 319.076C716.85 319.076 716.324 319.603 716.324 320.256V369.784C716.324 370.437 716.85 370.965 717.503 370.965Z" fill="#045C80"/>
<path d="M710.696 370.965C711.349 370.965 711.875 370.437 711.875 369.784V320.256C711.875 319.603 711.349 319.076 710.696 319.076C710.044 319.076 709.518 319.603 709.518 320.256V369.784C709.518 370.437 710.044 370.965 710.696 370.965Z" fill="#045C80"/>
<path d="M766.81 245.744C766.158 245.744 765.631 246.271 765.631 246.924V268.832C765.631 269.485 766.158 270.012 766.81 270.012C767.463 270.012 767.989 269.485 767.989 268.832V246.924C767.989 246.271 767.463 245.744 766.81 245.744Z" fill="#045C80"/>
<path d="M772.658 246.924V268.832C772.658 269.485 773.184 270.012 773.837 270.012C774.489 270.012 775.015 269.485 775.015 268.832V246.924C775.015 246.271 774.489 245.744 773.837 245.744C773.184 245.744 772.658 246.271 772.658 246.924Z" fill="#045C80"/>
<path d="M770.324 244.296C772.265 244.296 773.844 242.714 773.844 240.77C773.844 238.827 772.265 237.245 770.324 237.245C768.382 237.245 766.803 238.827 766.803 240.77C766.803 242.714 768.382 244.296 770.324 244.296ZM770.324 239.606C770.968 239.606 771.487 240.125 771.487 240.77C771.487 241.416 770.968 241.935 770.324 241.935C769.679 241.935 769.16 241.416 769.16 240.77C769.16 240.125 769.679 239.606 770.324 239.606Z" fill="#045C80"/>
<path d="M763.958 202.944H776.689C777.342 202.944 777.868 202.417 777.868 201.763C777.868 201.11 777.342 200.583 776.689 200.583H763.958C763.305 200.583 762.779 201.11 762.779 201.763C762.779 202.417 763.305 202.944 763.958 202.944Z" fill="#045C80"/>
<path d="M764.508 199.647H770.323C770.37 199.647 770.41 199.639 770.449 199.631C770.488 199.631 770.536 199.647 770.575 199.647H776.391C776.894 199.647 777.341 199.324 777.507 198.852C777.672 198.372 777.507 197.845 777.114 197.538C776.092 196.735 774.339 195.004 774.017 193.776C773.766 192.808 775.062 190.928 776.013 189.968C776.351 189.629 776.453 189.126 776.273 188.685C776.092 188.244 775.66 187.953 775.18 187.953H775.039L771.927 159.514L772.94 160.254C773.357 160.553 773.915 160.553 774.324 160.254C774.74 159.955 774.913 159.42 774.748 158.932L773.836 156.139L776.21 154.407C776.626 154.108 776.799 153.573 776.634 153.085C776.477 152.597 776.021 152.267 775.51 152.267H772.571L771.667 149.473C771.51 148.986 771.054 148.655 770.543 148.655C770.033 148.655 769.577 148.986 769.42 149.473L768.516 152.267H765.576C765.066 152.267 764.61 152.597 764.453 153.085C764.295 153.573 764.468 154.1 764.877 154.407L767.25 156.139L766.347 158.932C766.189 159.42 766.362 159.955 766.771 160.254C766.975 160.404 767.219 160.482 767.463 160.482C767.706 160.482 767.95 160.404 768.154 160.254L769.168 159.514L766.056 187.953H765.663C765.183 187.953 764.759 188.244 764.578 188.677C764.398 189.118 764.5 189.621 764.83 189.96C765.789 190.92 767.085 192.801 766.826 193.769C766.504 195.004 764.751 196.735 763.73 197.53C763.337 197.837 763.179 198.372 763.337 198.844C763.502 199.324 763.95 199.639 764.453 199.639L764.508 199.647ZM769.404 154.628C769.915 154.628 770.37 154.297 770.528 153.809L770.575 153.652L770.622 153.809C770.779 154.297 771.235 154.628 771.746 154.628H771.911L771.777 154.722C771.361 155.021 771.188 155.556 771.353 156.044L771.4 156.201L771.266 156.107C770.85 155.808 770.292 155.808 769.883 156.107L769.75 156.201L769.797 156.044C769.954 155.556 769.781 155.021 769.372 154.722L769.239 154.628H769.404ZM770.575 168.768L772.673 187.953H770.575C770.528 187.953 770.488 187.953 770.449 187.969C770.41 187.969 770.363 187.953 770.323 187.953H768.476L770.575 168.768ZM768.146 190.314H770.323C770.37 190.314 770.41 190.314 770.449 190.298C770.488 190.298 770.536 190.314 770.575 190.314H772.752C772.013 191.479 771.376 192.982 771.738 194.382C772.013 195.413 772.712 196.444 773.451 197.302H770.575C770.528 197.302 770.488 197.302 770.449 197.317C770.41 197.317 770.363 197.302 770.323 197.302H767.447C768.186 196.444 768.885 195.421 769.16 194.39C769.53 192.997 768.893 191.494 768.146 190.322V190.314Z" fill="#045C80"/>
<path d="M673.201 293.068C670.254 293.068 667.849 295.468 667.849 298.427C667.849 301.386 670.246 303.786 673.201 303.786C676.156 303.786 678.553 301.386 678.553 298.427C678.553 295.468 676.156 293.068 673.201 293.068ZM673.201 301.425C671.551 301.425 670.207 300.08 670.207 298.427C670.207 296.775 671.551 295.429 673.201 295.429C674.852 295.429 676.195 296.775 676.195 298.427C676.195 300.08 674.852 301.425 673.201 301.425Z" fill="#045C80"/>
<path d="M887.094 314.535H817.447L819.183 309.043C819.293 308.681 819.231 308.295 819.01 307.988C818.79 307.681 818.437 307.508 818.06 307.508H809.713C809.336 307.508 808.982 307.689 808.762 307.988C808.542 308.295 808.479 308.681 808.589 309.043L810.326 314.535H801.783V275.355H802.577C803.229 275.355 803.756 274.828 803.756 274.175C803.756 273.522 803.229 272.994 802.577 272.994H787.291V271.177H796.651C797.304 271.177 797.83 270.649 797.83 269.996C797.83 269.343 797.304 268.816 796.651 268.816H787.291V227.582C787.291 226.929 786.765 226.402 786.112 226.402C785.46 226.402 784.934 226.929 784.934 227.582V233.649H780.973V227.582C780.973 226.929 780.446 226.402 779.794 226.402C779.141 226.402 778.615 226.929 778.615 227.582V233.649H777.853V205.053C777.853 204.4 777.326 203.872 776.674 203.872H763.942C763.29 203.872 762.763 204.4 762.763 205.053V233.649H762.001V227.582C762.001 226.929 761.474 226.402 760.822 226.402C760.17 226.402 759.643 226.929 759.643 227.582V233.649H755.682V227.582C755.682 226.929 755.155 226.402 754.503 226.402C753.851 226.402 753.324 226.929 753.324 227.582V268.816H743.964C743.312 268.816 742.785 269.343 742.785 269.996C742.785 270.649 743.312 271.177 743.964 271.177H753.324V272.994H738.038C737.386 272.994 736.86 273.522 736.86 274.175C736.86 274.828 737.386 275.355 738.038 275.355H738.832V314.535H730.289L732.026 309.043C732.136 308.681 732.073 308.295 731.853 307.988C731.633 307.681 731.28 307.508 730.902 307.508H722.556C722.179 307.508 721.825 307.689 721.605 307.988C721.385 308.295 721.322 308.681 721.432 309.043L723.169 314.535H653.553C652.901 314.535 652.375 315.063 652.375 315.716C652.375 316.369 652.901 316.896 653.553 316.896H655.007V373.734C655.007 374.388 655.534 374.915 656.186 374.915H740.035C740.687 374.915 741.213 374.388 741.213 373.734V275.363H742.809V373.734C742.809 374.388 743.335 374.915 743.988 374.915H796.667C797.319 374.915 797.846 374.388 797.846 373.734V275.363H799.441V373.734C799.441 374.388 799.968 374.915 800.62 374.915H884.469C885.121 374.915 885.648 374.388 885.648 373.734V316.896H887.101C887.754 316.896 888.28 316.369 888.28 315.716C888.28 315.063 887.754 314.535 887.101 314.535H887.094ZM664.116 372.554H657.365V316.896H664.116V372.554ZM679.921 372.554H666.474V316.896H679.921V372.554ZM689.029 372.554H682.278V316.896H689.029V372.554ZM721.731 372.554H691.387V316.896H721.731V372.554ZM726.753 309.861H729.315L727.837 314.535H725.668L724.191 309.861H726.753ZM729.417 372.554H724.096V316.896H729.417V372.554ZM738.856 372.554H731.775V316.896H738.856V372.554ZM753.34 372.554H745.159V275.363H753.34V372.554ZM771.502 206.241H775.51V233.657H774.662V227.59C774.662 226.937 774.135 226.409 773.483 226.409C772.831 226.409 772.304 226.937 772.304 227.59V233.657H771.502V206.241ZM765.137 206.241H769.145V233.657H768.343V227.59C768.343 226.937 767.816 226.409 767.164 226.409C766.512 226.409 765.985 226.937 765.985 227.59V233.657H765.137V206.241ZM763.384 236.018H777.271V272.994H763.384V236.018ZM755.698 236.018H761.026V272.994H755.698V236.018ZM784.949 372.554H755.698V357.996H784.949V372.554ZM784.949 355.636H755.698V353.165H784.949V355.636ZM784.949 350.804H755.698V275.363H784.949V350.804ZM784.949 273.002H779.629V236.025H784.949V273.002ZM795.488 372.554H787.307V275.363H795.488V372.554ZM808.88 372.554H801.799V316.896H808.88V372.554ZM813.902 309.861H816.464L814.987 314.535H812.818L811.34 309.861H813.902ZM816.566 372.554H811.238V316.896H816.566V372.554ZM849.268 372.554H818.924V316.896H849.268V372.554ZM858.377 372.554H851.626V316.896H858.377V372.554ZM874.181 372.554H860.734V316.896H874.181V372.554ZM883.29 372.554H876.539V316.896H883.29V372.554Z" fill="#045C80"/>
<path d="M887.093 310.797H880.665V284.869C880.665 284.216 880.138 283.688 879.486 283.688C878.833 283.688 878.307 284.216 878.307 284.869V310.797H876.531V289.268C876.531 288.615 876.004 288.087 875.352 288.087H872.798V281.65C872.798 280.997 872.271 280.47 871.619 280.47H871.139L872.743 275.41C872.853 275.048 872.79 274.663 872.57 274.356C872.35 274.049 871.996 273.876 871.619 273.876H863.272C862.895 273.876 862.542 274.057 862.322 274.356C862.101 274.663 862.039 275.048 862.149 275.41L863.752 280.47H863.272C862.62 280.47 862.094 280.997 862.094 281.65V288.087H859.539C858.887 288.087 858.361 288.615 858.361 289.268V310.797H857.245V284.869C857.245 284.216 856.718 283.688 856.066 283.688C855.413 283.688 854.887 284.216 854.887 284.869V310.797H848.458C847.806 310.797 847.279 311.325 847.279 311.978C847.279 312.631 847.806 313.158 848.458 313.158H887.086C887.738 313.158 888.264 312.631 888.264 311.978C888.264 311.325 887.738 310.797 887.086 310.797H887.093ZM867.446 276.236H870.008L868.672 280.47H866.228L864.891 276.236H867.454H867.446ZM864.451 282.831H870.44V287.867H864.451V282.831ZM874.165 310.797H860.718V290.448H874.165V310.797Z" fill="#045C80"/>
<path d="M813.894 305.431C814.546 305.431 815.073 304.904 815.073 304.25V297.727C815.073 297.074 814.546 296.547 813.894 296.547C813.242 296.547 812.715 297.074 812.715 297.727V304.25C812.715 304.904 813.242 305.431 813.894 305.431Z" fill="#045C80"/>
<path d="M813.894 326.567C814.546 326.567 815.073 326.04 815.073 325.387V320.114C815.073 319.461 814.546 318.934 813.894 318.934C813.242 318.934 812.715 319.461 812.715 320.114V325.387C812.715 326.04 813.242 326.567 813.894 326.567Z" fill="#045C80"/>
<path d="M813.894 337.552C814.546 337.552 815.073 337.025 815.073 336.372V331.1C815.073 330.447 814.546 329.919 813.894 329.919C813.242 329.919 812.715 330.447 812.715 331.1V336.372C812.715 337.025 813.242 337.552 813.894 337.552Z" fill="#045C80"/>
<path d="M813.894 348.538C814.546 348.538 815.073 348.011 815.073 347.357V342.085C815.073 341.432 814.546 340.905 813.894 340.905C813.242 340.905 812.715 341.432 812.715 342.085V347.357C812.715 348.011 813.242 348.538 813.894 348.538Z" fill="#045C80"/>
<path d="M813.894 359.531C814.546 359.531 815.073 359.004 815.073 358.35V353.078C815.073 352.425 814.546 351.898 813.894 351.898C813.242 351.898 812.715 352.425 812.715 353.078V358.35C812.715 359.004 813.242 359.531 813.894 359.531Z" fill="#045C80"/>
<path d="M813.894 370.516C814.546 370.516 815.073 369.989 815.073 369.336V364.063C815.073 363.41 814.546 362.883 813.894 362.883C813.242 362.883 812.715 363.41 812.715 364.063V369.336C812.715 369.989 813.242 370.516 813.894 370.516Z" fill="#045C80"/>
<path d="M853.653 320.107V325.379C853.653 326.032 854.18 326.559 854.832 326.559C855.484 326.559 856.011 326.032 856.011 325.379V320.107C856.011 319.453 855.484 318.926 854.832 318.926C854.18 318.926 853.653 319.453 853.653 320.107Z" fill="#045C80"/>
<path d="M854.832 329.919C854.18 329.919 853.653 330.447 853.653 331.1V336.372C853.653 337.025 854.18 337.552 854.832 337.552C855.484 337.552 856.011 337.025 856.011 336.372V331.1C856.011 330.447 855.484 329.919 854.832 329.919Z" fill="#045C80"/>
<path d="M854.832 340.905C854.18 340.905 853.653 341.432 853.653 342.085V347.357C853.653 348.011 854.18 348.538 854.832 348.538C855.484 348.538 856.011 348.011 856.011 347.357V342.085C856.011 341.432 855.484 340.905 854.832 340.905Z" fill="#045C80"/>
<path d="M854.832 351.898C854.18 351.898 853.653 352.425 853.653 353.078V358.35C853.653 359.004 854.18 359.531 854.832 359.531C855.484 359.531 856.011 359.004 856.011 358.35V353.078C856.011 352.425 855.484 351.898 854.832 351.898Z" fill="#045C80"/>
<path d="M854.832 362.883C854.18 362.883 853.653 363.41 853.653 364.063V369.336C853.653 369.989 854.18 370.516 854.832 370.516C855.484 370.516 856.011 369.989 856.011 369.336V364.063C856.011 363.41 855.484 362.883 854.832 362.883Z" fill="#045C80"/>
<path d="M879.855 326.788C880.507 326.788 881.034 326.26 881.034 325.607V320.335C881.034 319.682 880.507 319.155 879.855 319.155C879.203 319.155 878.676 319.682 878.676 320.335V325.607C878.676 326.26 879.203 326.788 879.855 326.788Z" fill="#045C80"/>
<path d="M879.855 337.773C880.507 337.773 881.034 337.246 881.034 336.593V331.32C881.034 330.667 880.507 330.14 879.855 330.14C879.203 330.14 878.676 330.667 878.676 331.32V336.593C878.676 337.246 879.203 337.773 879.855 337.773Z" fill="#045C80"/>
<path d="M879.855 348.766C880.507 348.766 881.034 348.239 881.034 347.585V342.313C881.034 341.66 880.507 341.133 879.855 341.133C879.203 341.133 878.676 341.66 878.676 342.313V347.585C878.676 348.239 879.203 348.766 879.855 348.766Z" fill="#045C80"/>
<path d="M879.855 359.751C880.507 359.751 881.034 359.224 881.034 358.571V353.299C881.034 352.645 880.507 352.118 879.855 352.118C879.203 352.118 878.676 352.645 878.676 353.299V358.571C878.676 359.224 879.203 359.751 879.855 359.751Z" fill="#045C80"/>
<path d="M879.855 370.744C880.507 370.744 881.034 370.217 881.034 369.564V364.292C881.034 363.639 880.507 363.111 879.855 363.111C879.203 363.111 878.676 363.639 878.676 364.292V369.564C878.676 370.217 879.203 370.744 879.855 370.744Z" fill="#045C80"/>
<path d="M843.782 370.965C844.435 370.965 844.961 370.437 844.961 369.784V320.256C844.961 319.603 844.435 319.076 843.782 319.076C843.13 319.076 842.604 319.603 842.604 320.256V369.784C842.604 370.437 843.13 370.965 843.782 370.965Z" fill="#045C80"/>
<path d="M836.976 370.965C837.629 370.965 838.155 370.437 838.155 369.784V320.256C838.155 319.603 837.629 319.076 836.976 319.076C836.324 319.076 835.797 319.603 835.797 320.256V369.784C835.797 370.437 836.324 370.965 836.976 370.965Z" fill="#045C80"/>
<path d="M823.152 370.965C823.804 370.965 824.331 370.437 824.331 369.784V320.256C824.331 319.603 823.804 319.076 823.152 319.076C822.5 319.076 821.973 319.603 821.973 320.256V369.784C821.973 370.437 822.5 370.965 823.152 370.965Z" fill="#045C80"/>
<path d="M829.958 370.965C830.61 370.965 831.137 370.437 831.137 369.784V320.256C831.137 319.603 830.61 319.076 829.958 319.076C829.306 319.076 828.779 319.603 828.779 320.256V369.784C828.779 370.437 829.306 370.965 829.958 370.965Z" fill="#045C80"/>
<path d="M867.454 303.786C870.401 303.786 872.806 301.386 872.806 298.427C872.806 295.468 870.409 293.068 867.454 293.068C864.499 293.068 862.102 295.468 862.102 298.427C862.102 301.386 864.499 303.786 867.454 303.786ZM867.454 295.429C869.104 295.429 870.448 296.775 870.448 298.427C870.448 300.08 869.104 301.425 867.454 301.425C865.803 301.425 864.459 300.08 864.459 298.427C864.459 296.775 865.803 295.429 867.454 295.429Z" fill="#045C80"/>
<path d="M643.085 366.951C642.48 367.62 641.647 368.014 640.743 368.061C640.012 368.1 638.165 368.084 636.963 368.069H636.012C634.802 368.069 633.812 367.077 633.812 365.858C633.812 364.638 634.794 363.662 636.004 363.654C636.389 363.654 636.751 363.465 636.971 363.143C637.191 362.828 637.238 362.419 637.104 362.057C637.01 361.805 636.963 361.545 636.963 361.286C636.963 360.074 637.953 359.082 639.164 359.082C640.193 359.082 641.073 359.783 641.301 360.782C641.388 361.136 641.631 361.435 641.961 361.593C643.125 362.12 643.887 363.237 643.95 364.504C643.997 365.409 643.683 366.275 643.077 366.943L643.085 366.951Z" fill="#FF4B39"/>
<path d="M841.574 212.678C842.061 212.678 842.556 212.764 843.028 212.945C843.382 213.079 843.774 213.032 844.089 212.827C844.403 212.615 844.6 212.269 844.615 211.891C844.765 208.539 847.5 205.91 850.855 205.91C854.211 205.91 856.789 208.366 857.08 211.608C857.135 212.206 857.622 212.67 858.219 212.686C860.475 212.749 862.251 214.566 862.251 216.833C862.251 219.099 860.389 220.988 858.102 220.988H841.574C839.287 220.988 837.424 219.123 837.424 216.833C837.424 214.543 839.287 212.678 841.574 212.678Z" fill="#D8F6FF"/>
<path d="M906.663 366.652H900.674C899.079 366.652 897.79 365.354 897.79 363.764C897.79 362.655 898.419 361.663 899.425 361.175C899.739 361.018 899.975 360.735 900.053 360.388C900.132 360.042 900.053 359.68 899.849 359.405C899.173 358.508 898.812 357.445 898.812 356.328C898.812 353.511 901.107 351.213 903.92 351.213C906.734 351.213 909.029 353.511 909.029 356.328C909.029 356.863 908.942 357.39 908.777 357.91C908.62 358.382 908.785 358.909 909.178 359.208C910.215 360.003 910.813 361.207 910.813 362.505C910.813 364.795 908.95 366.66 906.663 366.66V366.652Z" fill="#FF4B39"/>
<path d="M673.201 276.237H675.763L674.419 280.47H671.975L670.639 276.237H673.201Z" fill="#D8F6FF"/>
<path d="M676.196 282.831H670.207V287.867H676.196V282.831Z" fill="#D8F6FF"/>
<path d="M867.454 276.237H870.016L868.672 280.47H866.228L864.892 276.237H867.454Z" fill="#D8F6FF"/>
<path d="M870.448 282.831H864.459V287.867H870.448V282.831Z" fill="#D8F6FF"/>
<path d="M1082.99 104.328H1083.13C1083.63 104.344 1084.07 104.053 1084.26 103.589C1085.08 101.519 1087.06 100.181 1089.3 100.181C1092.28 100.181 1094.71 102.581 1094.71 105.595V105.713C1094.68 106.146 1094.9 106.555 1095.27 106.776C1095.64 106.996 1096.11 106.996 1096.48 106.776C1097.32 106.28 1098.27 106.012 1099.24 106.012C1102.22 106.012 1104.65 108.412 1104.65 111.363C1104.65 114.314 1102.22 116.714 1099.24 116.714H1082.96C1079.51 116.714 1076.7 113.937 1076.7 110.514C1076.7 107.09 1079.51 104.321 1082.99 104.321V104.328Z" fill="#D8F6FF"/>
<path d="M960.733 360.278L949.731 372.42H944.732L960.733 354.754V360.278Z" fill="#FF4B39"/>
<path d="M960.733 342.061L933.242 372.42H928.236L960.733 336.545V342.061Z" fill="#FF4B39"/>
<path d="M960.733 323.86L925.556 362.702V356.997L960.733 318.147V323.86Z" fill="#FF4B39"/>
<path d="M960.733 305.596L925.556 344.438V338.78L960.733 299.938V305.596Z" fill="#FF4B39"/>
<path d="M960.733 287.387L925.556 326.229V320.571L960.733 281.729V287.387Z" fill="#FF4B39"/>
<path d="M960.733 269.178L925.556 308.02V302.362L960.733 263.52V269.178Z" fill="#FF4B39"/>
<path d="M966.808 295.059V372.428H963.091V250.922C963.091 250.434 962.792 249.993 962.336 249.82C961.881 249.647 961.37 249.765 961.04 250.127L923.505 291.573C923.308 291.794 923.198 292.077 923.198 292.368V372.428H919.481V289.15L966.8 236.899V295.067L966.808 295.059Z" fill="#FF4B39"/>
<path d="M937.698 208.728V200.984L960.733 175.441V183.295L937.698 208.728Z" fill="#FF4B39"/>
<path d="M960.733 195.98V201.504L937.698 226.937V221.413L960.733 195.98Z" fill="#FF4B39"/>
<path d="M960.733 214.189V219.713L937.698 245.146V239.622L960.733 214.189Z" fill="#FF4B39"/>
<path d="M960.733 232.398V240.078L937.698 265.519V257.831L960.733 232.398Z" fill="#FF4B39"/>
<path d="M966.808 233.373L963.091 237.473V172.364C963.091 171.877 962.792 171.436 962.336 171.263C961.88 171.09 961.37 171.208 961.04 171.57L935.647 199.733C935.45 199.953 935.34 200.229 935.34 200.528V268.116L931.623 272.215V197.309L966.8 158.35V233.373H966.808Z" fill="#FF4B39"/>
<path d="M966.808 154.832L956.466 166.282V158.098L966.808 146.68V154.832Z" fill="#FF4B39"/>
<path d="M966.808 131.461L954.414 145.208C954.218 145.429 954.108 145.704 954.108 146.003V168.902L950.391 173.018V142.509L966.8 123.875V131.469L966.808 131.461Z" fill="#FF4B39"/>
<path d="M1007.47 298.388H996.076V336.946H1007.47V298.388Z" fill="#FFD12E"/>
<path d="M1014.54 372.428L1011.18 362.694C1011.02 362.222 1010.57 361.899 1010.06 361.899C1009.56 361.899 1009.11 362.222 1008.95 362.694L1006.57 369.587L1002.91 355.919C1002.77 355.399 1002.31 355.045 1001.77 355.045C1001.24 355.045 1000.78 355.407 1000.63 355.919L996.822 370.162L994.236 362.694C994.071 362.222 993.623 361.899 993.12 361.899C992.617 361.899 992.169 362.222 992.004 362.694L988.641 372.428H986.99L995.792 339.307H1007.73L1016.53 372.428H1014.53H1014.54Z" fill="#FFD12E"/>
<path d="M1004.46 231.635H998.732V279.502H1004.46V231.635Z" fill="#FFD12E"/>
<path d="M1006.29 165.699H996.901V182.335H1006.29V165.699Z" fill="#FFD12E"/>
<path d="M1003.54 188.417H999.651V216.447H1003.54V188.417Z" fill="#FFD12E"/>
<path d="M1043.72 365.197H1034.79C1032.29 365.197 1030.26 363.166 1030.26 360.664C1030.26 359.145 1031.02 357.737 1032.28 356.895C1032.66 356.643 1032.86 356.194 1032.79 355.746C1032.75 355.447 1032.73 355.195 1032.73 354.959C1032.73 351.89 1035.22 349.396 1038.29 349.396C1041.35 349.396 1043.84 351.89 1043.84 354.959C1043.84 355.801 1043.65 356.619 1043.28 357.391C1043.11 357.729 1043.12 358.13 1043.29 358.461C1043.47 358.791 1043.8 359.019 1044.17 359.074C1045.67 359.295 1046.8 360.601 1046.8 362.12C1046.8 363.82 1045.42 365.205 1043.72 365.205V365.197Z" fill="#FF4B39"/>
<path d="M1132.64 368.108H1128.21C1127.2 368.108 1126.38 367.29 1126.38 366.275C1126.38 365.574 1126.77 364.945 1127.42 364.638C1127.73 364.48 1127.97 364.197 1128.05 363.851C1128.12 363.505 1128.05 363.143 1127.84 362.867C1127.38 362.253 1127.13 361.537 1127.13 360.774C1127.13 358.854 1128.69 357.296 1130.61 357.296C1132.52 357.296 1134.08 358.854 1134.08 360.774C1134.08 361.136 1134.03 361.498 1133.91 361.852C1133.75 362.324 1133.92 362.851 1134.31 363.151C1135 363.678 1135.39 364.48 1135.39 365.346C1135.39 366.873 1134.15 368.108 1132.63 368.108H1132.64Z" fill="#FFD12E"/>
<path d="M1087.56 252.614C1091.12 252.614 1094 255.509 1094 259.058C1094 262.607 1091.12 265.503 1087.56 265.503C1084.01 265.503 1081.13 262.615 1081.13 259.058C1081.13 255.501 1084.01 252.614 1087.56 252.614Z" fill="#FF4B39"/>
<path d="M1075.22 228.44C1075.22 227.732 1076.2 225.749 1077.35 223.844C1078.49 225.749 1079.48 227.732 1079.48 228.44V236.828H1075.22V228.44Z" fill="#FF4B39"/>
<path d="M1085.43 228.44C1085.43 227.732 1086.42 225.749 1087.56 223.844C1088.71 225.749 1089.69 227.732 1089.69 228.44V236.828H1085.43V228.44Z" fill="#FF4B39"/>
<path d="M1095.46 228.44C1095.46 227.732 1096.44 225.749 1097.59 223.844C1098.74 225.749 1099.72 227.732 1099.72 228.44V236.828H1095.46V228.44Z" fill="#FF4B39"/>
<path d="M1085.03 180.328H1085.97C1086.48 180.328 1086.93 179.997 1087.09 179.51L1087.38 178.62L1087.67 179.51C1087.83 179.997 1088.29 180.328 1088.8 180.328H1089.73L1088.98 180.879C1088.56 181.178 1088.39 181.713 1088.55 182.201L1088.84 183.09L1088.54 182.87C1088.54 182.87 1088.52 182.846 1088.51 182.838C1088.49 182.807 1088.47 182.783 1088.45 182.752C1088.43 182.72 1088.4 182.689 1088.37 182.657C1088.35 182.634 1088.32 182.61 1088.29 182.586C1088.26 182.563 1088.23 182.531 1088.2 182.508C1088.17 182.484 1088.13 182.468 1088.1 182.453C1088.07 182.437 1088.03 182.413 1088 182.405C1087.94 182.382 1087.88 182.358 1087.81 182.342C1087.81 182.342 1087.8 182.342 1087.78 182.335C1087.71 182.319 1087.64 182.311 1087.57 182.311C1087.56 182.311 1087.55 182.311 1087.54 182.311C1087.52 182.311 1087.51 182.311 1087.49 182.311C1087.47 182.311 1087.45 182.311 1087.43 182.311C1087.41 182.311 1087.4 182.311 1087.38 182.311C1087.14 182.311 1086.89 182.39 1086.69 182.539L1085.93 183.09L1086.22 182.201C1086.38 181.713 1086.2 181.178 1085.79 180.879L1085.04 180.328H1085.03Z" fill="#FF4B39"/>
<path d="M673.201 301.425C671.551 301.425 670.207 300.08 670.207 298.427C670.207 296.775 671.551 295.429 673.201 295.429C674.852 295.429 676.196 296.775 676.196 298.427C676.196 300.08 674.852 301.425 673.201 301.425Z" fill="#D8F6FF"/>
<path d="M867.454 301.425C865.803 301.425 864.459 300.08 864.459 298.427C864.459 296.775 865.803 295.429 867.454 295.429C869.104 295.429 870.448 296.775 870.448 298.427C870.448 300.08 869.104 301.425 867.454 301.425Z" fill="#D8F6FF"/>
</g>
<defs>
<clipPath id="clip0_1_2857">
<rect width="525.293" height="374.915" fill="white" transform="translate(624.758)"/>
</clipPath>
</defs>
</svg>
