<svg width="527" height="372" viewBox="0 0 527 372" fill="none" xmlns="http://www.w3.org/2000/svg">
<g clip-path="url(#clip0_1_3164)">
<path d="M486.818 289.85H476.586V304.14H476.9C477.553 304.14 478.079 304.667 478.079 305.32C478.079 305.974 477.553 306.501 476.9 306.501H473.906C473.254 306.501 472.727 305.974 472.727 305.32C472.727 304.667 473.254 304.14 473.906 304.14H474.22V289.85H473.906C473.254 289.85 472.727 289.323 472.727 288.669C472.727 284.57 470.637 283.13 468.216 281.461C466.833 280.509 465.403 279.518 464.397 277.999C464.106 277.55 463.776 276.795 463.469 275.977C463.163 276.803 462.833 277.558 462.542 277.999C461.544 279.518 460.113 280.509 458.722 281.461C456.302 283.13 454.211 284.57 454.211 288.669C454.211 289.323 453.685 289.85 453.032 289.85H452.718V304.14H453.032C453.685 304.14 454.211 304.667 454.211 305.32C454.211 305.974 453.685 306.501 453.032 306.501H450.038C449.386 306.501 448.859 305.974 448.859 305.32C448.859 304.667 449.386 304.14 450.038 304.14H450.352V289.85H439.177V372.452H441.322V325.237V317.903C441.322 317.25 441.849 316.723 442.501 316.723H448.521C449.174 316.723 449.7 317.25 449.7 317.903V324.057H453.362V317.903C453.362 317.25 453.889 316.723 454.541 316.723H460.561C461.214 316.723 461.74 317.25 461.74 317.903V324.057H465.19V317.903C465.19 317.25 465.717 316.723 466.369 316.723H472.389C473.042 316.723 473.568 317.25 473.568 317.903V324.057H477.23V317.903C477.23 317.25 477.757 316.723 478.409 316.723H484.429C485.082 316.723 485.608 317.25 485.608 317.903V372.467H487.754V289.85H486.811H486.818ZM463.807 288.827H463.32V285.892C463.32 285.758 463.43 285.648 463.563 285.648C463.697 285.648 463.807 285.758 463.807 285.892V288.827Z" fill="#FF4B39"/>
<path d="M468.545 372.523L463.468 372.546L458.572 372.523V355.911C458.572 353.157 460.812 350.922 463.555 350.922C466.298 350.922 468.538 353.165 468.538 355.911V372.523H468.545Z" fill="#FF4B39"/>
<path d="M139.384 236.018V272.994H153.271V236.018H139.384ZM146.323 241.935C145.687 241.935 145.16 241.416 145.16 240.771C145.16 240.125 145.679 239.606 146.323 239.606C146.968 239.606 147.486 240.125 147.486 240.771C147.486 241.416 146.968 241.935 146.323 241.935Z" fill="#D8F6FF"/>
<path d="M55.9205 316.896H42.4736V372.554H55.9205V316.896Z" fill="#D8F6FF"/>
<path d="M102.752 309.861H105.315L103.837 314.535H101.668L100.19 309.861H102.752Z" fill="#D8F6FF"/>
<path d="M114.855 316.896H107.774V372.554H114.855V316.896Z" fill="#D8F6FF"/>
<path d="M147.503 206.241H151.511V233.657H150.662V227.59C150.662 226.936 150.136 226.409 149.483 226.409C148.831 226.409 148.305 226.936 148.305 227.59V233.657H147.503V206.241Z" fill="#D8F6FF"/>
<path d="M141.137 206.241H145.145V233.657H144.343V227.59C144.343 226.936 143.817 226.409 143.164 226.409C142.512 226.409 141.986 226.936 141.986 227.59V233.657H141.137V206.241Z" fill="#D8F6FF"/>
<path d="M160.95 372.554H131.698V357.996H146.324H160.95V372.554Z" fill="#D8F6FF"/>
<path d="M160.95 350.796H146.324H131.698V275.355H138.206H146.324H154.45H160.95V350.796Z" fill="#D8F6FF"/>
<path d="M184.872 316.896H177.791V372.554H184.872V316.896Z" fill="#D8F6FF"/>
<path d="M189.894 309.861H192.456L190.979 314.535H188.81L187.332 309.861H189.894Z" fill="#D8F6FF"/>
<path d="M250.173 316.896H236.727V372.554H250.173V316.896Z" fill="#D8F6FF"/>
<path d="M86.6967 105.32C87.5533 105.32 88.2449 104.627 88.2449 103.769C88.2449 102.912 87.5533 102.219 86.6967 102.219C85.84 102.219 85.1484 102.912 85.1484 103.769C85.1484 104.627 85.84 105.32 86.6967 105.32Z" fill="#045C80"/>
<path d="M106.596 193.996C107.304 193.996 107.87 193.422 107.87 192.722C107.87 192.021 107.296 191.447 106.596 191.447C105.897 191.447 105.323 192.021 105.323 192.722C105.323 193.422 105.897 193.996 106.596 193.996Z" fill="#045C80"/>
<path d="M517.099 305.635C516.4 305.635 515.826 306.21 515.826 306.91C515.826 307.61 516.4 308.185 517.099 308.185C517.799 308.185 518.373 307.61 518.373 306.91C518.373 306.21 517.799 305.635 517.099 305.635Z" fill="#045C80"/>
<path d="M294.302 92.6111C295.01 92.6111 295.576 92.0367 295.576 91.3363C295.576 90.636 295.002 90.0615 294.302 90.0615C293.603 90.0615 293.029 90.636 293.029 91.3363C293.029 92.0367 293.603 92.6111 294.302 92.6111Z" fill="#045C80"/>
<path d="M412.228 140.156C413.006 140.156 413.635 139.526 413.635 138.747C413.635 137.968 413.006 137.339 412.228 137.339C411.45 137.339 410.821 137.968 410.821 138.747C410.821 139.526 411.45 140.156 412.228 140.156Z" fill="#045C80"/>
<path d="M14.889 328.644C15.9186 328.644 16.7595 327.802 16.7595 326.771C16.7595 325.74 15.9186 324.898 14.889 324.898C13.8595 324.898 13.0186 325.74 13.0186 326.771C13.0186 327.802 13.8595 328.644 14.889 328.644Z" fill="#045C80"/>
<path d="M212.293 107.822C212.725 108.184 213.362 108.184 213.794 107.822L220.655 102.148L227.516 107.822C227.948 108.184 228.585 108.184 229.017 107.822L235.886 102.148L242.755 107.822C242.975 108.003 243.242 108.089 243.501 108.089C243.839 108.089 244.177 107.94 244.413 107.665C244.83 107.161 244.759 106.421 244.256 106.004L236.641 99.7089C236.208 99.3469 235.572 99.3469 235.139 99.7089L228.271 105.382L221.41 99.7089C220.977 99.3469 220.341 99.3469 219.909 99.7089L213.048 105.382L206.187 99.7089C205.684 99.2918 204.945 99.3626 204.528 99.8663C204.112 100.37 204.183 101.11 204.686 101.527L212.293 107.822Z" fill="#045C80"/>
<path d="M44.9259 176.425C45.3582 176.787 45.9948 176.787 46.427 176.425L53.288 170.751L60.149 176.425C60.5812 176.787 61.2178 176.787 61.65 176.425L68.5189 170.751L75.3877 176.425C75.6077 176.606 75.875 176.693 76.1343 176.693C76.4723 176.693 76.8102 176.543 77.046 176.26C77.4625 175.756 77.3918 175.016 76.8888 174.599L69.2733 168.304C68.8411 167.942 68.2045 167.942 67.7723 168.304L60.9034 173.978L54.0425 168.304C53.6102 167.942 52.9736 167.942 52.5414 168.304L45.6804 173.978L38.8194 168.304C38.3164 167.887 37.5777 167.958 37.1612 168.461C36.7446 168.965 36.8154 169.705 37.3183 170.122L44.9259 176.417V176.425Z" fill="#045C80"/>
<path d="M217.574 223.34H234.102C237.685 223.34 240.609 220.421 240.609 216.824C240.609 213.614 238.338 210.978 235.288 210.427C234.487 206.445 231.013 203.549 226.856 203.549C222.698 203.549 219.264 206.453 218.439 210.38C218.156 210.34 217.865 210.317 217.574 210.317C217.095 210.317 216.639 210.372 216.191 210.466H209.888C209.236 210.466 208.709 210.993 208.709 211.647C208.709 212.3 209.236 212.827 209.888 212.827H212.45C211.585 213.929 211.067 215.314 211.067 216.824C211.067 220.413 213.982 223.34 217.574 223.34ZM217.574 212.677C218.061 212.677 218.556 212.764 219.028 212.945C219.382 213.079 219.775 213.032 220.089 212.827C220.403 212.614 220.6 212.268 220.615 211.891C220.765 208.538 223.5 205.91 226.856 205.91C230.211 205.91 232.789 208.365 233.08 211.607C233.135 212.205 233.622 212.67 234.22 212.685C236.475 212.748 238.251 214.566 238.251 216.832C238.251 219.099 236.389 220.987 234.102 220.987H217.574C215.287 220.987 213.424 219.122 213.424 216.832C213.424 214.542 215.287 212.677 217.574 212.677Z" fill="#045C80"/>
<path d="M200.143 217.722H208.819C209.471 217.722 209.998 217.194 209.998 216.541C209.998 215.888 209.471 215.361 208.819 215.361H200.143C199.49 215.361 198.964 215.888 198.964 216.541C198.964 217.194 199.49 217.722 200.143 217.722Z" fill="#045C80"/>
<path d="M208.811 220.507H204.473C203.821 220.507 203.294 221.035 203.294 221.688C203.294 222.341 203.821 222.868 204.473 222.868H208.811C209.463 222.868 209.99 222.341 209.99 221.688C209.99 221.035 209.463 220.507 208.811 220.507Z" fill="#045C80"/>
<path d="M215.515 208.279H217.142C217.794 208.279 218.32 207.751 218.32 207.098C218.32 206.445 217.794 205.918 217.142 205.918H215.515C214.862 205.918 214.336 206.445 214.336 207.098C214.336 207.751 214.862 208.279 215.515 208.279Z" fill="#045C80"/>
<path d="M447.295 104.95H452.435C451.13 106.453 450.337 108.396 450.337 110.521C450.337 111.93 450.682 113.252 451.295 114.424H447.295C446.643 114.424 446.116 114.951 446.116 115.604C446.116 116.258 446.643 116.785 447.295 116.785H451.633C452.034 116.785 452.388 116.58 452.6 116.281C454.18 117.997 456.443 119.083 458.958 119.083H475.242C479.525 119.083 483.007 115.62 483.007 111.371C483.007 107.122 479.525 103.659 475.242 103.659C474.448 103.659 473.662 103.785 472.908 104.021C472.193 100.496 469.049 97.8281 465.292 97.8281C462.353 97.8281 459.728 99.4413 458.4 101.991C457.465 102.054 456.577 102.266 455.744 102.597H447.287C446.635 102.597 446.108 103.124 446.108 103.777C446.108 104.43 446.635 104.958 447.287 104.958L447.295 104.95ZM458.989 104.328H459.131C459.626 104.344 460.074 104.053 460.263 103.588C461.08 101.519 463.06 100.181 465.3 100.181C468.279 100.181 470.707 102.581 470.707 105.595V105.713C470.684 106.146 470.904 106.555 471.273 106.775C471.643 106.996 472.106 106.996 472.476 106.775C473.317 106.28 474.275 106.012 475.242 106.012C478.221 106.012 480.649 108.412 480.649 111.363C480.649 114.314 478.221 116.714 475.242 116.714H458.958C455.508 116.714 452.702 113.936 452.702 110.513C452.702 107.09 455.508 104.32 458.989 104.32V104.328Z" fill="#045C80"/>
<path d="M439.302 109.632H447.978C448.631 109.632 449.157 109.104 449.157 108.451C449.157 107.798 448.631 107.271 447.978 107.271H439.302C438.65 107.271 438.123 107.798 438.123 108.451C438.123 109.104 438.65 109.632 439.302 109.632Z" fill="#045C80"/>
<path d="M441.983 114.424C441.33 114.424 440.804 114.952 440.804 115.605C440.804 116.258 441.33 116.785 441.983 116.785H442.894C443.547 116.785 444.073 116.258 444.073 115.605C444.073 114.952 443.547 114.424 442.894 114.424H441.983Z" fill="#045C80"/>
<path d="M455.516 100.181H456.427C457.08 100.181 457.606 99.6538 457.606 99.0007C457.606 98.3475 457.08 97.8203 456.427 97.8203H455.516C454.863 97.8203 454.337 98.3475 454.337 99.0007C454.337 99.6538 454.863 100.181 455.516 100.181Z" fill="#045C80"/>
<path d="M265.153 255.722H264.037V254.604C264.037 253.951 263.511 253.424 262.858 253.424C262.206 253.424 261.68 253.951 261.68 254.604V255.722H260.564C259.911 255.722 259.385 256.249 259.385 256.902C259.385 257.555 259.911 258.082 260.564 258.082H261.68V259.2C261.68 259.853 262.206 260.38 262.858 260.38C263.511 260.38 264.037 259.853 264.037 259.2V258.082H265.153C265.806 258.082 266.332 257.555 266.332 256.902C266.332 256.249 265.806 255.722 265.153 255.722Z" fill="#045C80"/>
<path d="M76.1348 271.578C75.4825 271.578 74.956 272.105 74.956 272.758V273.875H73.84C73.1877 273.875 72.6611 274.403 72.6611 275.056C72.6611 275.709 73.1877 276.236 73.84 276.236H74.956V277.354C74.956 278.007 75.4825 278.534 76.1348 278.534C76.7872 278.534 77.3137 278.007 77.3137 277.354V276.236H78.4297C79.082 276.236 79.6086 275.709 79.6086 275.056C79.6086 274.403 79.082 273.875 78.4297 273.875H77.3137V272.758C77.3137 272.105 76.7872 271.578 76.1348 271.578Z" fill="#045C80"/>
<path d="M413.351 299.812H412.236C411.583 299.812 411.057 300.339 411.057 300.992C411.057 301.645 411.583 302.173 412.236 302.173H413.351V303.29C413.351 303.943 413.878 304.47 414.53 304.47C415.183 304.47 415.709 303.943 415.709 303.29V302.173H416.825C417.477 302.173 418.004 301.645 418.004 300.992C418.004 300.339 417.477 299.812 416.825 299.812H415.709V298.695C415.709 298.041 415.183 297.514 414.53 297.514C413.878 297.514 413.351 298.041 413.351 298.695V299.812Z" fill="#045C80"/>
<path d="M30.7716 222.137H31.0074V222.373C31.0074 223.026 31.534 223.553 32.1863 223.553C32.8386 223.553 33.3651 223.026 33.3651 222.373V222.137H33.6009C34.2532 222.137 34.7798 221.609 34.7798 220.956C34.7798 220.303 34.2532 219.776 33.6009 219.776H33.3651V219.54C33.3651 218.887 32.8386 218.359 32.1863 218.359C31.534 218.359 31.0074 218.887 31.0074 219.54V219.776H30.7716C30.1193 219.776 29.5928 220.303 29.5928 220.956C29.5928 221.609 30.1193 222.137 30.7716 222.137Z" fill="#045C80"/>
<path d="M487.526 151.015H487.761V151.252C487.761 151.905 488.288 152.432 488.94 152.432C489.592 152.432 490.119 151.905 490.119 151.252V151.015H490.355C491.007 151.015 491.534 150.488 491.534 149.835C491.534 149.182 491.007 148.655 490.355 148.655H490.119V148.419C490.119 147.766 489.592 147.238 488.94 147.238C488.288 147.238 487.761 147.766 487.761 148.419V148.655H487.526C486.873 148.655 486.347 149.182 486.347 149.835C486.347 150.488 486.873 151.015 487.526 151.015Z" fill="#045C80"/>
<path d="M212.246 155.044C211.594 155.044 211.067 155.572 211.067 156.225V156.461H210.831C210.179 156.461 209.652 156.988 209.652 157.641C209.652 158.294 210.179 158.822 210.831 158.822H211.067V159.058C211.067 159.711 211.594 160.238 212.246 160.238C212.898 160.238 213.425 159.711 213.425 159.058V158.822H213.66C214.313 158.822 214.839 158.294 214.839 157.641C214.839 156.988 214.313 156.461 213.66 156.461H213.425V156.225C213.425 155.572 212.898 155.044 212.246 155.044Z" fill="#045C80"/>
<path d="M426.806 217.328H426.57V217.092C426.57 216.439 426.044 215.912 425.391 215.912C424.739 215.912 424.212 216.439 424.212 217.092V217.328H423.977C423.324 217.328 422.798 217.855 422.798 218.508C422.798 219.162 423.324 219.689 423.977 219.689H424.212V219.925C424.212 220.578 424.739 221.105 425.391 221.105C426.044 221.105 426.57 220.578 426.57 219.925V219.689H426.806C427.458 219.689 427.985 219.162 427.985 218.508C427.985 217.855 427.458 217.328 426.806 217.328Z" fill="#045C80"/>
<path d="M421.887 357.138C422.091 356.43 422.193 355.706 422.193 354.958C422.193 350.591 418.641 347.034 414.279 347.034C409.917 347.034 406.365 350.591 406.365 354.958C406.365 355.092 406.365 355.226 406.381 355.368C404.817 356.674 403.897 358.602 403.897 360.671C403.897 364.472 406.986 367.565 410.782 367.565H413.344V372.727C413.344 373.38 413.871 373.907 414.523 373.907C415.175 373.907 415.702 373.38 415.702 372.727V367.565H419.71C422.704 367.565 425.148 365.125 425.148 362.119C425.148 359.932 423.82 357.988 421.887 357.138ZM419.718 365.204H410.79C408.291 365.204 406.263 363.174 406.263 360.671C406.263 359.153 407.017 357.744 408.283 356.902C408.66 356.65 408.864 356.202 408.794 355.753C408.746 355.454 408.731 355.202 408.731 354.966C408.731 351.897 411.222 349.403 414.287 349.403C417.352 349.403 419.844 351.897 419.844 354.966C419.844 355.808 419.655 356.627 419.278 357.398C419.113 357.736 419.12 358.137 419.293 358.468C419.466 358.798 419.796 359.027 420.166 359.082C421.667 359.302 422.799 360.608 422.799 362.127C422.799 363.827 421.415 365.212 419.718 365.212V365.204Z" fill="#045C80"/>
<path d="M287.379 356.328C287.379 352.204 284.031 348.852 279.913 348.852C275.794 348.852 272.446 352.204 272.446 356.328C272.446 357.54 272.737 358.704 273.287 359.766C272.116 360.75 271.425 362.19 271.425 363.764C271.425 366.66 273.775 369.013 276.667 369.013H279.15V373.435C279.15 374.088 279.677 374.615 280.329 374.615C280.981 374.615 281.508 374.088 281.508 373.435V369.013H282.655C286.239 369.013 289.163 366.093 289.163 362.497C289.163 360.727 288.463 359.074 287.214 357.854C287.324 357.351 287.371 356.831 287.371 356.32L287.379 356.328ZM282.663 366.652H276.675C275.079 366.652 273.79 365.354 273.79 363.764C273.79 362.654 274.419 361.663 275.425 361.175C275.739 361.018 275.975 360.734 276.054 360.388C276.132 360.042 276.054 359.68 275.849 359.405C275.174 358.507 274.812 357.445 274.812 356.328C274.812 353.511 277.107 351.213 279.92 351.213C282.734 351.213 285.029 353.511 285.029 356.328C285.029 356.863 284.942 357.39 284.777 357.909C284.62 358.381 284.785 358.909 285.178 359.208C286.216 360.003 286.813 361.207 286.813 362.505C286.813 364.795 284.95 366.66 282.663 366.66V366.652Z" fill="#045C80"/>
<path d="M512.439 360.782C512.439 357.563 509.822 354.943 506.607 354.943C503.393 354.943 500.776 357.563 500.776 360.782C500.776 361.647 500.965 362.481 501.326 363.253C500.501 364.032 500.021 365.11 500.021 366.29C500.021 368.604 501.9 370.484 504.21 370.484H505.743V373.451C505.743 374.104 506.269 374.631 506.922 374.631C507.574 374.631 508.101 374.104 508.101 373.451V370.484H508.643C511.464 370.484 513.759 368.187 513.759 365.362C513.759 364.024 513.248 362.773 512.345 361.828C512.407 361.482 512.439 361.136 512.439 360.79V360.782ZM508.643 368.116H504.21C503.204 368.116 502.379 367.297 502.379 366.282C502.379 365.582 502.772 364.952 503.417 364.645C503.731 364.488 503.967 364.205 504.045 363.859C504.124 363.512 504.045 363.15 503.841 362.875C503.377 362.261 503.134 361.545 503.134 360.782C503.134 358.862 504.69 357.304 506.607 357.304C508.525 357.304 510.081 358.862 510.081 360.782C510.081 361.144 510.026 361.506 509.908 361.86C509.751 362.332 509.916 362.859 510.309 363.158C511.001 363.685 511.394 364.488 511.394 365.354C511.394 366.88 510.152 368.116 508.635 368.116H508.643Z" fill="#045C80"/>
<path d="M19.4391 359.696C18.7868 357.917 17.105 356.721 15.1717 356.721C12.6568 356.721 10.6134 358.767 10.6134 361.285C10.6134 361.364 10.6134 361.435 10.6134 361.513C8.78224 362.112 7.46191 363.835 7.46191 365.857C7.46191 368.375 9.50527 370.421 12.0202 370.421H12.9554C13.1912 370.429 13.4427 370.429 13.7099 370.437V373.695C13.7099 374.348 14.2364 374.875 14.8887 374.875C15.541 374.875 16.0676 374.348 16.0676 373.695V370.437C16.3898 370.437 16.6649 370.429 16.8692 370.413C18.4017 370.335 19.8085 369.666 20.8381 368.533C21.8676 367.392 22.3942 365.92 22.3156 364.394C22.2213 362.426 21.1288 360.671 19.4391 359.704V359.696ZM19.0855 366.943C18.4803 367.612 17.6473 368.005 16.7435 368.053C16.0126 368.092 14.1657 368.076 12.9633 368.061H12.0123C10.802 368.061 9.81178 367.069 9.81178 365.849C9.81178 364.63 10.7942 363.654 12.0045 363.646C12.3896 363.646 12.7511 363.457 12.9711 363.134C13.1912 362.82 13.2383 362.411 13.1047 362.049C13.0104 361.797 12.9633 361.537 12.9633 361.277C12.9633 360.066 13.9535 359.074 15.1638 359.074C16.1933 359.074 17.0736 359.774 17.3015 360.774C17.3879 361.128 17.6316 361.427 17.9616 361.584C19.1248 362.112 19.8871 363.229 19.95 364.496C19.9971 365.401 19.6828 366.266 19.0776 366.935L19.0855 366.943Z" fill="#045C80"/>
<path d="M385.829 337.977V297.215C385.829 296.562 385.303 296.035 384.65 296.035H370.897C370.245 296.035 369.718 296.562 369.718 297.215V337.977L360.326 373.309C360.232 373.663 360.311 374.041 360.531 374.332C360.751 374.623 361.097 374.796 361.466 374.796H394.081C394.45 374.796 394.796 374.623 395.016 374.332C395.236 374.041 395.315 373.663 395.221 373.309L385.829 337.977ZM372.076 298.395H383.471V336.954H372.076V298.395ZM367.148 372.436L369.136 366.699L371.117 372.436H367.148ZM374.661 372.436L377.774 360.797L380.886 372.436H374.661ZM384.084 372.436L386.073 366.699L388.053 372.436H384.084ZM390.545 372.436L387.181 362.702C387.016 362.229 386.568 361.907 386.065 361.907C385.562 361.907 385.114 362.229 384.949 362.702L382.568 369.595L378.913 355.926C378.772 355.407 378.308 355.053 377.774 355.053C377.239 355.053 376.775 355.415 376.634 355.926L372.822 370.169L370.237 362.702C370.072 362.229 369.624 361.907 369.121 361.907C368.618 361.907 368.17 362.229 368.005 362.702L364.641 372.436H362.991L371.793 339.315H383.731L392.533 372.436H390.529H390.545Z" fill="#045C80"/>
<path d="M369.129 294.194H386.065C386.718 294.194 387.244 293.667 387.244 293.013C387.244 292.36 386.718 291.833 386.065 291.833H369.129C368.477 291.833 367.95 292.36 367.95 293.013C367.95 293.667 368.477 294.194 369.129 294.194Z" fill="#045C80"/>
<path d="M369.129 289.992H386.065C386.718 289.992 387.244 289.464 387.244 288.811C387.244 288.158 386.718 287.631 386.065 287.631H369.129C368.477 287.631 367.95 288.158 367.95 288.811C367.95 289.464 368.477 289.992 369.129 289.992Z" fill="#045C80"/>
<path d="M369.129 285.797H386.065C386.718 285.797 387.244 285.27 387.244 284.617C387.244 283.964 386.718 283.437 386.065 283.437H369.129C368.477 283.437 367.95 283.964 367.95 284.617C367.95 285.27 368.477 285.797 369.129 285.797Z" fill="#045C80"/>
<path d="M373.554 229.273C372.902 229.273 372.375 229.801 372.375 230.454V280.682C372.375 281.335 372.902 281.863 373.554 281.863H381.641C382.293 281.863 382.82 281.335 382.82 280.682V230.454C382.82 229.801 382.293 229.273 381.641 229.273H373.554ZM380.462 279.502H374.733V231.634H380.462V279.502Z" fill="#045C80"/>
<path d="M371.722 227.676H383.471C384.123 227.676 384.65 227.149 384.65 226.496V221.286C384.65 220.633 384.123 220.106 383.471 220.106H371.722C371.07 220.106 370.543 220.633 370.543 221.286V226.496C370.543 227.149 371.07 227.676 371.722 227.676ZM372.901 222.467H382.292V225.315H372.901V222.467Z" fill="#045C80"/>
<path d="M371.722 184.695H383.471C384.123 184.695 384.65 184.168 384.65 183.515V164.519C384.65 163.866 384.123 163.338 383.471 163.338H371.722C371.07 163.338 370.543 163.866 370.543 164.519V183.515C370.543 184.168 371.07 184.695 371.722 184.695ZM372.901 165.699H382.292V182.334H372.901V165.699Z" fill="#045C80"/>
<path d="M374.473 186.057C373.821 186.057 373.294 186.584 373.294 187.237V217.627C373.294 218.281 373.821 218.808 374.473 218.808H380.721C381.373 218.808 381.9 218.281 381.9 217.627V187.237C381.9 186.584 381.373 186.057 380.721 186.057H374.473ZM379.542 216.447H375.652V188.417H379.542V216.447Z" fill="#045C80"/>
<path d="M375.039 140.023H376.414V161.072C376.414 161.726 376.941 162.253 377.593 162.253C378.246 162.253 378.772 161.726 378.772 161.072V140.023H380.148C380.8 140.023 381.326 139.495 381.326 138.842C381.326 138.189 380.8 137.662 380.148 137.662H378.772V121.924H379.346C379.998 121.924 380.525 121.396 380.525 120.743C380.525 120.09 379.998 119.563 379.346 119.563H378.772V109.632H378.851C379.503 109.632 380.03 109.105 380.03 108.452C380.03 107.799 379.503 107.271 378.851 107.271H378.772V98.2456C379.22 98.0804 379.542 97.6476 379.542 97.1439C379.542 96.6403 379.22 96.2075 378.772 96.0423V92.4461C379.22 92.2808 379.542 91.848 379.542 91.3444C379.542 90.6913 379.016 90.1641 378.364 90.1641H376.831C376.179 90.1641 375.652 90.6913 375.652 91.3444C375.652 91.848 375.974 92.2808 376.422 92.4461V96.0423C375.974 96.2075 375.652 96.6403 375.652 97.1439C375.652 97.6476 375.974 98.0804 376.422 98.2456V107.271H376.344C375.691 107.271 375.165 107.799 375.165 108.452C375.165 109.105 375.691 109.632 376.344 109.632H376.422V119.563H375.849C375.196 119.563 374.67 120.09 374.67 120.743C374.67 121.396 375.196 121.924 375.849 121.924H376.422V137.662H375.047C374.395 137.662 373.868 138.189 373.868 138.842C373.868 139.495 374.395 140.023 375.047 140.023H375.039Z" fill="#045C80"/>
<path d="M344.404 119.642C343.949 119.468 343.43 119.594 343.1 119.964L324.332 141.274C324.144 141.486 324.042 141.769 324.042 142.053V175.622L305.581 196.074C305.384 196.294 305.274 196.57 305.274 196.869V274.836L293.438 287.906C293.242 288.127 293.132 288.41 293.132 288.701V373.616C293.132 374.269 293.658 374.797 294.311 374.797H299.859C300.016 374.875 300.189 374.923 300.386 374.923H337.921C338.109 374.923 338.282 374.875 338.447 374.797H343.996C344.648 374.797 345.175 374.269 345.175 373.616V120.743C345.175 120.255 344.868 119.815 344.412 119.642H344.404ZM336.734 369.446L334.038 372.42H328.914L336.734 363.788V369.446ZM336.734 360.27L325.731 372.42H320.733L336.734 354.746V360.27ZM336.734 351.237L317.55 372.42H312.426L336.734 345.579V351.237ZM336.734 342.061L309.243 372.42H304.245L336.742 336.537V342.061H336.734ZM336.734 333.028L301.557 371.869V366.211L336.734 327.37V333.028ZM336.734 323.852L301.557 362.694V356.989L336.734 318.147V323.852ZM336.734 314.63L301.557 353.471V347.947L336.734 309.106V314.63ZM336.734 305.588L301.557 344.43V338.772L336.734 299.93V305.588ZM336.734 296.421L301.557 335.262V329.738L336.734 290.896V296.421ZM336.734 287.387L301.557 326.229V320.571L336.734 281.729V287.387ZM336.734 278.211L301.557 317.053V311.529L336.734 272.687V278.211ZM336.734 269.178L301.557 308.02V302.362L336.734 263.52V269.178ZM336.734 260.01L301.557 298.852V292.816L336.734 253.975V260.01ZM342.809 295.059V372.428H339.092V250.921C339.092 250.434 338.793 249.993 338.337 249.82C337.881 249.647 337.371 249.765 337.041 250.127L299.506 291.573C299.309 291.794 299.199 292.077 299.199 292.368V372.428H295.482V289.15L342.801 236.899V295.067L342.809 295.059ZM336.734 186.804V192.462L313.699 217.895V212.237L336.734 186.804ZM313.699 208.72V200.984L336.734 175.433V183.287L313.699 208.72ZM336.734 195.972V201.496L313.699 226.929V221.405L336.734 195.972ZM336.734 205.005V210.663L313.699 236.096V230.438L336.734 205.005ZM336.734 214.181V219.705L313.699 245.138V239.614L336.734 214.181ZM336.734 223.214V228.872L313.699 254.305V248.647L336.734 223.214ZM336.734 232.39V240.07L313.699 265.503V257.823L336.734 232.39ZM342.809 233.366L339.092 237.465V172.357C339.092 171.869 338.793 171.428 338.337 171.255C337.881 171.082 337.371 171.2 337.041 171.562L311.648 199.725C311.451 199.946 311.341 200.221 311.341 200.52V268.108L307.624 272.207V197.302L342.801 158.342V233.366H342.809ZM342.809 154.824L332.467 166.274V158.09L342.809 146.672V154.824ZM342.809 143.154L332.467 154.572V146.444L342.809 134.978V143.162V143.154ZM342.809 131.445L330.415 145.192C330.219 145.413 330.109 145.688 330.109 145.987V168.886L326.391 173.002V142.493L342.801 123.859V131.453L342.809 131.445Z" fill="#045C80"/>
<path d="M452.977 335.577C452.324 335.577 451.798 336.104 451.798 336.758V340.251C451.798 340.905 452.324 341.432 452.977 341.432C453.629 341.432 454.156 340.905 454.156 340.251V336.758C454.156 336.104 453.629 335.577 452.977 335.577Z" fill="#045C80"/>
<path d="M462.133 291.188H464.978C465.63 291.188 466.157 290.66 466.157 290.007V285.892C466.157 284.452 464.986 283.287 463.555 283.287C462.125 283.287 460.954 284.46 460.954 285.892V290.007C460.954 290.66 461.481 291.188 462.133 291.188ZM463.312 285.892C463.312 285.758 463.422 285.648 463.555 285.648C463.689 285.648 463.799 285.758 463.799 285.892V288.827H463.312V285.892Z" fill="#045C80"/>
<path d="M459.076 238.008C459.076 238.661 459.603 239.189 460.255 239.189H466.872C467.525 239.189 468.051 238.661 468.051 238.008V228.439C468.051 226.409 465.363 222.215 464.546 220.98C464.114 220.326 463.021 220.326 462.581 220.98C461.756 222.215 459.076 226.409 459.076 228.439V238.008ZM461.434 228.439C461.434 227.731 462.416 225.748 463.564 223.844C464.711 225.748 465.694 227.731 465.694 228.439V236.828H461.434V228.439Z" fill="#045C80"/>
<path d="M448.859 238.008C448.859 238.661 449.385 239.188 450.037 239.188H456.655C457.307 239.188 457.834 238.661 457.834 238.008V228.439C457.834 227.361 457.079 225.685 456.254 224.158L463.516 189.306L470.683 224.158C469.85 225.685 469.104 227.369 469.104 228.439V238.008C469.104 238.661 469.63 239.188 470.282 239.188H476.9C477.552 239.188 478.079 238.661 478.079 238.008V228.439C478.079 226.409 475.391 222.215 474.573 220.979C474.141 220.326 473.049 220.326 472.609 220.979C472.569 221.034 472.522 221.105 472.475 221.176L465.315 186.363L466.376 187.134C466.581 187.284 466.824 187.363 467.068 187.363C467.312 187.363 467.555 187.284 467.76 187.134C468.176 186.835 468.349 186.3 468.184 185.812L467.037 182.279L470.039 180.099C470.455 179.8 470.628 179.265 470.463 178.777C470.306 178.29 469.85 177.959 469.339 177.959H465.63L464.482 174.426C464.325 173.938 463.869 173.607 463.359 173.607C462.848 173.607 462.392 173.938 462.235 174.426L461.087 177.959H457.378C456.867 177.959 456.411 178.29 456.254 178.777C456.097 179.265 456.27 179.8 456.678 180.099L459.681 182.279L458.533 185.812C458.376 186.3 458.549 186.827 458.958 187.134C459.374 187.433 459.932 187.433 460.341 187.134L461.74 186.119L454.431 221.184C454.384 221.113 454.336 221.034 454.297 220.979C453.865 220.326 452.772 220.326 452.332 220.979C451.507 222.215 448.827 226.409 448.827 228.439V238.008H448.859ZM471.453 228.439C471.453 227.731 472.436 225.748 473.583 223.844C474.731 225.748 475.713 227.731 475.713 228.439V236.828H471.453V228.439ZM461.024 180.328H461.96C462.471 180.328 462.926 179.997 463.084 179.509L463.374 178.62L463.665 179.509C463.822 179.997 464.278 180.328 464.789 180.328H465.724L464.97 180.878C464.553 181.177 464.38 181.713 464.545 182.2L464.836 183.09L464.53 182.869C464.53 182.869 464.514 182.846 464.506 182.838C464.482 182.806 464.459 182.783 464.443 182.751C464.42 182.72 464.396 182.688 464.365 182.657C464.341 182.633 464.31 182.61 464.286 182.586C464.254 182.562 464.223 182.531 464.192 182.507C464.16 182.484 464.121 182.468 464.089 182.452C464.058 182.437 464.027 182.413 463.995 182.405C463.932 182.381 463.869 182.358 463.807 182.342C463.799 182.342 463.791 182.342 463.775 182.334C463.704 182.319 463.634 182.311 463.563 182.311C463.555 182.311 463.547 182.311 463.531 182.311C463.516 182.311 463.5 182.311 463.484 182.311C463.461 182.311 463.445 182.311 463.421 182.311C463.406 182.311 463.39 182.311 463.374 182.311C463.131 182.311 462.887 182.389 462.683 182.539L461.92 183.09L462.211 182.2C462.368 181.713 462.195 181.177 461.787 180.878L461.032 180.328H461.024ZM451.216 228.439C451.216 227.731 452.199 225.748 453.346 223.844C454.494 225.748 455.476 227.731 455.476 228.439V236.828H451.216V228.439Z" fill="#045C80"/>
<path d="M463.563 267.863C468.412 267.863 472.357 263.913 472.357 259.058C472.357 254.203 468.412 250.252 463.563 250.252C458.714 250.252 454.769 254.203 454.769 259.058C454.769 263.913 458.714 267.863 463.563 267.863ZM463.563 252.605C467.115 252.605 469.999 255.501 469.999 259.05C469.999 262.599 467.115 265.495 463.563 265.495C460.011 265.495 457.126 262.607 457.126 259.05C457.126 255.493 460.011 252.605 463.563 252.605Z" fill="#045C80"/>
<path d="M446.926 250.252C446.274 250.252 445.747 250.78 445.747 251.433V266.691C445.747 267.344 446.274 267.871 446.926 267.871C447.578 267.871 448.105 267.344 448.105 266.691V251.433C448.105 250.78 447.578 250.252 446.926 250.252Z" fill="#045C80"/>
<path d="M453.347 218.579C453.999 218.579 454.526 218.052 454.526 217.399V214.078C454.526 213.425 453.999 212.898 453.347 212.898C452.695 212.898 452.168 213.425 452.168 214.078V217.399C452.168 218.052 452.695 218.579 453.347 218.579Z" fill="#045C80"/>
<path d="M473.961 341.432C474.613 341.432 475.14 340.905 475.14 340.251V336.758C475.14 336.104 474.613 335.577 473.961 335.577C473.309 335.577 472.782 336.104 472.782 336.758V340.251C472.782 340.905 473.309 341.432 473.961 341.432Z" fill="#045C80"/>
<path d="M470.126 304.14H456.813C456.16 304.14 455.634 304.667 455.634 305.32C455.634 305.974 456.16 306.501 456.813 306.501H470.126C470.778 306.501 471.305 305.974 471.305 305.32C471.305 304.667 470.778 304.14 470.126 304.14Z" fill="#045C80"/>
<path d="M491.172 287.489H487.989V281.029H488.052C488.705 281.029 489.231 280.501 489.231 279.848C489.231 279.195 488.705 278.668 488.052 278.668H487.636L485.844 260.168C485.781 259.562 485.278 259.097 484.673 259.097C484.068 259.097 483.557 259.562 483.502 260.168L481.71 278.668H481.293C480.641 278.668 480.115 279.195 480.115 279.848C480.115 280.501 480.641 281.029 481.293 281.029H481.356V287.489H478.071V244.563C478.071 243.91 477.545 243.383 476.892 243.383H450.038C449.386 243.383 448.859 243.91 448.859 244.563V287.489H445.574V281.029H445.637C446.289 281.029 446.816 280.501 446.816 279.848C446.816 279.195 446.289 278.668 445.637 278.668H445.22L443.428 260.168C443.366 259.562 442.863 259.097 442.257 259.097C441.652 259.097 441.141 259.562 441.086 260.168L439.295 278.668H438.878C438.226 278.668 437.699 279.195 437.699 279.848C437.699 280.501 438.226 281.029 438.878 281.029H438.941V287.489H435.758C435.106 287.489 434.579 288.016 434.579 288.669C434.579 289.323 435.106 289.85 435.758 289.85H436.819V373.624C436.819 374.277 437.346 374.804 437.99 374.804L457.3 374.899C457.3 374.899 457.355 374.907 457.386 374.907H469.717C469.717 374.907 469.78 374.907 469.811 374.899L488.932 374.804C489.585 374.804 490.103 374.277 490.103 373.624V289.85H491.164C491.817 289.85 492.343 289.323 492.343 288.669C492.343 288.016 491.817 287.489 491.164 287.489H491.172ZM484.673 272.498L485.27 278.668H484.076L484.673 272.498ZM483.714 281.029H485.632V287.489H483.714V281.029ZM451.217 245.744H475.714V287.489H475.03C474.629 283.019 471.941 281.162 469.544 279.518C468.295 278.652 467.108 277.842 466.361 276.701C465.929 276.047 465.174 273.813 464.695 272.199C464.86 271.578 464.499 270.94 463.886 270.759C463.744 270.72 463.603 270.712 463.469 270.72C463.335 270.712 463.194 270.72 463.053 270.759C462.432 270.94 462.078 271.578 462.243 272.199C461.756 273.813 461.001 276.047 460.577 276.701C459.83 277.834 458.644 278.652 457.394 279.518C454.997 281.17 452.309 283.019 451.908 287.489H451.225V245.744H451.217ZM442.257 272.506L442.855 278.676H441.66L442.257 272.506ZM441.299 281.036H443.216V287.497H441.299V281.036ZM447.342 325.245V372.483L443.68 372.467V319.091H447.342V325.245ZM468.538 372.538L463.461 372.562L458.565 372.538V355.926C458.565 353.172 460.805 350.937 463.548 350.937C466.29 350.937 468.53 353.18 468.53 355.926V372.538H468.538ZM477.222 372.491L470.896 372.522V355.919C470.896 351.866 467.603 348.569 463.556 348.569C459.508 348.569 456.215 351.866 456.215 355.919V372.522L449.7 372.491V326.425H454.541C455.193 326.425 455.72 325.898 455.72 325.245V319.091H459.382V325.245C459.382 325.898 459.909 326.425 460.561 326.425H466.581C467.234 326.425 467.76 325.898 467.76 325.245V319.091H471.21V325.245C471.21 325.898 471.737 326.425 472.389 326.425H477.23V372.491H477.222ZM483.242 325.245V372.459L479.58 372.475V319.083H483.242V325.237V325.245ZM487.746 372.459H485.6V325.245V317.911C485.6 317.258 485.074 316.731 484.421 316.731H478.401C477.749 316.731 477.222 317.258 477.222 317.911V324.065H473.56V317.911C473.56 317.258 473.034 316.731 472.381 316.731H466.361C465.709 316.731 465.182 317.258 465.182 317.911V324.065H461.732V317.911C461.732 317.258 461.206 316.731 460.553 316.731H454.533C453.881 316.731 453.354 317.258 453.354 317.911V324.065H449.692V317.911C449.692 317.258 449.166 316.731 448.513 316.731H442.493C441.841 316.731 441.314 317.258 441.314 317.911V372.475H439.169V289.858H450.344V304.148H450.03C449.378 304.148 448.851 304.675 448.851 305.328C448.851 305.981 449.378 306.509 450.03 306.509H453.024C453.677 306.509 454.203 305.981 454.203 305.328C454.203 304.675 453.677 304.148 453.024 304.148H452.71V289.858H453.024C453.677 289.858 454.203 289.33 454.203 288.677C454.203 284.577 456.294 283.137 458.714 281.469C460.098 280.517 461.528 279.526 462.534 278.007C462.825 277.566 463.155 276.803 463.461 275.984C463.768 276.811 464.098 277.566 464.389 278.007C465.387 279.526 466.817 280.517 468.208 281.469C470.629 283.137 472.719 284.577 472.719 288.677C472.719 289.33 473.246 289.858 473.898 289.858H474.212V304.148H473.898C473.246 304.148 472.719 304.675 472.719 305.328C472.719 305.981 473.246 306.509 473.898 306.509H476.892C477.545 306.509 478.071 305.981 478.071 305.328C478.071 304.675 477.545 304.148 476.892 304.148H476.578V289.858H487.754V372.459H487.746Z" fill="#045C80"/>
<path d="M480.013 267.864C480.665 267.864 481.192 267.336 481.192 266.683V251.425C481.192 250.772 480.665 250.245 480.013 250.245C479.361 250.245 478.834 250.772 478.834 251.425V266.683C478.834 267.336 479.361 267.864 480.013 267.864Z" fill="#045C80"/>
<path d="M463.563 242.328H479.14C479.792 242.328 480.319 241.801 480.319 241.148C480.319 240.495 479.792 239.968 479.14 239.968H447.806C447.154 239.968 446.627 240.495 446.627 241.148C446.627 241.801 447.154 242.328 447.806 242.328H463.563Z" fill="#045C80"/>
<path d="M473.592 218.579C474.244 218.579 474.771 218.052 474.771 217.399V214.078C474.771 213.425 474.244 212.898 473.592 212.898C472.94 212.898 472.413 213.425 472.413 214.078V217.399C472.413 218.052 472.94 218.579 473.592 218.579Z" fill="#045C80"/>
<path d="M463.469 218.564C463.469 218.564 463.532 218.572 463.564 218.572C464.216 218.572 464.743 218.044 464.743 217.391V214.07C464.743 213.417 464.216 212.89 463.564 212.89C463.532 212.89 463.501 212.89 463.469 212.898C463.438 212.898 463.407 212.89 463.375 212.89C462.723 212.89 462.196 213.417 462.196 214.07V217.391C462.196 218.044 462.723 218.572 463.375 218.572C463.407 218.572 463.438 218.572 463.469 218.564Z" fill="#045C80"/>
<path d="M29.5539 313.158H68.1813C68.8336 313.158 69.3601 312.631 69.3601 311.978C69.3601 311.324 68.8336 310.797 68.1813 310.797H61.7525V284.869C61.7525 284.215 61.226 283.688 60.5737 283.688C59.9214 283.688 59.3948 284.215 59.3948 284.869V310.797H58.2788V289.267C58.2788 288.614 57.7523 288.087 57.1 288.087H54.5458V281.65C54.5458 280.997 54.0192 280.47 53.3669 280.47H52.8875L54.4908 275.41C54.6008 275.048 54.5379 274.662 54.3179 274.355C54.0978 274.049 53.7441 273.875 53.3669 273.875H45.0206C44.6433 273.875 44.2897 274.056 44.0696 274.355C43.8496 274.662 43.7867 275.048 43.8967 275.41L45.5 280.47H45.0206C44.3683 280.47 43.8417 280.997 43.8417 281.65V288.087H41.2875C40.6352 288.087 40.1086 288.614 40.1086 289.267V310.797H38.3325V284.869C38.3325 284.215 37.8059 283.688 37.1536 283.688C36.5013 283.688 35.9748 284.215 35.9748 284.869V310.797H29.546C28.8937 310.797 28.3672 311.324 28.3672 311.978C28.3672 312.631 28.8937 313.158 29.546 313.158H29.5539ZM49.2016 276.236H51.7637L50.4276 280.47H47.9834L46.6474 276.236H49.2095H49.2016ZM46.2073 282.831H52.1959V287.867H46.2073V282.831ZM42.4742 290.448H55.9211V310.797H42.4742V290.448Z" fill="#045C80"/>
<path d="M125.254 266.785C125.906 266.785 126.433 266.258 126.433 265.605V255.052C126.433 254.399 125.906 253.872 125.254 253.872C124.602 253.872 124.075 254.399 124.075 255.052V265.605C124.075 266.258 124.602 266.785 125.254 266.785Z" fill="#045C80"/>
<path d="M116.035 271.184C116.688 271.184 117.214 270.657 117.214 270.004V264.732C117.214 264.078 116.688 263.551 116.035 263.551C115.383 263.551 114.856 264.078 114.856 264.732V270.004C114.856 270.657 115.383 271.184 116.035 271.184Z" fill="#045C80"/>
<path d="M102.753 305.431C103.405 305.431 103.932 304.903 103.932 304.25V297.727C103.932 297.074 103.405 296.546 102.753 296.546C102.101 296.546 101.574 297.074 101.574 297.727V304.25C101.574 304.903 102.101 305.431 102.753 305.431Z" fill="#045C80"/>
<path d="M125.254 285.466C125.906 285.466 126.433 284.939 126.433 284.286V279.014C126.433 278.361 125.906 277.833 125.254 277.833C124.602 277.833 124.075 278.361 124.075 279.014V284.286C124.075 284.939 124.602 285.466 125.254 285.466Z" fill="#045C80"/>
<path d="M134.362 238.417C133.71 238.417 133.184 238.945 133.184 239.598V244.87C133.184 245.523 133.71 246.05 134.362 246.05C135.015 246.05 135.541 245.523 135.541 244.87V239.598C135.541 238.945 135.015 238.417 134.362 238.417Z" fill="#045C80"/>
<path d="M134.362 249.702C133.71 249.702 133.184 250.229 133.184 250.882V256.154C133.184 256.807 133.71 257.335 134.362 257.335C135.015 257.335 135.541 256.807 135.541 256.154V250.882C135.541 250.229 135.015 249.702 134.362 249.702Z" fill="#045C80"/>
<path d="M134.362 260.986C133.71 260.986 133.184 261.513 133.184 262.166V267.438C133.184 268.092 133.71 268.619 134.362 268.619C135.015 268.619 135.541 268.092 135.541 267.438V262.166C135.541 261.513 135.015 260.986 134.362 260.986Z" fill="#045C80"/>
<path d="M158.285 246.05C158.938 246.05 159.464 245.523 159.464 244.87V239.598C159.464 238.945 158.938 238.417 158.285 238.417C157.633 238.417 157.106 238.945 157.106 239.598V244.87C157.106 245.523 157.633 246.05 158.285 246.05Z" fill="#045C80"/>
<path d="M158.285 257.335C158.938 257.335 159.464 256.807 159.464 256.154V250.882C159.464 250.229 158.938 249.702 158.285 249.702C157.633 249.702 157.106 250.229 157.106 250.882V256.154C157.106 256.807 157.633 257.335 158.285 257.335Z" fill="#045C80"/>
<path d="M158.285 268.619C158.938 268.619 159.464 268.092 159.464 267.438V262.166C159.464 261.513 158.938 260.986 158.285 260.986C157.633 260.986 157.106 261.513 157.106 262.166V267.438C157.106 268.092 157.633 268.619 158.285 268.619Z" fill="#045C80"/>
<path d="M125.254 296.452C125.906 296.452 126.433 295.925 126.433 295.272V289.999C126.433 289.346 125.906 288.819 125.254 288.819C124.602 288.819 124.075 289.346 124.075 289.999V295.272C124.075 295.925 124.602 296.452 125.254 296.452Z" fill="#045C80"/>
<path d="M125.254 307.445C125.906 307.445 126.433 306.918 126.433 306.265V300.992C126.433 300.339 125.906 299.812 125.254 299.812C124.602 299.812 124.075 300.339 124.075 300.992V306.265C124.075 306.918 124.602 307.445 125.254 307.445Z" fill="#045C80"/>
<path d="M125.254 318.43C125.906 318.43 126.433 317.903 126.433 317.25V311.978C126.433 311.325 125.906 310.797 125.254 310.797C124.602 310.797 124.075 311.325 124.075 311.978V317.25C124.075 317.903 124.602 318.43 125.254 318.43Z" fill="#045C80"/>
<path d="M125.254 329.424C125.906 329.424 126.433 328.896 126.433 328.243V322.971C126.433 322.318 125.906 321.791 125.254 321.791C124.602 321.791 124.075 322.318 124.075 322.971V328.243C124.075 328.896 124.602 329.424 125.254 329.424Z" fill="#045C80"/>
<path d="M102.753 326.567C103.405 326.567 103.932 326.04 103.932 325.387V320.114C103.932 319.461 103.405 318.934 102.753 318.934C102.101 318.934 101.574 319.461 101.574 320.114V325.387C101.574 326.04 102.101 326.567 102.753 326.567Z" fill="#045C80"/>
<path d="M102.753 337.552C103.405 337.552 103.932 337.025 103.932 336.372V331.099C103.932 330.446 103.405 329.919 102.753 329.919C102.101 329.919 101.574 330.446 101.574 331.099V336.372C101.574 337.025 102.101 337.552 102.753 337.552Z" fill="#045C80"/>
<path d="M102.753 348.537C103.405 348.537 103.932 348.01 103.932 347.357V342.085C103.932 341.432 103.405 340.904 102.753 340.904C102.101 340.904 101.574 341.432 101.574 342.085V347.357C101.574 348.01 102.101 348.537 102.753 348.537Z" fill="#045C80"/>
<path d="M102.753 359.53C103.405 359.53 103.932 359.003 103.932 358.35V353.078C103.932 352.425 103.405 351.897 102.753 351.897C102.101 351.897 101.574 352.425 101.574 353.078V358.35C101.574 359.003 102.101 359.53 102.753 359.53Z" fill="#045C80"/>
<path d="M102.753 370.516C103.405 370.516 103.932 369.989 103.932 369.335V364.063C103.932 363.41 103.405 362.883 102.753 362.883C102.101 362.883 101.574 363.41 101.574 364.063V369.335C101.574 369.989 102.101 370.516 102.753 370.516Z" fill="#045C80"/>
<path d="M60.6445 320.107V325.379C60.6445 326.032 61.1711 326.559 61.8234 326.559C62.4757 326.559 63.0023 326.032 63.0023 325.379V320.107C63.0023 319.453 62.4757 318.926 61.8234 318.926C61.1711 318.926 60.6445 319.453 60.6445 320.107Z" fill="#045C80"/>
<path d="M61.8234 329.919C61.1711 329.919 60.6445 330.446 60.6445 331.099V336.372C60.6445 337.025 61.1711 337.552 61.8234 337.552C62.4757 337.552 63.0023 337.025 63.0023 336.372V331.099C63.0023 330.446 62.4757 329.919 61.8234 329.919Z" fill="#045C80"/>
<path d="M61.8234 340.904C61.1711 340.904 60.6445 341.432 60.6445 342.085V347.357C60.6445 348.01 61.1711 348.537 61.8234 348.537C62.4757 348.537 63.0023 348.01 63.0023 347.357V342.085C63.0023 341.432 62.4757 340.904 61.8234 340.904Z" fill="#045C80"/>
<path d="M61.8234 351.897C61.1711 351.897 60.6445 352.425 60.6445 353.078V358.35C60.6445 359.003 61.1711 359.53 61.8234 359.53C62.4757 359.53 63.0023 359.003 63.0023 358.35V353.078C63.0023 352.425 62.4757 351.897 61.8234 351.897Z" fill="#045C80"/>
<path d="M61.8234 362.883C61.1711 362.883 60.6445 363.41 60.6445 364.063V369.335C60.6445 369.989 61.1711 370.516 61.8234 370.516C62.4757 370.516 63.0023 369.989 63.0023 369.335V364.063C63.0023 363.41 62.4757 362.883 61.8234 362.883Z" fill="#045C80"/>
<path d="M36.8 326.787C37.4523 326.787 37.9788 326.26 37.9788 325.607V320.335C37.9788 319.682 37.4523 319.154 36.8 319.154C36.1477 319.154 35.6211 319.682 35.6211 320.335V325.607C35.6211 326.26 36.1477 326.787 36.8 326.787Z" fill="#045C80"/>
<path d="M36.8 337.773C37.4523 337.773 37.9788 337.245 37.9788 336.592V331.32C37.9788 330.667 37.4523 330.14 36.8 330.14C36.1477 330.14 35.6211 330.667 35.6211 331.32V336.592C35.6211 337.245 36.1477 337.773 36.8 337.773Z" fill="#045C80"/>
<path d="M36.8 348.766C37.4523 348.766 37.9788 348.239 37.9788 347.585V342.313C37.9788 341.66 37.4523 341.133 36.8 341.133C36.1477 341.133 35.6211 341.66 35.6211 342.313V347.585C35.6211 348.239 36.1477 348.766 36.8 348.766Z" fill="#045C80"/>
<path d="M36.8 359.751C37.4523 359.751 37.9788 359.223 37.9788 358.57V353.298C37.9788 352.645 37.4523 352.118 36.8 352.118C36.1477 352.118 35.6211 352.645 35.6211 353.298V358.57C35.6211 359.223 36.1477 359.751 36.8 359.751Z" fill="#045C80"/>
<path d="M36.8 370.744C37.4523 370.744 37.9788 370.217 37.9788 369.564V364.291C37.9788 363.638 37.4523 363.111 36.8 363.111C36.1477 363.111 35.6211 363.638 35.6211 364.291V369.564C35.6211 370.217 36.1477 370.744 36.8 370.744Z" fill="#045C80"/>
<path d="M125.254 340.409C125.906 340.409 126.433 339.882 126.433 339.229V333.956C126.433 333.303 125.906 332.776 125.254 332.776C124.602 332.776 124.075 333.303 124.075 333.956V339.229C124.075 339.882 124.602 340.409 125.254 340.409Z" fill="#045C80"/>
<path d="M125.254 351.402C125.906 351.402 126.433 350.874 126.433 350.221V344.949C126.433 344.296 125.906 343.769 125.254 343.769C124.602 343.769 124.075 344.296 124.075 344.949V350.221C124.075 350.874 124.602 351.402 125.254 351.402Z" fill="#045C80"/>
<path d="M125.254 362.387C125.906 362.387 126.433 361.86 126.433 361.207V355.934C126.433 355.281 125.906 354.754 125.254 354.754C124.602 354.754 124.075 355.281 124.075 355.934V361.207C124.075 361.86 124.602 362.387 125.254 362.387Z" fill="#045C80"/>
<path d="M136.005 276.952C135.353 276.952 134.826 277.479 134.826 278.133V347.577C134.826 348.23 135.353 348.758 136.005 348.758C136.657 348.758 137.184 348.23 137.184 347.577V278.133C137.184 277.479 136.657 276.952 136.005 276.952Z" fill="#045C80"/>
<path d="M142.811 276.952C142.158 276.952 141.632 277.479 141.632 278.133V347.577C141.632 348.23 142.158 348.758 142.811 348.758C143.463 348.758 143.99 348.23 143.99 347.577V278.133C143.99 277.479 143.463 276.952 142.811 276.952Z" fill="#045C80"/>
<path d="M167.394 266.785C168.046 266.785 168.573 266.258 168.573 265.605V255.052C168.573 254.399 168.046 253.872 167.394 253.872C166.741 253.872 166.215 254.399 166.215 255.052V265.605C166.215 266.258 166.741 266.785 167.394 266.785Z" fill="#045C80"/>
<path d="M176.612 271.184C177.265 271.184 177.791 270.657 177.791 270.004V264.732C177.791 264.078 177.265 263.551 176.612 263.551C175.96 263.551 175.434 264.078 175.434 264.732V270.004C175.434 270.657 175.96 271.184 176.612 271.184Z" fill="#045C80"/>
<path d="M167.394 285.466C168.046 285.466 168.573 284.939 168.573 284.286V279.014C168.573 278.361 168.046 277.833 167.394 277.833C166.741 277.833 166.215 278.361 166.215 279.014V284.286C166.215 284.939 166.741 285.466 167.394 285.466Z" fill="#045C80"/>
<path d="M167.394 296.452C168.046 296.452 168.573 295.925 168.573 295.272V289.999C168.573 289.346 168.046 288.819 167.394 288.819C166.741 288.819 166.215 289.346 166.215 289.999V295.272C166.215 295.925 166.741 296.452 167.394 296.452Z" fill="#045C80"/>
<path d="M167.394 307.445C168.046 307.445 168.573 306.918 168.573 306.265V300.992C168.573 300.339 168.046 299.812 167.394 299.812C166.741 299.812 166.215 300.339 166.215 300.992V306.265C166.215 306.918 166.741 307.445 167.394 307.445Z" fill="#045C80"/>
<path d="M167.394 318.43C168.046 318.43 168.573 317.903 168.573 317.25V311.978C168.573 311.325 168.046 310.797 167.394 310.797C166.741 310.797 166.215 311.325 166.215 311.978V317.25C166.215 317.903 166.741 318.43 167.394 318.43Z" fill="#045C80"/>
<path d="M167.394 329.424C168.046 329.424 168.573 328.896 168.573 328.243V322.971C168.573 322.318 168.046 321.791 167.394 321.791C166.741 321.791 166.215 322.318 166.215 322.971V328.243C166.215 328.896 166.741 329.424 167.394 329.424Z" fill="#045C80"/>
<path d="M167.394 340.409C168.046 340.409 168.573 339.882 168.573 339.229V333.956C168.573 333.303 168.046 332.776 167.394 332.776C166.741 332.776 166.215 333.303 166.215 333.956V339.229C166.215 339.882 166.741 340.409 167.394 340.409Z" fill="#045C80"/>
<path d="M167.394 351.402C168.046 351.402 168.573 350.874 168.573 350.221V344.949C168.573 344.296 168.046 343.769 167.394 343.769C166.741 343.769 166.215 344.296 166.215 344.949V350.221C166.215 350.874 166.741 351.402 167.394 351.402Z" fill="#045C80"/>
<path d="M167.394 362.387C168.046 362.387 168.573 361.86 168.573 361.207V355.934C168.573 355.281 168.046 354.754 167.394 354.754C166.741 354.754 166.215 355.281 166.215 355.934V361.207C166.215 361.86 166.741 362.387 167.394 362.387Z" fill="#045C80"/>
<path d="M156.643 348.765C157.295 348.765 157.822 348.238 157.822 347.585V278.14C157.822 277.487 157.295 276.96 156.643 276.96C155.99 276.96 155.464 277.487 155.464 278.14V347.585C155.464 348.238 155.99 348.765 156.643 348.765Z" fill="#045C80"/>
<path d="M149.837 276.952C149.185 276.952 148.658 277.479 148.658 278.133V347.577C148.658 348.23 149.185 348.758 149.837 348.758C150.489 348.758 151.016 348.23 151.016 347.577V278.133C151.016 277.479 150.489 276.952 149.837 276.952Z" fill="#045C80"/>
<path d="M72.8654 370.964C73.5177 370.964 74.0442 370.437 74.0442 369.784V320.256C74.0442 319.603 73.5177 319.076 72.8654 319.076C72.2131 319.076 71.6865 319.603 71.6865 320.256V369.784C71.6865 370.437 72.2131 370.964 72.8654 370.964Z" fill="#045C80"/>
<path d="M79.671 370.964C80.3234 370.964 80.8499 370.437 80.8499 369.784V320.256C80.8499 319.603 80.3234 319.076 79.671 319.076C79.0187 319.076 78.4922 319.603 78.4922 320.256V369.784C78.4922 370.437 79.0187 370.964 79.671 370.964Z" fill="#045C80"/>
<path d="M93.5031 370.964C94.1554 370.964 94.6819 370.437 94.6819 369.784V320.256C94.6819 319.603 94.1554 319.076 93.5031 319.076C92.8508 319.076 92.3242 319.603 92.3242 320.256V369.784C92.3242 370.437 92.8508 370.964 93.5031 370.964Z" fill="#045C80"/>
<path d="M86.6974 370.964C87.3497 370.964 87.8763 370.437 87.8763 369.784V320.256C87.8763 319.603 87.3497 319.076 86.6974 319.076C86.0451 319.076 85.5186 319.603 85.5186 320.256V369.784C85.5186 370.437 86.0451 370.964 86.6974 370.964Z" fill="#045C80"/>
<path d="M142.811 245.744C142.158 245.744 141.632 246.271 141.632 246.924V268.832C141.632 269.485 142.158 270.012 142.811 270.012C143.463 270.012 143.99 269.485 143.99 268.832V246.924C143.99 246.271 143.463 245.744 142.811 245.744Z" fill="#045C80"/>
<path d="M148.658 246.924V268.832C148.658 269.485 149.185 270.012 149.837 270.012C150.489 270.012 151.016 269.485 151.016 268.832V246.924C151.016 246.271 150.489 245.744 149.837 245.744C149.185 245.744 148.658 246.271 148.658 246.924Z" fill="#045C80"/>
<path d="M146.324 244.296C148.265 244.296 149.844 242.714 149.844 240.77C149.844 238.827 148.265 237.245 146.324 237.245C144.382 237.245 142.803 238.827 142.803 240.77C142.803 242.714 144.382 244.296 146.324 244.296ZM146.324 239.606C146.968 239.606 147.487 240.125 147.487 240.77C147.487 241.416 146.968 241.935 146.324 241.935C145.679 241.935 145.16 241.416 145.16 240.77C145.16 240.125 145.679 239.606 146.324 239.606Z" fill="#045C80"/>
<path d="M139.958 202.944H152.69C153.342 202.944 153.869 202.417 153.869 201.763C153.869 201.11 153.342 200.583 152.69 200.583H139.958C139.306 200.583 138.779 201.11 138.779 201.763C138.779 202.417 139.306 202.944 139.958 202.944Z" fill="#045C80"/>
<path d="M140.509 199.646H146.324C146.371 199.646 146.411 199.639 146.45 199.631C146.489 199.631 146.536 199.646 146.576 199.646H152.392C152.894 199.646 153.342 199.324 153.507 198.852C153.673 198.372 153.507 197.844 153.115 197.538C152.093 196.735 150.34 195.004 150.018 193.776C149.767 192.808 151.063 190.928 152.014 189.967C152.352 189.629 152.454 189.125 152.274 188.685C152.093 188.244 151.661 187.953 151.181 187.953H151.04L147.928 159.514L148.941 160.254C149.358 160.553 149.916 160.553 150.325 160.254C150.741 159.955 150.914 159.42 150.749 158.932L149.837 156.138L152.211 154.407C152.627 154.108 152.8 153.573 152.635 153.085C152.478 152.597 152.022 152.267 151.511 152.267H148.572L147.668 149.473C147.511 148.985 147.055 148.655 146.544 148.655C146.034 148.655 145.578 148.985 145.421 149.473L144.517 152.267H141.577C141.067 152.267 140.611 152.597 140.454 153.085C140.296 153.573 140.469 154.1 140.878 154.407L143.251 156.138L142.348 158.932C142.19 159.42 142.363 159.955 142.772 160.254C142.976 160.403 143.22 160.482 143.464 160.482C143.707 160.482 143.951 160.403 144.155 160.254L145.169 159.514L142.057 187.953H141.664C141.184 187.953 140.76 188.244 140.579 188.677C140.399 189.118 140.501 189.621 140.831 189.96C141.79 190.92 143.086 192.8 142.827 193.768C142.505 195.004 140.752 196.735 139.731 197.53C139.338 197.837 139.18 198.372 139.338 198.844C139.503 199.324 139.951 199.639 140.454 199.639L140.509 199.646ZM145.405 154.627C145.916 154.627 146.371 154.297 146.529 153.809L146.576 153.652L146.623 153.809C146.78 154.297 147.236 154.627 147.747 154.627H147.912L147.778 154.722C147.362 155.021 147.189 155.556 147.354 156.044L147.401 156.201L147.267 156.107C146.851 155.808 146.293 155.808 145.884 156.107L145.751 156.201L145.798 156.044C145.955 155.556 145.782 155.021 145.373 154.722L145.24 154.627H145.405ZM146.576 168.768L148.674 187.953H146.576C146.529 187.953 146.489 187.953 146.45 187.969C146.411 187.969 146.364 187.953 146.324 187.953H144.477L146.576 168.768ZM144.147 190.314H146.324C146.371 190.314 146.411 190.314 146.45 190.298C146.489 190.298 146.536 190.314 146.576 190.314H148.753C148.014 191.478 147.377 192.981 147.739 194.382C148.014 195.413 148.713 196.444 149.452 197.301H146.576C146.529 197.301 146.489 197.301 146.45 197.317C146.411 197.317 146.364 197.301 146.324 197.301H143.448C144.187 196.444 144.886 195.421 145.161 194.39C145.531 192.997 144.894 191.494 144.147 190.322V190.314Z" fill="#045C80"/>
<path d="M49.2016 293.068C46.2545 293.068 43.8496 295.468 43.8496 298.427C43.8496 301.386 46.2466 303.786 49.2016 303.786C52.1566 303.786 54.5537 301.386 54.5537 298.427C54.5537 295.468 52.1566 293.068 49.2016 293.068ZM49.2016 301.425C47.5512 301.425 46.2073 300.08 46.2073 298.427C46.2073 296.775 47.5512 295.429 49.2016 295.429C50.852 295.429 52.1959 296.775 52.1959 298.427C52.1959 300.08 50.852 301.425 49.2016 301.425Z" fill="#045C80"/>
<path d="M263.094 314.535H193.447L195.184 309.042C195.294 308.68 195.231 308.295 195.011 307.988C194.791 307.681 194.437 307.508 194.06 307.508H185.714C185.336 307.508 184.983 307.689 184.763 307.988C184.543 308.295 184.48 308.68 184.59 309.042L186.327 314.535H177.784V275.355H178.578C179.23 275.355 179.756 274.828 179.756 274.175C179.756 273.521 179.23 272.994 178.578 272.994H163.292V271.176H172.652C173.304 271.176 173.831 270.649 173.831 269.996C173.831 269.343 173.304 268.816 172.652 268.816H163.292V227.582C163.292 226.929 162.765 226.401 162.113 226.401C161.461 226.401 160.934 226.929 160.934 227.582V233.649H156.973V227.582C156.973 226.929 156.446 226.401 155.794 226.401C155.142 226.401 154.615 226.929 154.615 227.582V233.649H153.853V205.052C153.853 204.399 153.326 203.872 152.674 203.872H139.942C139.29 203.872 138.764 204.399 138.764 205.052V233.649H138.001V227.582C138.001 226.929 137.475 226.401 136.822 226.401C136.17 226.401 135.644 226.929 135.644 227.582V233.649H131.683V227.582C131.683 226.929 131.156 226.401 130.504 226.401C129.851 226.401 129.325 226.929 129.325 227.582V268.816H119.965C119.312 268.816 118.786 269.343 118.786 269.996C118.786 270.649 119.312 271.176 119.965 271.176H129.325V272.994H114.039C113.387 272.994 112.86 273.521 112.86 274.175C112.86 274.828 113.387 275.355 114.039 275.355H114.833V314.535H106.29L108.027 309.042C108.137 308.68 108.074 308.295 107.854 307.988C107.634 307.681 107.28 307.508 106.903 307.508H98.5565C98.1793 307.508 97.8256 307.689 97.6056 307.988C97.3855 308.295 97.3227 308.68 97.4327 309.042L99.1695 314.535H29.5539C28.9016 314.535 28.375 315.062 28.375 315.715C28.375 316.369 28.9016 316.896 29.5539 316.896H31.0078V373.734C31.0078 374.387 31.5343 374.915 32.1867 374.915H116.035C116.687 374.915 117.214 374.387 117.214 373.734V275.363H118.809V373.734C118.809 374.387 119.336 374.915 119.988 374.915H172.668C173.32 374.915 173.846 374.387 173.846 373.734V275.363H175.442V373.734C175.442 374.387 175.968 374.915 176.621 374.915H260.469C261.121 374.915 261.648 374.387 261.648 373.734V316.896H263.102C263.754 316.896 264.281 316.369 264.281 315.715C264.281 315.062 263.754 314.535 263.102 314.535H263.094ZM40.1165 372.554H33.3655V316.896H40.1165V372.554ZM55.9211 372.554H42.4742V316.896H55.9211V372.554ZM65.0297 372.554H58.2788V316.896H65.0297V372.554ZM97.7313 372.554H67.3874V316.896H97.7313V372.554ZM102.753 309.861H105.315L103.838 314.535H101.669L100.191 309.861H102.753ZM105.418 372.554H100.097V316.896H105.418V372.554ZM114.856 372.554H107.775V316.896H114.856V372.554ZM129.341 372.554H121.159V275.363H129.341V372.554ZM147.503 206.241H151.511V233.657H150.662V227.59C150.662 226.936 150.136 226.409 149.483 226.409C148.831 226.409 148.304 226.936 148.304 227.59V233.657H147.503V206.241ZM141.137 206.241H145.145V233.657H144.343V227.59C144.343 226.936 143.817 226.409 143.165 226.409C142.512 226.409 141.986 226.936 141.986 227.59V233.657H141.137V206.241ZM139.384 236.017H153.271V272.994H139.384V236.017ZM131.698 236.017H137.027V272.994H131.698V236.017ZM160.95 372.554H131.698V357.996H160.95V372.554ZM160.95 355.635H131.698V353.164H160.95V355.635ZM160.95 350.804H131.698V275.363H160.95V350.804ZM160.95 273.002H155.629V236.025H160.95V273.002ZM171.489 372.554H163.307V275.363H171.489V372.554ZM184.881 372.554H177.8V316.896H184.881V372.554ZM189.903 309.861H192.465L190.987 314.535H188.818L187.34 309.861H189.903ZM192.567 372.554H187.238V316.896H192.567V372.554ZM225.268 372.554H194.924V316.896H225.268V372.554ZM234.377 372.554H227.626V316.896H234.377V372.554ZM250.182 372.554H236.735V316.896H250.182V372.554ZM259.29 372.554H252.539V316.896H259.29V372.554Z" fill="#045C80"/>
<path d="M263.094 310.797H256.666V284.869C256.666 284.215 256.139 283.688 255.487 283.688C254.834 283.688 254.308 284.215 254.308 284.869V310.797H252.532V289.267C252.532 288.614 252.005 288.087 251.353 288.087H248.799V281.65C248.799 280.997 248.272 280.47 247.62 280.47H247.14L248.744 275.41C248.854 275.048 248.791 274.662 248.571 274.355C248.351 274.049 247.997 273.875 247.62 273.875H239.273C238.896 273.875 238.543 274.056 238.323 274.355C238.102 274.662 238.04 275.048 238.15 275.41L239.753 280.47H239.273C238.621 280.47 238.095 280.997 238.095 281.65V288.087H235.54C234.888 288.087 234.362 288.614 234.362 289.267V310.797H233.246V284.869C233.246 284.215 232.719 283.688 232.067 283.688C231.414 283.688 230.888 284.215 230.888 284.869V310.797H224.459C223.807 310.797 223.28 311.324 223.28 311.978C223.28 312.631 223.807 313.158 224.459 313.158H263.086C263.739 313.158 264.265 312.631 264.265 311.978C264.265 311.324 263.739 310.797 263.086 310.797H263.094ZM243.447 276.236H246.009L244.673 280.47H242.228L240.892 276.236H243.455H243.447ZM240.452 282.831H246.441V287.867H240.452V282.831ZM250.166 310.797H236.719V290.448H250.166V310.797Z" fill="#045C80"/>
<path d="M189.895 305.431C190.547 305.431 191.074 304.903 191.074 304.25V297.727C191.074 297.074 190.547 296.546 189.895 296.546C189.242 296.546 188.716 297.074 188.716 297.727V304.25C188.716 304.903 189.242 305.431 189.895 305.431Z" fill="#045C80"/>
<path d="M189.895 326.567C190.547 326.567 191.074 326.04 191.074 325.387V320.114C191.074 319.461 190.547 318.934 189.895 318.934C189.242 318.934 188.716 319.461 188.716 320.114V325.387C188.716 326.04 189.242 326.567 189.895 326.567Z" fill="#045C80"/>
<path d="M189.895 337.552C190.547 337.552 191.074 337.025 191.074 336.372V331.099C191.074 330.446 190.547 329.919 189.895 329.919C189.242 329.919 188.716 330.446 188.716 331.099V336.372C188.716 337.025 189.242 337.552 189.895 337.552Z" fill="#045C80"/>
<path d="M189.895 348.537C190.547 348.537 191.074 348.01 191.074 347.357V342.085C191.074 341.432 190.547 340.904 189.895 340.904C189.242 340.904 188.716 341.432 188.716 342.085V347.357C188.716 348.01 189.242 348.537 189.895 348.537Z" fill="#045C80"/>
<path d="M189.895 359.53C190.547 359.53 191.074 359.003 191.074 358.35V353.078C191.074 352.425 190.547 351.897 189.895 351.897C189.242 351.897 188.716 352.425 188.716 353.078V358.35C188.716 359.003 189.242 359.53 189.895 359.53Z" fill="#045C80"/>
<path d="M189.895 370.516C190.547 370.516 191.074 369.989 191.074 369.335V364.063C191.074 363.41 190.547 362.883 189.895 362.883C189.242 362.883 188.716 363.41 188.716 364.063V369.335C188.716 369.989 189.242 370.516 189.895 370.516Z" fill="#045C80"/>
<path d="M229.653 320.107V325.379C229.653 326.032 230.18 326.559 230.832 326.559C231.484 326.559 232.011 326.032 232.011 325.379V320.107C232.011 319.453 231.484 318.926 230.832 318.926C230.18 318.926 229.653 319.453 229.653 320.107Z" fill="#045C80"/>
<path d="M230.832 329.919C230.18 329.919 229.653 330.446 229.653 331.099V336.372C229.653 337.025 230.18 337.552 230.832 337.552C231.484 337.552 232.011 337.025 232.011 336.372V331.099C232.011 330.446 231.484 329.919 230.832 329.919Z" fill="#045C80"/>
<path d="M230.832 340.904C230.18 340.904 229.653 341.432 229.653 342.085V347.357C229.653 348.01 230.18 348.537 230.832 348.537C231.484 348.537 232.011 348.01 232.011 347.357V342.085C232.011 341.432 231.484 340.904 230.832 340.904Z" fill="#045C80"/>
<path d="M230.832 351.897C230.18 351.897 229.653 352.425 229.653 353.078V358.35C229.653 359.003 230.18 359.53 230.832 359.53C231.484 359.53 232.011 359.003 232.011 358.35V353.078C232.011 352.425 231.484 351.897 230.832 351.897Z" fill="#045C80"/>
<path d="M230.832 362.883C230.18 362.883 229.653 363.41 229.653 364.063V369.335C229.653 369.989 230.18 370.516 230.832 370.516C231.484 370.516 232.011 369.989 232.011 369.335V364.063C232.011 363.41 231.484 362.883 230.832 362.883Z" fill="#045C80"/>
<path d="M255.856 326.787C256.508 326.787 257.034 326.26 257.034 325.607V320.335C257.034 319.682 256.508 319.154 255.856 319.154C255.203 319.154 254.677 319.682 254.677 320.335V325.607C254.677 326.26 255.203 326.787 255.856 326.787Z" fill="#045C80"/>
<path d="M255.856 337.773C256.508 337.773 257.034 337.245 257.034 336.592V331.32C257.034 330.667 256.508 330.14 255.856 330.14C255.203 330.14 254.677 330.667 254.677 331.32V336.592C254.677 337.245 255.203 337.773 255.856 337.773Z" fill="#045C80"/>
<path d="M255.856 348.766C256.508 348.766 257.034 348.239 257.034 347.585V342.313C257.034 341.66 256.508 341.133 255.856 341.133C255.203 341.133 254.677 341.66 254.677 342.313V347.585C254.677 348.239 255.203 348.766 255.856 348.766Z" fill="#045C80"/>
<path d="M255.856 359.751C256.508 359.751 257.034 359.223 257.034 358.57V353.298C257.034 352.645 256.508 352.118 255.856 352.118C255.203 352.118 254.677 352.645 254.677 353.298V358.57C254.677 359.223 255.203 359.751 255.856 359.751Z" fill="#045C80"/>
<path d="M255.856 370.744C256.508 370.744 257.034 370.217 257.034 369.564V364.291C257.034 363.638 256.508 363.111 255.856 363.111C255.203 363.111 254.677 363.638 254.677 364.291V369.564C254.677 370.217 255.203 370.744 255.856 370.744Z" fill="#045C80"/>
<path d="M219.782 370.964C220.435 370.964 220.961 370.437 220.961 369.784V320.256C220.961 319.603 220.435 319.076 219.782 319.076C219.13 319.076 218.604 319.603 218.604 320.256V369.784C218.604 370.437 219.13 370.964 219.782 370.964Z" fill="#045C80"/>
<path d="M212.977 370.964C213.629 370.964 214.156 370.437 214.156 369.784V320.256C214.156 319.603 213.629 319.076 212.977 319.076C212.324 319.076 211.798 319.603 211.798 320.256V369.784C211.798 370.437 212.324 370.964 212.977 370.964Z" fill="#045C80"/>
<path d="M199.152 370.964C199.805 370.964 200.331 370.437 200.331 369.784V320.256C200.331 319.603 199.805 319.076 199.152 319.076C198.5 319.076 197.974 319.603 197.974 320.256V369.784C197.974 370.437 198.5 370.964 199.152 370.964Z" fill="#045C80"/>
<path d="M205.958 370.964C206.61 370.964 207.137 370.437 207.137 369.784V320.256C207.137 319.603 206.61 319.076 205.958 319.076C205.306 319.076 204.779 319.603 204.779 320.256V369.784C204.779 370.437 205.306 370.964 205.958 370.964Z" fill="#045C80"/>
<path d="M243.455 303.786C246.402 303.786 248.807 301.386 248.807 298.427C248.807 295.468 246.41 293.068 243.455 293.068C240.5 293.068 238.103 295.468 238.103 298.427C238.103 301.386 240.5 303.786 243.455 303.786ZM243.455 295.429C245.105 295.429 246.449 296.775 246.449 298.427C246.449 300.08 245.105 301.425 243.455 301.425C241.804 301.425 240.46 300.08 240.46 298.427C240.46 296.775 241.804 295.429 243.455 295.429Z" fill="#045C80"/>
<path d="M19.0852 366.951C18.4801 367.62 17.647 368.013 16.7432 368.061C16.0123 368.1 14.1655 368.084 12.963 368.069H12.0121C10.8018 368.069 9.81152 367.077 9.81152 365.857C9.81152 364.638 10.7939 363.662 12.0042 363.654C12.3893 363.654 12.7508 363.465 12.9709 363.142C13.1909 362.828 13.2381 362.419 13.1045 362.057C13.0102 361.805 12.963 361.545 12.963 361.285C12.963 360.074 13.9533 359.082 15.1636 359.082C16.1931 359.082 17.0733 359.782 17.3012 360.782C17.3877 361.136 17.6313 361.435 17.9614 361.592C19.1245 362.12 19.8869 363.237 19.9497 364.504C19.9969 365.409 19.6825 366.274 19.0774 366.943L19.0852 366.951Z" fill="#FF4B39"/>
<path d="M217.574 212.678C218.062 212.678 218.557 212.764 219.028 212.945C219.382 213.079 219.775 213.032 220.089 212.827C220.404 212.615 220.6 212.268 220.616 211.891C220.765 208.538 223.5 205.91 226.856 205.91C230.212 205.91 232.79 208.365 233.08 211.607C233.135 212.205 233.623 212.67 234.22 212.685C236.475 212.748 238.252 214.566 238.252 216.832C238.252 219.099 236.389 220.987 234.102 220.987H217.574C215.287 220.987 213.425 219.122 213.425 216.832C213.425 214.543 215.287 212.678 217.574 212.678Z" fill="#D8F6FF"/>
<path d="M282.663 366.652H276.674C275.079 366.652 273.79 365.354 273.79 363.764C273.79 362.655 274.419 361.663 275.425 361.175C275.739 361.018 275.975 360.734 276.053 360.388C276.132 360.042 276.053 359.68 275.849 359.405C275.173 358.508 274.812 357.445 274.812 356.328C274.812 353.511 277.107 351.213 279.92 351.213C282.734 351.213 285.029 353.511 285.029 356.328C285.029 356.863 284.942 357.39 284.777 357.909C284.62 358.382 284.785 358.909 285.178 359.208C286.215 360.003 286.813 361.207 286.813 362.505C286.813 364.795 284.95 366.66 282.663 366.66V366.652Z" fill="#FF4B39"/>
<path d="M49.2007 276.236H51.7628L50.4189 280.47H47.9747L46.6387 276.236H49.2007Z" fill="#D8F6FF"/>
<path d="M52.1956 282.831H46.207V287.867H52.1956V282.831Z" fill="#D8F6FF"/>
<path d="M243.454 276.236H246.016L244.672 280.47H242.228L240.892 276.236H243.454Z" fill="#D8F6FF"/>
<path d="M246.449 282.831H240.46V287.867H246.449V282.831Z" fill="#D8F6FF"/>
<path d="M458.989 104.328H459.131C459.626 104.344 460.074 104.053 460.263 103.588C461.08 101.519 463.06 100.181 465.3 100.181C468.279 100.181 470.707 102.581 470.707 105.595V105.713C470.684 106.146 470.904 106.555 471.273 106.775C471.643 106.996 472.106 106.996 472.476 106.775C473.316 106.28 474.275 106.012 475.242 106.012C478.221 106.012 480.649 108.412 480.649 111.363C480.649 114.314 478.221 116.714 475.242 116.714H458.958C455.508 116.714 452.702 113.936 452.702 110.513C452.702 107.09 455.508 104.32 458.989 104.32V104.328Z" fill="#D8F6FF"/>
<path d="M336.733 360.278L325.731 372.42H320.732L336.733 354.754V360.278Z" fill="#FF4B39"/>
<path d="M336.734 342.061L309.243 372.42H304.236L336.734 336.545V342.061Z" fill="#FF4B39"/>
<path d="M336.733 323.86L301.556 362.702V356.997L336.733 318.147V323.86Z" fill="#FF4B39"/>
<path d="M336.733 305.596L301.556 344.438V338.78L336.733 299.938V305.596Z" fill="#FF4B39"/>
<path d="M336.733 287.387L301.556 326.229V320.571L336.733 281.729V287.387Z" fill="#FF4B39"/>
<path d="M336.733 269.178L301.556 308.02V302.362L336.733 263.52V269.178Z" fill="#FF4B39"/>
<path d="M342.809 295.059V372.428H339.091V250.922C339.091 250.434 338.793 249.993 338.337 249.82C337.881 249.647 337.37 249.765 337.04 250.127L299.505 291.573C299.309 291.794 299.199 292.077 299.199 292.368V372.428H295.481V289.15L342.801 236.899V295.067L342.809 295.059Z" fill="#FF4B39"/>
<path d="M313.698 208.727V200.984L336.733 175.441V183.294L313.698 208.727Z" fill="#FF4B39"/>
<path d="M336.733 195.979V201.504L313.698 226.936V221.412L336.733 195.979Z" fill="#FF4B39"/>
<path d="M336.733 214.188V219.713L313.698 245.145V239.621L336.733 214.188Z" fill="#FF4B39"/>
<path d="M336.733 232.397V240.078L313.698 265.518V257.83L336.733 232.397Z" fill="#FF4B39"/>
<path d="M342.808 233.373L339.091 237.473V172.364C339.091 171.877 338.792 171.436 338.336 171.263C337.88 171.09 337.37 171.208 337.04 171.57L311.647 199.733C311.45 199.953 311.34 200.229 311.34 200.528V268.116L307.623 272.215V197.309L342.8 158.35V233.373H342.808Z" fill="#FF4B39"/>
<path d="M342.808 154.832L332.466 166.282V158.098L342.808 146.68V154.832Z" fill="#FF4B39"/>
<path d="M342.808 131.461L330.414 145.208C330.218 145.428 330.108 145.704 330.108 146.003V168.902L326.391 173.017V142.509L342.8 123.875V131.469L342.808 131.461Z" fill="#FF4B39"/>
<path d="M383.471 298.388H372.075V336.946H383.471V298.388Z" fill="#FFD12E"/>
<path d="M390.544 372.428L387.18 362.694C387.015 362.222 386.567 361.899 386.064 361.899C385.561 361.899 385.114 362.222 384.948 362.694L382.567 369.587L378.913 355.919C378.771 355.399 378.308 355.045 377.773 355.045C377.239 355.045 376.775 355.407 376.634 355.919L372.822 370.162L370.236 362.694C370.071 362.222 369.623 361.899 369.12 361.899C368.617 361.899 368.169 362.222 368.004 362.694L364.641 372.428H362.99L371.792 339.307H383.73L392.532 372.428H390.528H390.544Z" fill="#FFD12E"/>
<path d="M380.461 231.634H374.731V279.502H380.461V231.634Z" fill="#FFD12E"/>
<path d="M382.292 165.699H372.9V182.334H382.292V165.699Z" fill="#FFD12E"/>
<path d="M379.542 188.417H375.651V216.447H379.542V188.417Z" fill="#FFD12E"/>
<path d="M419.717 365.196H410.79C408.29 365.196 406.263 363.166 406.263 360.664C406.263 359.145 407.017 357.736 408.282 356.894C408.66 356.642 408.864 356.194 408.793 355.745C408.746 355.446 408.73 355.195 408.73 354.958C408.73 351.89 411.222 349.395 414.287 349.395C417.352 349.395 419.843 351.89 419.843 354.958C419.843 355.8 419.655 356.619 419.277 357.39C419.112 357.728 419.12 358.13 419.293 358.46C419.466 358.791 419.796 359.019 420.165 359.074C421.666 359.294 422.798 360.601 422.798 362.119C422.798 363.819 421.415 365.204 419.717 365.204V365.196Z" fill="#FF4B39"/>
<path d="M508.643 368.108H504.21C503.204 368.108 502.379 367.29 502.379 366.275C502.379 365.574 502.772 364.945 503.416 364.638C503.731 364.48 503.966 364.197 504.045 363.851C504.124 363.505 504.045 363.143 503.841 362.867C503.377 362.253 503.133 361.537 503.133 360.774C503.133 358.854 504.689 357.296 506.607 357.296C508.525 357.296 510.081 358.854 510.081 360.774C510.081 361.136 510.026 361.498 509.908 361.852C509.751 362.324 509.916 362.851 510.309 363.151C511 363.678 511.393 364.48 511.393 365.346C511.393 366.873 510.152 368.108 508.635 368.108H508.643Z" fill="#FFD12E"/>
<path d="M463.564 252.613C467.116 252.613 470 255.509 470 259.058C470 262.607 467.116 265.503 463.564 265.503C460.011 265.503 457.127 262.615 457.127 259.058C457.127 255.501 460.011 252.613 463.564 252.613Z" fill="#FF4B39"/>
<path d="M451.217 228.439C451.217 227.731 452.199 225.748 453.347 223.844C454.494 225.748 455.476 227.731 455.476 228.439V236.828H451.217V228.439Z" fill="#FF4B39"/>
<path d="M461.434 228.439C461.434 227.731 462.416 225.748 463.563 223.844C464.711 225.748 465.693 227.731 465.693 228.439V236.828H461.434V228.439Z" fill="#FF4B39"/>
<path d="M471.461 228.439C471.461 227.731 472.443 225.748 473.591 223.844C474.738 225.748 475.721 227.731 475.721 228.439V236.828H471.461V228.439Z" fill="#FF4B39"/>
<path d="M461.032 180.328H461.967C462.478 180.328 462.934 179.997 463.091 179.509L463.382 178.62L463.673 179.509C463.83 179.997 464.286 180.328 464.797 180.328H465.732L464.977 180.879C464.561 181.178 464.388 181.713 464.553 182.201L464.844 183.09L464.537 182.869C464.537 182.869 464.522 182.846 464.514 182.838C464.49 182.806 464.467 182.783 464.451 182.751C464.427 182.72 464.404 182.688 464.372 182.657C464.349 182.633 464.317 182.61 464.294 182.586C464.262 182.563 464.231 182.531 464.199 182.507C464.168 182.484 464.129 182.468 464.097 182.452C464.066 182.437 464.034 182.413 464.003 182.405C463.94 182.382 463.877 182.358 463.814 182.342C463.807 182.342 463.799 182.342 463.783 182.334C463.712 182.319 463.641 182.311 463.571 182.311C463.563 182.311 463.555 182.311 463.539 182.311C463.524 182.311 463.508 182.311 463.492 182.311C463.469 182.311 463.453 182.311 463.429 182.311C463.414 182.311 463.398 182.311 463.382 182.311C463.138 182.311 462.895 182.389 462.691 182.539L461.928 183.09L462.219 182.201C462.376 181.713 462.203 181.178 461.795 180.879L461.04 180.328H461.032Z" fill="#FF4B39"/>
<path d="M49.2013 301.425C47.5509 301.425 46.207 300.079 46.207 298.427C46.207 296.774 47.5509 295.429 49.2013 295.429C50.8517 295.429 52.1956 296.774 52.1956 298.427C52.1956 300.079 50.8517 301.425 49.2013 301.425Z" fill="#D8F6FF"/>
<path d="M243.454 301.425C241.804 301.425 240.46 300.079 240.46 298.427C240.46 296.774 241.804 295.429 243.454 295.429C245.105 295.429 246.449 296.774 246.449 298.427C246.449 300.079 245.105 301.425 243.454 301.425Z" fill="#D8F6FF"/>
</g>
<defs>
<clipPath id="clip0_1_3164">
<rect width="525.293" height="374.915" fill="white" transform="translate(0.757812)"/>
</clipPath>
</defs>
</svg>
