<svg width="510" height="137" viewBox="0 0 510 137" fill="none" xmlns="http://www.w3.org/2000/svg">
<mask id="mask0_1_811" style="mask-type:alpha" maskUnits="userSpaceOnUse" x="0" y="0" width="510" height="137">
<rect width="510" height="137" transform="matrix(1 0 0 -1 0 137)" fill="#D9D9D9"/>
</mask>
<g mask="url(#mask0_1_811)">
<g clip-path="url(#clip0_1_811)">
<path d="M62.9962 54.9305L244.865 71.1517C245.962 71.2497 246.981 71.7567 247.721 72.572C248.46 73.3869 248.866 74.4507 248.858 75.5514L248.827 76.6852C248.821 77.7621 248.419 78.799 247.698 79.5983C246.977 80.3977 245.986 80.9038 244.916 81.0198L63.3177 100.725C63.1618 100.731 62.8477 54.9305 62.9962 54.9305Z" fill="#FF4B39"/>
<path d="M247.235 71.5277C247.883 71.9797 248.411 72.5812 248.777 73.2811C249.142 73.9811 249.332 74.7589 249.332 75.5485L249.302 76.6824C249.295 77.8752 248.851 79.024 248.052 79.9098C247.253 80.7956 246.156 81.3566 244.97 81.4855L63.343 101.182C62.7726 101.187 62.7726 101.187 62.6928 94.0021C62.645 89.9597 62.5976 84.5305 62.5528 79.0111C62.5128 73.0904 62.4748 67.0674 62.4673 62.5212C62.4573 54.4266 62.4573 54.4266 62.9702 54.4387L244.839 70.6597C245.702 70.7244 246.531 71.0247 247.235 71.5277ZM63.7557 100.211L244.882 80.5223C245.837 80.4194 246.721 79.9683 247.365 79.2552C248.009 78.5421 248.367 77.6169 248.372 76.6563L248.403 75.5224C248.403 74.5427 248.037 73.5986 247.377 72.8742C246.717 72.1498 245.811 71.6971 244.836 71.605L63.4632 55.4192C63.3222 59.9306 63.6055 95.7039 63.7557 100.211Z" fill="#045C80"/>
<path d="M57.1251 78.1012C57.0392 65.4585 61.0736 54.9365 62.9966 54.9303C64.9195 54.924 69.9798 65.4779 70.0638 78.119C70.1497 90.7617 65.241 100.718 63.318 100.724C61.3951 100.731 57.2173 90.7479 57.1251 78.1012Z" fill="#045C80"/>
<path d="M63.7763 54.7598C65.1477 55.7194 66.6721 58.8774 67.6541 61.6325C69.5163 66.9369 70.4864 72.5115 70.5293 78.1333C70.6377 90.7569 65.8124 101.188 63.3272 101.205C61.4341 101.22 59.6101 95.9349 59.0927 94.3135C57.4868 89.0629 56.6689 83.6042 56.6642 78.114C56.6054 72.5496 57.345 67.005 58.8612 61.65C59.3585 59.9646 61.1215 54.4735 63.003 54.4615C63.2831 54.4814 63.5527 54.5855 63.7763 54.7598ZM63.056 100.172C63.1271 100.226 63.2116 100.261 63.2981 100.272C64.5407 100.263 69.6717 91.4097 69.5771 78.0908C69.5368 72.5778 68.5836 67.109 66.7586 61.9073C65.0966 57.2782 63.4824 55.3747 62.986 55.3737C62.4894 55.373 61.1767 57.0196 59.7517 61.8804C58.2506 67.1446 57.514 72.5983 57.5609 78.0713C57.5692 83.4698 58.3727 88.8363 59.9466 93.9984C61.2397 98.0459 62.4788 99.7446 63.0668 100.156L63.056 100.172Z" fill="#045C80"/>
<path d="M81.3012 56.1504C81.3472 56.1713 81.3879 56.1998 81.4253 56.2372C81.5169 56.3013 88.1455 65.6879 87.636 77.5442C87.1578 88.8793 81.1422 98.9624 81.0797 99.069C81.0461 99.1213 81.0043 99.1681 80.9543 99.2049C80.9022 99.2403 80.8468 99.2676 80.7854 99.2816C80.7242 99.2955 80.6617 99.2981 80.6013 99.2892C80.5388 99.2788 80.4809 99.2577 80.4279 99.2251C80.3749 99.1926 80.3268 99.1487 80.2917 99.0992C80.2545 99.0484 80.228 98.991 80.213 98.9302C80.2001 98.8706 80.1962 98.8069 80.206 98.7453C80.2156 98.6838 80.2383 98.6254 80.272 98.5729C80.3371 98.4799 86.215 88.5893 86.6919 77.5074C87.1849 65.9866 80.7225 56.8778 80.6588 56.7869C80.6208 56.7372 80.5939 56.6805 80.5806 56.6215C80.5653 56.561 80.5632 56.499 80.5729 56.4375C80.5825 56.3761 80.6051 56.3179 80.6385 56.2658C80.6719 56.2137 80.7153 56.169 80.7667 56.1346C80.8482 56.0831 80.9404 56.0552 81.0356 56.0578C81.1309 56.0603 81.2234 56.0926 81.3012 56.1504Z" fill="#045C80"/>
<path d="M94.3471 57.3182C94.4012 57.3448 94.45 57.379 94.4936 57.4207C97.9193 63.3366 99.6196 70.0941 99.4028 76.9274C99.0732 84.1256 97.2813 91.1828 94.1334 97.6656C94.1039 97.7208 94.0618 97.768 94.0132 97.807C93.9648 97.8459 93.9083 97.8746 93.8481 97.8913C93.7878 97.9082 93.7242 97.9125 93.6625 97.9054C93.6008 97.8983 93.5414 97.8792 93.487 97.8487C93.4326 97.8181 93.3831 97.7763 93.3447 97.7272C93.3062 97.6782 93.2784 97.6227 93.2603 97.5618C93.2445 97.5022 93.2398 97.4396 93.2469 97.3775C93.254 97.3153 93.2744 97.2559 93.3039 97.2007C96.3944 90.8563 98.1577 83.9482 98.4865 76.8985C98.6973 70.2644 97.0476 63.7032 93.7264 57.9583C93.6912 57.9046 93.6686 57.846 93.6574 57.784C93.6463 57.7219 93.6481 57.6587 93.6631 57.5982C93.6761 57.5364 93.7017 57.4782 93.7377 57.4267C93.7757 57.3767 93.8215 57.3329 93.875 57.2997C93.9481 57.2602 94.0311 57.2413 94.1138 57.2443C94.1966 57.2474 94.2782 57.2736 94.3471 57.3182Z" fill="#045C80"/>
<path d="M121.249 72.1429C118.463 70.1938 114.627 70.8723 112.679 73.6566C110.731 76.4411 111.408 80.2773 114.193 82.2264C116.977 84.1741 120.815 83.4971 122.763 80.7125C124.711 77.9282 124.032 74.0906 121.249 72.1429Z" fill="#007EA4"/>
<path d="M121.52 71.7551C122.594 72.5069 123.421 73.5599 123.895 74.7801C124.371 76.0017 124.473 77.3367 124.19 78.6164C123.907 79.8961 123.251 81.0632 122.304 81.9697C121.358 82.8763 120.164 83.4822 118.874 83.7105C117.583 83.9388 116.253 83.7781 115.052 83.2502C113.854 82.7237 112.837 81.8515 112.133 80.7472C111.428 79.6416 111.066 78.352 111.095 77.0418C111.123 75.7318 111.538 74.4586 112.29 73.3847C113.297 71.9447 114.838 70.9652 116.567 70.6589C118.297 70.3524 120.079 70.7471 121.52 71.7551ZM114.464 81.8386C115.384 82.4821 116.474 82.8384 117.599 82.8638C118.722 82.8878 119.827 82.5781 120.774 81.9739C121.721 81.3699 122.467 80.4982 122.92 79.4701C123.372 78.442 123.509 77.3025 123.313 76.196C123.118 75.0895 122.6 74.0669 121.822 73.2551C121.044 72.4435 120.044 71.8807 118.949 71.6393C117.852 71.3964 116.706 71.4832 115.66 71.8912C114.613 72.2991 113.711 73.0082 113.067 73.9286C112.204 75.1628 111.866 76.6897 112.128 78.1732C112.388 79.6555 113.229 80.9744 114.464 81.8386Z" fill="#045C80"/>
<path d="M139.067 73.4262C136.904 71.9128 133.923 72.4393 132.409 74.6026C130.895 76.7659 131.422 79.7469 133.585 81.2603C135.75 82.7752 138.729 82.2472 140.243 80.0839C141.756 77.9206 141.232 74.941 139.067 73.4262Z" fill="#007EA4"/>
<path d="M139.338 73.0384C140.194 73.6347 140.852 74.4701 141.231 75.4399C141.61 76.4098 141.693 77.47 141.469 78.4873C141.246 79.5043 140.726 80.433 139.974 81.1533C139.223 81.8751 138.274 82.3566 137.249 82.5391C136.224 82.7216 135.167 82.5948 134.214 82.1767C133.261 81.7586 132.452 81.0656 131.892 80.1885C131.331 79.3099 131.044 78.286 131.067 77.2448C131.089 76.2038 131.418 75.1918 132.015 74.3384C132.816 73.1979 134.038 72.4224 135.409 72.178C136.78 71.9338 138.194 72.2438 139.338 73.0384ZM133.851 80.8802C134.55 81.3714 135.38 81.6449 136.234 81.664C137.089 81.6846 137.929 81.4499 138.65 80.9912C139.371 80.5325 139.941 79.8706 140.285 79.0883C140.629 78.3061 140.733 77.4388 140.585 76.5976C140.437 75.7566 140.042 74.9783 139.45 74.3608C138.859 73.7449 138.098 73.3172 137.262 73.1332C136.427 72.949 135.558 73.0178 134.762 73.3286C133.965 73.6396 133.28 74.1807 132.792 74.8823C132.14 75.8191 131.885 76.9761 132.084 78.1003C132.282 79.2243 132.917 80.2233 133.851 80.8802Z" fill="#045C80"/>
<path d="M242.246 70.7171L242.354 70.7932C243.336 72.3176 243.807 74.116 243.696 75.9262C243.586 77.9645 242.93 79.9356 241.795 81.6322C241.723 81.7352 241.613 81.8051 241.489 81.827C241.366 81.8488 241.239 81.8207 241.136 81.7487C241.033 81.6768 240.963 81.5668 240.941 81.4433C240.919 81.3195 240.947 81.1924 241.019 81.0895C242.04 79.5493 242.637 77.7676 242.751 75.9232C242.841 74.3309 242.445 72.7486 241.616 71.3858C241.54 71.2872 241.506 71.1627 241.521 71.0393C241.536 70.9156 241.599 70.8032 241.697 70.7258C241.775 70.666 241.871 70.633 241.97 70.6314C242.068 70.6298 242.165 70.66 242.246 70.7171Z" fill="#045C80"/>
<path d="M258.095 79.242L285.154 74.8014L287.486 74.4233C287.486 74.4233 292.072 73.4499 296.232 81.4093C298.313 85.4193 296.91 89.6711 294.988 92.9131C293.797 94.9085 292.352 96.7404 290.689 98.3631C291.418 100.088 291.549 102.009 291.058 103.817C290.568 105.625 289.486 107.216 287.985 108.337C282.635 112.681 276.681 105.453 276.681 105.453L273.29 105.842C273.29 105.842 271.901 113.524 264.619 109.977C257.338 106.431 260.927 102.044 260.927 102.044C260.927 102.044 252.395 96.0741 252.197 88.6453C251.999 81.2162 258.095 79.242 258.095 79.242Z" fill="#007EA4"/>
<path d="M291.91 75.3001C293.95 76.8625 295.585 78.8904 296.681 81.2141C298.468 84.6371 298.036 88.7716 295.429 93.1749C294.273 95.1151 292.878 96.9029 291.278 98.4967C291.958 100.293 292.037 102.262 291.502 104.107C290.967 105.952 289.848 107.573 288.313 108.728C283.185 112.869 277.563 107.133 276.515 105.972L273.7 106.313C273.463 107.245 272.634 109.784 270.405 110.94C268.763 111.767 266.752 111.619 264.432 110.493C261.704 109.173 260.12 107.557 259.703 105.693C259.459 104.508 259.674 103.275 260.303 102.242C258.609 100.965 251.906 95.5007 251.746 88.7449C251.606 86.6573 252.124 84.5784 253.228 82.8012C254.333 81.0242 255.968 79.6388 257.902 78.8408L257.987 78.8191L287.425 73.9988C289.034 73.8211 290.647 74.2891 291.91 75.3001ZM279.779 107.632C281.881 109.103 284.872 110.26 287.721 107.99C289.148 106.942 290.178 105.442 290.646 103.734C291.113 102.026 290.989 100.211 290.294 98.5822C290.251 98.4912 290.238 98.389 290.257 98.2903C290.276 98.1916 290.327 98.1015 290.4 98.0332C292.031 96.4284 293.448 94.6197 294.616 92.6523C297.074 88.4794 297.486 84.77 295.839 81.6076C291.924 74.1081 287.658 74.855 287.619 74.8618L258.188 79.6877C257.663 79.8755 252.551 81.9138 252.709 88.6563C252.897 95.72 261.152 101.623 261.23 101.678C261.283 101.715 261.329 101.764 261.363 101.82C261.398 101.875 261.42 101.938 261.43 102.003C261.437 102.068 261.432 102.133 261.414 102.196C261.396 102.259 261.365 102.317 261.324 102.368C261.005 102.807 260.779 103.306 260.661 103.836C260.543 104.365 260.535 104.913 260.638 105.446C260.994 107.001 262.402 108.391 264.865 109.56C266.91 110.551 268.668 110.73 270.003 110.011C272.255 108.873 272.837 105.779 272.846 105.75C272.865 105.65 272.916 105.558 272.99 105.488C273.064 105.418 273.158 105.372 273.259 105.358L276.637 104.972C276.717 104.96 276.798 104.969 276.872 104.999C276.947 105.029 277.012 105.078 277.061 105.141C277.862 106.08 278.774 106.916 279.779 107.632Z" fill="#045C80"/>
<path d="M258.095 79.2421C258.095 79.2421 252.473 83.9742 256.83 88.2822C261.188 92.5903 262.544 92.4186 262.544 92.4186L264.994 79.009L258.095 79.2421Z" fill="#045C80"/>
<path d="M281.317 78.0556L285.154 74.8014L287.487 74.4233C287.487 74.4233 292.073 73.4499 296.232 81.4092C298.314 85.4192 296.91 89.671 294.988 92.9131C294.988 92.9131 296.772 84.8487 291.674 81.8476C286.576 78.8465 284.268 81.0215 284.268 81.0215L281.317 78.0556Z" fill="#045C80"/>
<path d="M261.98 70.4873C263.227 69.1181 261.645 64.7071 267.632 63.9281C272.413 63.3216 273.073 67.2495 276.021 67.6598C276.973 67.7448 277.931 67.5731 278.795 67.163C280.534 66.2663 281.996 64.9129 283.025 63.248C286.352 58.4933 288.498 51.4795 288.498 51.4795C291.393 53.5597 294.075 55.9234 296.501 58.5356C299.992 62.4459 299.613 69.3786 299.613 69.3786C299.613 69.3786 282.135 77.6803 283.034 78.5751C283.707 79.4922 284.191 80.5335 284.459 81.6392C284.727 82.7447 284.772 83.8924 284.593 85.0157C284.026 87.3454 280.841 91.6336 276.143 89.7102C275.453 89.4819 274.817 89.1142 274.276 88.6299C273.733 88.1454 273.297 87.5547 272.993 86.8945C272.689 86.234 272.523 85.5184 272.508 84.7916C272.492 84.0647 272.626 83.3424 272.901 82.6697C273.25 81.7583 271.009 81.3455 267.009 82.8338C263.01 84.3219 262.629 91.5541 262.603 91.9054C262.394 91.4936 255.834 78.0647 257.152 75.0585C258.47 72.0523 260.739 71.8485 261.98 70.4873Z" fill="url(#paint0_linear_1_811)"/>
<path d="M288.777 51.0969C291.7 53.2037 294.41 55.5912 296.868 58.2255C300.438 62.2376 300.105 69.1216 300.095 69.4155C300.087 69.4995 300.058 69.5802 300.009 69.6496C299.961 69.7187 299.895 69.7744 299.819 69.811C292.505 73.2782 284.687 77.3514 283.556 78.4894C284.885 80.4364 285.417 82.8187 285.044 85.1464C284.749 86.1802 284.251 87.1449 283.579 87.9839C282.906 88.8227 282.074 89.5191 281.129 90.0321C280.329 90.4343 279.45 90.6547 278.555 90.6778C277.66 90.7007 276.772 90.5255 275.952 90.1651C275.208 89.9106 274.523 89.5068 273.939 88.9787C273.355 88.4507 272.886 87.8092 272.558 87.0937C272.231 86.378 272.053 85.6033 272.035 84.8163C272.017 84.0295 272.159 83.2473 272.453 82.5173C272.297 82.3275 270.655 81.9988 267.188 83.3048C263.721 84.6107 263.141 91.2184 263.079 91.984C263.071 92.0869 263.03 92.1842 262.961 92.2614C262.892 92.3386 262.8 92.3913 262.699 92.4113C262.597 92.4346 262.491 92.4227 262.396 92.3776C262.302 92.3328 262.226 92.2573 262.18 92.1632C262.115 92.0253 255.277 78.2172 256.719 74.917C257.411 73.3305 258.63 72.032 260.169 71.2416C260.697 70.9563 261.182 70.6006 261.614 70.1845C261.907 69.7038 262.081 69.1603 262.122 68.5989C262.462 66.792 262.981 64.0697 267.551 63.4663C270.617 63.0811 272.128 64.4388 273.453 65.632C274.14 66.412 275.052 66.9609 276.063 67.2035L276.109 67.236C276.962 67.2951 277.816 67.1326 278.588 66.7641C280.245 65.9038 281.636 64.6075 282.61 63.0152C285.866 58.3612 287.997 51.4521 288.019 51.3871C288.039 51.3146 288.077 51.2483 288.129 51.1938C288.181 51.1397 288.246 51.0992 288.318 51.076C288.389 51.0392 288.469 51.0219 288.55 51.0255C288.63 51.0293 288.709 51.0538 288.777 51.0969ZM299.16 69.0844C299.179 67.769 299.104 62.1131 296.141 58.8844C293.887 56.4528 291.409 54.2392 288.74 52.2727C287.463 56.2518 285.667 60.0457 283.399 63.5554C282.324 65.2998 280.788 66.7123 278.96 67.6364C278.019 68.0799 276.977 68.264 275.941 68.1699L275.887 68.1319C274.705 67.8626 273.634 67.2384 272.817 66.3426C271.595 65.233 270.324 64.0776 267.685 64.4147C263.784 64.9204 263.399 66.9733 263.058 68.7806C263.004 69.5145 262.75 70.2198 262.324 70.8202C261.836 71.3046 261.282 71.7182 260.679 72.0491C259.302 72.7314 258.211 73.8806 257.601 75.2913C256.701 77.3539 260.264 85.9011 262.332 90.2943C262.729 87.8109 263.825 83.5863 266.858 82.4385C269.891 81.2909 272.322 81.0856 273.137 81.8868C273.259 82.0155 273.343 82.176 273.379 82.35C273.414 82.524 273.4 82.7045 273.338 82.871C273.079 83.4855 272.952 84.1473 272.963 84.8139C272.975 85.4809 273.126 86.1377 273.407 86.7428C273.687 87.3478 274.09 87.8877 274.591 88.328C275.092 88.768 275.68 89.0986 276.316 89.2988C277.006 89.6137 277.759 89.7682 278.517 89.7506C279.276 89.7332 280.021 89.5442 280.696 89.1979C282.36 88.2872 283.595 86.7539 284.13 84.934C284.447 82.8231 283.931 80.6714 282.69 78.9347C282.623 78.867 282.574 78.7836 282.547 78.6922C282.52 78.6009 282.516 78.5043 282.536 78.4112C282.774 77.0641 292.927 72.048 299.16 69.0844Z" fill="#045C80"/>
<path d="M290.361 98.7337C290.361 98.7337 289.342 95.5829 286.488 95.2034C275.122 93.663 276.697 105.464 276.697 105.464C276.697 105.464 272.897 93.3083 284.969 92.5351C289.99 92.2122 291.883 97.1527 291.883 97.1527L290.361 98.7337Z" fill="#045C80"/>
<path d="M261.324 101.709C263.127 103.268 265.275 104.375 267.591 104.939C269.613 105.399 271.697 105.518 273.758 105.29L272.949 106.215C272.949 106.215 269.159 106.81 266.537 105.9C264.461 105.036 262.538 103.842 260.842 102.365L261.324 101.709Z" fill="#045C80"/>
<path d="M281.877 85.7262L281.993 85.8077C282.068 85.9083 282.102 86.0344 282.086 86.159C282.07 86.2838 282.006 86.3971 281.907 86.4755C281.782 86.5726 278.853 88.8096 276.332 87.0457L276.231 86.9751C275.635 86.6142 275.179 86.0629 274.935 85.4102C274.691 84.7576 274.675 84.0417 274.889 83.3786C274.912 83.3205 274.947 83.2679 274.991 83.2234C275.035 83.179 275.087 83.1438 275.145 83.1196C275.202 83.0957 275.264 83.0832 275.327 83.083C275.389 83.0831 275.451 83.0955 275.509 83.1193C275.625 83.1698 275.717 83.2639 275.765 83.3814C275.812 83.4989 275.811 83.6305 275.763 83.7475C275.631 84.2154 275.661 84.714 275.849 85.1624C276.037 85.6107 276.371 85.9821 276.797 86.2158L276.875 86.2701C278.829 87.6377 281.296 85.7474 281.32 85.7294C281.401 85.6715 281.498 85.6401 281.598 85.6396C281.697 85.639 281.795 85.6693 281.877 85.7262Z" fill="#045C80"/>
<path d="M279.626 82.2565C279.693 82.3034 279.749 82.3658 279.787 82.4388C280.016 82.9729 280.145 83.5446 280.166 84.1255C280.185 85.0738 279.238 85.1051 278.678 85.1293C278.27 85.1118 277.863 85.1861 277.486 85.3467C277.393 85.397 277.416 85.4476 277.4 85.4708C277.489 85.9263 277.72 86.3421 278.058 86.6596C278.147 86.7512 278.197 86.8744 278.195 87.002C278.193 87.1298 278.141 87.2516 278.049 87.3409C277.958 87.43 277.835 87.4792 277.707 87.4777C277.579 87.476 277.457 87.4237 277.368 87.3321C277.186 87.1468 276.333 86.203 276.446 85.3469C276.473 85.185 276.535 85.0313 276.629 84.897C276.723 84.7628 276.846 84.6513 276.989 84.5713C277.492 84.3243 278.047 84.2051 278.607 84.2242C278.814 84.2318 279.02 84.2091 279.22 84.1566C279.193 83.7321 279.094 83.3152 278.928 82.9235C278.874 82.8105 278.867 82.6807 278.908 82.5625C278.95 82.4444 279.036 82.3474 279.149 82.293C279.218 82.2443 279.298 82.2152 279.382 82.2087C279.466 82.2023 279.55 82.219 279.626 82.2565Z" fill="#045C80"/>
<path d="M267.068 70.1654C267.429 70.4209 267.744 70.735 268.001 71.095C268.954 72.3745 268.689 75.3782 268.653 75.711C268.635 75.8306 268.571 75.9387 268.476 76.013C268.38 76.0873 268.26 76.1219 268.139 76.1103C268.019 76.0985 267.907 76.0408 267.828 75.9495C267.749 75.8583 267.707 75.7399 267.712 75.619C267.786 74.8039 267.862 72.4996 267.242 71.6506C266.929 71.1635 266.455 70.8009 265.903 70.6254C265.351 70.4501 264.755 70.4727 264.217 70.6894C264.16 70.7206 264.096 70.7393 264.031 70.7448C263.966 70.7501 263.9 70.7419 263.838 70.7205C263.776 70.6992 263.719 70.6652 263.671 70.6206C263.623 70.5763 263.585 70.5223 263.559 70.4624C263.532 70.4022 263.519 70.3374 263.519 70.2717C263.519 70.2063 263.533 70.1414 263.559 70.0817C263.586 70.0217 263.625 69.968 263.673 69.9238C263.722 69.8795 263.778 69.8458 263.84 69.8248C264.364 69.6061 264.934 69.5227 265.498 69.5823C266.062 69.6417 266.602 69.8423 267.068 70.1654Z" fill="#045C80"/>
<path d="M269.111 105.656C269.206 105.725 269.272 105.827 269.296 105.942C269.32 106.057 269.301 106.177 269.241 106.278C268.76 107.098 267.29 108.622 265.443 108.058C263.192 107.361 262.98 104.197 262.991 104.031C262.984 103.906 263.028 103.782 263.112 103.688C263.196 103.594 263.314 103.538 263.44 103.531C263.566 103.524 263.689 103.567 263.783 103.651C263.877 103.735 263.933 103.853 263.941 103.979C263.941 103.979 264.128 106.618 265.745 107.114C267.362 107.61 268.441 105.788 268.457 105.765C268.488 105.711 268.53 105.664 268.579 105.627C268.629 105.59 268.685 105.563 268.745 105.548C268.805 105.533 268.868 105.53 268.929 105.539C268.99 105.549 269.049 105.571 269.101 105.603L269.111 105.656Z" fill="#045C80"/>
<path d="M290.992 97.3376C291.094 97.4095 291.165 97.5192 291.186 97.643C291.208 97.7665 291.18 97.8938 291.108 97.9967C291.036 98.0995 290.926 98.1696 290.803 98.1914C290.679 98.2132 290.552 98.1851 290.449 98.1132C290.449 98.1132 286.943 96.1221 284.758 96.3382C284.219 96.4342 283.711 96.6584 283.277 96.9919C282.842 97.3253 282.494 97.7583 282.262 98.2543C281.969 98.7925 281.819 99.3971 281.827 100.01C281.836 100.623 282.002 101.223 282.309 101.753C282.442 102.03 282.633 102.274 282.87 102.469C283.106 102.665 283.382 102.806 283.679 102.885C284.413 102.951 285.146 102.745 285.737 102.304C285.787 102.265 285.843 102.237 285.904 102.22C285.964 102.204 286.027 102.199 286.089 102.207C286.152 102.215 286.211 102.235 286.266 102.267C286.32 102.298 286.367 102.34 286.405 102.39C286.444 102.439 286.472 102.495 286.488 102.555C286.504 102.616 286.508 102.679 286.499 102.741C286.491 102.802 286.469 102.862 286.437 102.915C286.405 102.969 286.362 103.015 286.312 103.052C285.501 103.66 284.484 103.928 283.479 103.797C283.047 103.699 282.643 103.507 282.295 103.233C281.946 102.959 281.663 102.612 281.467 102.215C281.08 101.552 280.869 100.802 280.854 100.035C280.839 99.2683 281.019 98.5102 281.379 97.8326C281.682 97.1945 282.136 96.6407 282.703 96.2193C283.27 95.7982 283.931 95.5223 284.629 95.4161C287.12 95.1596 290.726 97.2211 290.877 97.3033L290.992 97.3376Z" fill="#045C80"/>
<path d="M263.713 80.0302C263.186 79.6616 262.46 79.7899 262.091 80.3167C261.723 80.8437 261.851 81.5698 262.378 81.9384C262.905 82.3071 263.631 82.1789 264 81.6519C264.368 81.1251 264.24 80.3989 263.713 80.0302Z" fill="#045C80"/>
<path opacity="0.45" d="M275.927 68.1723C276.958 68.2511 277.991 68.073 278.936 67.6543C280.733 66.7554 282.257 65.3925 283.35 63.7068L280.643 74.8916C280.495 73.3964 279.906 71.979 278.951 70.8193C278.142 69.7325 277.112 68.83 275.927 68.1723Z" fill="#FF4B39"/>
<path d="M217.063 30.0231L236.121 39.7416C236.158 47.0526 235.192 54.3346 233.249 61.3829C232.031 65.5337 229.757 71.8224 227.435 74.6459C222.986 80.0134 217.971 79.7166 217.629 79.7432C218.558 80.0365 219.466 80.3939 220.347 80.8128C221.697 81.459 222.83 82.4847 223.608 83.7647L229.3 83.1261C228.986 84.1907 228.584 85.2279 228.101 86.2269C225.62 91.4236 222.146 93.6144 217.701 93.543C216.698 93.5323 215.711 93.2941 214.813 92.8462C213.916 92.3983 213.132 91.7527 212.52 90.9576C211.643 92.1076 210.426 92.952 209.042 93.371C207.658 93.7901 206.177 93.7625 204.809 93.2921C199.787 91.7186 200.08 87.3367 200.08 87.3367L194.356 87.9538L196.298 83.0154C198.087 82.5533 199.828 81.9226 201.498 81.1313C202.429 80.396 203.592 79.1301 206.175 79.401C208.102 79.7624 209.931 80.5227 211.546 81.6335L213.673 79.7826C213.673 79.7826 207.332 77.7147 210.072 73.3694C211.824 70.7118 214.338 68.6449 217.284 67.4391L203.455 64.6956L217.063 30.0231Z" fill="url(#paint1_linear_1_811)"/>
<path d="M236.392 39.3536C236.453 39.3964 236.502 39.4534 236.537 39.5196C236.571 39.5856 236.588 39.6592 236.588 39.7337C236.623 47.0914 235.651 54.4194 233.7 61.5138C232.323 66.2232 230.039 72.228 227.761 74.9552C225.754 77.5576 222.881 79.3552 219.663 80.0226L220.487 80.38C221.84 81.0102 222.987 82.0092 223.797 83.2621L229.189 82.6901C229.266 82.6827 229.344 82.6936 229.417 82.7222C229.489 82.7508 229.554 82.7961 229.605 82.8546C229.656 82.9141 229.691 82.9853 229.708 83.0614C229.725 83.1379 229.723 83.2171 229.703 83.2927C229.376 84.3804 228.966 85.4415 228.476 86.4664C225.995 91.663 222.418 94.1168 217.634 94.0509C216.658 94.0389 215.695 93.8258 214.804 93.4252C213.914 93.0248 213.115 92.4454 212.458 91.7231C211.495 92.7958 210.238 93.5617 208.844 93.9253C207.449 94.289 205.978 94.2343 204.615 93.768C203.263 93.4463 202.047 92.7079 201.138 91.6572C200.229 90.6066 199.673 89.2966 199.549 87.913L194.35 88.4576C194.269 88.4682 194.186 88.4572 194.111 88.4258C194.036 88.3942 193.97 88.3436 193.92 88.2783C193.871 88.2132 193.839 88.1362 193.83 88.0551C193.819 87.9739 193.831 87.8917 193.863 87.8165L195.797 82.8727C195.823 82.8055 195.864 82.7452 195.916 82.6961C195.969 82.6467 196.031 82.6098 196.1 82.588C200.14 81.3712 200.98 80.9306 201.146 80.7923L201.449 80.5418C202.068 79.941 202.816 79.4873 203.635 79.2144C204.454 78.9415 205.324 78.8561 206.18 78.965C208.071 79.2944 209.873 80.0157 211.469 81.0828L212.736 79.9819C211.651 79.5007 209.714 78.4223 209.086 76.6773C208.895 76.0893 208.846 75.4642 208.944 74.8536C209.041 74.2431 209.283 73.6645 209.648 73.1654C211.175 70.8448 213.27 68.9536 215.734 67.6721L203.325 65.2283C203.256 65.2144 203.191 65.1864 203.134 65.1463C203.076 65.1061 203.028 65.0546 202.991 64.995C202.959 64.934 202.941 64.8672 202.937 64.7989C202.933 64.7304 202.944 64.662 202.969 64.5979L216.585 29.8966C216.611 29.8354 216.649 29.7803 216.697 29.7344C216.745 29.6887 216.802 29.6532 216.864 29.6297C216.925 29.6048 216.99 29.5935 217.055 29.5974C217.121 29.6011 217.185 29.6196 217.242 29.6514L236.3 39.3699L236.392 39.3536ZM217.322 80.1641C217.242 80.1091 217.181 80.031 217.147 79.9402C217.113 79.849 217.107 79.7498 217.131 79.6558C217.156 79.5615 217.208 79.4773 217.282 79.4141C217.356 79.3508 217.447 79.3118 217.544 79.3026L217.694 79.3032C219.674 79.2796 223.508 78.6227 227.02 74.379C229.201 71.7572 231.416 65.9008 232.781 61.275C234.676 54.3623 235.635 47.2266 235.633 40.0587L217.297 30.6952L204.11 64.403L217.387 67.0264C217.489 67.0448 217.582 67.0958 217.652 67.1717C217.721 67.2478 217.765 67.3447 217.774 67.4474C217.777 67.5514 217.747 67.6536 217.687 67.7389C217.628 67.8241 217.542 67.8879 217.443 67.9207C214.598 69.088 212.17 71.0851 210.475 73.6516C210.19 74.0302 209.998 74.4712 209.916 74.9382C209.834 75.4054 209.865 75.8853 210.005 76.3382C210.709 78.3211 213.779 79.349 213.808 79.3575C213.888 79.3831 213.96 79.4301 214.015 79.4935C214.071 79.5567 214.108 79.6338 214.123 79.7165C214.141 79.7981 214.137 79.8829 214.11 79.962C214.083 80.0411 214.035 80.1113 213.971 80.1649L211.844 82.0157C211.764 82.0833 211.665 82.1231 211.561 82.1293C211.456 82.1354 211.353 82.1075 211.266 82.0498C209.71 80.9816 207.951 80.2464 206.099 79.8904C205.37 79.7939 204.628 79.8668 203.932 80.1028C203.236 80.3389 202.604 80.7323 202.084 81.2521L201.763 81.5127C201.584 81.6531 201.065 82.0643 196.62 83.4139L195.056 87.4152L200.02 86.9255C200.088 86.9192 200.156 86.9277 200.22 86.9503C200.284 86.9732 200.342 87.0097 200.39 87.0573C200.442 87.1032 200.482 87.1605 200.507 87.2243C200.532 87.2883 200.543 87.3573 200.537 87.4258C200.525 87.5911 200.359 91.4609 204.944 92.9011C206.215 93.3381 207.592 93.3656 208.88 92.9794C210.167 92.5935 211.301 91.8135 212.123 90.7491C212.166 90.6868 212.224 90.6359 212.292 90.6008C212.359 90.5658 212.434 90.5474 212.51 90.5471C212.586 90.5473 212.661 90.5654 212.728 90.6002C212.796 90.6354 212.854 90.6859 212.898 90.7481C213.464 91.4846 214.19 92.0822 215.022 92.4959C215.853 92.9096 216.768 93.1285 217.697 93.1358C222.139 93.1939 225.299 90.9567 227.668 86.0858C228.031 85.3227 228.351 84.5398 228.627 83.7411L223.63 84.2772C223.537 84.2869 223.443 84.2688 223.361 84.2254C223.278 84.1819 223.21 84.1149 223.165 84.033C222.438 82.8453 221.385 81.8915 220.131 81.2859C219.269 80.8919 218.388 80.5416 217.491 80.2363C217.43 80.2261 217.372 80.2013 217.322 80.1641Z" fill="#045C80"/>
<path opacity="0.45" d="M236.122 39.7416L235.355 46.7153C235.355 46.7153 235.506 43.8747 234.671 43.7639C234.053 43.6894 233.045 44.8329 232.046 44.3769C230.294 43.5786 228.6 35.911 228.6 35.911L236.122 39.7416Z" fill="#FF4B39"/>
<path d="M211.811 81.2531C211.907 81.3196 211.974 81.4199 212 81.534C212.025 81.648 212.006 81.7674 211.947 81.868C211.153 83.3947 210.706 85.0776 210.636 86.7968C210.628 87.5489 210.814 88.2905 211.178 88.9494C211.54 89.6082 212.067 90.1619 212.707 90.557C212.816 90.62 212.896 90.7231 212.93 90.844C212.964 90.9648 212.95 91.0941 212.89 91.2047C212.86 91.2593 212.819 91.3077 212.77 91.3465C212.721 91.3851 212.664 91.414 212.604 91.431C212.544 91.4479 212.481 91.4526 212.419 91.4452C212.357 91.4376 212.297 91.4179 212.242 91.387C211.452 90.9082 210.801 90.2316 210.353 89.4235C209.905 88.6156 209.676 87.7045 209.688 86.7808C209.757 84.9025 210.253 83.0641 211.138 81.4059C211.168 81.3517 211.209 81.3041 211.258 81.2657C211.307 81.2275 211.363 81.1992 211.422 81.1831C211.482 81.1668 211.545 81.1626 211.606 81.1709C211.668 81.1793 211.727 81.1997 211.78 81.2315L211.811 81.2531Z" fill="#045C80"/>
<path d="M201.741 80.7348C201.831 80.7949 201.897 80.8847 201.927 80.9886C201.958 81.0923 201.952 81.2038 201.909 81.3032C201.463 82.4321 201.083 83.5866 200.773 84.76C200.615 85.6108 200.534 86.4737 200.528 87.3386C200.526 87.4645 200.474 87.5841 200.384 87.6715C200.293 87.7589 200.172 87.8067 200.046 87.8046C199.921 87.8024 199.801 87.7505 199.714 87.6601C199.626 87.5698 199.578 87.4483 199.58 87.3225C199.586 86.3824 199.677 85.4447 199.854 84.5214C200.186 83.3006 200.586 82.0996 201.053 80.9242C201.077 80.8661 201.112 80.8135 201.156 80.769C201.2 80.7247 201.252 80.6894 201.31 80.6653C201.367 80.641 201.429 80.6288 201.492 80.6286C201.554 80.6287 201.616 80.6409 201.674 80.6649L201.741 80.7348Z" fill="#045C80"/>
<path d="M223.956 37.792C223.956 37.792 215.349 57.408 215.47 59.8268C215.592 62.2457 213.513 68.024 213.513 68.024L209.573 67.578C209.573 67.578 191.282 104.37 181.787 99.4125C175.863 96.3192 186.355 79.674 186.355 79.674C186.355 79.674 171.816 101.46 165.1 97.4189C157.777 93.0227 169.924 74.012 169.924 74.012C169.924 74.012 159.38 88.8643 153.038 83.2828C146.696 77.7013 157.743 62.9008 160.099 59.3386C162.453 55.7748 188.76 20.0281 188.76 20.0281L214.48 28.25L223.956 37.792Z" fill="url(#paint2_linear_1_811)"/>
<path d="M214.75 27.9305L214.82 27.9794L224.289 37.4478C224.359 37.5154 224.406 37.6031 224.424 37.6981C224.442 37.7935 224.43 37.8921 224.39 37.9806C220.955 45.8135 215.88 58.1029 215.972 59.8198C216.123 62.3287 214.068 67.9736 213.982 68.2132C213.946 68.3118 213.878 68.3957 213.79 68.4508C213.7 68.5059 213.595 68.5295 213.491 68.5173L209.857 68.1466C208.23 71.3638 195.057 96.9936 185.53 100.091C184.892 100.334 184.211 100.441 183.529 100.406C182.847 100.371 182.18 100.194 181.571 99.8859C181.12 99.6429 180.724 99.3073 180.411 98.9011C180.098 98.4949 179.875 98.0273 179.755 97.5287C178.937 94.5188 180.711 89.6714 182.575 85.7529C177.665 92.011 169.626 100.759 164.887 97.9052C164.283 97.5378 163.761 97.0495 163.355 96.4708C162.948 95.8922 162.666 95.236 162.526 94.5435C161.485 90.1181 164.437 83.2403 166.826 78.6385C164.22 81.4364 160.538 84.6369 157.068 85.0516C156.297 85.1571 155.514 85.0942 154.769 84.8641C154.025 84.6353 153.342 84.2477 152.764 83.7268C146.638 78.3428 155.601 65.2384 158.955 60.3288C159.264 59.8866 159.53 59.5066 159.736 59.2119C162.052 55.7025 187.324 21.3346 188.413 19.8782C188.47 19.7972 188.553 19.7386 188.647 19.7082C188.741 19.6781 188.841 19.6785 188.936 19.7121L214.663 27.9391L214.75 27.9305ZM223.384 37.9L214.233 28.7355L188.938 20.6493C186.489 23.9847 162.696 56.3377 160.483 59.6651C160.277 59.9599 160.011 60.34 159.696 60.7898C156.455 65.535 147.838 78.131 153.356 82.9279C153.832 83.365 154.398 83.6909 155.016 83.883C155.633 84.0751 156.284 84.1277 156.923 84.0375C162.651 83.3662 169.47 73.8332 169.543 73.7459C169.616 73.6464 169.724 73.5785 169.846 73.5563C169.966 73.5325 170.091 73.5571 170.195 73.6244C170.248 73.6579 170.293 73.7015 170.327 73.7519C170.362 73.8024 170.388 73.8607 170.4 73.921C170.412 73.9812 170.412 74.0428 170.4 74.1035C170.388 74.1639 170.365 74.2223 170.33 74.2729C170.237 74.4048 161.861 87.6314 163.417 94.2427C163.524 94.8134 163.751 95.355 164.083 95.8318C164.414 96.3086 164.843 96.71 165.34 97.0095C170.528 100.131 181.983 85.3613 185.954 79.4052C186.023 79.3022 186.129 79.2304 186.251 79.2051C186.372 79.1799 186.499 79.2032 186.603 79.2702C186.657 79.3013 186.703 79.3435 186.74 79.3936C186.777 79.4436 186.803 79.5008 186.817 79.5615C186.831 79.622 186.833 79.6848 186.821 79.7459C186.81 79.8071 186.786 79.8653 186.751 79.917C186.67 80.0332 179.238 91.9914 180.634 97.1966C180.719 97.5781 180.887 97.9362 181.125 98.2464C181.363 98.5565 181.665 98.8112 182.012 98.9923C182.51 99.2384 183.055 99.3783 183.61 99.4032C184.166 99.4279 184.72 99.3369 185.239 99.136C194.816 96.0165 209.009 67.6574 209.166 67.3511C209.208 67.2643 209.275 67.1926 209.36 67.1458C209.444 67.0993 209.541 67.0801 209.637 67.091L213.224 67.4635C213.672 66.1947 215.15 61.7869 215.032 59.8093C214.888 57.4897 222.06 40.9482 223.384 37.9Z" fill="#045C80"/>
<path d="M212.399 63.4552C212.502 63.5272 212.572 63.6372 212.594 63.7606C212.615 63.8843 212.587 64.0116 212.515 64.1144L210.22 67.3954C210.148 67.4983 210.038 67.5684 209.914 67.5902C209.791 67.612 209.663 67.5839 209.56 67.5118C209.46 67.4385 209.391 67.3288 209.369 67.2057C209.348 67.0829 209.374 66.9564 209.444 66.8527L211.751 63.5562C211.826 63.4608 211.935 63.3974 212.055 63.3788C212.175 63.3599 212.298 63.3874 212.399 63.4552Z" fill="#045C80"/>
<path d="M193.799 67.5636C193.898 67.6326 193.967 67.7369 193.992 67.855C194.016 67.9733 193.995 68.0964 193.932 68.1996L186.783 79.9853C186.714 80.0889 186.608 80.1627 186.487 80.1914C186.366 80.2204 186.239 80.2024 186.131 80.1412C186.074 80.1119 186.025 80.0707 185.986 80.0205C185.947 79.9703 185.919 79.9125 185.904 79.8507C185.889 79.7888 185.888 79.7246 185.9 79.6624C185.912 79.6 185.938 79.5408 185.975 79.4892L193.147 67.7195C193.179 67.6664 193.222 67.6201 193.272 67.5836C193.323 67.547 193.38 67.5207 193.441 67.5061C193.501 67.4916 193.564 67.4892 193.625 67.4991C193.687 67.5089 193.746 67.5309 193.799 67.5636Z" fill="#045C80"/>
<path d="M177.131 62.637C177.23 62.7086 177.295 62.8138 177.318 62.9328C177.339 63.0504 177.316 63.1739 177.251 63.2756L170.332 74.321C170.299 74.3728 170.257 74.4192 170.207 74.4557C170.155 74.4907 170.098 74.5161 170.039 74.531C169.978 74.5444 169.917 74.5463 169.855 74.5349C169.795 74.5251 169.736 74.5015 169.683 74.468C169.628 74.4391 169.58 74.399 169.54 74.3482C169.502 74.2985 169.475 74.2414 169.461 74.1795C169.446 74.1179 169.446 74.054 169.459 73.9922C169.472 73.9303 169.497 73.8717 169.536 73.8214L176.455 62.7761C176.488 62.7238 176.53 62.677 176.58 62.6402C176.632 62.6048 176.688 62.5773 176.749 62.5632C176.811 62.5492 176.873 62.5465 176.933 62.5557C176.996 62.566 177.056 62.5888 177.109 62.6213L177.131 62.637Z" fill="#045C80"/>
<path d="M222.983 40.0231L225.31 41.6514C225.31 41.6514 219.115 52.7179 217.801 56.5934C217.217 58.2875 216.336 61.3457 216.336 61.3457C215.893 63.8778 218.377 65.662 218.44 66.6771C218.504 67.6923 217.298 67.484 217.298 67.484L215.748 68.2133L213.54 68.0662C213.54 68.0662 213.936 66.8067 213.934 66.7936C213.985 66.5058 214.537 63.9 215.235 61.0373C215.738 58.8032 216.363 56.5983 217.106 54.4322C218.421 50.9847 222.983 40.0231 222.983 40.0231Z" fill="#045C80"/>
<path opacity="0.45" d="M180.455 32.2074C180.455 32.2074 184.996 29.3876 185.552 29.6149C186.457 29.9714 185.763 31.3108 187.083 32.1654C188.021 32.8217 190.676 29.8379 191.972 30.4797C193.267 31.1199 192.425 32.2409 194.711 33.0198C195.775 33.3832 199.465 31.1814 200.559 31.4501C201.447 31.667 201.259 36.4924 203.221 36.9756C204.352 37.2582 207.902 34.3469 209.055 34.4833C210.469 34.641 210.673 37.868 211.901 38.5891C212.821 39.1404 214.973 37.0879 215.814 37.7687C216.365 38.1541 214.773 39.6045 216.699 41.1605C217.842 42.0873 219.562 40.0905 220.432 40.7798C221.301 41.4691 220.841 43.9432 220.841 43.9432L223.746 37.183L189.159 20.2964L180.455 32.2074Z" fill="#FF4B39"/>
<path d="M322.492 -39.3281L323.911 -50.2228C323.911 -50.2228 218.893 -69.933 201.995 -99.1699C185.098 -128.405 178.971 -220.941 178.971 -220.941C178.971 -220.941 201.414 -211.73 232.062 -211.361C262.709 -210.991 269.181 -213.222 269.181 -213.222L268.522 -230.032C268.522 -230.032 280.606 -239.935 303.187 -253.068C325.766 -266.2 359.221 -280.689 359.221 -280.689C359.221 -280.689 377.756 -271.381 384.358 -246.255C390.958 -221.126 386.763 -214.669 386.763 -214.669C386.763 -214.669 336.718 -194.469 326.006 -183.387L457.31 -91.1518C461.252 -62.4552 455.458 -42.6984 447.136 -29.9629C438.815 -17.2296 419.652 -0.262165 419.652 -0.262165L322.492 -39.3281Z" fill="#007EA4"/>
<path d="M362.707 -279.117C373.728 -271.169 381.58 -259.576 384.871 -246.393C391.45 -221.349 387.397 -214.698 387.221 -214.43C387.165 -214.351 387.09 -214.289 387.001 -214.248C386.505 -214.052 338.082 -194.451 326.808 -183.46L457.648 -91.5516C457.702 -91.5141 457.747 -91.4647 457.782 -91.4099C457.815 -91.353 457.839 -91.2913 457.849 -91.2266C462.141 -59.9268 454.687 -40.4734 447.602 -29.7191C439.347 -17.0793 420.228 -0.0928214 420.027 0.0787426C419.961 0.138284 419.881 0.17645 419.795 0.191867C419.709 0.207285 419.621 0.197313 419.539 0.164757L322.363 -38.9432C322.265 -38.984 322.184 -39.056 322.131 -39.1475C322.079 -39.239 322.057 -39.345 322.071 -39.4507L323.438 -49.9085C315.033 -51.5036 218.099 -70.5345 201.634 -98.9831C184.843 -128.005 178.602 -220.045 178.532 -220.972C178.527 -221.051 178.542 -221.132 178.577 -221.205C178.61 -221.278 178.663 -221.341 178.732 -221.387C178.797 -221.432 178.872 -221.462 178.951 -221.47C179.03 -221.479 179.11 -221.468 179.184 -221.44C196.168 -215.3 214.067 -212.075 232.123 -211.895C258.597 -211.568 267.084 -213.21 268.771 -213.624L268.118 -230.048C268.116 -230.122 268.128 -230.196 268.159 -230.262C268.191 -230.33 268.238 -230.388 268.296 -230.433C268.383 -230.557 280.666 -240.517 303.014 -253.514C325.358 -266.509 358.763 -281.009 359.097 -281.158C359.162 -281.185 359.231 -281.197 359.301 -281.194C359.372 -281.19 359.439 -281.173 359.5 -281.14C360.613 -280.534 361.684 -279.86 362.707 -279.117ZM386.497 -215.097C386.977 -216.08 389.945 -223.442 383.983 -246.181C377.883 -269.432 361.266 -279.119 359.271 -280.215C356.398 -278.967 324.866 -265.144 303.494 -252.714C282.69 -240.617 270.669 -231.151 269.076 -229.862L269.731 -213.298C269.735 -213.195 269.704 -213.095 269.646 -213.012C269.588 -212.929 269.504 -212.866 269.406 -212.834C269.131 -212.736 262.428 -210.588 232.107 -210.961C214.188 -211.178 196.43 -214.335 179.533 -220.305C180.158 -211.469 186.563 -126.917 202.445 -99.4794C219.069 -70.7469 322.98 -50.9559 324.04 -50.7692C324.158 -50.7469 324.265 -50.6814 324.336 -50.5834C324.408 -50.4872 324.439 -50.3654 324.425 -50.2455L323.05 -39.7111L419.586 -0.793602C421.758 -2.74148 439.05 -18.3723 446.775 -30.2062C453.722 -40.8275 461.099 -59.9737 456.877 -90.8788L325.742 -182.993C325.689 -183.034 325.642 -183.084 325.608 -183.144C325.575 -183.204 325.554 -183.27 325.547 -183.339C325.541 -183.407 325.55 -183.473 325.571 -183.537C325.595 -183.602 325.632 -183.658 325.678 -183.708C336.128 -194.548 382.812 -213.563 386.449 -215.028L386.497 -215.097Z" fill="#045C80"/>
<path d="M220.951 -32.5496C223.63 -34.8543 226.609 -36.7893 229.803 -38.3005C233.546 -40.0549 237.576 -41.1146 241.697 -41.4289C247.652 -41.7784 253.612 -40.8842 259.203 -38.8056C260.839 -38.2369 262.445 -37.5768 264.033 -36.8569C265.622 -36.139 267.252 -35.3317 268.809 -34.485C277.079 -29.8228 284.72 -24.1247 291.551 -17.5322C294.9 -14.392 297.702 -11.4615 299.896 -9.04777C303.012 -5.60919 304.768 -3.32922 304.768 -3.32922C304.768 -3.32922 307.919 -7.23779 311.186 -12.1382C313.559 -15.5514 315.593 -19.1893 317.26 -22.9997C319.357 -28.3251 321.106 -33.7813 322.498 -39.336C322.498 -39.336 326.034 -41.9781 333.946 -40.7521C335.767 -40.4569 337.562 -40.0254 339.319 -39.4655C347.611 -36.8185 355.975 -31.1028 368.855 -24.5761C371.267 -23.3515 373.836 -22.0847 376.617 -20.8085C379.902 -19.2949 383.451 -17.7607 387.293 -16.2511L388.621 -15.7375C393.111 -13.9808 397.177 -12.478 400.805 -11.1731C411.842 -7.26341 418.925 -5.34772 422.053 -4.56803C423.304 -4.25931 423.924 -4.13772 423.924 -4.13772L424.021 -4.27607L432.707 -12.7925C434.1 -12.2513 435.393 -11.4828 436.534 -10.5176C437.473 -9.63036 438.037 -8.55381 437.31 -7.39873C436.866 -6.6819 435.634 -4.92186 433.711 -2.48763C433.397 -2.03796 433.02 -1.59853 432.628 -1.12097C428.901 3.44551 424.891 7.77095 420.62 11.8297C416.013 16.2318 411.066 20.2655 405.825 23.8914C403.628 25.3814 401.37 26.8415 399.005 28.1904C398.951 28.2678 398.84 28.2935 398.747 28.3436C396.885 29.3534 395.087 30.4046 393.248 31.4306C391.634 32.317 390.028 33.1931 388.431 34.0551C388.332 34.1135 388.232 34.1582 388.133 34.2164C387.386 34.6064 386.66 35.0011 385.927 35.3883C374.339 41.48 363.308 46.61 353.243 50.8904C351.188 51.7624 349.181 52.6005 347.215 53.3952C342.141 55.4614 337.361 57.3059 332.939 58.9365C323.09 62.5596 314.944 65.1201 309.176 66.7918C303.061 68.579 299.621 69.3497 299.621 69.3497C299.303 66.8626 298.618 64.4362 297.588 62.15L297.47 61.9057C297.35 61.6482 297.203 61.3954 297.064 61.148C296.514 60.1619 295.804 59.2744 294.962 58.5217C286.964 51.4581 285.864 58.3139 285.864 58.3139C285.864 58.3139 283.189 58.8341 280.318 53.2779C280.123 52.8914 279.955 52.4917 279.814 52.0823C277.044 44.598 273.302 20.3391 260.559 16.8538C255.177 15.3973 250.814 19.4854 247.431 24.9978C247.279 25.2152 247.132 25.4245 247.027 25.6741C246.718 26.1162 246.481 26.6205 246.225 27.1007C241.839 35.1694 239.357 44.9751 238.713 45.3335C237.834 45.7098 236.861 45.8104 235.923 45.6227L236.044 40.4962L234.961 40.0621L231.764 38.7847L228.924 47.1379C228.924 47.1379 228.163 48.8357 224.113 47.9198C220.063 47.0039 220.065 47.017 220.065 47.017L222.941 40.0512C221.714 38.8804 220.402 37.8033 219.013 36.8295C217.434 35.6664 215.793 34.5879 214.099 33.5989C212.433 32.5949 210.513 31.5405 208.32 30.4799C207.344 29.9929 206.302 29.5187 205.218 29.0371L204.797 28.8464C200.093 26.6796 195.144 25.0902 190.059 24.1144C188.717 23.8443 187.351 23.7172 185.981 23.7342C185.981 23.7342 186.54 22.0915 187.621 19.3242C188.235 17.7545 189.016 15.8283 189.959 13.6228C195.336 1.23317 205.978 -19.8364 220.951 -32.5496Z" fill="#FFDE00"/>
<path d="M435.903 -11.5965C436.243 -11.3645 436.565 -11.1061 436.863 -10.8218C438.518 -9.25745 438.242 -7.93817 437.725 -7.09981C437.206 -6.25957 435.863 -4.43837 434.098 -2.14801L433.99 -1.99337C433.708 -1.5905 433.363 -1.19583 433.017 -0.76779C429.278 3.81137 425.255 8.1492 420.968 12.2243C416.344 16.6446 411.377 20.6951 406.116 24.3362C403.763 25.9483 401.524 27.3642 399.264 28.6467C399.18 28.7095 399.092 28.7632 398.999 28.8102C397.139 29.8179 395.339 30.8709 393.501 31.8951C391.886 32.7834 390.281 33.6575 388.684 34.5195L388.53 34.6084L388.369 34.6232L387.069 35.3082L386.139 35.8121C375.54 41.383 364.525 46.606 353.422 51.3276C351.36 52.1942 349.348 53.0385 347.381 53.8353C342.536 55.8064 337.756 57.6841 333.095 59.3909C322.825 63.17 314.492 65.7504 309.305 67.2514C303.243 69.0292 299.759 69.8148 299.708 69.8374C299.644 69.8506 299.578 69.8507 299.513 69.8374C299.449 69.8243 299.388 69.798 299.334 69.7606C299.281 69.7211 299.236 69.6713 299.203 69.614C299.17 69.557 299.148 69.4936 299.14 69.428C298.815 66.998 298.138 64.6283 297.129 62.3941L297.053 62.2375L297.011 62.1498C296.91 61.935 296.799 61.7254 296.676 61.5224L296.623 61.4162C296.11 60.465 295.442 59.6065 294.645 58.8767C291.859 56.4188 289.626 55.3653 288.101 55.927C287.628 56.1613 287.216 56.5042 286.9 56.9272C286.584 57.3504 286.372 57.8422 286.281 58.3627C286.265 58.4572 286.221 58.5445 286.154 58.6135C286.088 58.6824 286.002 58.7291 285.908 58.7482C285.789 58.7691 282.844 59.262 279.904 53.3919C279.699 52.9866 279.52 52.5686 279.37 52.1403C278.842 50.6154 278.221 48.4822 277.539 45.9718C274.867 36.2338 270.359 19.9063 260.447 17.2117C256.049 16.0184 251.815 18.683 247.851 25.1411L247.716 25.335C247.612 25.4823 247.515 25.6219 247.412 25.7695C247.097 26.2193 246.865 26.7155 246.615 27.188C244.215 31.8741 242.19 36.7436 240.562 41.7507C239.516 44.7973 239.271 45.4115 238.912 45.611C237.935 46.0448 236.846 46.1635 235.798 45.9505C235.689 45.9275 235.591 45.8677 235.521 45.7809C235.451 45.6941 235.414 45.5857 235.415 45.4743L235.564 40.7032L232.053 39.2978L229.373 47.1741C229.262 47.4314 228.31 49.2379 223.996 48.2529L219.993 47.3696C219.931 47.3569 219.873 47.3351 219.818 47.3054C219.723 47.2447 219.653 47.1524 219.621 47.0446C219.588 46.9371 219.595 46.8215 219.64 46.7183L222.392 40.0598C221.228 38.9862 219.996 37.9889 218.704 37.0746C217.137 35.9206 215.509 34.8511 213.828 33.871C212.033 32.7879 210.094 31.7437 208.086 30.7661C207.022 30.2408 205.869 29.7229 204.999 29.3337L204.577 29.1429C199.907 27.0064 194.995 25.4425 189.949 24.4879C188.639 24.229 187.309 24.1031 185.974 24.1094C185.896 24.1168 185.817 24.1038 185.745 24.072C185.673 24.0405 185.611 23.9915 185.563 23.9295C185.516 23.8672 185.485 23.7944 185.473 23.7165C185.46 23.6388 185.47 23.5604 185.497 23.487C185.497 23.487 186.074 21.7997 187.148 19.0615C187.834 17.2884 188.592 15.3465 189.488 13.339C194.563 1.58091 205.349 -20.0928 220.574 -33.02C223.286 -35.3502 226.301 -37.3057 229.534 -38.838C233.321 -40.5984 237.395 -41.6605 241.562 -41.9759C247.581 -42.3225 253.61 -41.4171 259.263 -39.3192C260.79 -38.7933 262.377 -38.1556 264.129 -37.357C265.723 -36.6453 267.341 -35.8372 268.942 -34.9715C277.254 -30.3042 284.929 -24.5827 291.772 -17.9455C294.696 -15.2056 297.513 -12.3463 300.147 -9.43939C302.427 -6.91927 303.986 -5.01919 304.679 -4.17657C305.602 -5.34654 308.129 -8.62791 310.703 -12.4884C313.072 -15.8745 315.095 -19.4903 316.742 -23.2815C318.827 -28.5873 320.571 -34.0196 321.964 -39.5464C321.977 -39.6014 321.999 -39.6525 322.03 -39.6972C322.062 -39.742 322.102 -39.7805 322.149 -39.811C322.298 -39.9249 325.932 -42.559 333.949 -41.3175C335.791 -41.013 337.612 -40.5791 339.392 -40.0152C344.782 -38.2896 350.078 -35.3567 356.787 -31.6354C360.366 -29.6496 364.442 -27.4338 368.984 -25.0741C371.851 -23.6229 374.312 -22.4342 376.708 -21.3337C380.282 -19.6878 383.76 -18.2026 387.384 -16.7764L387.8 -16.6121L388.706 -16.2546C392.68 -14.7014 396.66 -13.2074 400.892 -11.6922C411.733 -7.84973 418.81 -5.92589 422.095 -5.10616C422.878 -4.90389 423.409 -4.7872 423.691 -4.72888L432.411 -13.1279C432.474 -13.1926 432.555 -13.2361 432.644 -13.2552C432.733 -13.2723 432.826 -13.2647 432.91 -13.2302C433.966 -12.8004 434.97 -12.2524 435.903 -11.5965ZM300.015 68.8042C301.209 68.4846 304.346 67.7332 309.052 66.3579C314.225 64.8594 322.538 62.276 332.784 58.5151C337.438 56.8165 342.214 54.9451 347.054 52.9819C349.02 52.1872 351.033 51.3408 353.082 50.477C364.167 45.7641 375.149 40.5547 385.729 34.9946L386.659 34.4907L387.945 33.8086L388.1 33.7197L388.225 33.656C389.825 32.79 391.433 31.9117 393.048 31.0234C394.909 30.0157 396.717 28.9679 398.546 27.9385L398.78 27.8021C401.04 26.5041 403.239 25.1451 405.588 23.506C410.81 19.8918 415.739 15.8727 420.329 11.4862C424.588 7.44347 428.586 3.13041 432.297 -1.42321C432.645 -1.83755 432.961 -2.24046 433.253 -2.62424L433.367 -2.78703C435.39 -5.34809 436.562 -7.05589 436.934 -7.6535C437.304 -8.24894 437.525 -8.96112 436.235 -10.1727C435.224 -11.0412 434.079 -11.7419 432.844 -12.2453L424.261 -3.80901C424.208 -3.75191 424.139 -3.70648 424.064 -3.6831C423.989 -3.65985 423.908 -3.6559 423.83 -3.6713C423.83 -3.6713 423.21 -3.79287 421.939 -4.10631C418.653 -4.9262 411.524 -6.87436 400.654 -10.725C396.408 -12.253 392.382 -13.764 388.448 -15.2921L387.537 -15.6416L387.121 -15.8057C383.503 -17.2401 379.988 -18.7388 376.398 -20.3957C373.981 -21.4989 371.504 -22.6651 368.63 -24.155C364.051 -26.495 359.988 -28.7468 356.396 -30.7299C349.74 -34.4268 344.48 -37.3461 339.179 -39.0337C337.445 -39.5865 335.672 -40.0114 333.876 -40.3047C327.118 -41.3474 323.626 -39.4933 322.92 -39.0628C321.523 -33.5509 319.781 -28.1323 317.703 -22.8391C316.033 -18.9974 313.983 -15.3312 311.582 -11.8948C308.342 -7.0332 305.17 -3.09395 305.137 -3.04715C305.094 -2.99259 305.036 -2.94789 304.972 -2.91984C304.907 -2.88961 304.836 -2.87578 304.766 -2.87972C304.696 -2.87702 304.627 -2.89207 304.563 -2.92176C304.499 -2.95131 304.445 -2.99828 304.403 -3.05475C304.403 -3.05475 302.603 -5.35364 299.554 -8.75707C296.951 -11.6421 294.142 -14.496 291.235 -17.2117C284.449 -23.7938 276.838 -29.4677 268.594 -34.0938C267.022 -34.9514 265.42 -35.7507 263.847 -36.4576C262.095 -37.2561 260.558 -37.8675 259.06 -38.3852C253.532 -40.444 247.634 -41.3278 241.743 -40.9825C237.685 -40.6757 233.718 -39.6414 230.026 -37.9265C226.871 -36.4275 223.928 -34.5166 221.277 -32.2401C206.205 -19.4362 195.494 2.08241 190.457 13.774C189.602 15.7876 188.844 17.7294 188.13 19.4599C187.416 21.1903 186.968 22.5061 186.713 23.2172C187.884 23.2676 189.05 23.3998 190.203 23.614C195.325 24.5766 200.313 26.1623 205.052 28.3309L205.481 28.5273C206.365 28.9145 207.526 29.4381 208.6 29.9818C210.629 30.9627 212.596 32.0154 214.415 33.1147C216.122 34.1128 217.776 35.2002 219.368 36.3725C220.773 37.3611 222.102 38.4532 223.345 39.64C223.41 39.7058 223.455 39.7893 223.473 39.8802C223.492 39.9713 223.483 40.0657 223.449 40.1519L220.782 46.605C221.402 46.7264 222.449 46.9628 224.284 47.3797C227.824 48.1818 228.541 46.8927 228.568 46.8538L231.384 38.5527C231.405 38.492 231.438 38.4363 231.481 38.3887C231.524 38.3413 231.576 38.3035 231.635 38.2771C231.694 38.2503 231.758 38.2353 231.823 38.2332C231.888 38.231 231.953 38.2419 232.013 38.2649L236.292 39.9763C236.382 40.0137 236.458 40.0775 236.51 40.1596C236.562 40.2415 236.588 40.3377 236.584 40.4347L236.444 45.1089C237.15 45.2089 237.87 45.1076 238.521 44.8168C238.645 44.6386 239.176 43.1036 239.715 41.4586C241.356 36.404 243.397 31.4881 245.819 26.7577C246.079 26.2698 246.353 25.7796 246.637 25.3079C246.734 25.1683 246.843 25.0133 246.952 24.858L247.082 24.6721C251.294 17.8099 255.895 14.9993 260.738 16.3178C262.199 16.728 263.58 17.385 264.82 18.2616C272.421 23.5803 276.003 36.6586 278.492 45.749C279.174 48.2252 279.764 50.371 280.309 51.8383C280.441 52.2315 280.601 52.6144 280.79 52.9837C282.857 57.0641 284.791 57.7013 285.509 57.7991C285.655 57.1856 285.942 56.615 286.348 56.1326C286.753 55.6503 287.266 55.2694 287.846 55.0206C289.715 54.3639 292.207 55.392 295.339 58.1493C296.214 58.9493 296.95 59.8901 297.516 60.9322L297.602 60.9919C297.73 61.2206 297.859 61.4494 297.962 61.6827L298.09 61.9456C299.053 64.1288 299.702 66.4383 300.015 68.8042Z" fill="#045C80"/>
<path d="M315.154 10.2944L304.457 -2.96765C304.457 -2.96765 312.033 -13.1514 313.731 -16.1221C315.428 -19.0929 316.501 -21.2545 316.501 -21.2545C316.501 -21.2545 313.504 -11.0586 313.384 -5.50473C313.263 0.0511546 315.154 10.2944 315.154 10.2944Z" fill="#045C80"/>
<path d="M423.572 -3.78178C423.572 -3.78178 428.291 -2.35267 431.424 -2.96687C434.991 -3.67189 438.329 -7.17088 437.692 -8.90193C437.053 -10.631 432.714 -12.7519 432.714 -12.7519L423.572 -3.78178Z" fill="#045C80"/>
<path d="M235.859 45.7629C235.859 45.7629 238.541 46.2067 238.939 44.9945C240.105 41.4781 236.273 40.1021 236.273 40.1021L235.859 45.7629Z" fill="#045C80"/>
<path d="M219.945 46.8748C219.945 46.8748 226.917 49.8235 228.706 47.4478C230.496 45.0719 223.226 39.6267 223.226 39.6267L219.945 46.8748Z" fill="#045C80"/>
<path d="M301.146 56.7832C301.018 56.1735 289.688 56.911 285.076 49.0044C280.463 41.0978 270.154 7.36739 256.814 6.58373C243.474 5.80007 238.836 20.2554 235.341 29.4787L231.807 38.7566C231.807 38.7566 237.854 25.0446 240.816 20.0347C243.779 15.0248 247.638 9.85671 257.023 11.7341C262.449 12.8145 268.832 18.7023 272.653 26.4835C276.476 34.2636 282.781 47.9074 283.994 49.6917C285.206 51.476 286.475 53.9233 290.847 55.3535C295.219 56.7835 301.272 57.4949 301.146 56.7832Z" fill="#045C80"/>
<path d="M404.221 5.88919C404.469 6.06274 404.681 6.28327 404.84 6.54053C405.045 6.86867 405.164 7.24269 405.183 7.62879C405.202 8.01502 405.122 8.39875 404.95 8.74499L393.698 31.6627C393.669 31.7546 393.612 31.836 393.535 31.8947C391.92 32.7829 390.313 33.6592 388.717 34.5212L388.562 34.61L388.368 34.6229C388.312 34.6533 388.25 34.6732 388.185 34.6798C388.121 34.6865 388.056 34.6803 387.994 34.6614C387.932 34.6508 387.871 34.6268 387.819 34.5902C387.767 34.5535 387.723 34.5051 387.692 34.4497L374.768 8.93063C374.601 8.59245 374.523 8.21644 374.54 7.83793C374.557 7.46131 374.669 7.094 374.865 6.77077C375.061 6.4474 375.336 6.17871 375.663 5.98932C375.99 5.79993 376.358 5.69719 376.737 5.68658L402.896 5.50451C403.367 5.49142 403.831 5.62521 404.221 5.88919ZM392.906 31.109L404.101 8.32364C404.2 8.12319 404.247 7.89871 404.236 7.67537C404.224 7.45203 404.157 7.23255 404.038 7.04302C403.919 6.85378 403.755 6.69644 403.557 6.5914C403.361 6.48418 403.14 6.42988 402.918 6.43175L376.757 6.61583C376.535 6.61192 376.315 6.66979 376.12 6.77922C375.926 6.88879 375.765 7.04598 375.651 7.23907C375.533 7.42946 375.467 7.64675 375.457 7.87291C375.448 8.09688 375.497 8.31929 375.6 8.51836L388.339 33.6081C389.87 32.7733 391.39 31.9548 392.906 31.109Z" fill="#045C80"/>
<path d="M339.272 -31.5726C339.576 -31.3604 339.823 -31.0783 339.989 -30.747L353.249 -4.66828C353.416 -4.3301 353.494 -3.95411 353.477 -3.57546C353.46 -3.19898 353.349 -2.83167 353.152 -2.5083C352.956 -2.18493 352.682 -1.91622 352.354 -1.72698C352.027 -1.53759 351.659 -1.43484 351.281 -1.42612L325.113 -1.24745C324.73 -1.24603 324.351 -1.34153 324.014 -1.5259C323.678 -1.71246 323.393 -1.97859 323.19 -2.30559C322.985 -2.63056 322.868 -3.00343 322.848 -3.38706C322.829 -3.77055 322.908 -4.15416 323.079 -4.49879L335.977 -30.7597C336.12 -31.0503 336.327 -31.3088 336.58 -31.5138C336.833 -31.7187 337.127 -31.8673 337.442 -31.9471C337.758 -32.0289 338.088 -32.0409 338.408 -31.9832C338.728 -31.9235 339.033 -31.798 339.3 -31.6112L339.272 -31.5726ZM351.248 -2.33721C351.473 -2.34055 351.692 -2.39927 351.886 -2.50899C352.08 -2.6187 352.244 -2.7772 352.36 -2.96844C352.477 -3.15939 352.543 -3.37685 352.551 -3.59893C352.56 -3.8229 352.51 -4.04299 352.408 -4.24163L339.147 -30.3204C339.032 -30.5312 338.863 -30.7075 338.656 -30.8308C338.448 -30.9519 338.212 -31.0146 337.971 -31.0105C337.731 -31.0085 337.496 -30.9394 337.292 -30.8122C337.087 -30.6831 336.923 -30.5038 336.814 -30.2888L323.914 -4.04151C323.816 -3.8402 323.769 -3.6153 323.781 -3.3921C323.792 -3.1689 323.86 -2.95202 323.977 -2.76089C324.096 -2.56876 324.262 -2.4126 324.46 -2.30467C324.658 -2.19674 324.88 -2.1413 325.105 -2.14421L351.248 -2.33721Z" fill="#045C80"/>
<path d="M339.67 23.6562C339.975 23.8701 340.225 24.154 340.394 24.4873L353.654 50.5661C353.695 50.64 353.725 50.719 353.744 50.8014C353.764 50.9093 353.748 51.0194 353.696 51.1168C353.646 51.2123 353.565 51.2884 353.464 51.3331C351.402 52.1998 349.394 53.0379 347.427 53.8347C347.372 53.8598 347.312 53.8722 347.251 53.872L325.491 54.0254C325.107 54.0264 324.728 53.9306 324.39 53.746C324.054 53.5593 323.77 53.2907 323.565 52.9654C323.36 52.6402 323.242 52.2669 323.222 51.8828C323.201 51.4986 323.279 51.1163 323.447 50.7707L336.349 24.5214C336.537 24.1434 336.827 23.825 337.186 23.6036C337.547 23.3801 337.961 23.2637 338.383 23.2654C338.842 23.2647 339.289 23.4018 339.67 23.6562ZM352.642 50.6426L339.552 24.9138C339.441 24.6963 339.271 24.5136 339.061 24.3878C338.852 24.2598 338.609 24.1964 338.365 24.2008C338.121 24.197 337.881 24.2653 337.675 24.3945C337.469 24.5257 337.304 24.7139 337.204 24.9346L324.302 51.1839C324.202 51.3836 324.156 51.6057 324.165 51.8308C324.177 52.0538 324.245 52.2711 324.364 52.4607C324.483 52.6502 324.648 52.8078 324.844 52.9152C325.041 53.0225 325.262 53.0772 325.487 53.0737L347.152 52.9237C348.943 52.2131 350.767 51.4615 352.626 50.665L352.642 50.6426Z" fill="#045C80"/>
<path d="M310.02 61.8367C310.269 62.0097 310.479 62.2316 310.638 62.4887C310.836 62.8117 310.949 63.1792 310.968 63.5574C310.985 63.9355 310.908 64.3122 310.742 64.6525L309.588 67.0112C309.559 67.0701 309.517 67.1223 309.466 67.1641C309.415 67.2059 309.355 67.2366 309.291 67.2541C303.23 69.0319 299.745 69.8174 299.695 69.8401C299.63 69.8534 299.564 69.8533 299.5 69.8401C299.436 69.827 299.375 69.8008 299.321 69.7633C299.268 69.7238 299.223 69.674 299.19 69.6167C299.156 69.5597 299.134 69.4963 299.126 69.4307C298.802 67.0008 298.125 64.6309 297.115 62.3969L297.04 62.2403L296.997 62.1526C296.962 62.0805 296.945 62.0005 296.948 61.9203C296.952 61.84 296.976 61.7617 297.018 61.6933C297.061 61.625 297.12 61.5684 297.19 61.5287C297.26 61.489 297.339 61.4673 297.42 61.4661L308.696 61.3841C309.175 61.3905 309.638 61.5492 310.02 61.8367ZM308.829 66.445L309.9 64.2712C310 64.0707 310.047 63.8478 310.037 63.6241C310.026 63.4002 309.958 63.1828 309.839 62.993C309.72 62.8031 309.554 62.6467 309.358 62.5395C309.161 62.4322 308.94 62.3772 308.716 62.3799L298.18 62.4602C299.059 64.4976 299.668 66.6407 299.993 68.8357C301.169 68.5259 304.248 67.7576 308.851 66.4141L308.829 66.445Z" fill="#045C80"/>
<path d="M309.654 6.54787C309.904 6.72313 310.118 6.94551 310.28 7.20449C310.485 7.52988 310.603 7.90319 310.622 8.2864C310.641 8.66974 310.56 9.05247 310.388 9.39553L297.513 35.6726C297.326 36.0483 297.04 36.3634 296.685 36.585C296.329 36.8084 295.921 36.9257 295.501 36.9293C295.082 36.933 294.671 36.8185 294.313 36.6012C293.955 36.384 293.665 36.0716 293.472 35.7006L280.212 9.62182C280.038 9.2788 279.955 8.89622 279.969 8.51197C279.983 8.12786 280.094 7.75422 280.294 7.42417C280.492 7.09616 280.772 6.82494 281.107 6.63518C281.441 6.44746 281.818 6.34794 282.203 6.34724L308.371 6.16857C308.826 6.16299 309.274 6.29448 309.654 6.54787ZM294.717 35.738C294.939 35.89 295.202 35.9686 295.471 35.9654C295.715 35.9666 295.954 35.9002 296.162 35.7699C296.368 35.6414 296.535 35.455 296.64 35.235L309.547 8.97963C309.642 8.77936 309.686 8.55617 309.674 8.33501C309.662 8.11196 309.594 7.8974 309.478 7.70712C309.358 7.51702 309.192 7.35869 308.995 7.25076C308.797 7.14283 308.575 7.08753 308.35 7.0903L282.19 7.27451C281.967 7.27321 281.747 7.33151 281.552 7.44079C281.356 7.55212 281.193 7.71047 281.078 7.89968C280.961 8.09092 280.896 8.30894 280.887 8.53335C280.878 8.7576 280.929 8.97798 281.032 9.17691L294.329 35.2693C294.417 35.4554 294.55 35.6179 294.717 35.738Z" fill="#045C80"/>
<path d="M244.727 -30.8977C245.032 -30.6842 245.281 -30.3982 245.452 -30.0664L258.68 -4.00982C258.847 -3.67165 258.926 -3.29564 258.908 -2.91713C258.892 -2.5405 258.78 -2.17323 258.583 -1.84985C258.387 -1.52662 258.113 -1.25777 257.786 -1.06852C257.458 -0.87913 257.09 -0.776383 256.712 -0.767806L230.553 -0.584198C230.168 -0.582536 229.79 -0.678349 229.453 -0.863825C229.116 -1.0491 228.831 -1.31778 228.626 -1.64407C228.42 -1.97036 228.302 -2.34305 228.283 -2.72654C228.263 -3.11024 228.341 -3.49374 228.51 -3.84004L241.405 -30.079C241.591 -30.4579 241.88 -30.7745 242.24 -30.9951C242.599 -31.2171 243.012 -31.3311 243.435 -31.3292C243.898 -31.3201 244.349 -31.168 244.727 -30.8977ZM256.649 -1.7004C256.873 -1.70127 257.093 -1.75943 257.287 -1.86872C257.482 -1.97815 257.646 -2.13635 257.762 -2.32759C257.878 -2.51897 257.944 -2.73687 257.952 -2.96127C257.959 -3.18364 257.91 -3.40603 257.808 -3.60496L244.542 -29.6756C244.435 -29.8957 244.269 -30.0786 244.061 -30.2059C243.853 -30.3332 243.612 -30.3993 243.368 -30.3937C243.124 -30.3951 242.884 -30.3261 242.677 -30.1985C242.47 -30.0674 242.305 -29.8831 242.199 -29.6629L229.301 -3.40197C229.203 -3.20095 229.156 -2.97838 229.167 -2.75581C229.18 -2.53182 229.248 -2.31639 229.367 -2.12741C229.486 -1.93843 229.653 -1.78241 229.848 -1.67646C230.046 -1.56908 230.266 -1.51521 230.49 -1.51796L256.649 -1.7004Z" fill="#045C80"/>
<path d="M245.093 24.344C245.396 24.5561 245.642 24.8395 245.809 25.169L246.662 26.8403C246.695 26.9084 246.711 26.9831 246.711 27.0587C246.71 27.1343 246.692 27.2087 246.657 27.276C244.257 31.962 242.233 36.8318 240.604 41.8388C239.558 44.8855 239.314 45.4998 238.954 45.6991C237.977 46.1329 236.888 46.2517 235.84 46.0386C235.731 46.0157 235.633 45.9558 235.563 45.869C235.493 45.7822 235.456 45.6738 235.457 45.5626L235.58 41.0272L234.742 40.441C234.646 40.3782 234.576 40.2823 234.545 40.1713C234.514 40.0604 234.525 39.942 234.575 39.8385L241.753 25.2196C241.941 24.8408 242.231 24.5225 242.591 24.3004C242.951 24.0783 243.365 23.9612 243.788 23.9626C244.251 23.9561 244.706 24.0889 245.093 24.344ZM245.682 27.0676L244.951 25.6197C244.84 25.4015 244.67 25.2186 244.46 25.0921C244.25 24.9659 244.009 24.901 243.764 24.9052C243.52 24.9017 243.28 24.9696 243.074 25.1002C242.868 25.2306 242.704 25.4184 242.603 25.6405L235.664 39.8498L236.378 40.3491C236.444 40.3948 236.498 40.4564 236.535 40.5286C236.571 40.6005 236.589 40.6802 236.587 40.7611L236.453 45.162C237.159 45.262 237.879 45.1609 238.529 44.8701C238.654 44.6917 239.185 43.1569 239.724 41.512C241.341 36.543 243.339 31.7064 245.699 27.0444L245.682 27.0676Z" fill="#045C80"/>
<path d="M215.134 13.4101C215.383 13.5834 215.594 13.8057 215.753 14.0631C215.959 14.3893 216.076 14.7633 216.096 15.1498C216.115 15.5349 216.036 15.9202 215.864 16.2661L208.795 30.6613C208.735 30.7756 208.633 30.8619 208.511 30.9017C208.454 30.9209 208.393 30.9286 208.333 30.9239C208.272 30.9196 208.214 30.9031 208.16 30.8755C207.094 30.3497 205.943 29.8332 205.071 29.4423L204.65 29.2516C199.98 27.1151 195.069 25.5528 190.022 24.5967C189.949 24.5882 189.877 24.5603 189.818 24.5191C189.757 24.4763 189.707 24.4188 189.674 24.3533L187.245 19.5685C187.21 19.5097 187.192 19.4453 187.189 19.3793C187.185 19.312 187.198 19.2459 187.223 19.1838C187.909 17.4107 188.668 15.4688 189.563 13.4613C189.6 13.3774 189.662 13.3066 189.738 13.2551C189.815 13.2049 189.905 13.1768 189.997 13.1753L213.82 13.0104C214.289 13.0032 214.748 13.1431 215.134 13.4101ZM208.138 29.8323L215.002 15.8598C215.103 15.6596 215.15 15.4366 215.14 15.213C215.129 14.9895 215.061 14.7716 214.942 14.5818C214.823 14.392 214.657 14.2354 214.462 14.129C214.264 14.0212 214.043 13.9655 213.819 13.9688L190.3 14.1272C189.516 15.9586 188.805 17.7026 188.162 19.3321L190.368 23.6722C195.409 24.6551 200.316 26.2272 204.989 28.3561L205.418 28.5526C206.224 28.9205 207.191 29.3542 208.138 29.8323Z" fill="#045C80"/>
</g>
</g>
<defs>
<linearGradient id="paint0_linear_1_811" x1="268.342" y1="85.9154" x2="316.839" y2="19.1323" gradientUnits="userSpaceOnUse">
<stop stop-color="#FFDE00"/>
<stop offset="1" stop-color="#FE0065"/>
</linearGradient>
<linearGradient id="paint1_linear_1_811" x1="213.922" y1="73.4983" x2="247.75" y2="13.494" gradientUnits="userSpaceOnUse">
<stop stop-color="#FFDE00"/>
<stop offset="1" stop-color="#FE0065"/>
</linearGradient>
<linearGradient id="paint2_linear_1_811" x1="184.878" y1="66.6592" x2="228.481" y2="-0.890746" gradientUnits="userSpaceOnUse">
<stop stop-color="#FFDE00"/>
<stop offset="1" stop-color="#FE0065"/>
</linearGradient>
<clipPath id="clip0_1_811">
<rect width="745.009" height="745.009" fill="white" transform="translate(291.86 343.824) rotate(-145.019)"/>
</clipPath>
</defs>
</svg>
