<svg width="109" height="107" viewBox="0 0 109 107" fill="none" xmlns="http://www.w3.org/2000/svg">
<g id="Group 1597879145">
<path id="Vector" d="M48.6503 41.6853C48.6503 41.6853 40.193 38.8298 35.5288 33.6863C30.8645 28.5431 35.2874 16.0868 33.5912 15.4968C30.2851 14.4324 22.6778 32.0038 25.178 36.7201C35.7805 56.6679 48.6503 41.6853 48.6503 41.6853Z" fill="#FF4B39"/>
<path id="Vector_2" d="M31.7049 45.4714C29.1844 43.7221 26.8691 40.8628 24.7785 36.9295C22.6877 32.996 27.0808 21.062 30.7388 16.6856C31.8699 15.343 32.8494 14.8259 33.7239 15.0671C34.7179 15.3912 34.5501 17.07 34.1958 20.0714C33.7125 24.1686 33.0627 30.2782 35.8454 33.4064C40.3734 38.4108 48.7127 41.2287 48.78 41.2754C48.8516 41.2968 48.9166 41.3363 48.9686 41.3897C49.0207 41.4435 49.0581 41.5095 49.0774 41.5816C49.0981 41.6544 49.1003 41.7308 49.084 41.8047C49.0674 41.8785 49.0332 41.9471 48.9837 42.0042C48.7968 42.2734 43.5638 48.2164 36.8594 47.4975C34.9981 47.2669 33.2252 46.5701 31.7049 45.4714ZM33.3953 15.8918C32.9734 15.7652 32.2703 16.2193 31.4152 17.2437C27.9925 21.329 23.6915 32.939 25.5702 36.4592C28.8632 42.668 32.6941 46.0582 36.9325 46.5618C42.0738 47.138 46.417 43.2593 47.7809 41.9008C45.6819 41.1091 39.1233 38.4076 35.1296 34.0067C32.0542 30.5977 32.7648 24.209 33.238 19.9826C33.4968 18.3005 33.715 16.2135 33.4305 15.905L33.3953 15.8918Z" fill="#1D1D1D"/>
<path id="Vector_3" d="M45.8836 84.857C45.8255 84.818 45.7772 84.7661 45.7425 84.7055C45.7077 84.6448 45.6873 84.577 45.6829 84.5072L44.6527 66.5596C44.6493 66.4995 44.6575 66.4396 44.6772 66.3828C44.6968 66.3261 44.7275 66.2737 44.7674 66.2291C44.8073 66.1842 44.8556 66.1476 44.9096 66.1213C44.9636 66.095 45.0223 66.08 45.0823 66.0763C45.1421 66.0727 45.2022 66.0811 45.2589 66.1009C45.3157 66.1206 45.3678 66.1512 45.4128 66.1909C45.4577 66.2309 45.4943 66.2792 45.5204 66.3334C45.5465 66.3873 45.5619 66.4459 45.5654 66.5058L46.5905 84.4611C46.5979 84.5809 46.5576 84.6989 46.4783 84.7893C46.3988 84.8796 46.2871 84.9349 46.1673 84.943C46.066 84.9455 45.9664 84.9153 45.8836 84.857Z" fill="#1D1D1D"/>
<path id="Vector_4" d="M41.7507 89.1359L41.6909 89.0944C41.6475 89.0536 41.6128 89.0045 41.5886 88.9501C41.5646 88.8955 41.5516 88.8366 41.5505 88.7771C41.5496 88.7176 41.5605 88.6584 41.5827 88.6031C41.605 88.5479 41.6381 88.4975 41.6802 88.4552L45.7762 84.1502C45.8495 84.0764 45.9456 84.0295 46.0489 84.0166C46.1522 84.004 46.2567 84.0264 46.3456 84.0801L51.3769 87.162C51.4293 87.1922 51.4749 87.2329 51.5108 87.2819C51.5466 87.3307 51.5719 87.3865 51.585 87.4457C51.5982 87.5047 51.5989 87.566 51.5872 87.6254C51.5753 87.6849 51.5514 87.7412 51.5166 87.791C51.486 87.8417 51.4451 87.8859 51.3971 87.9209C51.3489 87.9557 51.2943 87.9806 51.2364 87.994C51.1784 88.0076 51.1184 88.0095 51.0598 87.9995C51.0014 87.9894 50.9454 87.9678 50.895 87.9358L46.1811 85.0518L42.2925 89.0576C42.223 89.1278 42.1325 89.1733 42.0347 89.1873C41.9371 89.2015 41.8373 89.1835 41.7507 89.1359Z" fill="#1D1D1D"/>
<path id="Vector_5" d="M31.6224 32.4815C31.6224 32.4815 35.5888 23.3654 47.5795 20.2842C59.5701 17.2027 68.6993 57.4278 76.9784 61.5779C85.2575 65.7284 103.071 53.5228 101.056 57.3997C99.0416 61.2764 84.7954 76.2459 73.3025 78.6422C62.9638 80.7644 32.2676 78.6869 27.8016 61.0589C23.3358 43.4308 31.6224 32.4815 31.6224 32.4815Z" fill="#FFD12E"/>
<path id="Vector_6" d="M35.3904 72.1115C31.456 69.5796 28.5953 65.6841 27.3571 61.1722C23.0374 44.0999 30.6671 33.027 31.227 32.2521C31.5769 31.5086 35.8636 22.8254 47.4609 19.8478C54.9192 17.9316 61.1793 31.5854 66.6836 43.6618C70.4377 51.8086 73.937 59.5565 77.1798 61.1756C82.1086 63.6544 90.7965 59.9985 96.0042 57.8281C99.644 56.3203 100.926 55.8141 101.481 56.4203C101.857 56.8365 101.55 57.4219 101.453 57.6094C99.5591 61.2485 85.1969 76.6251 73.3689 79.121C66.3135 80.5522 46.7963 80.0278 35.3904 72.1115ZM52.3437 21.8182C51.695 21.3039 50.9401 20.9409 50.1337 20.755C49.3273 20.5691 48.4897 20.5651 47.6815 20.7435C36.0507 23.7532 32.072 32.5835 32.03 32.6763C32.0128 32.7087 31.992 32.7387 31.9676 32.7661C31.895 32.8707 23.8819 43.7773 28.22 60.951C29.4073 65.2879 32.1574 69.0322 35.9405 71.4626C47.0472 79.1712 66.2421 79.6491 73.189 78.1984C84.7273 75.8005 98.7756 60.749 100.627 57.2025C100.653 57.165 100.679 57.1278 100.695 57.1052C99.2033 57.5065 97.7494 58.036 96.3493 58.6883C90.6478 61.0589 82.032 64.6431 76.7677 62.0088C73.2224 60.2352 69.8166 52.7515 65.8527 44.0606C61.7504 35.0737 57.2455 25.1981 52.3541 21.8032L52.3437 21.8182Z" fill="#1D1D1D"/>
<path id="Vector_7" d="M58.3099 47.5027C58.3099 47.5027 70.4522 56.8167 82.7186 53.306C94.985 49.7956 98.2349 41.8556 101.93 43.19C105.149 44.3162 82.7856 69.2885 75.6444 68.0335C68.503 66.7786 58.3099 47.5027 58.3099 47.5027Z" fill="#FF4B39"/>
<path id="Vector_8" d="M72.4525 67.06C65.7212 62.3882 58.2961 48.369 57.9041 47.7203C57.8571 47.627 57.8426 47.5209 57.8634 47.4188C57.8843 47.3164 57.9387 47.2242 58.0183 47.1568C58.0964 47.0858 58.1973 47.0457 58.3027 47.0433C58.4082 47.0413 58.5108 47.0773 58.5918 47.1447C58.7189 47.2329 70.6894 56.2836 82.5951 52.8774C87.5706 51.4121 92.1632 48.872 96.0488 45.4366C98.4442 43.4864 100.178 42.0742 102.102 42.7669C102.348 42.8599 102.917 43.1887 102.652 44.2571C101.272 49.4388 82.3648 69.6397 75.6011 68.4473C74.4641 68.2161 73.3904 67.743 72.4525 67.06ZM59.6312 48.9522C62.2814 53.6285 70.0998 66.6019 75.7283 67.5936C80.6825 68.439 94.4715 54.9585 99.7359 47.5968C102.106 44.2771 101.785 43.6221 101.783 43.6095C100.358 43.108 98.8681 44.3126 96.6216 46.1444C92.6411 49.6572 87.9379 52.2529 82.844 53.7484C73.1092 56.5335 63.37 51.3254 59.6312 48.9522Z" fill="#1D1D1D"/>
<path id="Vector_9" d="M45.5 31.4869L50.4763 37.0906L53.3935 31.1473C53.0094 30.5981 52.4887 30.1586 51.8829 29.8721C51.277 29.5857 50.6069 29.4625 49.9386 29.5143C48.303 29.7406 46.7641 30.4244 45.5 31.4869Z" fill="#FF4B39"/>
<path id="Vector_10" d="M50.2396 37.4798L50.1499 37.4176L45.1736 31.8136C45.1328 31.769 45.1018 31.7163 45.0824 31.659C45.0632 31.6017 45.0559 31.5411 45.0612 31.4808C45.0718 31.422 45.095 31.3663 45.129 31.3174C45.163 31.2684 45.2071 31.2272 45.2584 31.1967C46.5938 30.063 48.2278 29.3385 49.9647 29.1102C50.7155 29.0486 51.4694 29.1879 52.1488 29.5133C52.8283 29.839 53.4091 30.3391 53.8317 30.963C53.874 31.0278 53.8986 31.1023 53.9034 31.1796C53.9082 31.2565 53.8928 31.3336 53.8589 31.4029L50.9619 37.3494C50.9296 37.4182 50.8801 37.4777 50.8183 37.5221C50.7564 37.5663 50.6842 37.5942 50.6086 37.6028C50.5419 37.6101 50.4743 37.603 50.4106 37.5817C50.3469 37.5604 50.2885 37.5258 50.2396 37.4798ZM46.1586 31.5442L50.3858 36.2955L52.8302 31.1767C52.485 30.7514 52.0412 30.4167 51.5373 30.2022C51.0333 29.9877 50.4846 29.8995 49.9387 29.9457C48.5613 30.1412 47.2585 30.6921 46.1586 31.5442Z" fill="#1D1D1D"/>
<path id="Vector_11" d="M65.5547 83.4502L65.4725 83.3932L53.336 70.1268C53.2943 70.0819 53.262 70.0293 53.2407 69.9719C53.2194 69.9147 53.2096 69.8534 53.2119 69.7924C53.2141 69.7312 53.2286 69.6711 53.2542 69.6154C53.2797 69.5598 53.316 69.5098 53.3608 69.4683C53.4058 69.4266 53.4583 69.3943 53.5158 69.373C53.573 69.3517 53.6343 69.3419 53.6953 69.3442C53.7565 69.3464 53.8166 69.3609 53.8722 69.3865C53.9279 69.412 53.9779 69.4483 54.0194 69.4931L66.1561 82.7593C66.197 82.8034 66.2287 82.8553 66.2494 82.9116C66.2703 82.968 66.2796 83.0281 66.2772 83.088C66.2747 83.1482 66.2601 83.2072 66.2347 83.2615C66.2094 83.316 66.1733 83.3649 66.129 83.4054C66.0522 83.4764 65.9538 83.5194 65.8496 83.5276C65.7454 83.5356 65.6415 83.5084 65.5547 83.4502Z" fill="#1D1D1D"/>
<path id="Vector_12" d="M65.0612 89.3807C64.9948 89.3349 64.9413 89.2724 64.9064 89.1996C64.8715 89.1266 64.8562 89.046 64.8619 88.9655L65.3692 83.045C65.377 82.9416 65.4196 82.8439 65.4905 82.768C65.5612 82.6922 65.6558 82.6428 65.7585 82.6279L71.602 81.8409C71.7222 81.8243 71.844 81.8563 71.9407 81.9295C72.0373 82.003 72.1009 82.1117 72.1175 82.2318C72.1339 82.352 72.102 82.474 72.0286 82.5706C71.9554 82.6673 71.8467 82.7308 71.7263 82.7474L66.2399 83.4831L65.7721 89.043C65.7683 89.1026 65.7524 89.1609 65.7258 89.2142C65.6989 89.2676 65.6617 89.3151 65.6162 89.3537C65.5706 89.3925 65.5181 89.4216 65.461 89.4397C65.4041 89.4575 65.3439 89.4638 65.2846 89.4581C65.2043 89.4539 65.127 89.4269 65.0612 89.3807Z" fill="#1D1D1D"/>
<path id="Vector_13" d="M43.1723 26.4906C43.6802 26.8431 44.378 26.7173 44.7307 26.2091C45.0832 25.7012 44.9572 25.0032 44.4492 24.6507C43.9411 24.298 43.2434 24.4242 42.8908 24.9322C42.5381 25.4403 42.6641 26.1379 43.1723 26.4906Z" fill="#1D1D1D"/>
<path id="Vector_14" d="M54.7113 28.2596C55.2195 28.6123 55.9172 28.4861 56.2698 27.9782C56.6224 27.47 56.4964 26.7724 55.9883 26.4197C55.4803 26.0672 54.7825 26.1931 54.4299 26.7012C54.0773 27.2092 54.2034 27.9071 54.7113 28.2596Z" fill="#1D1D1D"/>
<path id="Vector_15" d="M33.1442 48.9537C30.8181 47.3393 31.0579 42.7625 31.0718 42.5507C31.0756 42.4906 31.0912 42.4321 31.1176 42.3781C31.1441 42.3242 31.1809 42.2758 31.226 42.2362C31.271 42.1964 31.3235 42.1662 31.3803 42.1466C31.437 42.1271 31.4973 42.119 31.5572 42.1227C31.6172 42.1267 31.6757 42.1422 31.7298 42.1685C31.7837 42.195 31.8319 42.2317 31.8717 42.2769C31.9114 42.322 31.9418 42.3744 31.9613 42.4312C31.9807 42.4881 31.9887 42.5481 31.9849 42.6082C31.9849 42.6082 31.7235 47.5354 34.1386 48.4469C34.3343 48.5289 34.5461 48.5663 34.758 48.5562C34.9701 48.5462 35.1773 48.4891 35.3644 48.389C36.6343 47.7411 37.5158 45.4493 37.7717 44.5853C37.8008 44.4854 37.863 44.3984 37.9485 44.3387C38.0338 44.2792 38.1368 44.2507 38.2407 44.2579C38.3445 44.2652 38.4428 44.3077 38.5189 44.3787C38.5951 44.4495 38.6449 44.5443 38.6595 44.6474C38.6595 44.6474 39.3053 49.4174 41.7918 50.1459C41.9867 50.2134 42.1938 50.2379 42.399 50.2179C42.6044 50.1976 42.8029 50.1334 42.9809 50.0291C44.255 49.2955 45.1123 46.7986 45.3287 45.896C45.3555 45.7951 45.4157 45.7061 45.4994 45.6436C45.5829 45.581 45.6853 45.5483 45.7898 45.5511C45.893 45.5558 45.9914 45.5955 46.069 45.6636C46.1466 45.7313 46.1989 45.8239 46.2171 45.9253C46.4448 47.1141 47.374 50.3741 48.8407 51.0709C48.9387 51.1181 49.0463 51.1421 49.155 51.1404C49.2637 51.139 49.3706 51.1123 49.4672 51.0623C50.5371 50.5749 51.4751 48.0897 51.7474 47.1704C51.7812 47.0556 51.8586 46.9586 51.9631 46.9007C52.0677 46.8426 52.191 46.828 52.3064 46.8601C52.4216 46.8974 52.5183 46.9773 52.5765 47.0836C52.6346 47.1898 52.6497 47.3145 52.6188 47.4318C52.5032 47.8059 51.4909 51.1483 49.8458 51.8904C49.63 51.9957 49.3928 52.0506 49.1527 52.051C48.9124 52.0512 48.6753 51.9969 48.4592 51.892C47.0395 51.2393 46.1672 49.1267 45.7103 47.6458C45.3011 48.9192 44.5019 50.0315 43.4257 50.8256C43.1441 50.9919 42.8305 51.0966 42.5055 51.1327C42.1803 51.1688 41.8515 51.1356 41.5401 51.0352C39.5463 50.4271 38.5618 47.9818 38.1427 46.35C37.7015 47.517 36.9012 48.5136 35.8569 49.1964C35.5568 49.3558 35.2254 49.4473 34.886 49.4643C34.5466 49.4817 34.2076 49.4242 33.893 49.2959C33.6287 49.2169 33.3769 49.1016 33.1442 48.9537Z" fill="#1D1D1D"/>
<path id="Vector_16" d="M35.3268 59.3337C33.1727 57.8387 33.9472 54.2317 33.9832 54.0684C34.0095 53.9498 34.0818 53.8468 34.184 53.7817C34.2864 53.7164 34.4106 53.6948 34.5289 53.7211C34.6472 53.7475 34.7505 53.8197 34.8154 53.9222C34.8805 54.0244 34.9023 54.1484 34.8761 54.2668C34.8761 54.2668 34.0916 57.8559 36.1858 58.7664C36.3275 58.8394 36.4844 58.8779 36.6436 58.8787C36.8029 58.8794 36.9601 58.8425 37.1025 58.7711C38.1689 58.1925 38.8081 55.7547 38.961 54.8635C38.9768 54.7643 39.0262 54.6731 39.101 54.6061C39.176 54.5388 39.2717 54.4997 39.3721 54.4949C39.4724 54.49 39.5717 54.5184 39.6541 54.5756C39.7366 54.6329 39.7979 54.716 39.8284 54.8116C40.2329 56.001 41.5887 59.1252 43.0348 59.3088C44.481 59.4924 45.3609 57.0114 45.6241 56.0414C45.6316 55.9768 45.6531 55.9143 45.6866 55.8586C45.7203 55.8028 45.7657 55.7551 45.8196 55.7182C45.8733 55.6816 45.9343 55.6567 45.9986 55.6456C46.0626 55.6345 46.1284 55.6373 46.1916 55.6539C46.2546 55.6704 46.3134 55.7002 46.3638 55.7414C46.4142 55.7825 46.4553 55.834 46.4841 55.8924C46.5133 55.9508 46.5292 56.0147 46.5312 56.0798C46.5332 56.145 46.5213 56.2098 46.4962 56.2698C46.4499 56.4484 45.3481 60.5264 42.9297 60.211C41.3626 60.0099 40.1593 57.9115 39.5046 56.4598C39.1577 57.5821 38.537 59.0352 37.5242 59.5846C37.2664 59.7339 36.9765 59.8198 36.6791 59.8347C36.3813 59.8498 36.0845 59.7938 35.8129 59.6711C35.6387 59.5769 35.4758 59.4638 35.3268 59.3337Z" fill="#1D1D1D"/>
<path id="Vector_17" d="M39.2017 66.9222C37.5038 65.7438 37.1673 62.2851 37.1553 62.1106C37.1422 62.0479 37.1423 61.9831 37.156 61.9203C37.1696 61.8577 37.1964 61.7987 37.2344 61.7471C37.2726 61.6955 37.3211 61.6525 37.3769 61.6209C37.4327 61.5894 37.4947 61.57 37.5583 61.564C37.6223 61.558 37.6867 61.5656 37.7474 61.5864C37.8081 61.6069 37.8638 61.6402 37.9109 61.6838C37.9576 61.7275 37.995 61.7806 38.0199 61.8396C38.0448 61.8987 38.0572 61.9623 38.0559 62.0265C38.0559 62.0265 38.5228 66.4953 40.5072 66.3985C41.7785 66.339 41.9961 63.4867 41.9667 62.4911C41.9661 62.3709 42.0123 62.2549 42.0953 62.1679C42.1785 62.0807 42.2922 62.0295 42.4124 62.0246C42.4728 62.0219 42.5329 62.0314 42.5892 62.0526C42.6457 62.0737 42.6974 62.1061 42.7408 62.1477C42.7844 62.1894 42.8191 62.2394 42.843 62.2949C42.8667 62.3503 42.8789 62.41 42.879 62.4703C42.8926 62.9454 42.9269 67.1913 40.5531 67.306C40.072 67.3368 39.5949 67.2013 39.2017 66.9222Z" fill="#1D1D1D"/>
</g>
</svg>
