<svg width="55" height="55" viewBox="0 0 55 55" fill="none" xmlns="http://www.w3.org/2000/svg">
<rect width="55" height="55" rx="15" fill="#007EA4"/>
<g clip-path="url(#clip0_1_3155)">
<path d="M15.2497 15.25H40.7497C41.1254 15.25 41.4857 15.3993 41.7514 15.6649C42.0171 15.9306 42.1663 16.2909 42.1663 16.6667V39.3333C42.1663 39.7091 42.0171 40.0694 41.7514 40.3351C41.4857 40.6007 41.1254 40.75 40.7497 40.75H15.2497C14.874 40.75 14.5136 40.6007 14.2479 40.3351C13.9823 40.0694 13.833 39.7091 13.833 39.3333V16.6667C13.833 16.2909 13.9823 15.9306 14.2479 15.6649C14.5136 15.3993 14.874 15.25 15.2497 15.25ZM28.0847 27.5509L19.001 19.8372L17.1664 21.9962L28.1031 31.2824L38.8428 21.9891L36.9898 19.8457L28.0861 27.5509H28.0847Z" fill="white"/>
</g>
<defs>
<clipPath id="clip0_1_3155">
<rect width="34" height="34" fill="white" transform="translate(11 11)"/>
</clipPath>
</defs>
</svg>
