<svg width="41" height="45" viewBox="0 0 41 45" fill="none" xmlns="http://www.w3.org/2000/svg">
<path id="Vector" d="M19.1866 0.158428C18.6697 0.236649 17.683 0.455662 16.9938 0.674675C16.3047 0.878048 15.177 1.08142 14.4878 1.12835C12.2481 1.26915 10.3842 2.286 9.6481 3.77218C9.42882 4.22585 9.24087 4.66389 9.24087 4.7734C9.24087 4.8829 8.83365 5.38351 8.33245 5.88411C7.09511 7.11999 6.68789 8.04298 6.7662 9.37271C6.82885 10.3896 7.06379 11.0779 7.65896 11.954L7.97221 12.4233L7.18909 13.6435C6.03006 15.4269 5.92042 15.865 6.12404 17.5076L6.29632 18.8842L4.82405 20.8867C0.93975 26.1743 0 27.5666 0 28.0203C0 28.5522 0.704812 29.0841 1.40962 29.0841H2.03612L1.95781 29.7411C1.89516 30.1166 1.83251 30.6485 1.78552 30.9301C1.72287 31.3681 1.76986 31.4776 2.17709 31.7123C2.64696 31.9782 2.80359 32.2129 2.506 32.2129C2.42769 32.2129 2.28672 32.3537 2.17709 32.5414C2.03612 32.8074 2.08311 33.042 2.44335 33.8399C2.78792 34.6064 2.86624 34.9975 2.85057 35.8736C2.83491 37.0625 2.94455 37.3597 3.64936 38.1263C4.21321 38.7208 4.74574 38.8772 6.62524 39.018C8.22281 39.1588 8.09751 38.799 7.73727 42.1624C7.45535 44.8845 7.42402 44.7906 9.00594 44.9627C11.1204 45.1817 14.895 44.4308 19.4998 42.8508C23.0709 41.6305 29.7853 39.3406 29.7853 39.0434C29.7853 38.9808 29.66 38.8869 29.5034 38.8244C29.0335 38.6836 28.5214 37.6726 28.4901 36.1082L28.4588 34.6533L29.3045 33.8868C30.3852 32.9325 33.1732 30.8049 33.3611 30.8049C33.4394 30.8049 33.9093 30.6485 34.3948 30.4764C36.1021 29.835 37.449 28.1455 38.0755 25.8771C38.4671 24.4222 38.6864 23.9685 39.1562 23.5305C39.8454 22.9047 40.143 22.0756 40.1273 20.7459C40.1117 20.0575 40.0647 19.3536 40.002 19.1971C39.9394 19.0094 40.096 18.4618 40.4092 17.8048C41.5526 15.3174 41.0201 13.1898 38.9526 11.9696L38.2791 11.5785L38.3418 10.5617C38.4201 9.27885 38.0285 8.3715 37.0105 7.52673C36.196 6.85404 36.0394 6.6976 35.3659 5.88411C34.7864 5.18014 32.719 4.13199 30.6672 3.50623C29.6334 3.17771 29.1636 2.94305 28.678 2.48938C27.7539 1.59767 25.4046 0.924984 23.2745 0.924984C22.5383 0.924984 22.2564 0.862408 21.9901 0.596458C21.6769 0.314869 20.7058 -0.0293007 20.2829 0.00198746C20.2046 0.0176315 19.7034 0.0802078 19.1866 0.158428Z" fill="#FF4B39"/>
</svg>
