<svg width="42" height="41" viewBox="0 0 42 41" fill="none" xmlns="http://www.w3.org/2000/svg">
<circle cx="21.1445" cy="20.5" r="20.5" fill="#55ACE3"/>
<path d="M32.0119 15.2727C31.2944 15.5802 30.4744 15.7852 29.6544 15.8877C30.4744 15.3752 31.1919 14.5552 31.4994 13.6327C30.6794 14.1452 29.8594 14.4527 28.8344 14.6577C28.1169 13.8377 26.9894 13.3252 25.8619 13.3252C23.6069 13.3252 21.7619 15.1702 21.7619 17.4252C21.7619 17.7327 21.7619 18.0402 21.8644 18.3477C18.4819 18.1427 15.4069 16.5027 13.3569 14.0427C13.0494 14.6577 12.8444 15.3752 12.8444 16.0927C12.8444 17.5277 13.5619 18.7577 14.6894 19.4752C13.9719 19.4752 13.3569 19.2702 12.8444 18.9627C12.8444 20.9102 14.2794 22.6527 16.1244 22.9602C15.8169 23.0627 15.4069 23.0627 14.9969 23.0627C14.6894 23.0627 14.4844 23.0627 14.1769 22.9602C14.6894 24.6002 16.2269 25.8302 18.0719 25.8302C16.6369 26.9577 14.8944 27.5727 12.9469 27.5727C12.6394 27.5727 12.3319 27.5727 11.9219 27.4702C13.7669 28.5977 15.9194 29.3152 18.2769 29.3152C25.8619 29.3152 29.9619 23.0627 29.9619 17.6302V17.1177C30.7819 16.8102 31.4994 16.0927 32.0119 15.2727Z" fill="white"/>
</svg>
