<svg width="42" height="41" viewBox="0 0 42 41" fill="none" xmlns="http://www.w3.org/2000/svg">
<circle cx="21.429" cy="20.4993" r="20.4993" fill="#C5331E"/>
<path d="M21.7819 18.9019V22.959H27.2997C26.4882 25.1499 24.3785 26.6105 21.9442 26.6105C18.7796 26.6105 16.2642 24.095 16.2642 20.9304C16.2642 17.7659 18.7796 15.2504 21.9442 15.2504C23.1613 15.2504 24.2974 15.6561 25.2711 16.3053L25.5956 16.5487L28.0299 13.3841L27.7054 13.1407C26.0014 11.9236 24.0539 11.2744 21.9442 11.2744C16.5888 11.2744 12.207 15.6561 12.207 21.0116C12.207 26.367 16.5888 30.7488 21.9442 30.7488C27.2996 30.7488 31.6814 26.367 31.6814 21.0116V18.983H21.7819V18.9019Z" fill="white"/>
</svg>
