<svg width="41" height="41" viewBox="0 0 41 41" fill="none" xmlns="http://www.w3.org/2000/svg">
<circle cx="20.5" cy="20.5" r="20.5" fill="#7294C7"/>
<path d="M30.5548 25.7436C30.5548 25.6585 30.4697 25.6585 30.4697 25.5734C30.1293 24.8926 29.3634 24.0416 28.3422 23.1056C27.8316 22.6801 27.5763 22.3397 27.4061 22.1695C27.1508 21.8291 27.1508 21.5738 27.2359 21.2334C27.321 20.9781 27.6614 20.5526 28.2571 19.7867C28.5975 19.3612 28.7677 19.1059 29.023 18.8506C30.2995 17.1487 30.8951 16.0424 30.725 15.5318L30.6399 15.4467C30.5548 15.3616 30.4697 15.2765 30.2995 15.2765C30.1293 15.1914 29.874 15.1914 29.6187 15.2765H26.3849C26.2999 15.2765 26.2998 15.2765 26.1296 15.2765C26.0445 15.2765 25.9595 15.2765 25.9595 15.2765H25.8744H25.7892L25.7041 15.3616C25.619 15.4467 25.619 15.4467 25.619 15.5318C25.2786 16.4679 24.8532 17.2337 24.4277 18.0847C24.1724 18.5102 23.9171 18.9357 23.6618 19.2761C23.4065 19.6165 23.2363 19.8718 23.0661 20.042C22.8959 20.2122 22.7257 20.2973 22.6406 20.4675C22.5555 20.5526 22.3853 20.6377 22.3853 20.5526C22.3002 20.5526 22.2151 20.5526 22.2151 20.4675C22.13 20.3824 22.0449 20.2973 21.9598 20.2122C21.8747 20.1271 21.8747 19.9569 21.7896 19.7867C21.7896 19.6165 21.7896 19.4463 21.7896 19.3612C21.7896 19.2761 21.7896 19.0208 21.7896 18.8506C21.7896 18.5953 21.7896 18.4251 21.7896 18.34C21.7896 18.0847 21.7896 17.7444 21.7896 17.404C21.7896 17.0636 21.7896 16.8083 21.7896 16.6381C21.7896 16.4679 21.7896 16.2126 21.7896 16.0424C21.7896 15.7871 21.7896 15.6169 21.7896 15.5318C21.7896 15.4467 21.7045 15.2765 21.7045 15.1914C21.6194 15.1063 21.5343 15.0212 21.4492 14.9361C21.3641 14.851 21.1939 14.851 21.1088 14.7659C20.6833 14.6808 20.1728 14.5957 19.5771 14.5957C18.2155 14.5957 17.2794 14.6808 16.939 14.851C16.7688 14.9361 16.5986 15.0212 16.5135 15.1914C16.3433 15.3616 16.3433 15.4467 16.4284 15.4467C16.8539 15.5318 17.1943 15.702 17.3645 15.9573L17.4496 16.1275C17.5347 16.2126 17.5347 16.3828 17.6198 16.6381C17.7049 16.8934 17.7049 17.1487 17.7049 17.489C17.7049 17.9996 17.7049 18.5102 17.7049 18.8506C17.7049 19.2761 17.6198 19.5314 17.6198 19.7867C17.6198 20.042 17.5347 20.2122 17.4496 20.2973C17.3645 20.4675 17.3645 20.5526 17.2794 20.5526C17.2794 20.5526 17.2794 20.6377 17.1943 20.6377C17.1092 20.6377 17.0241 20.7228 16.8539 20.7228C16.7688 20.7228 16.5986 20.6377 16.5135 20.5526C16.3433 20.4675 16.1731 20.2973 16.088 20.1271C15.9178 19.9569 15.7476 19.7016 15.5774 19.3612C15.4072 19.0208 15.1519 18.6804 14.9817 18.1698L14.8115 17.8294C14.7264 17.6593 14.5563 17.3189 14.3861 16.8934C14.2159 16.4679 14.0457 16.1275 13.8755 15.702C13.7904 15.5318 13.7053 15.4467 13.6202 15.3616H13.5351C13.5351 15.3616 13.45 15.2765 13.3649 15.2765C13.2798 15.2765 13.1947 15.1914 13.1096 15.1914H10.046C9.70563 15.1914 9.53544 15.2765 9.45034 15.3616L9.36523 15.4467C9.36523 15.4467 9.36523 15.5318 9.36523 15.6169C9.36523 15.702 9.36524 15.7871 9.45034 15.9573C9.87583 16.9785 10.3864 17.9996 10.897 19.0208C11.4076 19.9569 11.9182 20.8079 12.2586 21.4036C12.6841 21.9993 13.0245 22.595 13.45 23.1056C13.8755 23.6161 14.1307 23.9565 14.2158 24.1267C14.386 24.2969 14.4711 24.382 14.5562 24.4671L14.8115 24.7224C14.9817 24.8926 15.237 25.1479 15.5774 25.4032C15.9178 25.6585 16.3433 25.9138 16.7688 26.1691C17.1943 26.4244 17.7049 26.5946 18.2155 26.7648C18.8112 26.935 19.3218 27.0201 19.8324 26.935H21.1088C21.3641 26.935 21.5343 26.8499 21.7045 26.6797L21.7896 26.5946C21.7896 26.5095 21.8747 26.5095 21.8747 26.4244C21.8747 26.3393 21.8747 26.2542 21.8747 26.084C21.8747 25.7436 21.8747 25.4883 21.9598 25.233C22.0449 24.9777 22.0449 24.8075 22.13 24.6373C22.2151 24.4671 22.3002 24.382 22.3853 24.2969C22.4704 24.2118 22.5555 24.1267 22.5555 24.1267H22.6406C22.8108 24.0416 23.0661 24.1267 23.2363 24.2969C23.4916 24.4671 23.7469 24.7224 23.9171 24.9777C24.0873 25.233 24.3426 25.4883 24.683 25.8287C25.0234 26.1691 25.2787 26.4244 25.4489 26.5095L25.7041 26.6797C25.8743 26.7648 26.0445 26.8499 26.2998 26.935C26.5551 27.0201 26.7253 27.0201 26.8955 27.0201L29.7889 26.935C30.0442 26.935 30.2995 26.8499 30.4697 26.7648C30.6399 26.6797 30.725 26.5946 30.725 26.4244C30.725 26.3393 30.725 26.1691 30.725 26.084C30.5548 25.9138 30.5548 25.8287 30.5548 25.7436Z" fill="white"/>
</svg>
