<svg width="42" height="41" viewBox="0 0 42 41" fill="none" xmlns="http://www.w3.org/2000/svg">
<circle cx="21.3945" cy="20.5" r="20.5" fill="#4E6297"/>
<path d="M30.6184 14.164C30.6184 12.6292 29.2641 11.2749 27.7292 11.2749H16.0825C14.5476 11.2749 13.1934 12.6292 13.1934 14.164V25.8108C13.1934 27.3456 14.5476 28.6999 16.0825 28.6999H21.951V22.1091H19.7842V19.22H21.951V18.0463C21.951 16.06 23.3956 14.3446 25.2013 14.3446H27.5487V17.2337H25.2013C24.9304 17.2337 24.6595 17.5046 24.6595 18.0463V19.22H27.5487V22.1091H24.6595V28.6999H27.7292C29.2641 28.6999 30.6184 27.3456 30.6184 25.8108V14.164Z" fill="white"/>
</svg>
