<svg width="55" height="55" viewBox="0 0 55 55" fill="none" xmlns="http://www.w3.org/2000/svg">
<g id="Social Media / Telegram">
<rect id="Logo Container" width="55" height="55" rx="15" fill="#34AADF"/>
<path id="Vector" d="M15.3011 26.5256C15.3011 26.5256 26.4907 21.8127 30.3714 20.1532C31.8591 19.4895 36.9041 17.3653 36.9041 17.3653C36.9041 17.3653 39.2326 16.436 39.0385 18.6929C38.9738 19.6222 38.4564 22.8748 37.939 26.3929C37.1628 31.3713 36.3219 36.8143 36.3219 36.8143C36.3219 36.8143 36.1926 38.3411 35.0931 38.6066C33.9935 38.8721 32.1824 37.6774 31.8591 37.4118C31.6003 37.2127 27.0081 34.2256 25.3264 32.7652C24.8737 32.367 24.3562 31.5705 25.3911 30.6411C27.7196 28.4506 30.5008 25.7291 32.1824 24.0033C32.9586 23.2067 33.7347 21.3481 30.5008 23.6049C25.9086 26.8575 21.381 29.911 21.381 29.911C21.381 29.911 20.3461 30.5747 18.4057 29.9773C16.4653 29.38 14.2015 28.5834 14.2015 28.5834C14.2015 28.5834 12.6493 27.5877 15.3011 26.5256Z" fill="white"/>
</g>
</svg>
