<svg width="55" height="55" viewBox="0 0 55 55" fill="none" xmlns="http://www.w3.org/2000/svg">
<rect width="55" height="55" rx="15" fill="#2787F5"/>
<path fill-rule="evenodd" clip-rule="evenodd" d="M43.5478 19.5807C43.7802 18.8536 43.5478 18.3193 42.4416 18.3193H38.7837C37.8536 18.3193 37.4248 18.7809 37.1923 19.2898C37.1923 19.2898 35.3321 23.5431 32.6969 26.3059C31.8443 27.1057 31.4568 27.3601 30.9917 27.3601C30.7592 27.3601 30.4226 27.1057 30.4226 26.3786V19.5807C30.4226 18.7082 30.1527 18.3193 29.3776 18.3193H23.6294C23.0482 18.3193 22.6986 18.7243 22.6986 19.1081C22.6986 19.9352 24.0162 20.1259 24.152 22.4525V27.5056C24.152 28.6135 23.9387 28.8143 23.4736 28.8143C22.2336 28.8143 19.2171 24.542 17.4281 19.6533C17.0775 18.7032 16.7259 18.3193 15.791 18.3193H12.1331C11.0879 18.3193 10.8789 18.7809 10.8789 19.2898C10.8789 20.1986 12.119 24.7064 16.6531 30.6683C19.6758 34.7398 23.9346 36.9468 27.8099 36.9468C30.1351 36.9468 30.4227 36.4566 30.4227 35.6122V32.535C30.4227 31.5546 30.643 31.359 31.3793 31.359C31.9218 31.359 32.8519 31.6134 35.0221 33.5765C37.5023 35.9031 37.9112 36.9468 39.3063 36.9468H42.9642C44.0093 36.9468 44.5319 36.4566 44.2304 35.4892C43.9005 34.5251 42.7164 33.1263 41.1451 31.468C40.2925 30.5229 39.0137 29.505 38.6261 28.996C38.0836 28.3417 38.2386 28.0508 38.6261 27.4692C38.6261 27.4692 43.0828 21.58 43.5478 19.5807Z" fill="white"/>
</svg>
