<svg width="55" height="55" viewBox="0 0 55 55" fill="none" xmlns="http://www.w3.org/2000/svg">
<rect width="55" height="55" rx="15" fill="#FF0000"/>
<path d="M42.7973 19.935C42.4382 18.585 41.3759 17.52 40.0243 17.155C37.5806 16.5 27.7756 16.5 27.7756 16.5C27.7756 16.5 17.9756 16.5 15.5268 17.155C14.1803 17.515 13.118 18.58 12.7539 19.935C12.1006 22.385 12.1006 27.5 12.1006 27.5C12.1006 27.5 12.1006 32.615 12.7539 35.065C13.113 36.415 14.1753 37.48 15.5268 37.845C17.9756 38.5 27.7756 38.5 27.7756 38.5C27.7756 38.5 37.5806 38.5 40.0243 37.845C41.3709 37.485 42.4332 36.42 42.7973 35.065C43.4506 32.615 43.4506 27.5 43.4506 27.5C43.4506 27.5 43.4506 22.385 42.7973 19.935Z" fill="white"/>
<path d="M24.6436 32.215L32.7878 27.5L24.6436 22.785V32.215Z" fill="#FF0000"/>
</svg>
