<svg width="280" height="75" viewBox="0 0 280 75" fill="none" xmlns="http://www.w3.org/2000/svg">
<path d="M17.138 32.361L31.078 52H22.878L12.464 37.445L8.856 41.381V52H1.886V18.831H8.856V32.607L21.484 18.831H29.602L17.138 32.361ZM52.5726 18.79H59.0916V39.29C59.0916 46.588 55.0326 52.615 45.4386 52.615C36.0086 52.615 31.8266 46.588 31.8266 39.29V18.79H38.3046V39.208V39.454C38.3046 44.661 42.1996 46.096 45.4386 46.096C48.7186 46.096 52.5726 44.661 52.5726 39.413V39.208V18.79ZM75.2952 18.831C83.9872 18.831 91.0802 26.252 91.0802 35.395C91.0802 44.579 83.9872 52 75.2952 52H62.5852V18.831H75.2952ZM69.9242 25.391V45.44H75.5412C79.8052 45.44 83.4952 41.217 83.9462 36.42C83.9462 36.379 83.9462 36.379 83.9462 36.379C83.9462 36.297 83.9462 36.256 83.9462 36.174C83.9872 35.928 83.9872 35.682 83.9872 35.395C83.9872 35.313 83.9872 35.231 83.9872 35.108C83.8232 29.983 80.0102 25.391 75.5412 25.391H69.9242ZM112.722 52L110.139 45.153H97.9208L95.3378 52H88.3678L100.545 18.831H108.253L119.733 52H112.722ZM100.217 39.044H107.843L104.03 28.958L100.217 39.044ZM135.253 32.361L149.193 52H140.993L130.579 37.445L126.971 41.381V52H120.001V18.831H126.971V32.607L139.599 18.831H147.717L135.253 32.361ZM157.477 18.831V52H150.671V18.831H157.477ZM173.992 18.831C182.684 18.831 189.777 26.252 189.777 35.395C189.777 44.579 182.684 52 173.992 52H161.282V18.831H173.992ZM168.621 25.391V45.44H174.238C178.502 45.44 182.192 41.217 182.643 36.42C182.643 36.379 182.643 36.379 182.643 36.379C182.643 36.297 182.643 36.256 182.643 36.174C182.684 35.928 182.684 35.682 182.684 35.395C182.684 35.313 182.684 35.231 182.684 35.108C182.52 29.983 178.707 25.391 174.238 25.391H168.621ZM196.768 52H190.126V44.907H196.768V52ZM220.141 39.331L227.972 52H219.526L212.966 40.069C207.718 40.069 206.898 40.069 206.898 40.069V52H199.559V18.831H214.893C222.109 18.831 226.537 24.038 226.537 29.532C226.537 33.755 224.036 37.855 220.141 39.331ZM206.898 33.632H215.467C218.009 33.632 220.1 32.074 220.1 29.532C220.1 26.949 218.009 25.268 215.467 25.268H206.898V33.632ZM250.446 18.79H256.965V39.29C256.965 46.588 252.906 52.615 243.312 52.615C233.882 52.615 229.7 46.588 229.7 39.29V18.79H236.178V39.208V39.454C236.178 44.661 240.073 46.096 243.312 46.096C246.592 46.096 250.446 44.661 250.446 39.413V39.208V18.79Z" fill="#FF4B39"/>
<path d="M6.00622 69.5142C7.11649 69.6841 7.41256 70.6 7.41256 71.4498C7.41256 72.6584 6.66313 73.4609 4.93296 73.4609H2V65.8223H4.83119C6.13575 65.8223 6.9592 66.8609 6.9592 67.9751C6.9592 68.4661 6.7279 69.2592 6.00622 69.5142ZM4.60913 66.5777H2.74943V69.1837C3.35083 69.1837 4.14652 69.1837 4.59988 69.1837C5.63613 69.1837 6.19127 68.8627 6.19127 67.8901C6.19127 67.1253 5.67314 66.5777 4.60913 66.5777ZM5.07174 72.715C6.01547 72.715 6.66313 72.3468 6.66313 71.3931C6.66313 70.6189 6.07099 69.9296 5.05324 69.9296H2.74943V72.715H5.07174Z" fill="#1D1D1D"/>
<path d="M14.3456 70.6755H15.1228C14.7434 72.8189 13.1706 73.612 11.6902 73.612C9.54369 73.612 8.1651 72.0541 8.1651 69.6369C8.1651 68.4094 8.52594 67.3803 9.20135 66.6721C9.83051 66.0206 10.7095 65.6618 11.6902 65.6618C13.4481 65.6618 14.6879 66.691 15.0765 68.4189H14.2993C13.9015 66.9742 12.7727 66.4361 11.6902 66.4361C10.3301 66.4361 8.92379 67.3425 8.92379 69.6369C8.92379 72.0069 10.3301 72.8378 11.6902 72.8378C13.0965 72.8378 14.0495 72.073 14.3456 70.6755Z" fill="#1D1D1D"/>
<path d="M16.5645 66.5682V68.9949H20.1637V69.7408L16.5645 69.7219V72.7245H20.8391V73.4609H15.8151V65.8223H20.8391V66.5682H16.5645Z" fill="#1D1D1D"/>
<path d="M30.8533 70.6755H31.6305C31.2511 72.8189 29.6782 73.612 28.1979 73.612C26.0514 73.612 24.6728 72.0541 24.6728 69.6369C24.6728 68.4094 25.0336 67.3803 25.709 66.6721C26.3382 66.0206 27.2171 65.6618 28.1979 65.6618C29.9558 65.6618 31.1956 66.691 31.5842 68.4189H30.807C30.4092 66.9742 29.2804 66.4361 28.1979 66.4361C26.8378 66.4361 25.4315 67.3425 25.4315 69.6369C25.4315 72.0069 26.8378 72.8378 28.1979 72.8378C29.6042 72.8378 30.5572 72.073 30.8533 70.6755Z" fill="#1D1D1D"/>
<path d="M35.5888 65.6618C37.7261 65.6618 39.1139 67.182 39.1139 69.6369C39.1139 72.5734 37.2912 73.612 35.5888 73.612C33.4423 73.612 32.0637 72.0541 32.0637 69.6369C32.0637 68.4094 32.4246 67.3803 33.1 66.6721C33.7291 66.0206 34.6081 65.6618 35.5888 65.6618ZM35.5888 72.8378C37.319 72.8378 38.346 71.6858 38.346 69.6369C38.346 67.2575 36.9397 66.4361 35.5888 66.4361C34.2287 66.4361 32.8224 67.3425 32.8224 69.6369C32.8224 72.0069 34.2287 72.8378 35.5888 72.8378Z" fill="#1D1D1D"/>
<path d="M42.9666 69.1837C44.5395 69.1837 45.2889 70.2884 45.2889 71.2798C45.2889 72.8378 44.5395 73.4609 42.8093 73.4609H39.8764V65.8223H44.5673V66.5777H40.6258V69.1837H42.9666ZM42.9481 72.715C43.8918 72.715 44.5395 72.3468 44.5395 71.3931C44.5395 70.6189 43.9474 69.9296 42.9296 69.9296H40.6258V72.715H42.9481Z" fill="#1D1D1D"/>
<path d="M49.0565 69.1837C50.5276 69.1837 51.3788 70.2884 51.3788 71.2798C51.3788 72.715 50.6294 73.4609 48.8992 73.4609H45.9662V65.8223H46.7157V69.1837H49.0565ZM49.038 72.715C49.9817 72.715 50.6294 72.3468 50.6294 71.3931C50.6294 70.6189 50.0372 69.9296 49.0195 69.9296H46.7157V72.715H49.038ZM53.0072 73.4609H52.2578V65.8223H53.0072V73.4609Z" fill="#1D1D1D"/>
<path d="M60.5207 66.5682H57.3841V73.4609H56.6255V66.5682H53.4982V65.8223H60.5207V66.5682Z" fill="#1D1D1D"/>
<path d="M66.5432 66.7099L61.9819 73.4609H61.0011V65.8223H61.7598V72.5734L66.3027 65.8223H67.3019V73.4609H66.5432V66.7099Z" fill="#1D1D1D"/>
<path d="M68.8749 73.4609H67.9867L69.8002 70.1279H70.6791L68.8749 73.4609ZM70.5958 65.8223H73.6861V73.4609H72.9089V70.1279H69.8002C69.2543 70.0335 68.144 69.5803 68.144 67.9751C68.144 66.37 69.6521 65.8223 70.5958 65.8223ZM72.9089 69.3536V66.6155H70.4478C69.6429 66.6155 68.9027 67.1536 68.9027 67.9751C68.9027 68.9476 69.4208 69.3536 70.4478 69.3536H72.9089Z" fill="#1D1D1D"/>
<path d="M81.5267 73.4609L78.9361 66.7099V73.4609H78.1774V65.8223H79.3895L81.8783 72.3657L84.3487 65.8223H85.57V73.4609H84.802L84.8113 66.7099L82.2206 73.4609H81.5267Z" fill="#1D1D1D"/>
<path d="M89.8464 65.6618C91.9836 65.6618 93.3715 67.182 93.3715 69.6369C93.3715 72.5734 91.5488 73.612 89.8464 73.612C87.6998 73.612 86.3213 72.0541 86.3213 69.6369C86.3213 68.4094 86.6821 67.3803 87.3575 66.6721C87.9867 66.0206 88.8656 65.6618 89.8464 65.6618ZM89.8464 72.8378C91.5765 72.8378 92.6035 71.6858 92.6035 69.6369C92.6035 67.2575 91.1972 66.4361 89.8464 66.4361C88.4863 66.4361 87.0799 67.3425 87.0799 69.6369C87.0799 72.0069 88.4863 72.8378 89.8464 72.8378Z" fill="#1D1D1D"/>
<path d="M100.055 70.6755H100.833C100.453 72.8189 98.8803 73.612 97.4 73.612C95.2534 73.612 93.8749 72.0541 93.8749 69.6369C93.8749 68.4094 94.2357 67.3803 94.9111 66.6721C95.5403 66.0206 96.4192 65.6618 97.4 65.6618C99.1579 65.6618 100.398 66.691 100.786 68.4189H100.009C99.6112 66.9742 98.4825 66.4361 97.4 66.4361C96.0399 66.4361 94.6335 67.3425 94.6335 69.6369C94.6335 72.0069 96.0399 72.8378 97.4 72.8378C98.8063 72.8378 99.7593 72.073 100.055 70.6755Z" fill="#1D1D1D"/>
<path d="M102.274 70.0524L106.068 65.8223H107.095L104.328 68.9099L107.437 73.4609H106.521L103.81 69.4858L102.274 71.1948V73.4609H101.525V65.8223H102.274V70.0524Z" fill="#1D1D1D"/>
<path d="M111.946 69.5142C113.056 69.6841 113.353 70.6 113.353 71.4498C113.353 72.6584 112.603 73.4609 110.873 73.4609H107.94V65.8223H110.771C112.076 65.8223 112.899 66.8609 112.899 67.9751C112.899 68.4661 112.668 69.2592 111.946 69.5142ZM110.549 66.5777H108.689V69.1837C109.291 69.1837 110.087 69.1837 110.54 69.1837C111.576 69.1837 112.131 68.8627 112.131 67.8901C112.131 67.1253 111.613 66.5777 110.549 66.5777ZM111.012 72.715C111.955 72.715 112.603 72.3468 112.603 71.3931C112.603 70.6189 112.011 69.9296 110.993 69.9296H108.689V72.715H111.012Z" fill="#1D1D1D"/>
<path d="M117.454 69.1837C118.926 69.1837 119.777 70.2884 119.777 71.2798C119.777 72.715 119.027 73.4609 117.297 73.4609H114.364V65.8223H115.114V69.1837H117.454ZM117.436 72.715C118.38 72.715 119.027 72.3468 119.027 71.3931C119.027 70.6189 118.435 69.9296 117.417 69.9296H115.114V72.715H117.436ZM121.405 73.4609H120.656V65.8223H121.405V73.4609Z" fill="#1D1D1D"/>
<path d="M131.259 72.7433V66.5588H128.335V67.8618C128.363 69.2498 128.049 71.4309 127.512 72.7433H131.259ZM131.99 72.7528H133.48V75H132.749V73.4704H126.096V75H125.375V72.7528H126.513C127.197 72.0824 127.577 69.8163 127.595 67.9468V65.8318H131.99V72.7528Z" fill="#1D1D1D"/>
<path d="M138.868 66.5588H135.907V66.9931C135.907 68.6172 135.898 69.8824 135.713 71.3931C135.519 73.0549 135.158 73.4609 133.696 73.4609C133.696 73.4609 133.696 72.8661 133.696 72.7245C134.806 72.7245 134.88 72.63 135.065 70.921C135.139 70.2601 135.223 69.212 135.223 67.9468V65.8223H139.599V73.4609H138.868V66.5588Z" fill="#1D1D1D"/>
<path d="M141.185 73.4609H140.297L142.11 70.1279H142.989L141.185 73.4609ZM142.906 65.8223H145.996V73.4609H145.219V70.1279H142.11C141.565 70.0335 140.454 69.5803 140.454 67.9751C140.454 66.37 141.962 65.8223 142.906 65.8223ZM145.219 69.3536V66.6155H142.758C141.953 66.6155 141.213 67.1536 141.213 67.9751C141.213 68.9476 141.731 69.3536 142.758 69.3536H145.219Z" fill="#1D1D1D"/>
<path d="M154.494 69.5142C155.604 69.6841 155.9 70.6 155.9 71.4498C155.9 72.6584 155.151 73.4609 153.421 73.4609H150.488V65.8223H153.319C154.623 65.8223 155.447 66.8609 155.447 67.9751C155.447 68.4661 155.216 69.2592 154.494 69.5142ZM153.097 66.5777H151.237V69.1837C151.839 69.1837 152.634 69.1837 153.088 69.1837C154.124 69.1837 154.679 68.8627 154.679 67.8901C154.679 67.1253 154.161 66.5777 153.097 66.5777ZM153.559 72.715C154.503 72.715 155.151 72.3468 155.151 71.3931C155.151 70.6189 154.559 69.9296 153.541 69.9296H151.237V72.715H153.559Z" fill="#1D1D1D"/>
<path d="M161.279 71.2704H157.976L157.208 73.4609H156.412L159.206 65.8223H160.058L162.861 73.4609H162.047L161.279 71.2704ZM159.632 66.5399L158.235 70.5245H161.02L159.632 66.5399Z" fill="#1D1D1D"/>
<path d="M168.896 70.6755H169.673C169.294 72.8189 167.721 73.612 166.241 73.612C164.094 73.612 162.716 72.0541 162.716 69.6369C162.716 68.4094 163.076 67.3803 163.752 66.6721C164.381 66.0206 165.26 65.6618 166.241 65.6618C167.999 65.6618 169.238 66.691 169.627 68.4189H168.85C168.452 66.9742 167.323 66.4361 166.241 66.4361C164.881 66.4361 163.474 67.3425 163.474 69.6369C163.474 72.0069 164.881 72.8378 166.241 72.8378C167.647 72.8378 168.6 72.073 168.896 70.6755Z" fill="#1D1D1D"/>
<path d="M179.386 66.7099L174.825 73.4609H173.844V65.8223H174.603V72.5734L179.146 65.8223H180.145V73.4609H179.386V66.7099Z" fill="#1D1D1D"/>
<path d="M188.648 69.5142C189.758 69.6841 190.054 70.6 190.054 71.4498C190.054 72.6584 189.305 73.4609 187.574 73.4609H184.641V65.8223H187.473C188.777 65.8223 189.601 66.8609 189.601 67.9751C189.601 68.4661 189.369 69.2592 188.648 69.5142ZM187.251 66.5777H185.391V69.1837C185.992 69.1837 186.788 69.1837 187.241 69.1837C188.278 69.1837 188.833 68.8627 188.833 67.8901C188.833 67.1253 188.315 66.5777 187.251 66.5777ZM187.713 72.715C188.657 72.715 189.305 72.3468 189.305 71.3931C189.305 70.6189 188.712 69.9296 187.695 69.9296H185.391V72.715H187.713Z" fill="#1D1D1D"/>
<path d="M195.433 71.2704H192.13L191.362 73.4609H190.566L193.36 65.8223H194.211L197.015 73.4609H196.201L195.433 71.2704ZM193.786 66.5399L192.389 70.5245H195.174L193.786 66.5399Z" fill="#1D1D1D"/>
<path d="M205.391 65.8223H206.149V73.4609H197.517V65.8223H198.276V72.7245H201.449V65.8223H202.217V72.7245H205.391V65.8223Z" fill="#1D1D1D"/>
<path d="M212.7 66.7099L208.138 73.4609H207.158V65.8223H207.916V72.5734L212.459 65.8223H213.458V73.4609H212.7V66.7099Z" fill="#1D1D1D"/>
<path d="M217.779 69.6936L220.352 73.4609H219.426L217.317 70.3639L215.217 73.4609H214.291L216.863 69.6936L214.227 65.8223H215.152L217.317 69.0137L219.491 65.8223H220.407L217.779 69.6936Z" fill="#1D1D1D"/>
<path d="M229.763 72.7433V66.5588H226.839V67.8618C226.867 69.2498 226.553 71.4309 226.016 72.7433H229.763ZM230.494 72.7528H231.984V75H231.253V73.4704H224.6V75H223.879V72.7528H225.017C225.701 72.0824 226.081 69.8163 226.099 67.9468V65.8318H230.494V72.7528Z" fill="#1D1D1D"/>
<path d="M233.206 66.5682V68.9949H236.805V69.7408L233.206 69.7219V72.7245H237.481V73.4609H232.457V65.8223H237.481V66.5682H233.206Z" fill="#1D1D1D"/>
<path d="M244.581 66.5682H241.444V73.4609H240.685V66.5682H237.558V65.8223H244.581V66.5682Z" fill="#1D1D1D"/>
<path d="M245.811 66.5682V68.9949H249.41V69.7408L245.811 69.7219V72.7245H250.085V73.4609H245.061V65.8223H250.085V66.5682H245.811Z" fill="#1D1D1D"/>
<path d="M253.854 65.6712C252.966 65.6712 252.18 65.0197 252.18 64H252.781C252.781 64.4815 253.114 65.067 253.854 65.067C254.585 65.067 254.909 64.4815 254.909 64H255.51C255.51 65.0197 254.733 65.6712 253.854 65.6712ZM256.001 65.8223H257V73.4609H256.241V66.7099L251.68 73.4609H250.699V65.8223H251.458V72.5734L256.001 65.8223Z" fill="#1D1D1D"/>
</svg>
